<svg xmlns="http://www.w3.org/2000/svg" width="77.248" height="65" viewBox="0 0 77.248 65">
  <g id="footer_australia" transform="translate(1723.573 -151.856)">
    <path id="Path_16103" data-name="Path 16103" d="M-1644.621,283.931c-1-.014-1.992-.03-2.985.008-.495.019-.626-.133-.617-.623.03-1.766.013-3.533.011-5.3,0-1.329-.415-1.747-1.734-1.75-1.381,0-2.763,0-4.291,0,.176-.2.249-.288.325-.372q2.717-3.027,5.435-6.053,2.467-2.75,4.932-5.5a1.287,1.287,0,0,0,.346-1.366,1.283,1.283,0,0,0-1.19-.87c-.346-.034-.7-.046-1.043-.052a33.472,33.472,0,0,0-9.863,1.33c-.328.094-.612.206-.955-.087a14.766,14.766,0,0,0-4.855-2.693c-.461-.159-.455-.3-.238-.659.768-1.276,1.441-2.616,2.283-3.839,1.177-1.71.675-2.781-1.553-2.871a35.043,35.043,0,0,0-15.015,2.527c-.471.195-.672.094-.934-.312a38.287,38.287,0,0,0-7.426-8.517,32.555,32.555,0,0,0-15.412-7.515c-1.573-.284-2.231.406-1.874,1.947.326,1.4.643,2.807.961,4.211.226,1,.447,1.992.684,3.049-.2-.044-.27-.055-.34-.077a30.111,30.111,0,0,0-7.79-1.567c-1.727-.075-2.149.448-1.895,2.137.2,1.3.361,2.61.522,3.917.113.923.1.912-.8.75a33.679,33.679,0,0,0-7.948-.484,2.063,2.063,0,0,0-1.693.833v.9c.171.463.194.96.367,1.43q3.449,9.384,6.893,18.771c.254.694.226.745-.431.8-1.5.12-1.953.608-1.958,2.129-.006,1.617-.016,3.234.006,4.851.008.578-.206.8-.786.789-.92-.024-1.841-.018-2.761,0a1.213,1.213,0,0,0-1.331.946v.9a1.963,1.963,0,0,0,1.9.857q36.316-.019,72.633-.011c.149,0,.3,0,.448,0,.9-.037,1.45-.511,1.465-1.26C-1643.113,284.442-1643.674,283.944-1644.621,283.931Zm-3.448-19.228c.222,0,.51-.232.615.177q-4.883,5.442-9.758,10.892a1.372,1.372,0,0,1-1.148.5q-4.776-.031-9.553,0c-.479,0-.6-.186-.734-.59a1.861,1.861,0,0,1,.673-2.184A32.447,32.447,0,0,1-1648.069,264.7Zm-10.714-.144a44.633,44.633,0,0,0-7.682,4.151c.375-.651.747-1.3,1.126-1.952.7-1.2,1.42-2.387,2.1-3.6.2-.361.391-.483.81-.333A15.56,15.56,0,0,1-1658.782,264.558Zm-15.892-6.357c.2-.368.942-.457,1.454-.636a32.116,32.116,0,0,1,11.38-1.8l-8.237,14.044a60.867,60.867,0,0,0-3.989-10.145C-1674.312,259.177-1674.918,258.648-1674.674,258.2Zm-8.317-6.864a45.215,45.215,0,0,1,9.987,17.6c.714,2.2,1.266,4.437,1.787,6.686.121.525,0,.658-.548.657q-9.144-.029-18.289,0c-.5,0-.656-.154-.765-.634q-3.747-16.445-7.53-32.882c-.038-.163-.053-.332-.095-.6A31.45,31.45,0,0,1-1682.991,251.337Zm-23.452-1.7a37.376,37.376,0,0,1,7.2,1.835.586.586,0,0,1,.4.481c1.841,8.076,3.686,16.152,5.55,24.316-3.331,0-6.561,0-9.791.007-.354,0-.465-.133-.508-.467q-.963-7.464-1.947-14.927c-.467-3.571-.917-7.145-1.412-10.713C-1707.017,249.653-1706.913,249.572-1706.442,249.634Zm-9.824,6.884c-.249-.669-.081-.759.558-.74a36.991,36.991,0,0,1,6.436.719.756.756,0,0,1,.713.758q.752,5.878,1.528,11.752c.274,2.094.54,4.189.828,6.281.135.981.155.979-.8.979h-.6c-1.387,0-1.389,0-1.879-1.33Q-1712.867,265.724-1716.267,256.517Zm65.529,23.082c-.07,1.215-.056,2.438,0,3.655.025.591-.186.757-.717.675a1.491,1.491,0,0,0-.224,0q-29.665,0-59.329.015c-.713,0-1.007-.108-.949-.91a29.535,29.535,0,0,0,.005-3.505c-.03-.621.194-.724.754-.723q14.926.024,29.851.011,14.888,0,29.776-.013C-1650.953,278.8-1650.7,278.894-1650.738,279.6Z" transform="translate(-3.202 -70.035)" fill="#2f88f7"/>
    <path id="Path_16104" data-name="Path 16104" d="M-1530.111,171.648a1.26,1.26,0,0,1-.66,1.088,1.082,1.082,0,0,1-1.263-.031,13.747,13.747,0,0,1-2.2-2.2,1.121,1.121,0,0,1,.15-1.556,1.117,1.117,0,0,1,1.551-.189,14.885,14.885,0,0,1,2.212,2.189A.954.954,0,0,1-1530.111,171.648Z" transform="translate(-151.356 -13.344)" fill="#001d3b"/>
    <path id="Path_16105" data-name="Path 16105" d="M-1458.99,245.228c-.8.006-3.088-2.274-3.075-3.073a1.2,1.2,0,0,1,.716-1.134,1.15,1.15,0,0,1,1.329.154q1.037.964,2,2a1.15,1.15,0,0,1,.158,1.328A1.226,1.226,0,0,1-1458.99,245.228Z" transform="translate(-209.323 -71.26)" fill="#001d3b"/>
    <path id="Path_16106" data-name="Path 16106" d="M-1446.49,211.732c-.421,0-.843.019-1.263,0a1.225,1.225,0,0,1-1.225-1.153,1.225,1.225,0,0,1,1.1-1.349,22.729,22.729,0,0,1,2.82-.008,1.23,1.23,0,0,1,1.154,1.307,1.229,1.229,0,0,1-1.251,1.2C-1445.6,211.751-1446.044,211.733-1446.49,211.732Z" transform="translate(-219.796 -45.882)" fill="#001d3b"/>
    <path id="Path_16107" data-name="Path 16107" d="M-1491.275,256.6c0,.421.019.843,0,1.263a1.229,1.229,0,0,1-1.206,1.249,1.212,1.212,0,0,1-1.293-1.083,21.857,21.857,0,0,1,0-2.893,1.223,1.223,0,0,1,1.351-1.1,1.225,1.225,0,0,1,1.151,1.226C-1491.255,255.711-1491.275,256.158-1491.275,256.6Z" transform="translate(-183.899 -81.79)" fill="#001d3b"/>
    <path id="Path_16108" data-name="Path 16108" d="M-1457.8,169.91c0,.78-2.286,3.062-3.068,3.061a1.2,1.2,0,0,1-1.135-.7,1.13,1.13,0,0,1,.129-1.324c.653-.709,1.337-1.393,2.047-2.044a1.118,1.118,0,0,1,1.319-.128A1.266,1.266,0,0,1-1457.8,169.91Z" transform="translate(-209.251 -13.418)" fill="#001d3b"/>
    <path id="Path_16109" data-name="Path 16109" d="M-1529.991,242.106a1.366,1.366,0,0,1-.433,1.033c-.56.56-1.107,1.133-1.681,1.678a1.271,1.271,0,0,1-1.855.052,1.259,1.259,0,0,1,.068-1.848q.871-.913,1.788-1.781a1.194,1.194,0,0,1,1.382-.208A1.209,1.209,0,0,1-1529.991,242.106Z" transform="translate(-151.477 -71.276)" fill="#001d3b"/>
    <path id="Path_16110" data-name="Path 16110" d="M-1491.268,154.4c0,.423.017.847,0,1.269a1.235,1.235,0,0,1-1.207,1.261,1.2,1.2,0,0,1-1.3-1.088,21.6,21.6,0,0,1,0-2.907,1.209,1.209,0,0,1,1.3-1.082,1.238,1.238,0,0,1,1.19,1.2c.027.446.005.9.005,1.343Z" transform="translate(-183.904)" fill="#001d3b"/>
    <path id="Path_16111" data-name="Path 16111" d="M-1548.661,211.73c-.423,0-.847.019-1.269,0a1.251,1.251,0,0,1-1.237-1.238,1.224,1.224,0,0,1,1.13-1.269,22.372,22.372,0,0,1,2.833,0,1.211,1.211,0,0,1,1.113,1.346,1.219,1.219,0,0,1-1.227,1.16C-1547.765,211.75-1548.214,211.73-1548.661,211.73Z" transform="translate(-138.001 -45.88)" fill="#001d3b"/>
    <path id="Path_16112" data-name="Path 16112" d="M-1648.621,285.931c-1-.014-1.992-.03-2.985.008-.495.019-.626-.133-.617-.623.03-1.766.013-3.533.011-5.3,0-1.329-.415-1.747-1.734-1.75-1.381,0-2.763,0-4.291,0,.176-.2.249-.288.325-.372q2.717-3.027,5.435-6.053,2.467-2.75,4.932-5.5a1.287,1.287,0,0,0,.346-1.366,1.283,1.283,0,0,0-1.19-.87c-.346-.034-.7-.046-1.043-.052a33.472,33.472,0,0,0-9.863,1.33c-.328.094-.612.206-.955-.087a14.765,14.765,0,0,0-4.855-2.693c-.461-.159-.455-.3-.238-.659.768-1.276,1.441-2.616,2.283-3.839,1.177-1.71.675-2.781-1.553-2.871a35.042,35.042,0,0,0-15.015,2.527c-.471.195-.672.094-.934-.312a38.287,38.287,0,0,0-7.426-8.517,32.555,32.555,0,0,0-15.412-7.515c-1.573-.284-2.231.406-1.874,1.947.326,1.4.643,2.807.961,4.211.226,1,.447,1.992.684,3.049-.2-.044-.27-.055-.34-.077a30.109,30.109,0,0,0-7.79-1.567c-1.727-.075-2.149.448-1.895,2.137.2,1.3.361,2.61.522,3.917.113.923.1.912-.8.75a33.679,33.679,0,0,0-7.948-.484,2.063,2.063,0,0,0-1.693.833v.9c.171.463.194.96.367,1.43q3.449,9.384,6.893,18.771c.254.694.226.745-.431.8-1.5.12-1.953.608-1.958,2.129-.005,1.617-.016,3.234.006,4.851.008.578-.206.8-.786.789-.92-.024-1.841-.018-2.761,0a1.213,1.213,0,0,0-1.331.946v.9a1.963,1.963,0,0,0,1.9.857q36.316-.019,72.633-.011c.149,0,.3,0,.448,0,.9-.037,1.45-.511,1.465-1.26C-1647.113,286.442-1647.674,285.944-1648.621,285.931Zm-3.448-19.228c.222,0,.51-.232.615.177q-4.883,5.442-9.758,10.892a1.372,1.372,0,0,1-1.148.5q-4.776-.031-9.553,0c-.479,0-.6-.186-.734-.59a1.861,1.861,0,0,1,.673-2.184A32.447,32.447,0,0,1-1652.069,266.7Zm-10.714-.144a44.633,44.633,0,0,0-7.682,4.151c.375-.651.747-1.3,1.126-1.952.7-1.2,1.42-2.387,2.1-3.6.2-.361.391-.483.81-.333A15.56,15.56,0,0,1-1662.782,266.558Zm-15.892-6.357c.2-.368.942-.457,1.454-.636a32.116,32.116,0,0,1,11.38-1.8l-8.237,14.044a60.867,60.867,0,0,0-3.989-10.145C-1678.312,261.177-1678.918,260.648-1678.674,260.2Zm-8.317-6.864a45.215,45.215,0,0,1,9.987,17.6c.714,2.2,1.266,4.437,1.787,6.686.121.525,0,.658-.548.657q-9.144-.029-18.289,0c-.5,0-.656-.154-.765-.634q-3.747-16.445-7.53-32.882c-.038-.163-.053-.332-.095-.6A31.45,31.45,0,0,1-1686.991,253.337Zm-23.452-1.7a37.372,37.372,0,0,1,7.2,1.835.586.586,0,0,1,.4.481c1.841,8.076,3.686,16.152,5.55,24.316-3.331,0-6.561,0-9.791.007-.354,0-.465-.133-.508-.467q-.963-7.464-1.947-14.927c-.467-3.571-.917-7.145-1.412-10.713C-1711.017,251.653-1710.913,251.572-1710.442,251.634Zm-9.824,6.884c-.249-.669-.081-.759.558-.74a36.992,36.992,0,0,1,6.436.719.756.756,0,0,1,.713.758q.752,5.878,1.528,11.752c.274,2.094.54,4.189.828,6.281.135.981.155.979-.8.979h-.6c-1.387,0-1.389,0-1.879-1.33Q-1716.867,267.724-1720.267,258.517Zm65.529,23.082c-.07,1.215-.056,2.438,0,3.655.025.591-.186.757-.717.675a1.49,1.49,0,0,0-.223,0q-29.665,0-59.329.015c-.713,0-1.007-.108-.949-.91a29.535,29.535,0,0,0,.005-3.505c-.03-.621.194-.724.754-.723q14.926.024,29.851.011,14.888,0,29.776-.013C-1654.953,280.8-1654.7,280.894-1654.738,281.6Z" transform="translate(0 -71.636)" fill="#001d3b"/>
    <path id="Path_16113" data-name="Path 16113" d="M-1364.637,368.094c-.142-.277-.43-.047-.615-.177a.737.737,0,0,1,.55-.112C-1364.427,367.827-1364.424,367.945-1364.637,368.094Z" transform="translate(-286.817 -172.85)" fill="#001d3b"/>
    <path id="Path_16114" data-name="Path 16114" d="M-1512.884,183.747a6.405,6.405,0,0,0-6.378,6.42,6.37,6.37,0,0,0,6.4,6.309,6.336,6.336,0,0,0,6.327-6.37A6.364,6.364,0,0,0-1512.884,183.747Zm-.041,10.181a3.822,3.822,0,0,1-3.793-3.806,3.86,3.86,0,0,1,3.86-3.83,3.814,3.814,0,0,1,3.774,3.823A3.781,3.781,0,0,1-1512.925,193.928Z" transform="translate(-163.54 -25.527)" fill="#001d3b"/>
  </g>
</svg>
