<svg id="awards_4" data-name="awards 4" xmlns="http://www.w3.org/2000/svg" xmlns:xlink="http://www.w3.org/1999/xlink" width="116.486" height="114.191" viewBox="0 0 116.486 114.191">
  <defs>
    <linearGradient id="linear-gradient" x1="0.5" y1="0.161" x2="0.5" y2="1.241" gradientUnits="objectBoundingBox">
      <stop offset="0" stop-color="#f7da64"/>
      <stop offset="1" stop-color="#f37934"/>
    </linearGradient>
  </defs>
  <path id="Path_16062" data-name="Path 16062" d="M-32.905,0V-7.1l3.193,4.4,3.132-4.4V0h-.871V-3.178q0-.313.008-.684t.053-.844a8.379,8.379,0,0,1-.462.737q-.225.317-.409.584l-1.482,2.1-1.528-2.1q-.191-.267-.409-.584t-.462-.737q.046.474.053.844t.008.684V0Zm10.224.092A2.367,2.367,0,0,1-23.9-.229a2.429,2.429,0,0,1-.875-.863,2.291,2.291,0,0,1-.325-1.2,2.285,2.285,0,0,1,.325-1.2,2.439,2.439,0,0,1,.875-.859,2.367,2.367,0,0,1,1.215-.321,2.361,2.361,0,0,1,1.218.321,2.449,2.449,0,0,1,.871.859,2.285,2.285,0,0,1,.325,1.2,2.291,2.291,0,0,1-.325,1.2,2.439,2.439,0,0,1-.871.863A2.361,2.361,0,0,1-22.681.092Zm0-.779a1.517,1.517,0,0,0,.8-.218,1.646,1.646,0,0,0,.573-.581,1.557,1.557,0,0,0,.214-.806,1.557,1.557,0,0,0-.214-.806,1.646,1.646,0,0,0-.573-.581,1.517,1.517,0,0,0-.8-.218,1.517,1.517,0,0,0-.8.218,1.646,1.646,0,0,0-.573.581,1.557,1.557,0,0,0-.214.806,1.557,1.557,0,0,0,.214.806,1.646,1.646,0,0,0,.573.581A1.517,1.517,0,0,0-22.681-.687Zm4.854.779a2.385,2.385,0,0,1-.752-.134,1.633,1.633,0,0,1-.691-.447l.229-.9a1.66,1.66,0,0,0,.55.569,1.331,1.331,0,0,0,.718.21.757.757,0,0,0,.55-.18.591.591,0,0,0,.183-.439.5.5,0,0,0-.195-.435,1.465,1.465,0,0,0-.348-.191l-.619-.237a3.714,3.714,0,0,1-.4-.2,1.259,1.259,0,0,1-.413-.386,1.125,1.125,0,0,1-.176-.657,1.325,1.325,0,0,1,.176-.672,1.281,1.281,0,0,1,.5-.485,1.524,1.524,0,0,1,.756-.18,2.311,2.311,0,0,1,.718.122,1.432,1.432,0,0,1,.634.412l-.229.9a1.434,1.434,0,0,0-.5-.535,1.2,1.2,0,0,0-.649-.2.674.674,0,0,0-.493.176.551.551,0,0,0-.18.4.5.5,0,0,0,.122.328.864.864,0,0,0,.367.237l.619.237a3.056,3.056,0,0,1,.416.2,1.373,1.373,0,0,1,.439.4,1.162,1.162,0,0,1,.191.7,1.272,1.272,0,0,1-.432,1A1.582,1.582,0,0,1-17.828.092ZM-14.471,0V-3.9H-15.51v-.687h1.062V-6.111h.779v1.528h1.138V-3.9h-1.115V0Zm5.644,0V-6.875h1.7a2.856,2.856,0,0,1,1.15.206,2.122,2.122,0,0,1,.76.539,2.156,2.156,0,0,1,.424.722,2.345,2.345,0,0,1,.134.764,2.386,2.386,0,0,1-.13.756,2.143,2.143,0,0,1-.42.726,2.093,2.093,0,0,1-.764.542,2.884,2.884,0,0,1-1.153.206h-.833V0Zm.871-3.193h.787a1.88,1.88,0,0,0,.978-.218,1.259,1.259,0,0,0,.512-.55,1.62,1.62,0,0,0,.153-.684,1.647,1.647,0,0,0-.149-.672,1.257,1.257,0,0,0-.5-.558A1.867,1.867,0,0,0-7.17-6.1h-.787ZM-3.447,0V-4.583h.764v.84a1.854,1.854,0,0,1,.649-.645,1.85,1.85,0,0,1,.963-.241l.206.825A1.118,1.118,0,0,0-1.2-3.85a1.359,1.359,0,0,0-1.031.409,1.622,1.622,0,0,0-.39,1.165V0ZM2.041.092A2.367,2.367,0,0,1,.827-.229a2.429,2.429,0,0,1-.875-.863,2.291,2.291,0,0,1-.325-1.2,2.285,2.285,0,0,1,.325-1.2,2.439,2.439,0,0,1,.875-.859,2.367,2.367,0,0,1,1.215-.321,2.361,2.361,0,0,1,1.218.321,2.449,2.449,0,0,1,.871.859,2.285,2.285,0,0,1,.325,1.2,2.291,2.291,0,0,1-.325,1.2,2.439,2.439,0,0,1-.871.863A2.361,2.361,0,0,1,2.041.092Zm0-.779a1.517,1.517,0,0,0,.8-.218,1.646,1.646,0,0,0,.573-.581,1.557,1.557,0,0,0,.214-.806A1.557,1.557,0,0,0,3.416-3.1a1.646,1.646,0,0,0-.573-.581,1.517,1.517,0,0,0-.8-.218,1.517,1.517,0,0,0-.8.218A1.646,1.646,0,0,0,.666-3.1a1.557,1.557,0,0,0-.214.806,1.557,1.557,0,0,0,.214.806,1.646,1.646,0,0,0,.573.581A1.517,1.517,0,0,0,2.041-.687ZM5.711,0V-4.583h.764v.657a1.606,1.606,0,0,1,.638-.561,1.841,1.841,0,0,1,.814-.187,1.724,1.724,0,0,1,.856.218,1.685,1.685,0,0,1,.626.607,1.7,1.7,0,0,1,.691-.619,2.026,2.026,0,0,1,.9-.206,1.9,1.9,0,0,1,.951.244,1.827,1.827,0,0,1,.688.684,2.02,2.02,0,0,1,.256,1.035V0h-.825V-2.613a1.224,1.224,0,0,0-.355-.951,1.181,1.181,0,0,0-.821-.325,1.286,1.286,0,0,0-.561.13,1.056,1.056,0,0,0-.443.4,1.338,1.338,0,0,0-.172.718V0H8.889V-2.613a1.363,1.363,0,0,0-.172-.718,1.122,1.122,0,0,0-.443-.424A1.2,1.2,0,0,0,7.712-3.9a1.27,1.27,0,0,0-.554.13,1.08,1.08,0,0,0-.447.4,1.331,1.331,0,0,0-.176.726V0Zm8.666,0V-4.583H15.2V0Zm.412-5.408a.53.53,0,0,1-.39-.16.53.53,0,0,1-.16-.39.527.527,0,0,1,.16-.393.537.537,0,0,1,.39-.157.534.534,0,0,1,.393.157.534.534,0,0,1,.157.393.537.537,0,0,1-.157.39A.527.527,0,0,1,14.789-5.408Zm3.173,5.5a2.385,2.385,0,0,1-.752-.134,1.633,1.633,0,0,1-.691-.447l.229-.9a1.66,1.66,0,0,0,.55.569,1.331,1.331,0,0,0,.718.21.757.757,0,0,0,.55-.18.591.591,0,0,0,.183-.439.5.5,0,0,0-.195-.435,1.465,1.465,0,0,0-.348-.191l-.619-.237a3.714,3.714,0,0,1-.4-.2,1.259,1.259,0,0,1-.413-.386,1.125,1.125,0,0,1-.176-.657,1.325,1.325,0,0,1,.176-.672,1.281,1.281,0,0,1,.5-.485,1.524,1.524,0,0,1,.756-.18,2.311,2.311,0,0,1,.718.122,1.432,1.432,0,0,1,.634.412l-.229.9a1.434,1.434,0,0,0-.5-.535,1.2,1.2,0,0,0-.649-.2.674.674,0,0,0-.493.176.551.551,0,0,0-.18.4.5.5,0,0,0,.122.328.864.864,0,0,0,.367.237l.619.237a3.056,3.056,0,0,1,.416.2,1.373,1.373,0,0,1,.439.4,1.162,1.162,0,0,1,.191.7,1.272,1.272,0,0,1-.432,1A1.582,1.582,0,0,1,17.962.092ZM20.784,0V-4.583h.825V0ZM21.2-5.408a.53.53,0,0,1-.39-.16.53.53,0,0,1-.16-.39.527.527,0,0,1,.16-.393.537.537,0,0,1,.39-.157.534.534,0,0,1,.393.157.534.534,0,0,1,.157.393.537.537,0,0,1-.157.39A.527.527,0,0,1,21.2-5.408ZM23.186,0V-4.583h.764v.741a1.709,1.709,0,0,1,.653-.619,1.814,1.814,0,0,1,.867-.214,1.778,1.778,0,0,1,.905.241,1.83,1.83,0,0,1,.676.7,2.192,2.192,0,0,1,.26,1.1V0h-.825V-2.521a1.516,1.516,0,0,0-.325-.959,1.091,1.091,0,0,0-.913-.416,1.235,1.235,0,0,0-.859.348,1.3,1.3,0,0,0-.378,1V0Zm7.466,2.383a2.857,2.857,0,0,1-.959-.153,2.634,2.634,0,0,1-.768-.42l.229-.932a1.735,1.735,0,0,0,.611.535,1.82,1.82,0,0,0,.878.206,1.712,1.712,0,0,0,1.249-.466,1.6,1.6,0,0,0,.477-1.2V-.6a2.293,2.293,0,0,1-.722.485,2.223,2.223,0,0,1-.89.18,2.157,2.157,0,0,1-1.146-.317,2.373,2.373,0,0,1-.829-.852,2.322,2.322,0,0,1-.309-1.184,2.322,2.322,0,0,1,.309-1.184,2.373,2.373,0,0,1,.829-.852,2.157,2.157,0,0,1,1.146-.317,2.265,2.265,0,0,1,.89.176,2.182,2.182,0,0,1,.722.489v-.6h.764V0a2.3,2.3,0,0,1-.348,1.283,2.3,2.3,0,0,1-.913.817A2.7,2.7,0,0,1,30.652,2.383Zm.214-3.071a1.483,1.483,0,0,0,.791-.218,1.625,1.625,0,0,0,.565-.581,1.579,1.579,0,0,0,.21-.806,1.579,1.579,0,0,0-.21-.806,1.625,1.625,0,0,0-.565-.581,1.483,1.483,0,0,0-.791-.218,1.483,1.483,0,0,0-.791.218,1.625,1.625,0,0,0-.565.581,1.579,1.579,0,0,0-.21.806,1.579,1.579,0,0,0,.21.806,1.625,1.625,0,0,0,.565.581A1.483,1.483,0,0,0,30.866-.687Z" transform="translate(58.243 36.001)" fill="#fac51c"/>
  <path id="Path_16063" data-name="Path 16063" d="M-30.024-3.312v-.032a3.121,3.121,0,0,0-.233-1.264,2.563,2.563,0,0,0-.69-.92A4.231,4.231,0,0,0-32.069-6.2a11.447,11.447,0,0,0-1.516-.5q-.722-.192-1.2-.336a3.553,3.553,0,0,1-.746-.3A.946.946,0,0,1-35.9-7.7a1.008,1.008,0,0,1-.1-.472v-.032a.85.85,0,0,1,.36-.7,1.742,1.742,0,0,1,1.08-.28,3.762,3.762,0,0,1,1.44.3,8.114,8.114,0,0,1,1.472.808l1.28-1.856a6.563,6.563,0,0,0-1.9-1.056,6.7,6.7,0,0,0-2.264-.368,4.959,4.959,0,0,0-1.581.24,3.6,3.6,0,0,0-1.234.688,3.15,3.15,0,0,0-.8,1.064,3.247,3.247,0,0,0-.286,1.384v.032a3.249,3.249,0,0,0,.265,1.392,2.558,2.558,0,0,0,.746.936,4.342,4.342,0,0,0,1.171.632,14.013,14.013,0,0,0,1.54.464q.706.176,1.147.336a3.531,3.531,0,0,1,.69.32.89.89,0,0,1,.337.344.969.969,0,0,1,.088.424v.032a.881.881,0,0,1-.424.776,2.153,2.153,0,0,1-1.192.28,4.215,4.215,0,0,1-1.768-.368,7.311,7.311,0,0,1-1.576-.992l-1.456,1.744A6.648,6.648,0,0,0-36.632-.28,7.417,7.417,0,0,0-34.12.16a5.6,5.6,0,0,0,1.661-.232,3.8,3.8,0,0,0,1.29-.672,3.036,3.036,0,0,0,.842-1.088A3.465,3.465,0,0,0-30.024-3.312ZM-19.24-8.928V-11.2h-9.28v2.272h3.408V0h2.464V-8.928ZM-6.28,0l-4.8-11.28h-2.272L-18.152,0h2.512l1.024-2.512H-9.88L-8.856,0Zm-4.48-4.688h-2.976l1.488-3.632ZM5.288,0,2.552-4A3.847,3.847,0,0,0,4.288-5.256a3.512,3.512,0,0,0,.664-2.216V-7.5a3.429,3.429,0,0,0-1.112-2.72A4.563,4.563,0,0,0,.728-11.2h-5.12V0h2.464V-3.584H.008L2.408,0ZM2.456-7.344a1.462,1.462,0,0,1-.488,1.152,2.046,2.046,0,0,1-1.4.432h-2.5V-8.976H.52a2.261,2.261,0,0,1,1.424.4,1.429,1.429,0,0,1,.512,1.2Zm13.36-1.584V-11.2H6.536v2.272H9.944V0h2.464V-8.928ZM27.448-4.88V-11.2H24.984v6.416a2.824,2.824,0,0,1-.64,2.016,2.336,2.336,0,0,1-1.776.672,2.292,2.292,0,0,1-1.776-.7,2.966,2.966,0,0,1-.64-2.072V-11.2H17.688v6.4a4.947,4.947,0,0,0,1.3,3.728A4.907,4.907,0,0,0,22.536.176a6.25,6.25,0,0,0,2.032-.312A4.029,4.029,0,0,0,26.12-1.08,4.2,4.2,0,0,0,27.1-2.656,6.5,6.5,0,0,0,27.448-4.88ZM38.984-7.3v-.032a4.067,4.067,0,0,0-.3-1.576,3.459,3.459,0,0,0-.848-1.224A3.819,3.819,0,0,0,36.5-10.92a5.382,5.382,0,0,0-1.8-.28H30.12V0h2.464V-3.36h1.872a6.106,6.106,0,0,0,1.768-.248,4.2,4.2,0,0,0,1.44-.744,3.493,3.493,0,0,0,.968-1.232A3.926,3.926,0,0,0,38.984-7.3Zm-2.5.048a1.6,1.6,0,0,1-.512,1.208,2,2,0,0,1-1.44.488H32.584V-8.976h1.9a2.269,2.269,0,0,1,1.464.432,1.528,1.528,0,0,1,.536,1.264Z" transform="translate(58.243 57.001)" fill="url(#linear-gradient)"/>
  <path id="Path_16047" data-name="Path 16047" d="M66.694,115.194s-6.271-7.648-20.88-10.1C31.588,101.81,14.38,87.889,9.943,68.386c-5.125-19.35,3.518-39.543,14.532-49.027A48.336,48.336,0,0,1,45.432,7.734c.23.306-9.943,2.065-20.575,12.008C14.073,29.3,5.89,49.265,11.09,68.08c4.513,18.968,21.34,32.276,35.183,35.412a49.17,49.17,0,0,1,8.8,2.218c9.713,3.442,13.461,7.878,13.461,7.878l-1.836,1.606Z" transform="translate(-0.765 -1.003)" fill="#ffd964"/>
  <path id="Path_16048" data-name="Path 16048" d="M51.321,115.194s6.272-7.648,20.88-10.1c14.227-3.288,31.436-17.209,35.872-36.712,5.124-19.35-3.519-39.543-14.532-49.027A48.767,48.767,0,0,0,72.66,7.734C72.43,8.04,82.6,9.8,93.234,19.742,104.018,29.226,112.2,49.188,107,68c-4.513,18.969-21.416,32.277-35.183,35.413a49.084,49.084,0,0,0-8.8,2.218c-9.713,3.442-13.461,7.878-13.461,7.878l1.76,1.682ZM41.53,93.014s3.978,1.377,5.278,4.589a12.814,12.814,0,0,1,.918,7.266s-3.977-2.065-5.354-4.207c-1.759-3.06-.841-7.648-.841-7.648Zm-6.96,17.438s4.054,1.224,6.96-.535a13.222,13.222,0,0,0,5.049-5.354s-4.436-.688-6.807.306c-3.29,1.3-5.2,5.583-5.2,5.583Zm.765-20.88s3.6,1.989,4.36,5.278a13.221,13.221,0,0,1-.306,7.189s-3.518-2.677-4.436-4.971C33.653,93.855,35.335,89.572,35.335,89.572Zm-9.713,15.679s3.671,1.913,6.807.612a13.507,13.507,0,0,0,5.813-4.283s-4.207-1.377-6.578-.918c-3.442.765-6.042,4.589-6.042,4.589Zm4.13-20.115s3.136,2.524,3.29,5.89a13.276,13.276,0,0,1-1.53,6.883S28.6,94.7,28.07,92.325c-.689-3.365,1.682-7.189,1.682-7.189ZM17.744,98.6s3.212,2.448,6.5,1.759a13.426,13.426,0,0,0,6.348-3.135s-3.824-2.066-6.271-1.99C20.88,95.385,17.744,98.6,17.744,98.6Zm7.343-18.891s2.6,2.983,2.218,6.195a12.717,12.717,0,0,1-2.677,6.425s-2.3-3.6-2.371-5.966C22.1,83.07,25.087,79.706,25.087,79.706ZM11.166,90.643s2.678,2.906,5.966,2.83a12.446,12.446,0,0,0,6.654-1.989S20.5,88.807,18.126,88.5c-3.441-.382-6.96,2.142-6.96,2.142ZM21.34,73.663s1.988,3.366,1.07,6.349a12.541,12.541,0,0,1-3.671,5.736s-1.607-3.824-1.224-6.119c.382-3.289,3.824-5.966,3.824-5.966Zm-15.3,8.184s2.142,3.289,5.277,3.748a12.277,12.277,0,0,0,6.731-.765s-2.753-3.136-4.971-3.824c-3.213-1.071-7.037.841-7.037.841Zm12.7-14.837s1.377,3.594-.077,6.347a11.988,11.988,0,0,1-4.512,4.895s-.918-3.977-.153-6.118c.994-3.136,4.742-5.125,4.742-5.125ZM2.524,72.287S3.977,75.805,6.96,76.8a12.328,12.328,0,0,0,6.654.383s-2.141-3.442-4.13-4.513c-2.83-1.53-6.96-.382-6.96-.382ZM17.285,60.049s.689,3.671-1.147,6.119a11.6,11.6,0,0,1-5.2,3.977s-.154-3.977.917-5.966c1.453-2.906,5.43-4.13,5.43-4.13ZM.765,62.343s.841,3.672,3.518,5.125A11.953,11.953,0,0,0,10.631,69S9.178,65.25,7.42,63.873C4.9,61.961.766,62.343.766,62.343ZM17.056,52.86s.076,3.67-2.142,5.66a11.472,11.472,0,0,1-5.66,2.906s.536-3.9,1.836-5.584c1.989-2.37,5.966-2.983,5.966-2.983ZM.765,52.324S.918,56,3.289,57.831a11.969,11.969,0,0,0,5.889,2.524s-.765-3.824-2.218-5.43C4.818,52.63.765,52.324.765,52.324Zm17.361-6.731s-.535,3.519-3.06,5.125A10.935,10.935,0,0,1,9.1,52.553s1.147-3.67,2.753-5.124C14.149,45.44,18.126,45.593,18.126,45.593ZM2.447,42.305s-.459,3.594,1.53,5.736a11.069,11.069,0,0,0,5.2,3.442s-.076-3.825-1.223-5.66C6.348,43.223,2.447,42.305,2.447,42.305Zm17.975-3.9S19.274,41.693,16.6,42.84a11.173,11.173,0,0,1-6.119.765S12.238,40.24,14,39.169C16.6,37.639,20.422,38.4,20.422,38.4ZM5.813,32.591s-.994,3.365.459,5.813a10.946,10.946,0,0,0,4.436,4.206s.535-3.747-.23-5.66c-1.07-2.753-4.665-4.359-4.665-4.359Zm18.127-.765s-1.683,2.983-4.437,3.6a10.946,10.946,0,0,1-6.042-.306s2.218-2.906,4.13-3.671c2.753-1.071,6.348.382,6.348.382ZM10.86,23.719s-1.53,3.06-.535,5.66a10.909,10.909,0,0,0,3.6,4.818s1.147-3.518.765-5.507c-.612-2.83-3.824-4.971-3.824-4.971ZM28.6,25.937s-2.142,2.6-4.9,2.753a10.639,10.639,0,0,1-5.736-1.3s2.677-2.447,4.665-2.83c2.754-.612,5.966,1.377,5.966,1.377ZM17.362,15.917s-2.065,2.677-1.453,5.43a10.821,10.821,0,0,0,2.677,5.278s1.759-3.136,1.682-5.2c-.23-2.907-2.906-5.508-2.906-5.508Zm16.827,5.125s-2.524,2.141-5.2,1.835a10.838,10.838,0,0,1-5.354-2.217s2.983-1.913,4.971-1.99C31.435,18.518,34.189,21.042,34.189,21.042ZM25.01,9.416s-2.447,2.218-2.37,4.972A10.222,10.222,0,0,0,24.322,19.9s2.218-2.754,2.448-4.742c.459-2.754-1.76-5.737-1.76-5.737Zm15.45,7.725s-2.754,1.683-5.278.842a10.335,10.335,0,0,1-4.742-3.06s3.213-1.3,5.125-1.07c2.677.458,4.9,3.288,4.9,3.288ZM33.653,4.368s-2.753,1.76-3.136,4.36a10.673,10.673,0,0,0,.688,5.66s2.6-2.3,3.213-4.13c.765-2.6-.765-5.89-.765-5.89Zm13.614,10.1s-2.983,1.147-5.277-.076a9.964,9.964,0,0,1-4.054-3.748s3.289-.765,5.124-.153C45.584,11.328,47.267,14.464,47.267,14.464ZM42.831,1s-2.906,1.224-3.748,3.671a9.5,9.5,0,0,0-.306,5.507s2.907-1.76,3.825-3.442C43.825,4.445,42.831,1,42.831,1Zm.153,7.572a5.778,5.778,0,0,0,4.13.535,7.712,7.712,0,0,0,3.6-2.447,10.8,10.8,0,0,0-3.977-.689,7.053,7.053,0,0,0-3.748,2.6Z" transform="translate(-0.765 -1.003)" fill="#ffd964"/>
  <path id="Path_16049" data-name="Path 16049" d="M76.484,93.014s-3.977,1.377-5.277,4.589a12.814,12.814,0,0,0-.918,7.266s3.977-2.065,5.354-4.207c1.76-3.06.841-7.648.841-7.648Zm6.961,17.438s-4.054,1.224-6.96-.535a13.222,13.222,0,0,1-5.049-5.354s4.437-.688,6.808.306c3.288,1.3,5.2,5.583,5.2,5.583Zm-.765-20.88s-3.6,1.989-4.36,5.278a13.221,13.221,0,0,0,.306,7.189s3.518-2.677,4.436-4.972c1.3-3.212-.382-7.5-.382-7.5Zm9.713,15.679s-3.671,1.913-6.807.612a13.507,13.507,0,0,1-5.813-4.283s4.207-1.377,6.578-.918C89.792,101.427,92.393,105.251,92.393,105.251Zm-4.13-20.115s-3.136,2.524-3.289,5.89a13.265,13.265,0,0,0,1.53,6.883s2.906-3.213,3.442-5.584c.688-3.365-1.683-7.19-1.683-7.19ZM100.271,98.6s-3.212,2.448-6.5,1.759a13.444,13.444,0,0,1-6.35-3.135s3.825-2.066,6.2-1.99C97.135,95.385,100.271,98.6,100.271,98.6ZM93,79.706s-2.6,2.983-2.218,6.195a12.707,12.707,0,0,0,2.677,6.425s2.294-3.6,2.37-5.966C95.911,83.07,93,79.706,93,79.706Zm13.92,10.937s-2.677,2.906-5.966,2.83a12.45,12.45,0,0,1-6.654-1.989s3.289-2.677,5.66-2.983c3.365-.382,6.96,2.142,6.96,2.142ZM96.753,73.663s-1.989,3.366-1.071,6.349a12.541,12.541,0,0,0,3.671,5.736s1.606-3.824,1.224-6.119c-.459-3.289-3.824-5.966-3.824-5.966Zm15.3,8.184s-2.142,3.289-5.278,3.748a12.272,12.272,0,0,1-6.73-.765s2.753-3.136,4.971-3.824c3.136-1.071,7.037.841,7.037.841ZM99.353,67.01s-1.376,3.594.077,6.347a11.987,11.987,0,0,0,4.513,4.895s.917-3.977.153-6.118c-1-3.136-4.743-5.125-4.743-5.125Zm16.139,5.277s-1.454,3.518-4.436,4.512a12.331,12.331,0,0,1-6.655.383s2.142-3.442,4.131-4.513C111.361,71.139,115.492,72.287,115.492,72.287ZM100.73,60.049s-.688,3.671,1.147,6.119a11.608,11.608,0,0,0,5.2,3.977s.153-3.977-.918-5.966c-1.453-2.906-5.43-4.13-5.43-4.13Zm16.521,2.294s-.842,3.672-3.519,5.125A11.953,11.953,0,0,1,107.384,69s1.453-3.748,3.213-5.125c2.524-1.912,6.654-1.53,6.654-1.53ZM100.959,52.86s-.076,3.67,2.142,5.66a11.472,11.472,0,0,0,5.66,2.906s-.536-3.9-1.836-5.584c-1.912-2.37-5.966-2.983-5.966-2.983Zm16.292-.536S117.1,56,114.727,57.831a11.974,11.974,0,0,1-5.89,2.524s.765-3.824,2.218-5.43c2.142-2.3,6.2-2.6,6.2-2.6ZM99.889,45.593s.535,3.519,3.059,5.125a10.944,10.944,0,0,0,5.966,1.836s-1.147-3.672-2.754-5.125c-2.218-1.989-6.271-1.836-6.271-1.836Zm15.679-3.288s.459,3.594-1.53,5.736a11.458,11.458,0,0,1-5.2,3.442s.077-3.825,1.224-5.66c1.683-2.6,5.507-3.518,5.507-3.518Zm-17.9-3.9s1.148,3.289,3.825,4.436a11.17,11.17,0,0,0,6.118.765s-1.759-3.366-3.518-4.436c-2.6-1.53-6.425-.765-6.425-.765ZM112.2,32.591s.994,3.365-.459,5.813a10.953,10.953,0,0,1-4.436,4.206s-.536-3.747.229-5.66C108.608,34.2,112.2,32.591,112.2,32.591Zm-18.127-.765s1.682,2.983,4.436,3.6a10.946,10.946,0,0,0,6.042-.306s-2.218-2.906-4.13-3.671c-2.754-1.071-6.348.382-6.348.382Zm13.079-8.107s1.606,3.06.535,5.66a10.917,10.917,0,0,1-3.6,4.818s-1.147-3.518-.765-5.507c.689-2.83,3.825-4.971,3.825-4.971ZM89.41,25.937s2.142,2.6,4.895,2.753a10.645,10.645,0,0,0,5.737-1.3s-2.677-2.447-4.666-2.83c-2.754-.612-5.966,1.377-5.966,1.377Zm11.243-10.02s2.066,2.677,1.454,5.43a10.831,10.831,0,0,1-2.677,5.278s-1.76-3.136-1.683-5.2C97.977,18.518,100.653,15.917,100.653,15.917ZM83.9,21.042s2.524,2.141,5.2,1.835a10.834,10.834,0,0,0,5.354-2.218s-2.983-1.912-4.971-1.988c-2.907-.153-5.584,2.37-5.584,2.37ZM93,9.416s2.448,2.218,2.371,4.972A10.218,10.218,0,0,1,93.693,19.9s-2.218-2.754-2.447-4.742c-.382-2.754,1.76-5.737,1.76-5.737Zm-15.45,7.725s2.754,1.683,5.278.842a10.328,10.328,0,0,0,4.742-3.06s-3.213-1.3-5.125-1.07c-2.677.458-4.895,3.288-4.895,3.288ZM84.362,4.368s2.754,1.76,3.136,4.36a10.661,10.661,0,0,1-.688,5.66s-2.6-2.3-3.213-4.13c-.764-2.6.765-5.89.765-5.89Zm-13.537,10.1s2.983,1.147,5.277-.076a9.964,9.964,0,0,0,4.054-3.748s-3.289-.765-5.125-.153C72.431,11.328,70.825,14.464,70.825,14.464ZM75.184,1s2.907,1.224,3.748,3.671a9.491,9.491,0,0,1,.306,5.507s-2.906-1.76-3.824-3.442C74.267,4.445,75.184,1,75.184,1Zm-.076,7.572a5.779,5.779,0,0,1-4.13.535,7.619,7.619,0,0,1-3.672-2.447s2.524-.995,3.977-.689a7.4,7.4,0,0,1,3.825,2.6Z" transform="translate(-0.765 -1.003)" fill="#ffd964"/>
  <path id="Polygon_3" data-name="Polygon 3" d="M6.057.843a.5.5,0,0,1,.885,0L8.43,3.675a.5.5,0,0,0,.367.262l3.21.494a.5.5,0,0,1,.272.853L10,7.5a.5.5,0,0,0-.145.439l.506,3.1a.5.5,0,0,1-.715.529L6.722,10.124a.5.5,0,0,0-.443,0L3.354,11.569a.5.5,0,0,1-.715-.529l.506-3.1A.5.5,0,0,0,3,7.5L.721,5.284a.5.5,0,0,1,.272-.853L4.2,3.937a.5.5,0,0,0,.367-.262Z" transform="translate(51.243 66.001)" fill="url(#linear-gradient)"/>
  <path id="Polygon_4" data-name="Polygon 4" d="M4.061.8a.5.5,0,0,1,.878,0L5.8,2.38a.5.5,0,0,0,.366.255L7.975,2.9a.5.5,0,0,1,.268.86L6.99,4.935a.5.5,0,0,0-.152.449l.282,1.668a.5.5,0,0,1-.708.535l-1.7-.808a.5.5,0,0,0-.43,0l-1.7.808a.5.5,0,0,1-.708-.535l.282-1.668a.5.5,0,0,0-.152-.449L.757,3.764a.5.5,0,0,1,.268-.86l1.811-.268A.5.5,0,0,0,3.2,2.38Z" transform="translate(38.243 68.001)" fill="url(#linear-gradient)"/>
  <path id="Polygon_5" data-name="Polygon 5" d="M4.061.8a.5.5,0,0,1,.878,0L5.8,2.38a.5.5,0,0,0,.366.255L7.975,2.9a.5.5,0,0,1,.268.86L6.99,4.935a.5.5,0,0,0-.152.449l.282,1.668a.5.5,0,0,1-.708.535l-1.7-.808a.5.5,0,0,0-.43,0l-1.7.808a.5.5,0,0,1-.708-.535l.282-1.668a.5.5,0,0,0-.152-.449L.757,3.764a.5.5,0,0,1,.268-.86l1.811-.268A.5.5,0,0,0,3.2,2.38Z" transform="translate(68.243 68.001)" fill="url(#linear-gradient)"/>
</svg>
