<svg id="awards_5" data-name="awards 5" xmlns="http://www.w3.org/2000/svg" xmlns:xlink="http://www.w3.org/1999/xlink" width="116.486" height="114.191" viewBox="0 0 116.486 114.191">
  <defs>
    <linearGradient id="linear-gradient" x1="0.5" y1="0.161" x2="0.5" y2="1.241" gradientUnits="objectBoundingBox">
      <stop offset="0" stop-color="#f7da64"/>
      <stop offset="1" stop-color="#f37934"/>
    </linearGradient>
  </defs>
  <path id="Path_16064" data-name="Path 16064" d="M-23.989-7.758V-8.75h5.775v.992h-2.333V0h-1.108V-7.758ZM-16.674,0V-9.333h1.05v4.326a2.227,2.227,0,0,1,.817-.7,2.294,2.294,0,0,1,1.04-.243,2.262,2.262,0,0,1,1.152.306,2.33,2.33,0,0,1,.86.885,2.79,2.79,0,0,1,.331,1.4V0h-1.05V-3.208a1.929,1.929,0,0,0-.413-1.22,1.389,1.389,0,0,0-1.162-.53,1.572,1.572,0,0,0-1.094.442,1.65,1.65,0,0,0-.481,1.278V0Zm9.921.117A3.277,3.277,0,0,1-8.391-.292,3,3,0,0,1-9.529-1.4a3.047,3.047,0,0,1-.413-1.57,2.9,2.9,0,0,1,.4-1.5A2.994,2.994,0,0,1-8.469-5.551a2.883,2.883,0,0,1,1.492-.4A2.922,2.922,0,0,1-5.5-5.566,2.952,2.952,0,0,1-4.429-4.531a2.774,2.774,0,0,1,.4,1.478v.428H-7.842q-.253,0-.515-.019T-8.873-2.7a2.056,2.056,0,0,0,.7,1.3,2.087,2.087,0,0,0,1.424.525,2.165,2.165,0,0,0,1.031-.253A2.144,2.144,0,0,0-4.945-1.8l.292,1.2a3.164,3.164,0,0,1-.958.53A3.421,3.421,0,0,1-6.753.117ZM-8.9-3.413A6.435,6.435,0,0,1-7.842-3.5h1.935q.214,0,.423.015t.423.034a1.883,1.883,0,0,0-.681-1.123,1.905,1.905,0,0,0-1.235-.442,1.823,1.823,0,0,0-1.244.472A2.079,2.079,0,0,0-8.9-3.413ZM.887,0V-8.75h2.2A2.873,2.873,0,0,1,4.5-8.419a2.427,2.427,0,0,1,.919.87,2.243,2.243,0,0,1,.326,1.181,2.176,2.176,0,0,1-.408,1.293,2.38,2.38,0,0,1-1.118.846L7.158,0H5.864L3.084-4.025H1.995V0ZM1.995-4.958H3.084A1.794,1.794,0,0,0,4-5.167,1.34,1.34,0,0,0,4.528-5.7a1.423,1.423,0,0,0,.17-.666,1.272,1.272,0,0,0-.442-1,1.71,1.71,0,0,0-1.172-.389H1.995ZM10.681.117A3.277,3.277,0,0,1,9.043-.292,3,3,0,0,1,7.905-1.4a3.047,3.047,0,0,1-.413-1.57,2.9,2.9,0,0,1,.4-1.5A2.994,2.994,0,0,1,8.965-5.551a2.883,2.883,0,0,1,1.492-.4,2.922,2.922,0,0,1,1.478.384A2.952,2.952,0,0,1,13-4.531a2.774,2.774,0,0,1,.4,1.478v.428H9.592q-.253,0-.515-.019T8.561-2.7a2.056,2.056,0,0,0,.7,1.3,2.087,2.087,0,0,0,1.424.525,2.165,2.165,0,0,0,1.031-.253,2.144,2.144,0,0,0,.768-.671l.292,1.2a3.164,3.164,0,0,1-.958.53A3.421,3.421,0,0,1,10.681.117ZM8.532-3.413A6.435,6.435,0,0,1,9.592-3.5h1.935q.214,0,.423.015t.423.034a1.883,1.883,0,0,0-.681-1.123,1.905,1.905,0,0,0-1.235-.442,1.823,1.823,0,0,0-1.244.472A2.079,2.079,0,0,0,8.532-3.413ZM17.442.078a2.746,2.746,0,0,1-1.458-.4A3.02,3.02,0,0,1,14.928-1.41a2.955,2.955,0,0,1-.394-1.507,2.955,2.955,0,0,1,.394-1.507,3.02,3.02,0,0,1,1.055-1.084,2.746,2.746,0,0,1,1.458-.4,2.883,2.883,0,0,1,1.133.224,2.777,2.777,0,0,1,.919.622v-.768h.972V0h-.972V-.768a2.919,2.919,0,0,1-.919.617A2.83,2.83,0,0,1,17.442.078Zm.136-.953a1.888,1.888,0,0,0,1.006-.277,2.068,2.068,0,0,0,.719-.739,2.01,2.01,0,0,0,.267-1.026A2.01,2.01,0,0,0,19.3-3.942a2.068,2.068,0,0,0-.719-.739,1.888,1.888,0,0,0-1.006-.277,1.888,1.888,0,0,0-1.006.277,2.068,2.068,0,0,0-.719.739,2.01,2.01,0,0,0-.267,1.026,2.01,2.01,0,0,0,.267,1.026,2.068,2.068,0,0,0,.719.739A1.888,1.888,0,0,0,17.578-.875ZM22.472,0V-9.333h1.05V0Z" transform="translate(58.243 38.001)" fill="#fac51c"/>
  <path id="Path_16065" data-name="Path 16065" d="M-34.02-2.484v-.024a2.341,2.341,0,0,0-.174-.948,1.922,1.922,0,0,0-.517-.69,3.174,3.174,0,0,0-.842-.5,8.585,8.585,0,0,0-1.137-.378q-.542-.144-.9-.252a2.665,2.665,0,0,1-.559-.228.709.709,0,0,1-.283-.27.756.756,0,0,1-.078-.354v-.024a.638.638,0,0,1,.27-.522,1.307,1.307,0,0,1,.81-.21,2.821,2.821,0,0,1,1.08.222,6.086,6.086,0,0,1,1.1.606l.96-1.392a4.922,4.922,0,0,0-1.422-.792,5.023,5.023,0,0,0-1.7-.276,3.719,3.719,0,0,0-1.186.18,2.7,2.7,0,0,0-.925.516,2.363,2.363,0,0,0-.6.8,2.435,2.435,0,0,0-.215,1.038v.024a2.437,2.437,0,0,0,.2,1.044,1.918,1.918,0,0,0,.559.7,3.257,3.257,0,0,0,.878.474A10.509,10.509,0,0,0-37.54-3.4q.529.132.86.252a2.648,2.648,0,0,1,.517.24.668.668,0,0,1,.253.258.727.727,0,0,1,.066.318V-2.3a.661.661,0,0,1-.318.582,1.615,1.615,0,0,1-.894.21,3.161,3.161,0,0,1-1.326-.276,5.483,5.483,0,0,1-1.182-.744l-1.092,1.308A4.986,4.986,0,0,0-38.976-.21a5.563,5.563,0,0,0,1.884.33,4.2,4.2,0,0,0,1.246-.174,2.847,2.847,0,0,0,.968-.5,2.277,2.277,0,0,0,.632-.816A2.6,2.6,0,0,0-34.02-2.484ZM-25.1-3.66V-8.4h-1.848v4.812a2.118,2.118,0,0,1-.48,1.512,1.752,1.752,0,0,1-1.332.5A1.719,1.719,0,0,1-30.1-2.094a2.225,2.225,0,0,1-.48-1.554V-8.4h-1.848v4.8a3.711,3.711,0,0,0,.972,2.8,3.68,3.68,0,0,0,2.664.936A4.687,4.687,0,0,0-27.264-.1,3.022,3.022,0,0,0-26.1-.81a3.146,3.146,0,0,0,.738-1.182A4.872,4.872,0,0,0-25.1-3.66Zm8.652-1.812V-5.5a3.05,3.05,0,0,0-.222-1.182A2.594,2.594,0,0,0-17.31-7.6a2.865,2.865,0,0,0-1.008-.594,4.036,4.036,0,0,0-1.35-.21H-23.1V0h1.848V-2.52h1.4a4.579,4.579,0,0,0,1.326-.186,3.148,3.148,0,0,0,1.08-.558,2.62,2.62,0,0,0,.726-.924A2.945,2.945,0,0,0-16.452-5.472Zm-1.872.036a1.2,1.2,0,0,1-.384.906,1.5,1.5,0,0,1-1.08.366h-1.464V-6.732h1.428a1.7,1.7,0,0,1,1.1.324,1.146,1.146,0,0,1,.4.948ZM-8.58,0V-1.644h-4.56V-3.408h3.96V-5.052h-3.96v-1.7h4.5V-8.4h-6.324V0ZM.456,0-1.6-3a2.885,2.885,0,0,0,1.3-.942A2.634,2.634,0,0,0,.2-5.6v-.024A2.572,2.572,0,0,0-.63-7.668,3.422,3.422,0,0,0-2.964-8.4H-6.8V0h1.848V-2.688H-3.5L-1.7,0ZM-1.668-5.508a1.1,1.1,0,0,1-.366.864,1.535,1.535,0,0,1-1.05.324H-4.956V-6.732H-3.12a1.7,1.7,0,0,1,1.068.3,1.072,1.072,0,0,1,.384.9ZM12.816,0V-8.4H10.968v3.324H7.56V-8.4H5.712V0H7.56V-3.372h3.408V0Zm8.52,0V-1.644h-4.56V-3.408h3.96V-5.052h-3.96v-1.7h4.5V-8.4H14.952V0Zm9.036,0L28.32-3a2.885,2.885,0,0,0,1.3-.942,2.634,2.634,0,0,0,.5-1.662v-.024a2.572,2.572,0,0,0-.834-2.04A3.422,3.422,0,0,0,26.952-8.4h-3.84V0H24.96V-2.688h1.452L28.212,0ZM28.248-5.508a1.1,1.1,0,0,1-.366.864,1.535,1.535,0,0,1-1.05.324H24.96V-6.732H26.8a1.7,1.7,0,0,1,1.068.3,1.072,1.072,0,0,1,.384.9ZM40.464-4.2v-.024a4.311,4.311,0,0,0-.33-1.686,4.134,4.134,0,0,0-.924-1.368A4.446,4.446,0,0,0,37.8-8.2a4.58,4.58,0,0,0-1.788-.342,4.624,4.624,0,0,0-1.794.342,4.329,4.329,0,0,0-1.416.936,4.35,4.35,0,0,0-.93,1.38A4.244,4.244,0,0,0,31.536-4.2v.024a4.311,4.311,0,0,0,.33,1.686,4.134,4.134,0,0,0,.924,1.368A4.446,4.446,0,0,0,34.2-.2a4.58,4.58,0,0,0,1.788.342A4.624,4.624,0,0,0,37.782-.2,4.329,4.329,0,0,0,39.2-1.134a4.35,4.35,0,0,0,.93-1.38A4.244,4.244,0,0,0,40.464-4.2Zm-1.932.024a2.751,2.751,0,0,1-.186,1.014,2.658,2.658,0,0,1-.516.834,2.332,2.332,0,0,1-.8.564,2.525,2.525,0,0,1-1.02.2,2.451,2.451,0,0,1-1.026-.21,2.556,2.556,0,0,1-.8-.57,2.536,2.536,0,0,1-.528-.84,2.8,2.8,0,0,1-.186-1.02v-.024a2.751,2.751,0,0,1,.186-1.014,2.658,2.658,0,0,1,.516-.834,2.346,2.346,0,0,1,.792-.564,2.513,2.513,0,0,1,1.026-.2,2.463,2.463,0,0,1,1.02.21,2.537,2.537,0,0,1,.81.57,2.536,2.536,0,0,1,.528.84,2.8,2.8,0,0,1,.186,1.02Z" transform="translate(58.243 56.001)" fill="url(#linear-gradient)"/>
  <path id="Path_16047" data-name="Path 16047" d="M66.694,115.194s-6.271-7.648-20.88-10.1C31.588,101.81,14.38,87.889,9.943,68.386c-5.125-19.35,3.518-39.543,14.532-49.027A48.336,48.336,0,0,1,45.432,7.734c.23.306-9.943,2.065-20.575,12.008C14.073,29.3,5.89,49.265,11.09,68.08c4.513,18.968,21.34,32.276,35.183,35.412a49.17,49.17,0,0,1,8.8,2.218c9.713,3.442,13.461,7.878,13.461,7.878l-1.836,1.606Z" transform="translate(-0.765 -1.003)" fill="#ffd964"/>
  <path id="Path_16048" data-name="Path 16048" d="M51.321,115.194s6.272-7.648,20.88-10.1c14.227-3.288,31.436-17.209,35.872-36.712,5.124-19.35-3.519-39.543-14.532-49.027A48.767,48.767,0,0,0,72.66,7.734C72.43,8.04,82.6,9.8,93.234,19.742,104.018,29.226,112.2,49.188,107,68c-4.513,18.969-21.416,32.277-35.183,35.413a49.084,49.084,0,0,0-8.8,2.218c-9.713,3.442-13.461,7.878-13.461,7.878l1.76,1.682ZM41.53,93.014s3.978,1.377,5.278,4.589a12.814,12.814,0,0,1,.918,7.266s-3.977-2.065-5.354-4.207c-1.759-3.06-.841-7.648-.841-7.648Zm-6.96,17.438s4.054,1.224,6.96-.535a13.222,13.222,0,0,0,5.049-5.354s-4.436-.688-6.807.306c-3.29,1.3-5.2,5.583-5.2,5.583Zm.765-20.88s3.6,1.989,4.36,5.278a13.221,13.221,0,0,1-.306,7.189s-3.518-2.677-4.436-4.971C33.653,93.855,35.335,89.572,35.335,89.572Zm-9.713,15.679s3.671,1.913,6.807.612a13.507,13.507,0,0,0,5.813-4.283s-4.207-1.377-6.578-.918c-3.442.765-6.042,4.589-6.042,4.589Zm4.13-20.115s3.136,2.524,3.29,5.89a13.276,13.276,0,0,1-1.53,6.883S28.6,94.7,28.07,92.325c-.689-3.365,1.682-7.189,1.682-7.189ZM17.744,98.6s3.212,2.448,6.5,1.759a13.426,13.426,0,0,0,6.348-3.135s-3.824-2.066-6.271-1.99C20.88,95.385,17.744,98.6,17.744,98.6Zm7.343-18.891s2.6,2.983,2.218,6.195a12.717,12.717,0,0,1-2.677,6.425s-2.3-3.6-2.371-5.966C22.1,83.07,25.087,79.706,25.087,79.706ZM11.166,90.643s2.678,2.906,5.966,2.83a12.446,12.446,0,0,0,6.654-1.989S20.5,88.807,18.126,88.5c-3.441-.382-6.96,2.142-6.96,2.142ZM21.34,73.663s1.988,3.366,1.07,6.349a12.541,12.541,0,0,1-3.671,5.736s-1.607-3.824-1.224-6.119c.382-3.289,3.824-5.966,3.824-5.966Zm-15.3,8.184s2.142,3.289,5.277,3.748a12.277,12.277,0,0,0,6.731-.765s-2.753-3.136-4.971-3.824c-3.213-1.071-7.037.841-7.037.841Zm12.7-14.837s1.377,3.594-.077,6.347a11.988,11.988,0,0,1-4.512,4.895s-.918-3.977-.153-6.118c.994-3.136,4.742-5.125,4.742-5.125ZM2.524,72.287S3.977,75.805,6.96,76.8a12.328,12.328,0,0,0,6.654.383s-2.141-3.442-4.13-4.513c-2.83-1.53-6.96-.382-6.96-.382ZM17.285,60.049s.689,3.671-1.147,6.119a11.6,11.6,0,0,1-5.2,3.977s-.154-3.977.917-5.966c1.453-2.906,5.43-4.13,5.43-4.13ZM.765,62.343s.841,3.672,3.518,5.125A11.953,11.953,0,0,0,10.631,69S9.178,65.25,7.42,63.873C4.9,61.961.766,62.343.766,62.343ZM17.056,52.86s.076,3.67-2.142,5.66a11.472,11.472,0,0,1-5.66,2.906s.536-3.9,1.836-5.584c1.989-2.37,5.966-2.983,5.966-2.983ZM.765,52.324S.918,56,3.289,57.831a11.969,11.969,0,0,0,5.889,2.524s-.765-3.824-2.218-5.43C4.818,52.63.765,52.324.765,52.324Zm17.361-6.731s-.535,3.519-3.06,5.125A10.935,10.935,0,0,1,9.1,52.553s1.147-3.67,2.753-5.124C14.149,45.44,18.126,45.593,18.126,45.593ZM2.447,42.305s-.459,3.594,1.53,5.736a11.069,11.069,0,0,0,5.2,3.442s-.076-3.825-1.223-5.66C6.348,43.223,2.447,42.305,2.447,42.305Zm17.975-3.9S19.274,41.693,16.6,42.84a11.173,11.173,0,0,1-6.119.765S12.238,40.24,14,39.169C16.6,37.639,20.422,38.4,20.422,38.4ZM5.813,32.591s-.994,3.365.459,5.813a10.946,10.946,0,0,0,4.436,4.206s.535-3.747-.23-5.66c-1.07-2.753-4.665-4.359-4.665-4.359Zm18.127-.765s-1.683,2.983-4.437,3.6a10.946,10.946,0,0,1-6.042-.306s2.218-2.906,4.13-3.671c2.753-1.071,6.348.382,6.348.382ZM10.86,23.719s-1.53,3.06-.535,5.66a10.909,10.909,0,0,0,3.6,4.818s1.147-3.518.765-5.507c-.612-2.83-3.824-4.971-3.824-4.971ZM28.6,25.937s-2.142,2.6-4.9,2.753a10.639,10.639,0,0,1-5.736-1.3s2.677-2.447,4.665-2.83c2.754-.612,5.966,1.377,5.966,1.377ZM17.362,15.917s-2.065,2.677-1.453,5.43a10.821,10.821,0,0,0,2.677,5.278s1.759-3.136,1.682-5.2c-.23-2.907-2.906-5.508-2.906-5.508Zm16.827,5.125s-2.524,2.141-5.2,1.835a10.838,10.838,0,0,1-5.354-2.217s2.983-1.913,4.971-1.99C31.435,18.518,34.189,21.042,34.189,21.042ZM25.01,9.416s-2.447,2.218-2.37,4.972A10.222,10.222,0,0,0,24.322,19.9s2.218-2.754,2.448-4.742c.459-2.754-1.76-5.737-1.76-5.737Zm15.45,7.725s-2.754,1.683-5.278.842a10.335,10.335,0,0,1-4.742-3.06s3.213-1.3,5.125-1.07c2.677.458,4.9,3.288,4.9,3.288ZM33.653,4.368s-2.753,1.76-3.136,4.36a10.673,10.673,0,0,0,.688,5.66s2.6-2.3,3.213-4.13c.765-2.6-.765-5.89-.765-5.89Zm13.614,10.1s-2.983,1.147-5.277-.076a9.964,9.964,0,0,1-4.054-3.748s3.289-.765,5.124-.153C45.584,11.328,47.267,14.464,47.267,14.464ZM42.831,1s-2.906,1.224-3.748,3.671a9.5,9.5,0,0,0-.306,5.507s2.907-1.76,3.825-3.442C43.825,4.445,42.831,1,42.831,1Zm.153,7.572a5.778,5.778,0,0,0,4.13.535,7.712,7.712,0,0,0,3.6-2.447,10.8,10.8,0,0,0-3.977-.689,7.053,7.053,0,0,0-3.748,2.6Z" transform="translate(-0.765 -1.003)" fill="#ffd964"/>
  <path id="Path_16049" data-name="Path 16049" d="M76.484,93.014s-3.977,1.377-5.277,4.589a12.814,12.814,0,0,0-.918,7.266s3.977-2.065,5.354-4.207c1.76-3.06.841-7.648.841-7.648Zm6.961,17.438s-4.054,1.224-6.96-.535a13.222,13.222,0,0,1-5.049-5.354s4.437-.688,6.808.306c3.288,1.3,5.2,5.583,5.2,5.583Zm-.765-20.88s-3.6,1.989-4.36,5.278a13.221,13.221,0,0,0,.306,7.189s3.518-2.677,4.436-4.972c1.3-3.212-.382-7.5-.382-7.5Zm9.713,15.679s-3.671,1.913-6.807.612a13.507,13.507,0,0,1-5.813-4.283s4.207-1.377,6.578-.918C89.792,101.427,92.393,105.251,92.393,105.251Zm-4.13-20.115s-3.136,2.524-3.289,5.89a13.265,13.265,0,0,0,1.53,6.883s2.906-3.213,3.442-5.584c.688-3.365-1.683-7.19-1.683-7.19ZM100.271,98.6s-3.212,2.448-6.5,1.759a13.444,13.444,0,0,1-6.35-3.135s3.825-2.066,6.2-1.99C97.135,95.385,100.271,98.6,100.271,98.6ZM93,79.706s-2.6,2.983-2.218,6.195a12.707,12.707,0,0,0,2.677,6.425s2.294-3.6,2.37-5.966C95.911,83.07,93,79.706,93,79.706Zm13.92,10.937s-2.677,2.906-5.966,2.83a12.45,12.45,0,0,1-6.654-1.989s3.289-2.677,5.66-2.983c3.365-.382,6.96,2.142,6.96,2.142ZM96.753,73.663s-1.989,3.366-1.071,6.349a12.541,12.541,0,0,0,3.671,5.736s1.606-3.824,1.224-6.119c-.459-3.289-3.824-5.966-3.824-5.966Zm15.3,8.184s-2.142,3.289-5.278,3.748a12.272,12.272,0,0,1-6.73-.765s2.753-3.136,4.971-3.824c3.136-1.071,7.037.841,7.037.841ZM99.353,67.01s-1.376,3.594.077,6.347a11.987,11.987,0,0,0,4.513,4.895s.917-3.977.153-6.118c-1-3.136-4.743-5.125-4.743-5.125Zm16.139,5.277s-1.454,3.518-4.436,4.512a12.331,12.331,0,0,1-6.655.383s2.142-3.442,4.131-4.513C111.361,71.139,115.492,72.287,115.492,72.287ZM100.73,60.049s-.688,3.671,1.147,6.119a11.608,11.608,0,0,0,5.2,3.977s.153-3.977-.918-5.966c-1.453-2.906-5.43-4.13-5.43-4.13Zm16.521,2.294s-.842,3.672-3.519,5.125A11.953,11.953,0,0,1,107.384,69s1.453-3.748,3.213-5.125c2.524-1.912,6.654-1.53,6.654-1.53ZM100.959,52.86s-.076,3.67,2.142,5.66a11.472,11.472,0,0,0,5.66,2.906s-.536-3.9-1.836-5.584c-1.912-2.37-5.966-2.983-5.966-2.983Zm16.292-.536S117.1,56,114.727,57.831a11.974,11.974,0,0,1-5.89,2.524s.765-3.824,2.218-5.43c2.142-2.3,6.2-2.6,6.2-2.6ZM99.889,45.593s.535,3.519,3.059,5.125a10.944,10.944,0,0,0,5.966,1.836s-1.147-3.672-2.754-5.125c-2.218-1.989-6.271-1.836-6.271-1.836Zm15.679-3.288s.459,3.594-1.53,5.736a11.458,11.458,0,0,1-5.2,3.442s.077-3.825,1.224-5.66c1.683-2.6,5.507-3.518,5.507-3.518Zm-17.9-3.9s1.148,3.289,3.825,4.436a11.17,11.17,0,0,0,6.118.765s-1.759-3.366-3.518-4.436c-2.6-1.53-6.425-.765-6.425-.765ZM112.2,32.591s.994,3.365-.459,5.813a10.953,10.953,0,0,1-4.436,4.206s-.536-3.747.229-5.66C108.608,34.2,112.2,32.591,112.2,32.591Zm-18.127-.765s1.682,2.983,4.436,3.6a10.946,10.946,0,0,0,6.042-.306s-2.218-2.906-4.13-3.671c-2.754-1.071-6.348.382-6.348.382Zm13.079-8.107s1.606,3.06.535,5.66a10.917,10.917,0,0,1-3.6,4.818s-1.147-3.518-.765-5.507c.689-2.83,3.825-4.971,3.825-4.971ZM89.41,25.937s2.142,2.6,4.895,2.753a10.645,10.645,0,0,0,5.737-1.3s-2.677-2.447-4.666-2.83c-2.754-.612-5.966,1.377-5.966,1.377Zm11.243-10.02s2.066,2.677,1.454,5.43a10.831,10.831,0,0,1-2.677,5.278s-1.76-3.136-1.683-5.2C97.977,18.518,100.653,15.917,100.653,15.917ZM83.9,21.042s2.524,2.141,5.2,1.835a10.834,10.834,0,0,0,5.354-2.218s-2.983-1.912-4.971-1.988c-2.907-.153-5.584,2.37-5.584,2.37ZM93,9.416s2.448,2.218,2.371,4.972A10.218,10.218,0,0,1,93.693,19.9s-2.218-2.754-2.447-4.742c-.382-2.754,1.76-5.737,1.76-5.737Zm-15.45,7.725s2.754,1.683,5.278.842a10.328,10.328,0,0,0,4.742-3.06s-3.213-1.3-5.125-1.07c-2.677.458-4.895,3.288-4.895,3.288ZM84.362,4.368s2.754,1.76,3.136,4.36a10.661,10.661,0,0,1-.688,5.66s-2.6-2.3-3.213-4.13c-.764-2.6.765-5.89.765-5.89Zm-13.537,10.1s2.983,1.147,5.277-.076a9.964,9.964,0,0,0,4.054-3.748s-3.289-.765-5.125-.153C72.431,11.328,70.825,14.464,70.825,14.464ZM75.184,1s2.907,1.224,3.748,3.671a9.491,9.491,0,0,1,.306,5.507s-2.906-1.76-3.824-3.442C74.267,4.445,75.184,1,75.184,1Zm-.076,7.572a5.779,5.779,0,0,1-4.13.535,7.619,7.619,0,0,1-3.672-2.447s2.524-.995,3.977-.689a7.4,7.4,0,0,1,3.825,2.6Z" transform="translate(-0.765 -1.003)" fill="#ffd964"/>
  <path id="Polygon_3" data-name="Polygon 3" d="M6.057.843a.5.5,0,0,1,.885,0L8.43,3.675a.5.5,0,0,0,.367.262l3.21.494a.5.5,0,0,1,.272.853L10,7.5a.5.5,0,0,0-.145.439l.506,3.1a.5.5,0,0,1-.715.529L6.722,10.124a.5.5,0,0,0-.443,0L3.354,11.569a.5.5,0,0,1-.715-.529l.506-3.1A.5.5,0,0,0,3,7.5L.721,5.284a.5.5,0,0,1,.272-.853L4.2,3.937a.5.5,0,0,0,.367-.262Z" transform="translate(51.243 66.001)" fill="url(#linear-gradient)"/>
  <path id="Polygon_4" data-name="Polygon 4" d="M4.061.8a.5.5,0,0,1,.878,0L5.8,2.38a.5.5,0,0,0,.366.255L7.975,2.9a.5.5,0,0,1,.268.86L6.99,4.935a.5.5,0,0,0-.152.449l.282,1.668a.5.5,0,0,1-.708.535l-1.7-.808a.5.5,0,0,0-.43,0l-1.7.808a.5.5,0,0,1-.708-.535l.282-1.668a.5.5,0,0,0-.152-.449L.757,3.764a.5.5,0,0,1,.268-.86l1.811-.268A.5.5,0,0,0,3.2,2.38Z" transform="translate(38.243 68.001)" fill="url(#linear-gradient)"/>
  <path id="Polygon_5" data-name="Polygon 5" d="M4.061.8a.5.5,0,0,1,.878,0L5.8,2.38a.5.5,0,0,0,.366.255L7.975,2.9a.5.5,0,0,1,.268.86L6.99,4.935a.5.5,0,0,0-.152.449l.282,1.668a.5.5,0,0,1-.708.535l-1.7-.808a.5.5,0,0,0-.43,0l-1.7.808a.5.5,0,0,1-.708-.535l.282-1.668a.5.5,0,0,0-.152-.449L.757,3.764a.5.5,0,0,1,.268-.86l1.811-.268A.5.5,0,0,0,3.2,2.38Z" transform="translate(68.243 68.001)" fill="url(#linear-gradient)"/>
</svg>
