<svg id="awards_3" data-name="awards 3" xmlns="http://www.w3.org/2000/svg" xmlns:xlink="http://www.w3.org/1999/xlink" width="116.486" height="114.191" viewBox="0 0 116.486 114.191">
  <defs>
    <linearGradient id="linear-gradient" x1="0.5" y1="0.161" x2="0.5" y2="1.241" gradientUnits="objectBoundingBox">
      <stop offset="0" stop-color="#f7da64"/>
      <stop offset="1" stop-color="#f37934"/>
    </linearGradient>
  </defs>
  <path id="Path_16060" data-name="Path 16060" d="M-17.36-7.2v-.921H-12V-7.2h-2.167V0h-1.029V-7.2ZM-9.178.108a2.8,2.8,0,0,1-1.435-.379,2.871,2.871,0,0,1-1.034-1.02,2.708,2.708,0,0,1-.384-1.417,2.7,2.7,0,0,1,.384-1.422,2.883,2.883,0,0,1,1.034-1.016,2.8,2.8,0,0,1,1.435-.379,2.79,2.79,0,0,1,1.44.379A2.894,2.894,0,0,1-6.709-4.13a2.7,2.7,0,0,1,.384,1.422,2.708,2.708,0,0,1-.384,1.417A2.882,2.882,0,0,1-7.738-.271,2.79,2.79,0,0,1-9.178.108Zm0-.921A1.792,1.792,0,0,0-8.23-1.07a1.946,1.946,0,0,0,.677-.686A1.841,1.841,0,0,0-7.3-2.708a1.841,1.841,0,0,0-.253-.952,1.946,1.946,0,0,0-.677-.686A1.792,1.792,0,0,0-9.178-4.6a1.792,1.792,0,0,0-.948.257,1.946,1.946,0,0,0-.677.686,1.841,1.841,0,0,0-.253.952,1.841,1.841,0,0,0,.253.952,1.946,1.946,0,0,0,.677.686A1.792,1.792,0,0,0-9.178-.812Zm4.337,3.521V-5.417h.9V-4.7a2.694,2.694,0,0,1,.858-.578,2.644,2.644,0,0,1,1.047-.208,2.543,2.543,0,0,1,1.359.375A2.817,2.817,0,0,1,.3-4.108a2.744,2.744,0,0,1,.366,1.4A2.744,2.744,0,0,1,.3-1.309,2.817,2.817,0,0,1-.674-.3,2.543,2.543,0,0,1-2.033.072a2.651,2.651,0,0,1-1-.19,2.7,2.7,0,0,1-.831-.524V2.708ZM-2.159-.812a1.753,1.753,0,0,0,.934-.257,1.921,1.921,0,0,0,.668-.686,1.866,1.866,0,0,0,.248-.952,1.866,1.866,0,0,0-.248-.952,1.921,1.921,0,0,0-.668-.686A1.753,1.753,0,0,0-2.159-4.6a1.753,1.753,0,0,0-.934.257,1.921,1.921,0,0,0-.668.686,1.866,1.866,0,0,0-.248.952,1.866,1.866,0,0,0,.248.952,1.921,1.921,0,0,0,.668.686A1.753,1.753,0,0,0-2.159-.812ZM5.585,0V-.812H7.462V-6.843l-1.878.957v-.975L8.455-8.306V-.812H9.972V0Zm8.824.108a2.186,2.186,0,0,1-1.246-.357,2.929,2.929,0,0,1-.889-.957,4.759,4.759,0,0,1-.533-1.345,6.552,6.552,0,0,1-.176-1.512,6.552,6.552,0,0,1,.176-1.512,4.759,4.759,0,0,1,.533-1.345,2.929,2.929,0,0,1,.889-.957,2.186,2.186,0,0,1,1.246-.357,2.186,2.186,0,0,1,1.246.357,2.929,2.929,0,0,1,.889.957,4.759,4.759,0,0,1,.533,1.345,6.552,6.552,0,0,1,.176,1.512,6.552,6.552,0,0,1-.176,1.512,4.759,4.759,0,0,1-.533,1.345,2.929,2.929,0,0,1-.889.957A2.186,2.186,0,0,1,14.408.108Zm0-.921A1.234,1.234,0,0,0,15.23-1.1a2.133,2.133,0,0,0,.56-.767,4.621,4.621,0,0,0,.325-1.052,6.138,6.138,0,0,0,.108-1.142A6.138,6.138,0,0,0,16.115-5.2a4.621,4.621,0,0,0-.325-1.052,2.133,2.133,0,0,0-.56-.767,1.234,1.234,0,0,0-.822-.289,1.239,1.239,0,0,0-.817.289,2.107,2.107,0,0,0-.564.767A4.621,4.621,0,0,0,12.7-5.2a6.138,6.138,0,0,0-.108,1.142A6.138,6.138,0,0,0,12.7-2.92a4.621,4.621,0,0,0,.325,1.052,2.107,2.107,0,0,0,.564.767A1.239,1.239,0,0,0,14.408-.812Z" transform="translate(58.243 37.001)" fill="#fac51c"/>
  <path id="Path_16061" data-name="Path 16061" d="M-31.282-3.105v-.03A2.926,2.926,0,0,0-31.5-4.32a2.4,2.4,0,0,0-.647-.863,3.967,3.967,0,0,0-1.053-.63,10.732,10.732,0,0,0-1.421-.472q-.677-.18-1.121-.315a3.331,3.331,0,0,1-.7-.285.887.887,0,0,1-.353-.338.945.945,0,0,1-.1-.443V-7.7a.8.8,0,0,1,.337-.652,1.633,1.633,0,0,1,1.013-.262,3.527,3.527,0,0,1,1.35.277,7.607,7.607,0,0,1,1.38.758l1.2-1.74a6.153,6.153,0,0,0-1.778-.99,6.279,6.279,0,0,0-2.123-.345,4.649,4.649,0,0,0-1.482.225,3.379,3.379,0,0,0-1.157.645,2.953,2.953,0,0,0-.753,1,3.044,3.044,0,0,0-.268,1.3v.03a3.046,3.046,0,0,0,.248,1.3,2.4,2.4,0,0,0,.7.878,4.071,4.071,0,0,0,1.1.592,13.136,13.136,0,0,0,1.444.435q.662.165,1.075.315a3.31,3.31,0,0,1,.647.3.835.835,0,0,1,.316.322.909.909,0,0,1,.083.4v.03a.826.826,0,0,1-.4.728,2.019,2.019,0,0,1-1.118.262,3.951,3.951,0,0,1-1.658-.345,6.854,6.854,0,0,1-1.477-.93L-39.577-1.53a6.233,6.233,0,0,0,2.1,1.268A6.954,6.954,0,0,0-35.122.15a5.252,5.252,0,0,0,1.558-.218A3.559,3.559,0,0,0-32.355-.7a2.847,2.847,0,0,0,.79-1.02A3.249,3.249,0,0,0-31.282-3.105Zm10.11-5.265V-10.5h-8.7v2.13h3.195V0h2.31V-8.37ZM-9.022,0l-4.5-10.575h-2.13L-20.152,0H-17.8l.96-2.355h4.44L-11.437,0Zm-4.2-4.395h-2.79l1.4-3.405ZM1.823,0-.742-3.75A3.607,3.607,0,0,0,.885-4.928a3.292,3.292,0,0,0,.623-2.077v-.03A3.214,3.214,0,0,0,.465-9.585,4.278,4.278,0,0,0-2.452-10.5h-4.8V0h2.31V-3.36h1.815L-.877,0ZM-.832-6.885a1.371,1.371,0,0,1-.457,1.08A1.918,1.918,0,0,1-2.6-5.4h-2.34V-8.415h2.3a2.12,2.12,0,0,1,1.335.375,1.34,1.34,0,0,1,.48,1.125ZM11.693-8.37V-10.5h-8.7v2.13H6.188V0H8.5V-8.37Zm6.03,4.815v-2.19H13.1v2.19Zm11.145-1.02V-10.5h-2.31v6.015a2.647,2.647,0,0,1-.6,1.89,2.19,2.19,0,0,1-1.665.63,2.149,2.149,0,0,1-1.665-.652,2.781,2.781,0,0,1-.6-1.943V-10.5h-2.31v6A4.638,4.638,0,0,0,20.933-1a4.6,4.6,0,0,0,3.33,1.17,5.859,5.859,0,0,0,1.905-.293,3.777,3.777,0,0,0,1.455-.885,3.932,3.932,0,0,0,.923-1.478A6.09,6.09,0,0,0,28.868-4.575ZM39.682-6.84v-.03A3.813,3.813,0,0,0,39.4-8.347a3.243,3.243,0,0,0-.795-1.148,3.581,3.581,0,0,0-1.26-.743,5.045,5.045,0,0,0-1.687-.263h-4.29V0h2.31V-3.15h1.755A5.724,5.724,0,0,0,37.1-3.383a3.935,3.935,0,0,0,1.35-.7,3.275,3.275,0,0,0,.908-1.155A3.681,3.681,0,0,0,39.682-6.84Zm-2.34.045a1.5,1.5,0,0,1-.48,1.132,1.879,1.879,0,0,1-1.35.458h-1.83v-3.21h1.785a2.127,2.127,0,0,1,1.373.405,1.432,1.432,0,0,1,.5,1.185Z" transform="translate(58.243 57.001)" fill="url(#linear-gradient)"/>
  <path id="Path_16047" data-name="Path 16047" d="M66.694,115.194s-6.271-7.648-20.88-10.1C31.588,101.81,14.38,87.889,9.943,68.386c-5.125-19.35,3.518-39.543,14.532-49.027A48.336,48.336,0,0,1,45.432,7.734c.23.306-9.943,2.065-20.575,12.008C14.073,29.3,5.89,49.265,11.09,68.08c4.513,18.968,21.34,32.276,35.183,35.412a49.17,49.17,0,0,1,8.8,2.218c9.713,3.442,13.461,7.878,13.461,7.878l-1.836,1.606Z" transform="translate(-0.765 -1.003)" fill="#ffd964"/>
  <path id="Path_16048" data-name="Path 16048" d="M51.321,115.194s6.272-7.648,20.88-10.1c14.227-3.288,31.436-17.209,35.872-36.712,5.124-19.35-3.519-39.543-14.532-49.027A48.767,48.767,0,0,0,72.66,7.734C72.43,8.04,82.6,9.8,93.234,19.742,104.018,29.226,112.2,49.188,107,68c-4.513,18.969-21.416,32.277-35.183,35.413a49.084,49.084,0,0,0-8.8,2.218c-9.713,3.442-13.461,7.878-13.461,7.878l1.76,1.682ZM41.53,93.014s3.978,1.377,5.278,4.589a12.814,12.814,0,0,1,.918,7.266s-3.977-2.065-5.354-4.207c-1.759-3.06-.841-7.648-.841-7.648Zm-6.96,17.438s4.054,1.224,6.96-.535a13.222,13.222,0,0,0,5.049-5.354s-4.436-.688-6.807.306c-3.29,1.3-5.2,5.583-5.2,5.583Zm.765-20.88s3.6,1.989,4.36,5.278a13.221,13.221,0,0,1-.306,7.189s-3.518-2.677-4.436-4.971C33.653,93.855,35.335,89.572,35.335,89.572Zm-9.713,15.679s3.671,1.913,6.807.612a13.507,13.507,0,0,0,5.813-4.283s-4.207-1.377-6.578-.918c-3.442.765-6.042,4.589-6.042,4.589Zm4.13-20.115s3.136,2.524,3.29,5.89a13.276,13.276,0,0,1-1.53,6.883S28.6,94.7,28.07,92.325c-.689-3.365,1.682-7.189,1.682-7.189ZM17.744,98.6s3.212,2.448,6.5,1.759a13.426,13.426,0,0,0,6.348-3.135s-3.824-2.066-6.271-1.99C20.88,95.385,17.744,98.6,17.744,98.6Zm7.343-18.891s2.6,2.983,2.218,6.195a12.717,12.717,0,0,1-2.677,6.425s-2.3-3.6-2.371-5.966C22.1,83.07,25.087,79.706,25.087,79.706ZM11.166,90.643s2.678,2.906,5.966,2.83a12.446,12.446,0,0,0,6.654-1.989S20.5,88.807,18.126,88.5c-3.441-.382-6.96,2.142-6.96,2.142ZM21.34,73.663s1.988,3.366,1.07,6.349a12.541,12.541,0,0,1-3.671,5.736s-1.607-3.824-1.224-6.119c.382-3.289,3.824-5.966,3.824-5.966Zm-15.3,8.184s2.142,3.289,5.277,3.748a12.277,12.277,0,0,0,6.731-.765s-2.753-3.136-4.971-3.824c-3.213-1.071-7.037.841-7.037.841Zm12.7-14.837s1.377,3.594-.077,6.347a11.988,11.988,0,0,1-4.512,4.895s-.918-3.977-.153-6.118c.994-3.136,4.742-5.125,4.742-5.125ZM2.524,72.287S3.977,75.805,6.96,76.8a12.328,12.328,0,0,0,6.654.383s-2.141-3.442-4.13-4.513c-2.83-1.53-6.96-.382-6.96-.382ZM17.285,60.049s.689,3.671-1.147,6.119a11.6,11.6,0,0,1-5.2,3.977s-.154-3.977.917-5.966c1.453-2.906,5.43-4.13,5.43-4.13ZM.765,62.343s.841,3.672,3.518,5.125A11.953,11.953,0,0,0,10.631,69S9.178,65.25,7.42,63.873C4.9,61.961.766,62.343.766,62.343ZM17.056,52.86s.076,3.67-2.142,5.66a11.472,11.472,0,0,1-5.66,2.906s.536-3.9,1.836-5.584c1.989-2.37,5.966-2.983,5.966-2.983ZM.765,52.324S.918,56,3.289,57.831a11.969,11.969,0,0,0,5.889,2.524s-.765-3.824-2.218-5.43C4.818,52.63.765,52.324.765,52.324Zm17.361-6.731s-.535,3.519-3.06,5.125A10.935,10.935,0,0,1,9.1,52.553s1.147-3.67,2.753-5.124C14.149,45.44,18.126,45.593,18.126,45.593ZM2.447,42.305s-.459,3.594,1.53,5.736a11.069,11.069,0,0,0,5.2,3.442s-.076-3.825-1.223-5.66C6.348,43.223,2.447,42.305,2.447,42.305Zm17.975-3.9S19.274,41.693,16.6,42.84a11.173,11.173,0,0,1-6.119.765S12.238,40.24,14,39.169C16.6,37.639,20.422,38.4,20.422,38.4ZM5.813,32.591s-.994,3.365.459,5.813a10.946,10.946,0,0,0,4.436,4.206s.535-3.747-.23-5.66c-1.07-2.753-4.665-4.359-4.665-4.359Zm18.127-.765s-1.683,2.983-4.437,3.6a10.946,10.946,0,0,1-6.042-.306s2.218-2.906,4.13-3.671c2.753-1.071,6.348.382,6.348.382ZM10.86,23.719s-1.53,3.06-.535,5.66a10.909,10.909,0,0,0,3.6,4.818s1.147-3.518.765-5.507c-.612-2.83-3.824-4.971-3.824-4.971ZM28.6,25.937s-2.142,2.6-4.9,2.753a10.639,10.639,0,0,1-5.736-1.3s2.677-2.447,4.665-2.83c2.754-.612,5.966,1.377,5.966,1.377ZM17.362,15.917s-2.065,2.677-1.453,5.43a10.821,10.821,0,0,0,2.677,5.278s1.759-3.136,1.682-5.2c-.23-2.907-2.906-5.508-2.906-5.508Zm16.827,5.125s-2.524,2.141-5.2,1.835a10.838,10.838,0,0,1-5.354-2.217s2.983-1.913,4.971-1.99C31.435,18.518,34.189,21.042,34.189,21.042ZM25.01,9.416s-2.447,2.218-2.37,4.972A10.222,10.222,0,0,0,24.322,19.9s2.218-2.754,2.448-4.742c.459-2.754-1.76-5.737-1.76-5.737Zm15.45,7.725s-2.754,1.683-5.278.842a10.335,10.335,0,0,1-4.742-3.06s3.213-1.3,5.125-1.07c2.677.458,4.9,3.288,4.9,3.288ZM33.653,4.368s-2.753,1.76-3.136,4.36a10.673,10.673,0,0,0,.688,5.66s2.6-2.3,3.213-4.13c.765-2.6-.765-5.89-.765-5.89Zm13.614,10.1s-2.983,1.147-5.277-.076a9.964,9.964,0,0,1-4.054-3.748s3.289-.765,5.124-.153C45.584,11.328,47.267,14.464,47.267,14.464ZM42.831,1s-2.906,1.224-3.748,3.671a9.5,9.5,0,0,0-.306,5.507s2.907-1.76,3.825-3.442C43.825,4.445,42.831,1,42.831,1Zm.153,7.572a5.778,5.778,0,0,0,4.13.535,7.712,7.712,0,0,0,3.6-2.447,10.8,10.8,0,0,0-3.977-.689,7.053,7.053,0,0,0-3.748,2.6Z" transform="translate(-0.765 -1.003)" fill="#ffd964"/>
  <path id="Path_16049" data-name="Path 16049" d="M76.484,93.014s-3.977,1.377-5.277,4.589a12.814,12.814,0,0,0-.918,7.266s3.977-2.065,5.354-4.207c1.76-3.06.841-7.648.841-7.648Zm6.961,17.438s-4.054,1.224-6.96-.535a13.222,13.222,0,0,1-5.049-5.354s4.437-.688,6.808.306c3.288,1.3,5.2,5.583,5.2,5.583Zm-.765-20.88s-3.6,1.989-4.36,5.278a13.221,13.221,0,0,0,.306,7.189s3.518-2.677,4.436-4.972c1.3-3.212-.382-7.5-.382-7.5Zm9.713,15.679s-3.671,1.913-6.807.612a13.507,13.507,0,0,1-5.813-4.283s4.207-1.377,6.578-.918C89.792,101.427,92.393,105.251,92.393,105.251Zm-4.13-20.115s-3.136,2.524-3.289,5.89a13.265,13.265,0,0,0,1.53,6.883s2.906-3.213,3.442-5.584c.688-3.365-1.683-7.19-1.683-7.19ZM100.271,98.6s-3.212,2.448-6.5,1.759a13.444,13.444,0,0,1-6.35-3.135s3.825-2.066,6.2-1.99C97.135,95.385,100.271,98.6,100.271,98.6ZM93,79.706s-2.6,2.983-2.218,6.195a12.707,12.707,0,0,0,2.677,6.425s2.294-3.6,2.37-5.966C95.911,83.07,93,79.706,93,79.706Zm13.92,10.937s-2.677,2.906-5.966,2.83a12.45,12.45,0,0,1-6.654-1.989s3.289-2.677,5.66-2.983c3.365-.382,6.96,2.142,6.96,2.142ZM96.753,73.663s-1.989,3.366-1.071,6.349a12.541,12.541,0,0,0,3.671,5.736s1.606-3.824,1.224-6.119c-.459-3.289-3.824-5.966-3.824-5.966Zm15.3,8.184s-2.142,3.289-5.278,3.748a12.272,12.272,0,0,1-6.73-.765s2.753-3.136,4.971-3.824c3.136-1.071,7.037.841,7.037.841ZM99.353,67.01s-1.376,3.594.077,6.347a11.987,11.987,0,0,0,4.513,4.895s.917-3.977.153-6.118c-1-3.136-4.743-5.125-4.743-5.125Zm16.139,5.277s-1.454,3.518-4.436,4.512a12.331,12.331,0,0,1-6.655.383s2.142-3.442,4.131-4.513C111.361,71.139,115.492,72.287,115.492,72.287ZM100.73,60.049s-.688,3.671,1.147,6.119a11.608,11.608,0,0,0,5.2,3.977s.153-3.977-.918-5.966c-1.453-2.906-5.43-4.13-5.43-4.13Zm16.521,2.294s-.842,3.672-3.519,5.125A11.953,11.953,0,0,1,107.384,69s1.453-3.748,3.213-5.125c2.524-1.912,6.654-1.53,6.654-1.53ZM100.959,52.86s-.076,3.67,2.142,5.66a11.472,11.472,0,0,0,5.66,2.906s-.536-3.9-1.836-5.584c-1.912-2.37-5.966-2.983-5.966-2.983Zm16.292-.536S117.1,56,114.727,57.831a11.974,11.974,0,0,1-5.89,2.524s.765-3.824,2.218-5.43c2.142-2.3,6.2-2.6,6.2-2.6ZM99.889,45.593s.535,3.519,3.059,5.125a10.944,10.944,0,0,0,5.966,1.836s-1.147-3.672-2.754-5.125c-2.218-1.989-6.271-1.836-6.271-1.836Zm15.679-3.288s.459,3.594-1.53,5.736a11.458,11.458,0,0,1-5.2,3.442s.077-3.825,1.224-5.66c1.683-2.6,5.507-3.518,5.507-3.518Zm-17.9-3.9s1.148,3.289,3.825,4.436a11.17,11.17,0,0,0,6.118.765s-1.759-3.366-3.518-4.436c-2.6-1.53-6.425-.765-6.425-.765ZM112.2,32.591s.994,3.365-.459,5.813a10.953,10.953,0,0,1-4.436,4.206s-.536-3.747.229-5.66C108.608,34.2,112.2,32.591,112.2,32.591Zm-18.127-.765s1.682,2.983,4.436,3.6a10.946,10.946,0,0,0,6.042-.306s-2.218-2.906-4.13-3.671c-2.754-1.071-6.348.382-6.348.382Zm13.079-8.107s1.606,3.06.535,5.66a10.917,10.917,0,0,1-3.6,4.818s-1.147-3.518-.765-5.507c.689-2.83,3.825-4.971,3.825-4.971ZM89.41,25.937s2.142,2.6,4.895,2.753a10.645,10.645,0,0,0,5.737-1.3s-2.677-2.447-4.666-2.83c-2.754-.612-5.966,1.377-5.966,1.377Zm11.243-10.02s2.066,2.677,1.454,5.43a10.831,10.831,0,0,1-2.677,5.278s-1.76-3.136-1.683-5.2C97.977,18.518,100.653,15.917,100.653,15.917ZM83.9,21.042s2.524,2.141,5.2,1.835a10.834,10.834,0,0,0,5.354-2.218s-2.983-1.912-4.971-1.988c-2.907-.153-5.584,2.37-5.584,2.37ZM93,9.416s2.448,2.218,2.371,4.972A10.218,10.218,0,0,1,93.693,19.9s-2.218-2.754-2.447-4.742c-.382-2.754,1.76-5.737,1.76-5.737Zm-15.45,7.725s2.754,1.683,5.278.842a10.328,10.328,0,0,0,4.742-3.06s-3.213-1.3-5.125-1.07c-2.677.458-4.895,3.288-4.895,3.288ZM84.362,4.368s2.754,1.76,3.136,4.36a10.661,10.661,0,0,1-.688,5.66s-2.6-2.3-3.213-4.13c-.764-2.6.765-5.89.765-5.89Zm-13.537,10.1s2.983,1.147,5.277-.076a9.964,9.964,0,0,0,4.054-3.748s-3.289-.765-5.125-.153C72.431,11.328,70.825,14.464,70.825,14.464ZM75.184,1s2.907,1.224,3.748,3.671a9.491,9.491,0,0,1,.306,5.507s-2.906-1.76-3.824-3.442C74.267,4.445,75.184,1,75.184,1Zm-.076,7.572a5.779,5.779,0,0,1-4.13.535,7.619,7.619,0,0,1-3.672-2.447s2.524-.995,3.977-.689a7.4,7.4,0,0,1,3.825,2.6Z" transform="translate(-0.765 -1.003)" fill="#ffd964"/>
  <path id="Polygon_3" data-name="Polygon 3" d="M6.057.843a.5.5,0,0,1,.885,0L8.43,3.675a.5.5,0,0,0,.367.262l3.21.494a.5.5,0,0,1,.272.853L10,7.5a.5.5,0,0,0-.145.439l.506,3.1a.5.5,0,0,1-.715.529L6.722,10.124a.5.5,0,0,0-.443,0L3.354,11.569a.5.5,0,0,1-.715-.529l.506-3.1A.5.5,0,0,0,3,7.5L.721,5.284a.5.5,0,0,1,.272-.853L4.2,3.937a.5.5,0,0,0,.367-.262Z" transform="translate(51.243 66.001)" fill="url(#linear-gradient)"/>
  <path id="Polygon_4" data-name="Polygon 4" d="M4.061.8a.5.5,0,0,1,.878,0L5.8,2.38a.5.5,0,0,0,.366.255L7.975,2.9a.5.5,0,0,1,.268.86L6.99,4.935a.5.5,0,0,0-.152.449l.282,1.668a.5.5,0,0,1-.708.535l-1.7-.808a.5.5,0,0,0-.43,0l-1.7.808a.5.5,0,0,1-.708-.535l.282-1.668a.5.5,0,0,0-.152-.449L.757,3.764a.5.5,0,0,1,.268-.86l1.811-.268A.5.5,0,0,0,3.2,2.38Z" transform="translate(38.243 68.001)" fill="url(#linear-gradient)"/>
  <path id="Polygon_5" data-name="Polygon 5" d="M4.061.8a.5.5,0,0,1,.878,0L5.8,2.38a.5.5,0,0,0,.366.255L7.975,2.9a.5.5,0,0,1,.268.86L6.99,4.935a.5.5,0,0,0-.152.449l.282,1.668a.5.5,0,0,1-.708.535l-1.7-.808a.5.5,0,0,0-.43,0l-1.7.808a.5.5,0,0,1-.708-.535l.282-1.668a.5.5,0,0,0-.152-.449L.757,3.764a.5.5,0,0,1,.268-.86l1.811-.268A.5.5,0,0,0,3.2,2.38Z" transform="translate(68.243 68.001)" fill="url(#linear-gradient)"/>
</svg>
