<svg xmlns="http://www.w3.org/2000/svg" width="68" height="59.212" viewBox="0 0 68 59.212">
  <g id="Group_15006" data-name="Group 15006" transform="translate(-4236.507 2419.045)">
    <path id="Path_21348" data-name="Path 21348" d="M4302.929-2287.314h-32.352q-16.312,0-32.625,0c-1.084,0-1.456.365-1.445,1.425a32.988,32.988,0,0,0,1.195,8.587,33.952,33.952,0,0,0,40.106,24.281,34,34,0,0,0,26.7-32.723C4304.513-2286.993,4304.191-2287.314,4302.929-2287.314Zm-31.334,2.674c0-.4.121-.494.5-.489,1.485.02,2.97.008,4.455.008,1.462,0,2.925.014,4.387-.009.415-.007.548.089.524.529a39.269,39.269,0,0,1-1.225,7.969c-.115.435-.3.438-.682.347a36.155,36.155,0,0,0-7.449-1.012c-.365-.01-.515-.083-.511-.49Q4271.622-2281.213,4271.594-2284.641Zm.52,9.52a37.928,37.928,0,0,1,6.762.921c.289.068.541.094.365.509a16.476,16.476,0,0,1-4.623,6.75,7.506,7.506,0,0,1-2.519,1.337c-.4.124-.51.064-.5-.365.021-1.459.008-2.919.008-4.379,0-1.414.015-2.828-.009-4.242C4271.587-2275,4271.669-2275.143,4272.114-2275.121Zm-11.982-10.012c1.461.034,2.924.012,4.387.012,1.439,0,2.879.014,4.318-.009.418-.007.591.066.584.546q-.042,3.358,0,6.717c0,.453-.131.562-.57.574a35.117,35.117,0,0,0-7.38,1.008c-.439.107-.59.025-.705-.4a38.991,38.991,0,0,1-1.212-7.833C4259.524-2285,4259.639-2285.144,4260.132-2285.133Zm9.277,14.844c0,1.437-.01,2.874.007,4.311,0,.4-.062.51-.492.38a9.1,9.1,0,0,1-4.522-3.384,19.5,19.5,0,0,1-2.569-4.572c-.147-.355-.2-.53.292-.643a38.547,38.547,0,0,1,6.763-.921c.424-.022.541.091.533.519C4269.392-2273.163,4269.409-2271.726,4269.409-2270.289Zm27.384-14.35a26.409,26.409,0,0,1-21.394,24.288,25.458,25.458,0,0,1-4.9.458,26.371,26.371,0,0,1-25.855-21.436c-.211-1.1-.271-2.219-.42-3.327-.049-.361.053-.484.425-.471a20.33,20.33,0,0,0,2.192-.006c.541-.04.685.163.719.665a21.413,21.413,0,0,0,2.9,9.54c4.054,6.874,10.043,10.878,18.012,11.618a22.952,22.952,0,0,0,24.627-18.393,26.572,26.572,0,0,0,.377-2.918c.037-.424.187-.523.584-.506.752.032,1.508.025,2.262,0C4296.69-2285.139,4296.82-2285.056,4296.793-2284.639Z" transform="translate(0 -107.592)" fill="#475577"/>
    <path id="Path_21349" data-name="Path 21349" d="M4283.932-2403.454a7.535,7.535,0,0,0-3.8-6.835c-.37-.225-.324-.393-.152-.69a5,5,0,0,0,.646-2.214,5.492,5.492,0,0,0-3.327-5.415,5.479,5.479,0,0,0-6.158,1.313,5.43,5.43,0,0,0-.857,6.229c.2.4.224.566-.2.831a7.468,7.468,0,0,0-3.7,6.613c-.023,2.056-.006,4.112,0,6.167,0,1.08.361,1.446,1.427,1.447q3.666,0,7.332,0,3.632,0,7.264,0c1.2,0,1.525-.333,1.526-1.556Q4283.934-2400.507,4283.932-2403.454Zm-8.818-6.815a3.3,3.3,0,0,1-3.245-3.3,3.3,3.3,0,0,1,3.26-3.278,3.3,3.3,0,0,1,3.313,3.3A3.3,3.3,0,0,1,4275.114-2410.269Z" transform="translate(-24.395)" fill="#475577"/>
    <path id="Path_21350" data-name="Path 21350" d="M4499.425-2403.728a7.448,7.448,0,0,0-3.683-6.487c-.413-.259-.431-.414-.22-.823a5.458,5.458,0,0,0-1.389-6.75,5.493,5.493,0,0,0-6.9-.039,5.448,5.448,0,0,0-1.436,6.792c.217.418.174.572-.226.824a7.486,7.486,0,0,0-3.686,6.623c-.021,2.056-.006,4.112,0,6.167,0,1.071.365,1.43,1.444,1.431q3.667,0,7.332,0,3.7,0,7.4,0c.983,0,1.369-.385,1.371-1.366C4499.438-2399.48,4499.468-2401.6,4499.425-2403.728Zm-8.821-6.524a3.3,3.3,0,0,1-3.232-3.308,3.3,3.3,0,0,1,3.272-3.265,3.3,3.3,0,0,1,3.3,3.307A3.3,3.3,0,0,1,4490.6-2410.252Z" transform="translate(-200.41 -0.016)" fill="#475577"/>
    <path id="Path_21351" data-name="Path 21351" d="M4391.676-2403.731a7.442,7.442,0,0,0-3.686-6.485c-.417-.261-.424-.42-.215-.825a5.46,5.46,0,0,0-1.394-6.749,5.493,5.493,0,0,0-6.9-.035,5.448,5.448,0,0,0-1.431,6.793c.219.423.165.573-.231.823a7.491,7.491,0,0,0-3.683,6.625c-.02,2.055-.006,4.112,0,6.167,0,1.068.366,1.427,1.447,1.428q3.666,0,7.332,0,3.7,0,7.4,0c.981,0,1.366-.387,1.368-1.37C4391.689-2399.483,4391.72-2401.608,4391.676-2403.731Zm-8.774-6.521a3.3,3.3,0,0,1-3.279-3.262,3.3,3.3,0,0,1,3.226-3.312,3.3,3.3,0,0,1,3.348,3.261A3.3,3.3,0,0,1,4382.9-2410.252Z" transform="translate(-112.405 -0.016)" fill="#475577"/>
    <path id="Path_21352" data-name="Path 21352" d="M4280.3-2244.675a31.556,31.556,0,0,1-20.346-7.4,31.162,31.162,0,0,1-11.058-19.5c-.171-1.055-.251-2.125-.384-3.187-.056-.442.037-.679.564-.648.729.042,1.462.025,2.192,0,.363-.011.519.085.551.482a31.224,31.224,0,0,0,.989,5.99,28.271,28.271,0,0,0,7.828,13.045,27.512,27.512,0,0,0,15.472,7.59,27.737,27.737,0,0,0,22.467-6.363,27.987,27.987,0,0,0,9.781-16.733c.222-1.16.313-2.347.423-3.526.037-.392.182-.5.549-.486q1.13.033,2.262,0c.379-.011.53.1.5.5a31.753,31.753,0,0,1-6.812,18.082,31.536,31.536,0,0,1-10.854,8.822,31.088,31.088,0,0,1-11.664,3.2C4281.94-2244.737,4281.123-2244.7,4280.3-2244.675Z" transform="translate(-9.791 -117.313)" fill="#069fce"/>
    <path id="Path_21353" data-name="Path 21353" d="M4312.355-2275.374c1.1,0,2.192.013,3.288-.007.384-.007.5.121.52.506a37.017,37.017,0,0,0,1.323,8.552c.1.352.088.567-.342.7a20.355,20.355,0,0,0-3.813,1.68c-.384.216-.576.15-.824-.191a20.786,20.786,0,0,1-3.767-9c-.091-.561-.108-1.136-.218-1.692-.087-.442.046-.567.477-.559C4310.117-2275.361,4311.236-2275.374,4312.355-2275.374Z" transform="translate(-58.798 -117.339)" fill="#069fce"/>
    <path id="Path_21354" data-name="Path 21354" d="M4491.493-2275.366c1.119,0,2.238.007,3.357,0,.339,0,.49.069.453.463a21.279,21.279,0,0,1-3.951,10.708c-.307.425-.538.469-.978.218a19.818,19.818,0,0,0-3.689-1.624c-.4-.13-.484-.305-.375-.686a37.259,37.259,0,0,0,1.333-8.619c.017-.364.149-.466.492-.461C4489.255-2275.357,4490.374-2275.366,4491.493-2275.366Z" transform="translate(-203.995 -117.347)" fill="#069fce"/>
    <path id="Path_21355" data-name="Path 21355" d="M4340.7-2209.692a25.146,25.146,0,0,1,3.516-1.58c.461-.176.5.128.6.389a21.534,21.534,0,0,0,2.006,3.949c.49.753,1.043,1.466,1.577,2.209C4346.673-2204.969,4342.405-2207.61,4340.7-2209.692Z" transform="translate(-85.101 -169.659)" fill="#069fce"/>
    <path id="Path_21356" data-name="Path 21356" d="M4469.238-2209.613a19.234,19.234,0,0,1-7.715,4.971,29.485,29.485,0,0,0,2.323-3.525,23.727,23.727,0,0,0,1.257-2.724c.135-.348.277-.43.649-.292A25.108,25.108,0,0,1,4469.238-2209.613Z" transform="translate(-183.784 -169.722)" fill="#069fce"/>
    <path id="Path_21357" data-name="Path 21357" d="M4284.878-2352.6c-1.986,0-3.972-.015-5.958.01-.482.006-.621-.139-.613-.617.027-1.666-.042-3.334.024-5a5.341,5.341,0,0,1,3.329-4.927.721.721,0,0,1,.7.014,5.208,5.208,0,0,0,5.044.012.779.779,0,0,1,.767-.009,5.348,5.348,0,0,1,3.292,4.952c.058,1.664,0,3.332.022,5,.006.457-.146.578-.586.573C4288.9-2352.607,4286.886-2352.6,4284.878-2352.6Z" transform="translate(-34.136 -45.602)" fill="#069fce"/>
    <path id="Path_21358" data-name="Path 21358" d="M4392.661-2352.57c-1.963,0-3.927-.023-5.889.014-.589.011-.721-.18-.708-.734.036-1.6-.025-3.2.022-4.793a5.368,5.368,0,0,1,3.311-5.01.78.78,0,0,1,.766.026,5.2,5.2,0,0,0,4.984,0,.832.832,0,0,1,.828,0,5.356,5.356,0,0,1,3.255,4.977c.049,1.619-.017,3.242.024,4.861.015.572-.193.674-.7.667C4396.587-2352.585,4394.624-2352.57,4392.661-2352.57Z" transform="translate(-122.152 -45.628)" fill="#069fce"/>
    <path id="Path_21359" data-name="Path 21359" d="M4500.375-2352.6c-1.986,0-3.972-.015-5.958.01-.485.006-.619-.143-.611-.618.027-1.666-.042-3.334.024-5a5.342,5.342,0,0,1,3.33-4.927.723.723,0,0,1,.7.016,5.207,5.207,0,0,0,5.044.01.778.778,0,0,1,.767-.007,5.35,5.35,0,0,1,3.292,4.953c.057,1.641-.01,3.287.024,4.93.011.525-.157.649-.659.643C4504.347-2352.612,4502.361-2352.6,4500.375-2352.6Z" transform="translate(-210.147 -45.602)" fill="#069fce"/>
  </g>
</svg>
