<svg xmlns="http://www.w3.org/2000/svg" width="68" height="68.012" viewBox="0 0 68 68.012">
  <g id="Group_14999" data-name="Group 14999" transform="translate(-242.692 2419.046)">
    <path id="Path_21279" data-name="Path 21279" d="M305.505-2391.477a6.619,6.619,0,0,0-7.457,3.874c-.207.482-.083,1.211-.6,1.417a6.293,6.293,0,0,1-1.628.057c-.476.043-.566-.173-.6-.58a18,18,0,0,0-4.21-10.207c-.362-.435-.278-.633.07-.972,1.245-1.21,2.479-2.432,3.68-3.686a.844.844,0,0,1,1.165-.262,4.268,4.268,0,0,0,4.916-1.171,4.372,4.372,0,0,0,.465-5.1,4.352,4.352,0,0,0-4.626-2.064,4.361,4.361,0,0,0-3.145,6.081c.082.19.344.359.048.646-1.427,1.383-2.832,2.788-4.231,4.2-.228.23-.367.232-.614.024a18.159,18.159,0,0,0-10.5-4.357c-.348-.028-.459-.158-.453-.507.021-1.119.033-2.24,0-3.358a.778.778,0,0,1,.654-.942,5.441,5.441,0,0,0,3.712-5.8,5.509,5.509,0,0,0-5.069-4.844,5.47,5.47,0,0,0-5.778,4.565,5.418,5.418,0,0,0,3.775,6.124.632.632,0,0,1,.537.752c-.036,1.118-.032,2.239,0,3.358.012.448-.089.632-.579.673a17.89,17.89,0,0,0-10.2,4.207c-.435.363-.63.273-.972-.071q-4.612-4.645-9.261-9.251a.732.732,0,0,1-.2-1,4.288,4.288,0,0,0-1.508-5.277,4.377,4.377,0,0,0-5.542.428,4.386,4.386,0,0,0-.662,5.522,4.27,4.27,0,0,0,5.209,1.723,1,1,0,0,1,1.338.307q4.549,4.611,9.153,9.166c.28.279.387.445.072.817a18.43,18.43,0,0,0-4.2,9.363c-.073.487.137,1.178-.259,1.414s-1.026.022-1.542.093c-.556.076-.721-.162-.853-.655a6.548,6.548,0,0,0-6.928-4.818,6.618,6.618,0,0,0-5.957,6.071,6.613,6.613,0,0,0,5.068,6.9,6.631,6.631,0,0,0,7.575-3.883c.2-.476.091-1.2.62-1.393a6.351,6.351,0,0,1,1.63-.051c.434-.032.551.149.565.541a13.6,13.6,0,0,0,.41,2.634,18.55,18.55,0,0,0,16.448,14.258c.482.044.6.213.586.667-.032,1.073-.038,2.149,0,3.221a.776.776,0,0,1-.66.937,5.444,5.444,0,0,0-3.716,5.739,5.533,5.533,0,0,0,4.946,4.9,5.482,5.482,0,0,0,5.758-3.9,5.518,5.518,0,0,0-2.608-6.392c-.5-.28-1.292-.2-1.493-.754a5.714,5.714,0,0,1-.045-1.835c0-.068,0-.137,0-.205,0-.571.028-1.144-.009-1.713-.03-.454.1-.629.583-.668a17.9,17.9,0,0,0,10.2-4.209c.44-.366.637-.267.972.078,1.227,1.26,2.464,2.512,3.736,3.727a.76.76,0,0,1,.234,1.056,4.272,4.272,0,0,0,1.1,4.933,4.37,4.37,0,0,0,5.155.5,4.354,4.354,0,0,0,2.059-4.628,4.36,4.36,0,0,0-6.084-3.139c-.191.083-.358.339-.645.042q-2.072-2.142-4.2-4.23c-.3-.29-.15-.437.04-.665a18.672,18.672,0,0,0,4.194-9.3c.081-.523-.164-1.258.308-1.524.418-.236,1.072-.025,1.614-.082.465-.049.607.14.719.558a6.522,6.522,0,0,0,7.534,4.817,6.57,6.57,0,0,0,5.39-6.288A6.59,6.59,0,0,0,305.505-2391.477Zm-55.145-17.7a2.205,2.205,0,0,1-2.181-2.186,2.194,2.194,0,0,1,2.234-2.2,2.208,2.208,0,0,1,2.148,2.218A2.206,2.206,0,0,1,250.361-2409.175Zm37.888,35.813a16.5,16.5,0,0,1-11.549,4.785,16.507,16.507,0,0,1-11.529-4.746.914.914,0,0,1-.3-.952,11.964,11.964,0,0,1,8.193-9.519c.257-.093.531-.145.776-.26a1.069,1.069,0,0,0,.171-1.889c-.3-.212-.637-.362-.923-.585a4.737,4.737,0,0,1-1.837-4.6,5.246,5.246,0,0,1,3.325-4.434,5.177,5.177,0,0,1,5.7.908,5.356,5.356,0,0,1,1.742,5.579,4.388,4.388,0,0,1-2.178,2.865c-.517.3-1.005.592-.932,1.286.077.731.665.9,1.241,1.093a11.9,11.9,0,0,1,8.391,9.646A.8.8,0,0,1,288.249-2373.363Zm15.892-7.3a4.393,4.393,0,0,1-4.415-4.372,4.389,4.389,0,0,1,4.387-4.4,4.393,4.393,0,0,1,4.382,4.337A4.4,4.4,0,0,1,304.141-2380.658Z" transform="translate(0 0)" fill="#475577"/>
    <path id="Path_21280" data-name="Path 21280" d="M259.092-2118.492a4.414,4.414,0,0,1-4.078-2.721,4.4,4.4,0,0,1,.991-4.8,4.282,4.282,0,0,1,4.809-.857.64.64,0,0,0,.892-.172c1.344-1.4,2.728-2.76,4.106-4.126a1.115,1.115,0,0,1,1.689-.151,1.106,1.106,0,0,1-.118,1.688c-1.381,1.4-2.758,2.8-4.176,4.153a.6.6,0,0,0-.143.842A4.364,4.364,0,0,1,259.092-2118.492Z" transform="translate(-9.798 -234.746)" fill="#475577"/>
    <path id="Path_21281" data-name="Path 21281" d="M568.981-2395.172a1.149,1.149,0,0,1,1.139.625.964.964,0,0,1-.13,1.146c-.765.809-1.547,1.607-2.363,2.364a1.01,1.01,0,0,1-1.472-.079.988.988,0,0,1-.058-1.422c.753-.821,1.559-1.592,2.355-2.372A.85.85,0,0,1,568.981-2395.172Z" transform="translate(-263.926 -19.499)" fill="#014fac"/>
    <path id="Path_21282" data-name="Path 21282" d="M330.832-2154.512a1.29,1.29,0,0,1-.4.863c-.678.677-1.345,1.365-2.035,2.029a1.1,1.1,0,0,1-1.638.068,1.087,1.087,0,0,1,.063-1.587q1.043-1.085,2.129-2.128a1.025,1.025,0,0,1,1.257-.213A1.115,1.115,0,0,1,330.832-2154.512Z" transform="translate(-68.406 -215.17)" fill="#014fac"/>
    <path id="Path_21283" data-name="Path 21283" d="M368.572-2298.022c-.163-.456-.3-.88-.463-1.3a14.237,14.237,0,0,0-6.993-7.742c-.391-.2-.5-.292-.17-.707a7.6,7.6,0,0,0-4.869-12.228,7.2,7.2,0,0,0-7.513,3.276,7.311,7.311,0,0,0-.3,8.143c.011.02.025.038.035.059.209.441.874.78.722,1.2-.122.34-.779.483-1.189.727a14.208,14.208,0,0,0-6.353,7.866c-.066.194-.131.388-.2.581-.007.019-.028.033-.12.137a14.817,14.817,0,0,1-2.54-6.613,15.968,15.968,0,0,1,3.665-12.9,16.378,16.378,0,0,1,23.483-1.8C372.973-2312.919,372.4-2303.1,368.572-2298.022Z" transform="translate(-78.209 -78.085)" fill="#069fce"/>
    <path id="Path_21284" data-name="Path 21284" d="M263.458-2252.983a4.406,4.406,0,0,1-4.437,4.354,4.4,4.4,0,0,1-4.333-4.387,4.394,4.394,0,0,1,4.4-4.385A4.4,4.4,0,0,1,263.458-2252.983Z" transform="translate(-9.798 -132.028)" fill="#069fce"/>
    <path id="Path_21285" data-name="Path 21285" d="M416.893-2403.778a3.318,3.318,0,0,1-3.313,3.3,3.322,3.322,0,0,1-3.264-3.279,3.317,3.317,0,0,1,3.313-3.3A3.321,3.321,0,0,1,416.893-2403.778Z" transform="translate(-136.912 -9.792)" fill="#069fce"/>
    <path id="Path_21286" data-name="Path 21286" d="M416.893-2092.486a3.318,3.318,0,0,1-3.321,3.291,3.322,3.322,0,0,1-3.256-3.288,3.318,3.318,0,0,1,3.321-3.29A3.32,3.32,0,0,1,416.893-2092.486Z" transform="translate(-136.912 -264.042)" fill="#069fce"/>
    <path id="Path_21287" data-name="Path 21287" d="M532.285-2359.168a2.192,2.192,0,0,1,2.126,2.224,2.189,2.189,0,0,1-2.258,2.16,2.2,2.2,0,0,1-2.124-2.293A2.189,2.189,0,0,1,532.285-2359.168Z" transform="translate(-234.69 -48.906)" fill="#069fce"/>
    <path id="Path_21288" data-name="Path 21288" d="M530.032-2129.5a2.183,2.183,0,0,1,2.225-2.192,2.191,2.191,0,0,1,2.159,2.192,2.188,2.188,0,0,1-2.226,2.193A2.193,2.193,0,0,1,530.032-2129.5Z" transform="translate(-234.694 -234.705)" fill="#069fce"/>
    <path id="Path_21289" data-name="Path 21289" d="M266.659-2093.619a2.186,2.186,0,0,1,2.26-2.156,2.192,2.192,0,0,1,2.123,2.227,2.19,2.19,0,0,1-2.261,2.156A2.2,2.2,0,0,1,266.659-2093.619Z" transform="translate(-19.576 -264.04)" fill="#069fce"/>
  </g>
</svg>
