<svg xmlns="http://www.w3.org/2000/svg" width="68" height="68.003" viewBox="0 0 68 68.003">
  <g id="Group_15000" data-name="Group 15000" transform="translate(-741.924 2419.045)">
    <path id="Path_21290" data-name="Path 21290" d="M805.591-2390.363a.722.722,0,0,1-.687-.663,28.7,28.7,0,0,0-4.279-10.292.671.671,0,0,1,.006-.891,5.414,5.414,0,0,0-.648-6.906,5.408,5.408,0,0,0-6.906-.635.668.668,0,0,1-.891-.007,28.649,28.649,0,0,0-10.227-4.259.757.757,0,0,1-.72-.711,5.4,5.4,0,0,0-5.288-4.319,5.4,5.4,0,0,0-5.328,4.27.812.812,0,0,1-.814.784,4.133,4.133,0,0,0-.471.087,29.107,29.107,0,0,0-9.629,4.123.706.706,0,0,1-.948.031,5.4,5.4,0,0,0-6.9.666,5.414,5.414,0,0,0-.631,6.909c.183.275.259.452.047.771a28.955,28.955,0,0,0-4.339,10.413.67.67,0,0,1-.646.62,5.414,5.414,0,0,0-4.366,5.322,5.4,5.4,0,0,0,4.357,5.327.719.719,0,0,1,.669.682,28.615,28.615,0,0,0,4.288,10.287.66.66,0,0,1-.035.89,5.11,5.11,0,0,0-.936,3.029,5.286,5.286,0,0,0,2.886,4.795,5.273,5.273,0,0,0,5.591-.262c.24-.15.408-.37.768-.128a29.033,29.033,0,0,0,10.535,4.394c.4.08.479.275.548.632a5.43,5.43,0,0,0,5.191,4.361,5.383,5.383,0,0,0,5.431-4.222.906.906,0,0,1,.849-.834,28.678,28.678,0,0,0,10.158-4.248.622.622,0,0,1,.832-.011,5.407,5.407,0,0,0,6.908-.61,5.425,5.425,0,0,0,.641-6.962.583.583,0,0,1-.015-.774,28.887,28.887,0,0,0,4.317-10.35.722.722,0,0,1,.68-.671,5.438,5.438,0,0,0,4.338-5.351A5.439,5.439,0,0,0,805.591-2390.363Zm-3.226,10.352c.375.164.463.3.375.694a28.058,28.058,0,0,1-3.774,9.116c-.234.367-.4.463-.844.269a5.258,5.258,0,0,0-5.877,1.157,5.231,5.231,0,0,0-1.222,5.869c.186.489.1.677-.317.942a28.113,28.113,0,0,1-9.058,3.739c-.345.077-.511.042-.668-.324a5.193,5.193,0,0,0-5.112-3.439,5.194,5.194,0,0,0-4.993,3.417c-.15.347-.282.425-.65.344a27.938,27.938,0,0,1-9.177-3.8c-.354-.226-.405-.395-.242-.8a5.465,5.465,0,0,0-5.247-7.547,4.972,4.972,0,0,0-1.981.492c-.292.143-.422.081-.592-.179a28.135,28.135,0,0,1-3.9-9.354c-.11-.495.224-.51.5-.632a5.435,5.435,0,0,0,2.133-8.379,5.13,5.13,0,0,0-2.222-1.661c-.367-.142-.475-.282-.385-.693a28.115,28.115,0,0,1,3.775-9.116c.238-.374.408-.448.847-.266a5.318,5.318,0,0,0,5.93-1.214,5.3,5.3,0,0,0,1.154-5.891c-.122-.323-.222-.517.163-.764a28.182,28.182,0,0,1,9.3-3.854c.355-.077.46.048.591.35a5.207,5.207,0,0,0,5.055,3.427,5.192,5.192,0,0,0,5.051-3.43c.153-.358.308-.414.661-.336a28.158,28.158,0,0,1,9.176,3.807c.368.236.383.416.224.8a5.305,5.305,0,0,0,1.179,5.937,5.247,5.247,0,0,0,5.941,1.156c.41-.162.571-.093.793.253a28.113,28.113,0,0,1,3.8,9.179c.081.367-.006.5-.359.645a5.319,5.319,0,0,0-3.421,5.064A5.27,5.27,0,0,0,802.365-2380.011Z" fill="#475577"/>
    <path id="Path_21291" data-name="Path 21291" d="M1026.1-2358.191a3.312,3.312,0,0,1-3.257,3.279,3.327,3.327,0,0,1-3.327-3.287,3.236,3.236,0,0,1,3.29-3.283A3.263,3.263,0,0,1,1026.1-2358.191Z" transform="translate(-226.733 -47.016)" fill="#069fce"/>
    <path id="Path_21292" data-name="Path 21292" d="M916.117-2403.766a3.317,3.317,0,0,1-3.333,3.275,3.322,3.322,0,0,1-3.242-3.3,3.322,3.322,0,0,1,3.265-3.275A3.317,3.317,0,0,1,916.117-2403.766Z" transform="translate(-136.906 -9.784)" fill="#069fce"/>
    <path id="Path_21293" data-name="Path 21293" d="M757.206-2251.42a3.322,3.322,0,0,1,3.274,3.267,3.319,3.319,0,0,1-3.3,3.309,3.323,3.323,0,0,1-3.273-3.267A3.318,3.318,0,0,1,757.206-2251.42Z" transform="translate(-9.785 -136.912)" fill="#069fce"/>
    <path id="Path_21294" data-name="Path 21294" d="M1071.759-2248.157a3.319,3.319,0,0,1-3.305,3.306,3.322,3.322,0,0,1-3.271-3.27,3.319,3.319,0,0,1,3.306-3.305A3.323,3.323,0,0,1,1071.759-2248.157Z" transform="translate(-264.029 -136.906)" fill="#069fce"/>
    <path id="Path_21295" data-name="Path 21295" d="M916.121-2092.464a3.321,3.321,0,0,1-3.283,3.258,3.32,3.32,0,0,1-3.293-3.318,3.322,3.322,0,0,1,3.283-3.258A3.319,3.319,0,0,1,916.121-2092.464Z" transform="translate(-136.908 -264.032)" fill="#069fce"/>
    <path id="Path_21296" data-name="Path 21296" d="M799.535-2138.141a3.318,3.318,0,0,1,3.266-3.267,3.345,3.345,0,0,1,3.308,3.309,3.324,3.324,0,0,1-3.286,3.256A3.271,3.271,0,0,1,799.535-2138.141Z" transform="translate(-47.055 -226.766)" fill="#069fce"/>
    <path id="Path_21297" data-name="Path 21297" d="M1026.138-2138.114a3.277,3.277,0,0,1-3.266,3.27,3.327,3.327,0,0,1-3.309-3.248,3.345,3.345,0,0,1,3.316-3.316A3.319,3.319,0,0,1,1026.138-2138.114Z" transform="translate(-226.768 -226.765)" fill="#069fce"/>
    <path id="Path_21298" data-name="Path 21298" d="M799.527-2358.138a3.259,3.259,0,0,1,3.253-3.27,3.347,3.347,0,0,1,3.315,3.314,3.319,3.319,0,0,1-3.311,3.243A3.31,3.31,0,0,1,799.527-2358.138Z" transform="translate(-47.048 -47.076)" fill="#069fce"/>
    <path id="Path_21299" data-name="Path 21299" d="M866.451-2306.612c-1.038-.444-1.11-.554-.859-1.689a12.379,12.379,0,0,0,.328-2.555,1.993,1.993,0,0,1,.951-1.992l-.3-2.031a2.134,2.134,0,0,1-1.4-1.771,6.079,6.079,0,0,0-.677-1.787,2.336,2.336,0,0,1-.242-2.474l-1.119-1.646a1.992,1.992,0,0,1-2.105-.91,7.189,7.189,0,0,0-1.531-1.362,2.067,2.067,0,0,1-1.159-1.976c-.588-.378-1.328-.5-1.8-1.08a1.757,1.757,0,0,1-2.258.3,7.478,7.478,0,0,0-2.115-.5,2.175,2.175,0,0,1-1.906-1.187h-2.036a1.84,1.84,0,0,1-1.786,1.181,8.525,8.525,0,0,0-2.175.53,2.329,2.329,0,0,1-2.258-.088l-1.766.883a2.02,2.02,0,0,1-1.1,1.921,7.994,7.994,0,0,0-1.527,1.344,2.35,2.35,0,0,1-2.177,1.078c-.167.211-.321.435-.505.63-.283.3-.325.818-.829.914a1.993,1.993,0,0,1-.021,2.528,6.26,6.26,0,0,0-.68,1.843c-.171.866-.521,1.525-1.491,1.648a7.681,7.681,0,0,1-.142,2.047c.352.39.89.628.9,1.284a17.474,17.474,0,0,0,.45,3.64,1.093,1.093,0,0,1-.36,1.166c-.1.086-.21.181-.173.342l.674,1.891a1.909,1.909,0,0,1,1.846,1.371,6.51,6.51,0,0,0,1.111,1.621,2.2,2.2,0,0,1,.744,2.237,8.444,8.444,0,0,0,1.507,1.266,2.577,2.577,0,0,1,2.436.592,7.148,7.148,0,0,0,1.887.949,1.652,1.652,0,0,1,1.325,1.587,14.426,14.426,0,0,1,2.016.434,1.926,1.926,0,0,1,2.109-.686,7.661,7.661,0,0,0,2.247,0c1.39-.155,1.409-.154,1.9,1.1a.272.272,0,0,0,.093.1.838.838,0,0,1,.853-.73,6.274,6.274,0,0,0,1.16-.321.251.251,0,0,0,.156-.209c.019-.719.5-.993,1.089-1.229a10,10,0,0,0,2.186-1.123,1.929,1.929,0,0,1,2.3-.344l1.445-1.4a1.943,1.943,0,0,1,.526-1.976,7.951,7.951,0,0,0,1.39-2,2.026,2.026,0,0,1,1.764-1.338,9.839,9.839,0,0,0,.44-1.145.851.851,0,0,1,.8-.739A.3.3,0,0,0,866.451-2306.612Zm-15.331,5.868c-.613-.033-1.228-.008-1.843-.008-.592,0-1.185-.026-1.774.008-.523.03-.37-.327-.384-.589s-.071-.535.381-.525q1.808.042,3.617,0c.45-.01.4.251.383.522S851.646-2300.716,851.12-2300.744Zm2.871-10.789a6.832,6.832,0,0,0-2.42,3.926c-.041.29-.238.278-.45.276-.616,0-1.232,0-1.848,0h-.137a5.292,5.292,0,0,1-1.83-.049c-.556-.221-.377-1.029-.624-1.547a8.018,8.018,0,0,0-1.826-2.362,6.255,6.255,0,0,1-1.934-6.349,6.289,6.289,0,0,1,4.665-4.805,6.505,6.505,0,0,1,7.4,3.034A6.458,6.458,0,0,1,853.991-2311.533Z" transform="translate(-73.385 -73.324)" fill="#069fce"/>
    <path id="Path_21300" data-name="Path 21300" d="M893.874-2287.739a3.176,3.176,0,0,0-.479,0c-.472.04-.562-.163-.395-.571a4.1,4.1,0,0,1,1.054-1.494,8.676,8.676,0,0,0,3-7.968,8.716,8.716,0,0,0-10.229-7.366,8.891,8.891,0,0,0-7.194,8.644,8.58,8.58,0,0,0,2.793,6.4,4.957,4.957,0,0,1,1.255,1.519c.333.752.3.82-.536.834-.866.015-1.3.367-1.317,1.134q-.033,1.61,0,3.221a1.066,1.066,0,0,0,1.117,1.126,1.847,1.847,0,0,0,.411,0c.569-.1.711.176.666.692-.037.431-.012.868-.007,1.3.012.9.393,1.291,1.294,1.3,1.028.008,2.056,0,3.084,0,1.051,0,2.1.009,3.153,0a1.1,1.1,0,0,0,1.24-1.214,7.555,7.555,0,0,0-.008-1.232c-.1-.708.172-.9.86-.857.869.056,1.318-.342,1.335-1.1q.037-1.644,0-3.289A1.052,1.052,0,0,0,893.874-2287.739Zm-3.666,6.585c-.613-.033-1.228-.008-1.843-.008-.592,0-1.185-.026-1.774.008-.523.03-.37-.326-.384-.589s-.071-.535.381-.525q1.808.042,3.617,0c.45-.01.4.251.383.522S890.733-2281.125,890.207-2281.153Zm.451-6.864c-.041.29-.238.278-.45.276-.616,0-1.232,0-1.848,0h-.137a5.3,5.3,0,0,1-1.83-.049c-.556-.221-.377-1.028-.624-1.547a8.018,8.018,0,0,0-1.826-2.362,6.256,6.256,0,0,1-1.934-6.349,6.289,6.289,0,0,1,4.665-4.805,6.5,6.5,0,0,1,7.4,3.034,6.458,6.458,0,0,1-1,7.877A6.831,6.831,0,0,0,890.658-2288.017Z" transform="translate(-112.472 -92.915)" fill="#475577"/>
    <path id="Path_21301" data-name="Path 21301" d="M854.8-2317.706a1.237,1.237,0,0,1-.526,1.689,14.682,14.682,0,0,0-2.575,2.3,1.323,1.323,0,0,1-1.7.352c-.571-.839-.547-1.162.138-1.91a18.106,18.106,0,0,1,2.857-2.527C853.729-2318.329,854.078-2318.311,854.8-2317.706Z" transform="translate(-87.938 -82.384)" fill="#475577"/>
    <path id="Path_21302" data-name="Path 21302" d="M1015.978-2233.261c-1.171-.112-1.461-.478-1.23-1.633a18.967,18.967,0,0,0,.405-3.452c.012-.811.275-1.1,1.107-1.295.786.149,1.082.465,1.081,1.21a18.6,18.6,0,0,1-.507,4.235A1.086,1.086,0,0,1,1015.978-2233.261Z" transform="translate(-222.775 -146.533)" fill="#475577"/>
    <path id="Path_21303" data-name="Path 21303" d="M955.679-2157.344a1.32,1.32,0,0,1,1.032-1.537,15.792,15.792,0,0,0,3.02-1.591c.744-.465,1.039-.4,1.679.224.286.8.179,1.157-.5,1.616a18.2,18.2,0,0,1-3.536,1.864C956.535-2156.437,956.188-2156.557,955.679-2157.344Z" transform="translate(-174.577 -210.947)" fill="#475577"/>
    <path id="Path_21304" data-name="Path 21304" d="M893.633-2333.531c-.091.881-.323,1.108-1.209,1.25a18.3,18.3,0,0,0-3.346.839,1.256,1.256,0,0,1-1.664-.467,1.181,1.181,0,0,1,.924-1.6,20.407,20.407,0,0,1,3.814-.949C892.972-2334.578,893.326-2334.357,893.633-2333.531Z" transform="translate(-118.789 -69.065)" fill="#475577"/>
    <path id="Path_21305" data-name="Path 21305" d="M1009.089-2278.072a1.251,1.251,0,0,1-1.367-1.058,14.213,14.213,0,0,0-1.241-3.22,1.273,1.273,0,0,1,.288-1.754c.917-.241,1.248-.087,1.684.773a17.879,17.879,0,0,1,1.359,3.547C1010.057-2278.855,1009.934-2278.544,1009.089-2278.072Z" transform="translate(-215.899 -110.132)" fill="#475577"/>
    <path id="Path_21306" data-name="Path 21306" d="M826.859-2239.445c.874.28,1.072.531,1.088,1.412a14.388,14.388,0,0,0,.43,3.381,1.291,1.291,0,0,1-.7,1.64c-.935-.017-1.212-.233-1.426-1.124a17.859,17.859,0,0,1-.488-3.859C825.742-2238.917,825.948-2239.181,826.859-2239.445Z" transform="translate(-68.473 -146.692)" fill="#475577"/>
    <path id="Path_21307" data-name="Path 21307" d="M867.513-2160.035a1.418,1.418,0,0,1,1.824.009,16.159,16.159,0,0,0,3.08,1.612,1.086,1.086,0,0,1,.744,1.507c-.521.713-.825.811-1.619.5a18.837,18.837,0,0,1-3.388-1.75C867.279-2158.728,867.174-2159.032,867.513-2160.035Z" transform="translate(-102.431 -211.284)" fill="#475577"/>
    <path id="Path_21308" data-name="Path 21308" d="M993.624-2189.464a1.253,1.253,0,0,1,.113-1.72,14.724,14.724,0,0,0,2.024-2.964,1.232,1.232,0,0,1,1.542-.636,1.2,1.2,0,0,1,.308,1.833,18.029,18.029,0,0,1-2.162,3.129C994.816-2189.083,994.516-2189.026,993.624-2189.464Z" transform="translate(-205.346 -183.127)" fill="#475577"/>
    <path id="Path_21309" data-name="Path 21309" d="M910.133-2143.467c.3-.82.633-1.057,1.487-.947a13.66,13.66,0,0,0,3.4,0c1.086-.131,1.485.294,1.461,1.464a1.141,1.141,0,0,1-1.056.717,17.812,17.812,0,0,1-4.073.006C910.5-2142.327,910.22-2142.593,910.133-2143.467Z" transform="translate(-137.388 -224.291)" fill="#475577"/>
    <path id="Path_21310" data-name="Path 21310" d="M938.977-2332.179c-.379.778-.774.97-1.573.7a20.011,20.011,0,0,0-3.635-.866,1.2,1.2,0,0,1-1.071-1.221c.309-.809.664-1.048,1.48-.938a19.16,19.16,0,0,1,3.956.967A1.123,1.123,0,0,1,938.977-2332.179Z" transform="translate(-155.819 -69.031)" fill="#475577"/>
    <path id="Path_21311" data-name="Path 21311" d="M831.45-2283.666c.747.507.91.955.533,1.718a19.912,19.912,0,0,0-1.3,3.441,1.064,1.064,0,0,1-1.429.861,1.069,1.069,0,0,1-.681-1.427,18.285,18.285,0,0,1,1.507-3.987A1.11,1.11,0,0,1,831.45-2283.666Z" transform="translate(-70.729 -110.538)" fill="#475577"/>
    <path id="Path_21312" data-name="Path 21312" d="M980.919-2313.625a1.232,1.232,0,0,1-1.742-.309,14.5,14.5,0,0,0-2.592-2.29,1.207,1.207,0,0,1-.462-1.649,1.157,1.157,0,0,1,1.745-.123,18.249,18.249,0,0,1,2.918,2.56A1.2,1.2,0,0,1,980.919-2313.625Z" transform="translate(-191.167 -82.257)" fill="#475577"/>
    <path id="Path_21313" data-name="Path 21313" d="M837.328-2194.49c.872-.232,1.209-.107,1.618.661a15.338,15.338,0,0,0,1.968,2.845,1.262,1.262,0,0,1,.115,1.724c-.879.441-1.188.378-1.831-.365a18.253,18.253,0,0,1-2.208-3.205A1.108,1.108,0,0,1,837.328-2194.49Z" transform="translate(-77.454 -183.324)" fill="#475577"/>
    <path id="Path_21314" data-name="Path 21314" d="M907.937-2197.607c1.254,0,2.509.012,3.763-.007.395-.006.571.079.568.525s-.113.592-.574.589c-2.554-.02-5.108-.016-7.662,0-.394,0-.571-.079-.568-.524s.113-.6.574-.589C905.337-2197.589,906.638-2197.607,907.937-2197.607Z" transform="translate(-131.941 -180.856)" fill="#069fce"/>
  </g>
</svg>
