<svg xmlns="http://www.w3.org/2000/svg" width="68" height="67.98" viewBox="0 0 68 67.98">
  <g id="Group_15004" data-name="Group 15004" transform="translate(-3238 2419.046)">
    <path id="Path_21337" data-name="Path 21337" d="M3305.9-2399.963c.342-.938-.191-1.551-1.2-1.556q-3.083-.014-6.167,0a1.124,1.124,0,0,0-1.31,1.018q-.388,1.489-.754,2.983c-.177.728-.741.28-1.12.373-.4.1-.337-.252-.367-.48-.13-.972-.2-1.956-.39-2.916a23.037,23.037,0,0,0-25.906-18.272,23.083,23.083,0,0,0-19.55,20.056c-.06.533.123,1.288-.265,1.537-.408.261-1.1.06-1.672.092-.338.019-.425-.108-.418-.429.018-.913.023-1.827,0-2.74a1.093,1.093,0,0,0-1.8-.963q-3.2,2.1-6.378,4.254a1.083,1.083,0,0,0,.018,1.951q3.175,2.147,6.379,4.253a1.093,1.093,0,0,0,1.783-.994c.015-.662,0-1.324,0-1.987,0-1.158,0-1.158,1.184-1.158,1.026,0,1.009,0,1.124,1.027a22.773,22.773,0,0,0,12.279,18.3c.609.337,1.512.416,1.79,1s.041,1.388.081,2.094c.027.459-.077.668-.584.614a11.553,11.553,0,0,0-1.3-.009c-1.038.006-1.412.368-1.413,1.391q-.006,3.118,0,6.235,0,3.083,0,6.167c0,1.225.324,1.556,1.523,1.557,1.142,0,2.284.017,3.426-.009.4-.009.586.068.542.517a9.635,9.635,0,0,0,0,1.3,3.805,3.805,0,0,0,3.653,3.658c1.94.046,3.883.04,5.824,0a3.79,3.79,0,0,0,3.556-2.9,7.357,7.357,0,0,0,.108-2.044c-.011-.42.1-.544.529-.534,1.233.031,2.467.019,3.7.008.822-.007,1.258-.407,1.26-1.2q.014-6.475,0-12.95a1.09,1.09,0,0,0-1.191-1.2c-.571-.015-1.143-.018-1.713,0-.3.011-.395-.1-.386-.392.018-.639.035-1.281-.005-1.918-.026-.416.146-.584.5-.741a22.28,22.28,0,0,0,6.479-4.277,22.918,22.918,0,0,0,7.227-15.143c.023-.275-.046-.66.438-.556.38.081.927-.3,1.081.441.2.981.472,1.949.724,2.919a1.127,1.127,0,0,0,1.31,1.018q3.083.009,6.167,0c1,0,1.538-.62,1.2-1.557A11.063,11.063,0,0,1,3305.9-2399.963Zm-32.211,46.7c-1.39-.066-2.785-.007-4.177-.014a1.692,1.692,0,0,1-1.885-1.91c-.012-1.378-.012-1.378,1.374-1.378h3.082c1.278,0,2.557.015,3.835-.009.394-.007.475.121.493.5C3276.5-2353.967,3276.092-2353.15,3273.686-2353.264Zm19.106-41.22c-.921,8.424-5.239,14.361-13.006,17.768-1.1.48-1.2.577-1.2,1.772,0,.822-.024,1.646.009,2.466.018.437-.1.579-.557.573-2.01-.027-4.02-.012-6.03-.012s-4.021-.014-6.031.011c-.455.006-.578-.127-.561-.57.034-.844.01-1.69.01-2.535,0-1.094-.123-1.267-1.132-1.679a20.476,20.476,0,0,1-11.138-10.495,20.835,20.835,0,0,1,15.723-29.443,20.851,20.851,0,0,1,23.8,17.927c.208,1.563.208,1.563-1.39,1.563-.754,0-1.511-.047-2.26.015-.547.046-.63-.2-.686-.648a15.989,15.989,0,0,0-9.321-13.119,16.405,16.405,0,0,0-23.206,12.015,16.441,16.441,0,0,0,13.795,19.111,16.473,16.473,0,0,0,18.59-13.444c.022-.135.061-.268.081-.4.065-.428-.021-1.047.224-1.235.295-.225.871-.093,1.325-.1.845-.008,1.691.012,2.536-.009C3292.729-2394.958,3292.832-2394.859,3292.791-2394.485Zm-26.244-1.01a5.526,5.526,0,0,0,4.926,4.917,5.445,5.445,0,0,0,5.721-3.744.743.743,0,0,1,.888-.634c1.369.039,2.742.054,4.111,0,.65-.028.734.172.643.75a11.07,11.07,0,0,1-9,8.986,10.958,10.958,0,0,1-12.582-8.672,10.952,10.952,0,0,1,9.235-12.992,10.938,10.938,0,0,1,12.293,8.812c.023.112.026.228.055.338.116.442.03.652-.5.615-.728-.051-1.461-.012-2.192-.012h-.548a6.707,6.707,0,0,1-1.974-.044c-.627-.2-.526-1.054-.838-1.583a5.541,5.541,0,0,0-6.441-2.495A5.5,5.5,0,0,0,3266.547-2395.494Zm32.951,2.75c-.266,0-.345-.114-.4-.344-.135-.6-.292-1.189-.459-1.855,1.381,0,2.655.006,3.93,0,.264,0,.408.052.469.343.124.6.289,1.19.456,1.855C3302.127-2392.75,3300.813-2392.757,3299.5-2392.744Z" transform="translate(0 0)" fill="#475577"/>
    <path id="Path_21338" data-name="Path 21338" d="M3379.588-2138.873c-3.059,0-6.118-.01-9.177.01-.5,0-.716-.079-.71-.66q.046-4.828,0-9.656c-.005-.568.188-.67.7-.669q9.178.023,18.355,0c.5,0,.716.078.71.659q-.045,4.828,0,9.656c0,.568-.188.673-.7.669C3385.707-2138.884,3382.647-2138.873,3379.588-2138.873Z" transform="translate(-107.575 -219.885)" fill="#069fce"/>
    <path id="Path_21339" data-name="Path 21339" d="M3345.826-2356.919a14.28,14.28,0,0,1,11.993-14.2,13.826,13.826,0,0,1,11.836,3.547,13.676,13.676,0,0,1,4.564,8.923c.025.229.189.542-.266.5-.327-.027-.789.18-.831-.417a10.737,10.737,0,0,0-1.137-4.058,12.78,12.78,0,0,0-10.153-7.434,12.747,12.747,0,0,0-11.485,4.167,13.143,13.143,0,0,0-2.376,13.971,13.042,13.042,0,0,0,9.865,7.84,13.217,13.217,0,0,0,13.624-6.378,12.393,12.393,0,0,0,1.65-5.025c.053-.641.511-.446.862-.463.473-.023.26.312.242.522a14.259,14.259,0,0,1-11.317,12.352,14.028,14.028,0,0,1-12.739-3.751,13.582,13.582,0,0,1-4.213-8.465A11.044,11.044,0,0,1,3345.826-2356.919Z" transform="translate(-88.072 -38.991)" fill="#069fce"/>
    <path id="Path_21340" data-name="Path 21340" d="M3410.27-2309.254c-.434,0-.869-.02-1.3,0a1.065,1.065,0,0,0-1.07,1.1,1.061,1.061,0,0,0,1.094,1.076c.867.025,1.735.015,2.6,0,.412,0,.47.125.28.484a3.357,3.357,0,0,1-3.539,1.648,3.33,3.33,0,0,1-2.634-3.307,3.346,3.346,0,0,1,2.658-3.152,3.361,3.361,0,0,1,3.527,1.678c.154.308.147.468-.249.46-.457-.009-.913,0-1.37,0Z" transform="translate(-136.983 -87.878)" fill="#069fce"/>
    <path id="Path_21341" data-name="Path 21341" d="M3571.467-2309.24c-.591,0-1.182-.01-1.773,0-.279.007-.365-.084-.291-.357.136-.5.271-1.007.38-1.517.064-.3.251-.327.5-.326,1.16.006,2.319.011,3.479,0,.312,0,.417.093.318.391a1.281,1.281,0,0,0-.023.134C3573.7-2309.24,3573.7-2309.24,3571.467-2309.24Z" transform="translate(-270.675 -87.895)" fill="#069fce"/>
    <path id="Path_21342" data-name="Path 21342" d="M3258.984-2301.419c-1.1-.733-2.115-1.418-3.14-2.092-.26-.171-.221-.282.013-.437,1.022-.673,2.038-1.355,3.127-2.081Z" transform="translate(-14.429 -92.314)" fill="#069fce"/>
  </g>
</svg>
