<svg xmlns="http://www.w3.org/2000/svg" width="68" height="48.258" viewBox="0 0 68 48.258">
  <g id="Group_14998" data-name="Group 14998" transform="translate(256.536 2419.045)">
    <path id="Path_21269" data-name="Path 21269" d="M-194.5-2419.044h-28.027q-14.151,0-28.3,0a5.469,5.469,0,0,0-5.706,5.683q-.01,14.048,0,28.1a5.478,5.478,0,0,0,5.692,5.7c2.239.008,4.477,0,6.716,0,4.683,0,9.365.007,14.048-.01.541,0,.794.031.593.685a16.1,16.1,0,0,0-.444,2.211c-.05.318-.178.419-.488.41-.616-.019-1.233-.015-1.85,0a1.1,1.1,0,0,0-1.234,1.223q-.021,1.507,0,3.015a1.1,1.1,0,0,0,1.219,1.239q9.731.011,19.462,0c.84,0,1.239-.422,1.248-1.281.01-.982.012-1.964,0-2.947-.011-.843-.42-1.237-1.278-1.251-.525-.008-1.053-.029-1.575.007-.459.031-.7-.058-.755-.59a10.764,10.764,0,0,0-.4-2.01c-.175-.585-.047-.714.561-.712,6.853.021,13.705.014,20.558.013,3.648,0,5.925-2.287,5.925-5.95q0-13.774,0-27.548C-188.537-2416.775-190.8-2419.044-194.5-2419.044Zm-23.121,42.776c-3.37-.007-6.739,0-10.163,0,.21-1.043.41-1.954.57-2.872.053-.3.153-.424.474-.423q4.205.015,8.411,0c.269,0,.4.069.456.363.15.851.334,1.7.508,2.543C-217.315-2376.437-217.287-2376.268-217.617-2376.268Zm26.2-12.054q-15.557-.029-31.113-.014-15.522,0-31.045.015c-.62,0-.778-.149-.776-.774.023-8.018.015-16.036.015-24.054,0-2.381,1.308-3.7,3.671-3.7H-194.4a3.321,3.321,0,0,1,3.673,3.631q0,12.1.015,24.191C-190.715-2388.459-190.85-2388.321-191.421-2388.322Z" fill="#475577"/>
    <path id="Path_21270" data-name="Path 21270" d="M-212.905-2239.528q15.487,0,30.973-.015c.652,0,.849.144.834.819a3.361,3.361,0,0,1-3.6,3.582q-28.233,0-56.465,0a3.435,3.435,0,0,1-3.562-4.024c.032-.255.113-.374.372-.362.182.008.365,0,.548,0Z" transform="translate(-9.615 -146.614)" fill="#069fce"/>
    <path id="Path_21271" data-name="Path 21271" d="M-110.148-2172.554c-2.716,0-5.432-.008-8.148.008-.441,0-.651-.067-.65-.584s.258-.525.637-.525q8.149.01,16.3,0c.441,0,.651.066.65.584s-.258.526-.638.525C-104.716-2172.558-107.432-2172.554-110.148-2172.554Z" transform="translate(-112.38 -200.427)" fill="#069fce"/>
    <path id="Path_21272" data-name="Path 21272" d="M-199.416-2354.82h5.43c.365,0,.731-.012,1.095,0a1.093,1.093,0,0,1,1.142,1.106,1.086,1.086,0,0,1-1.171,1.077c-1.985.014-3.969.006-5.954.006h-.543l1.552,2.076c.15.2.313.394.443.608a1.064,1.064,0,0,1-.237,1.467,1.045,1.045,0,0,1-1.52-.195c-1.127-1.463-2.229-2.945-3.326-4.429a1.006,1.006,0,0,1,.016-1.274c1.087-1.465,2.175-2.928,3.285-4.375a1.054,1.054,0,0,1,1.515-.246,1.062,1.062,0,0,1,.211,1.57C-198.082-2356.577-198.718-2355.754-199.416-2354.82Z" transform="translate(-43.952 -48.87)" fill="#475577"/>
    <path id="Path_21273" data-name="Path 21273" d="M8.568-2354.806c-.678-.9-1.269-1.683-1.848-2.47a1.111,1.111,0,0,1,.095-1.689,1.108,1.108,0,0,1,1.647.37c1.033,1.363,2.052,2.736,3.085,4.1a1.168,1.168,0,0,1,.008,1.563c-1.045,1.382-2.076,2.776-3.125,4.155a1.093,1.093,0,0,1-1.6.332,1.085,1.085,0,0,1-.152-1.63c.589-.81,1.2-1.606,1.8-2.409-.132-.226-.336-.121-.495-.122-1.894-.009-3.787,0-5.681-.006-.907,0-1.42-.418-1.4-1.125.018-.684.509-1.066,1.389-1.067C4.333-2354.809,6.382-2354.806,8.568-2354.806Z" transform="translate(-210.266 -48.884)" fill="#475577"/>
    <path id="Path_21274" data-name="Path 21274" d="M-222.736-2233.488c.867,0,1.733-.009,2.6,0,.763.01,1.224.424,1.232,1.079a1.083,1.083,0,0,1-1.2,1.108q-2.634.017-5.269,0a1.082,1.082,0,0,1-1.2-1.112c.011-.656.471-1.065,1.236-1.075C-224.469-2233.5-223.6-2233.488-222.736-2233.488Z" transform="translate(-24.474 -151.558)" fill="#475577"/>
    <path id="Path_21275" data-name="Path 21275" d="M-177.044-2233.482c1.138,0,1.63.323,1.641,1.079.012.776-.5,1.115-1.676,1.114-.137,0-.273,0-.41,0a1.1,1.1,0,0,1-1.2-1.113,1.086,1.086,0,0,1,1.163-1.077C-177.363-2233.487-177.2-2233.481-177.044-2233.482Z" transform="translate(-63.588 -151.564)" fill="#004fac"/>
    <path id="Path_21276" data-name="Path 21276" d="M-105.125-2383.432c0-1.553-.015-3.107.008-4.66a1.431,1.431,0,0,0-.728-1.363q-4.187-2.6-8.356-5.222a1.335,1.335,0,0,0-1.585,0q-4.165,2.632-8.356,5.223a1.434,1.434,0,0,0-.732,1.357q.024,4.66,0,9.319a1.436,1.436,0,0,0,.757,1.344q4.159,2.577,8.3,5.188a1.381,1.381,0,0,0,1.646.005q4.138-2.612,8.3-5.187a1.479,1.479,0,0,0,.76-1.415C-105.143-2380.371-105.125-2381.9-105.125-2383.432Zm-3.558-4.7q-3,1.854-5.977,3.731a.506.506,0,0,1-.621.028c-2.1-1.322-4.2-2.634-6.412-4.015,2.2-1.374,4.287-2.674,6.367-3.986a.552.552,0,0,1,.681.007q2.98,1.879,5.976,3.731C-108.336-2388.428-108.385-2388.315-108.682-2388.131Z" transform="translate(-107.54 -19.691)" fill="#475577"/>
    <path id="Path_21277" data-name="Path 21277" d="M-112.811-2348.037c1.012.624,2,1.225,2.974,1.834,1.045.651,2.082,1.314,3.129,1.962.224.139.4.263.4.572-.013,2.236-.012,4.472-.018,6.708,0,.037-.038.073-.1.176q-1.649-1.024-3.289-2.042c-.929-.579-1.854-1.163-2.783-1.741a.682.682,0,0,1-.409-.638c.018-2.19.011-4.381.015-6.571A1.224,1.224,0,0,1-112.811-2348.037Z" transform="translate(-117.315 -57.998)" fill="#069fce"/>
    <path id="Path_21278" data-name="Path 21278" d="M-58.419-2348.372c0,2.423,0,4.681,0,6.939a.53.53,0,0,1-.252.516c-2.068,1.281-4.132,2.569-6.33,3.938v-1.044c0-1.894,0-3.788,0-5.682,0-.237-.076-.5.206-.671C-62.707-2345.676-60.63-2346.984-58.419-2348.372Z" transform="translate(-156.44 -57.725)" fill="#069fce"/>
  </g>
</svg>
