<svg xmlns="http://www.w3.org/2000/svg" width="68" height="68" viewBox="0 0 68 68">
  <g id="Group_14995" data-name="Group 14995" transform="translate(1754.208 2419.045)">
    <path id="Path_21226" data-name="Path 21226" d="M-1721.305-2417.546c0-1.161-.342-1.5-1.514-1.5H-1752.7c-1.167,0-1.5.337-1.5,1.508q0,7.437,0,14.874,0,7.574,0,15.148c0,.985.384,1.365,1.366,1.371.845.005,1.691.021,2.536-.008.392-.013.5.113.492.5-.02,1.531,0,3.062-.013,4.592-.006.606.059,1.154.706,1.416.62.25,1.036-.092,1.442-.5,1.837-1.846,3.689-3.678,5.516-5.534a1.433,1.433,0,0,1,1.129-.474q9.116.025,18.232.01c1.156,0,1.5-.345,1.5-1.519Q-1721.3-2402.6-1721.305-2417.546Zm-20.837,13.29a.877.877,0,0,0,0,.136c0,1.526,0,1.526-1.49,1.526h-.682c-1.079,0-1.118-.04-1.118-1.111,0-1.032.05-1.082,1.079-1.083.569,0,1.14.032,1.705-.01C-1742.2-2404.831-1742.081-2404.654-1742.143-2404.256Z" fill="#475577"/>
    <path id="Path_21227" data-name="Path 21227" d="M-1529.75-2261.908c0-1.16-.342-1.5-1.515-1.5h-29.885c-1.167,0-1.5.337-1.5,1.509q0,7.471,0,14.942,0,7.437,0,14.874c0,1.262.315,1.577,1.573,1.577,6.032,0,12.063.007,18.1-.012a1.583,1.583,0,0,1,1.244.527c1.825,1.858,3.678,3.689,5.515,5.536a1.2,1.2,0,0,0,1.394.442,1.192,1.192,0,0,0,.7-1.283c-.013-1.553.014-3.108-.016-4.661-.009-.46.134-.577.573-.558.775.034,1.553.011,2.33.009,1.156,0,1.5-.345,1.5-1.519Q-1529.748-2246.966-1529.75-2261.908Zm-2.18,28.544c0,.554-.164.7-.694.677-.8-.041-1.6-.016-2.4-.009-.911.008-1.3.387-1.3,1.286-.009,1.18,0,2.359,0,3.735-1.536-1.538-2.939-2.913-4.3-4.325a2.143,2.143,0,0,0-1.686-.711c-5.781.024-11.561.006-17.342.025-.585,0-.817-.094-.815-.766q.038-13.5,0-27.007c0-.582.115-.771.742-.77q13.538.034,27.076,0c.567,0,.724.144.723.718Q-1531.957-2246.936-1531.93-2233.364Z" transform="translate(-156.459 -127.122)" fill="#475577"/>
    <path id="Path_21228" data-name="Path 21228" d="M-1713.765-2406.43c0-.567-.145-.724-.718-.723q-13.538.027-27.076,0c-.619,0-.75.174-.748.765q.031,11,.013,22,0,2.433,0,4.867c0,.9,0,.9.862.9.731,0,1.462,0,2.194,0,.949.008,1.324.381,1.33,1.332.006,1.161,0,2.323,0,3.692,1.557-1.56,2.986-2.968,4.384-4.406a1.938,1.938,0,0,1,1.511-.63c5.826.018,11.653,0,17.479.023.583,0,.771-.116.77-.743Q-1713.8-2392.892-1713.765-2406.43Zm-18.656,11.886a.874.874,0,0,0,0,.136c0,1.526,0,1.526-1.49,1.526h-.682c-1.079,0-1.118-.04-1.118-1.111,0-1.032.05-1.082,1.079-1.083.569,0,1.14.032,1.705-.01C-1732.481-2395.119-1732.36-2394.942-1732.422-2394.544Z" transform="translate(-9.721 -9.712)" fill="#069fce"/>
    <path id="Path_21229" data-name="Path 21229" d="M-1536.331-2369.689c0-1.117-.353-1.467-1.476-1.467h-23.359c-1.154,0-1.487.342-1.487,1.523q0,7.261,0,14.522c0,1.164.341,1.5,1.509,1.5q5.788,0,11.576,0h11.714c1.175,0,1.522-.339,1.522-1.49Q-1536.329-2362.394-1536.331-2369.689Zm-2.181,13.259c0,.5-.1.644-.629.642q-10.343-.03-20.687,0c-.494,0-.65-.094-.646-.625q.039-5.959,0-11.919c0-.5.1-.647.629-.643,3.47.027,6.941.014,10.412.014,3.425,0,6.85.01,10.275-.012.495,0,.65.094.646.625Q-1538.549-2362.391-1538.512-2356.431Z" transform="translate(-156.459 -39.114)" fill="#475577"/>
    <path id="Path_21230" data-name="Path 21230" d="M-1677.635-2221.5q-10.616,0-21.233,0c-1.118,0-1.464.35-1.465,1.477q0,6.2,0,12.4c0,1.125.35,1.479,1.463,1.48q5.308,0,10.617,0t10.617,0c1.068,0,1.431-.367,1.431-1.443q0-6.233,0-12.466C-1676.206-2221.14-1676.566-2221.5-1677.635-2221.5Zm-1.39,13.173c-3.082-.025-6.164-.012-9.246-.012s-6.164-.013-9.246.013c-.514,0-.639-.125-.635-.636q.038-4.863,0-9.726c0-.521.136-.633.64-.631q9.246.028,18.493,0c.513,0,.639.124.635.636q-.038,4.863,0,9.726C-1678.38-2208.442-1678.52-2208.328-1679.025-2208.332Z" transform="translate(-44.003 -161.347)" fill="#475577"/>
    <path id="Path_21231" data-name="Path 21231" d="M-1699.679-2376.6c0-1.021-.713-1.478-1.67-1.087-1.836.749-3.674,1.495-5.5,2.276-2.823,1.21-5.592,2.557-8.831,2.128a2.342,2.342,0,0,0-2.218,1.247,4.206,4.206,0,0,0-.421,2.519,2.633,2.633,0,0,0,1.964,2.647.656.656,0,0,1,.522.605c.24,1.321.526,2.633.794,3.949a1.11,1.11,0,0,0,1.26,1.063q1.473.015,2.945,0a1.118,1.118,0,0,0,1.223-1.506c-.211-1.044-.418-2.089-.65-3.252.246.091.375.135.5.186q4.2,1.733,8.41,3.463a1.1,1.1,0,0,0,1.67-1.088Q-1699.665-2370.019-1699.679-2376.6Zm-13.156,6.01a.877.877,0,0,0,0,.136c0,1.526,0,1.526-1.49,1.526h-.682c-1.079,0-1.118-.04-1.118-1.111,0-1.032.05-1.082,1.079-1.083.569,0,1.14.032,1.705-.01C-1712.894-2371.16-1712.773-2370.983-1712.835-2370.585Z" transform="translate(-29.308 -33.671)" fill="#475577"/>
    <path id="Path_21232" data-name="Path 21232" d="M-1529.984-2345.029h-6.981c-.137,0-.274,0-.411,0-.811-.014-1.3-.417-1.307-1.082s.476-1.1,1.277-1.109c.593-.009,1.186,0,1.779,0h13c.974,0,1.492.395,1.479,1.115-.013.7-.516,1.076-1.449,1.077q-2.7,0-5.406,0Z" transform="translate(-176.037 -58.661)" fill="#475577"/>
    <path id="Path_21233" data-name="Path 21233" d="M-1529.978-2329.272q3.7,0,7.391,0c.879,0,1.37.386,1.386,1.071.016.706-.5,1.12-1.406,1.121q-7.391,0-14.783,0c-.951,0-1.545-.62-1.313-1.375a1.152,1.152,0,0,1,1.265-.821C-1534.951-2329.266-1532.464-2329.272-1529.978-2329.272Z" transform="translate(-175.981 -73.322)" fill="#475577"/>
    <path id="Path_21234" data-name="Path 21234" d="M-1533.274-2311.3c1.345,0,2.689,0,4.034,0,.875,0,1.366.391,1.378,1.076s-.49,1.113-1.341,1.115q-4.068.006-8.137,0c-.855,0-1.354-.423-1.343-1.112s.5-1.077,1.374-1.079C-1535.964-2311.3-1534.619-2311.3-1533.274-2311.3Z" transform="translate(-176.037 -88.004)" fill="#475577"/>
    <path id="Path_21235" data-name="Path 21235" d="M-1471.189-2309.1c-1.122,0-1.631-.331-1.649-1.072-.019-.764.514-1.122,1.665-1.122h.136c.973,0,1.485.386,1.479,1.1s-.516,1.087-1.5,1.089Z" transform="translate(-229.817 -88.007)" fill="#069fce"/>
    <path id="Path_21236" data-name="Path 21236" d="M-1673.583-2201.369h-7.118c-.137,0-.274,0-.411,0-.756-.022-1.229-.437-1.238-1.083a1.1,1.1,0,0,1,1.21-1.107c.638-.013,1.277,0,1.916,0h13c.911.006,1.423.412,1.41,1.116-.013.686-.505,1.075-1.381,1.076Q-1669.887-2201.365-1673.583-2201.369Z" transform="translate(-58.694 -175.999)" fill="#475577"/>
    <path id="Path_21237" data-name="Path 21237" d="M-1673.648-2185.6q3.7,0,7.391,0c.877,0,1.368.389,1.382,1.075s-.49,1.115-1.341,1.116q-7.425,0-14.851,0c-1.071,0-1.666-.818-1.2-1.63a1.192,1.192,0,0,1,1.161-.565C-1678.622-2185.6-1676.135-2185.6-1673.648-2185.6Z" transform="translate(-58.628 -190.669)" fill="#475577"/>
    <path id="Path_21238" data-name="Path 21238" d="M-1676.936-2167.636c1.368,0,2.735-.005,4.1,0,.811,0,1.3.415,1.305,1.08s-.48,1.107-1.277,1.109q-4.137.01-8.274,0c-.8,0-1.283-.445-1.27-1.115s.5-1.07,1.31-1.074C-1679.671-2167.641-1678.3-2167.636-1676.936-2167.636Z" transform="translate(-58.693 -205.345)" fill="#475577"/>
    <path id="Path_21239" data-name="Path 21239" d="M-1614.86-2165.446c-1.119,0-1.629-.334-1.644-1.076-.015-.764.514-1.118,1.671-1.117.159,0,.318-.007.477,0a1.1,1.1,0,0,1,1.134,1.107,1.1,1.1,0,0,1-1.161,1.082C-1614.542-2165.44-1614.7-2165.447-1614.86-2165.446Z" transform="translate(-112.475 -205.342)" fill="#069fce"/>
    <path id="Path_21240" data-name="Path 21240" d="M-1667.686-2352.367c-1.207-.5-2.317-.965-3.43-1.422-1.581-.649-3.16-1.3-4.751-1.928a.783.783,0,0,1-.6-.9,15.893,15.893,0,0,0,.005-1.848.553.553,0,0,1,.411-.608c2.616-1.069,5.226-2.153,7.839-3.231.28-.115.542-.283.54.272C-1667.7-2358.861-1667.686-2355.689-1667.686-2352.367Z" transform="translate(-63.49 -46.249)" fill="#069fce"/>
    <path id="Path_21241" data-name="Path 21241" d="M-1692.1-2317.408c.227-.04.375.1.434.487.121.786.313,1.561.47,2.341.039.191.143.47-.184.458-.292-.01-.73.255-.846-.28-.188-.867-.359-1.738-.531-2.608C-1692.851-2317.49-1692.487-2317.366-1692.1-2317.408Z" transform="translate(-50.181 -83.01)" fill="#069fce"/>
    <path id="Path_21242" data-name="Path 21242" d="M-1500.243-2208.885q-6.339-3.156-12.671-6.325c-1.141-.569-1.852-.107-1.854,1.19q0,3.081,0,6.163c0,2.122,0,4.245,0,6.367,0,1.233.737,1.687,1.846,1.135q6.337-3.159,12.671-6.325a1.2,1.2,0,0,0,.831-1.134A1.206,1.206,0,0,0-1500.243-2208.885Zm-12.295,5.892v-9.579l9.578,4.787Z" transform="translate(-195.569 -166.293)" fill="#475577"/>
  </g>
</svg>
