<svg xmlns="http://www.w3.org/2000/svg" width="68" height="67.871" viewBox="0 0 68 67.871">
  <g id="Group_14996" data-name="Group 14996" transform="translate(1255.005 2419.046)">
    <path id="Path_21243" data-name="Path 21243" d="M-1121.2-2413.278a3.386,3.386,0,0,1-1.312,2.674c-.358.313-.37.506-.013.847,1.106,1.057,2.177,2.152,3.254,3.239.741.748.743,1.237,0,1.983-1,1.007-1.975,2.032-3.015,2.992-.51.47-.549.742-.016,1.244a3.191,3.191,0,0,1,.7,3.99,3.292,3.292,0,0,1-5.247.736c-.709-.67-.71-.671-1.412.031-1,1-2,2.01-3,3-.723.713-1.217.708-1.931,0q-2.137-2.127-4.266-4.262a1.16,1.16,0,0,1-.005-1.937c.432-.44.883-.862,1.3-1.312a1.077,1.077,0,0,0,.059-1.589,1.089,1.089,0,0,0-1.591.034c-.469.435-.9.9-1.363,1.35a1.133,1.133,0,0,1-1.837.016q-2.215-2.194-4.409-4.409a1.093,1.093,0,0,1,.028-1.78c1.011-1.024,2.033-2.037,3.051-3.054.684-.684.684-.683.019-1.368a3.28,3.28,0,0,1-.442-4.354,3.273,3.273,0,0,1,4.829-.536,4.74,4.74,0,0,1,.589.573c.249.306.429.28.7,0,1.083-1.113,2.189-2.2,3.29-3.3.774-.77,1.244-.77,2.027.009,1.069,1.063,2.152,2.113,3.188,3.207.366.386.57.361.9-.016a3.277,3.277,0,0,1,3.554-1.163A3.233,3.233,0,0,1-1121.2-2413.278Z" transform="translate(-89.242)" fill="#475577"/>
    <path id="Path_21244" data-name="Path 21244" d="M-1073.22-2256.3q0,3.113,0,6.226c0,.867-.4,1.364-1.088,1.37s-1.1-.5-1.1-1.353q0-6.328,0-12.657c0-.849.432-1.351,1.12-1.334.664.016,1.067.5,1.07,1.317C-1073.216-2260.588-1073.22-2258.444-1073.22-2256.3Z" transform="translate(-146.69 -126.601)" fill="#475577"/>
    <path id="Path_21245" data-name="Path 21245" d="M-1097.164-2268.822q0,2.839,0,5.678c0,.867-.4,1.364-1.086,1.371s-1.1-.494-1.1-1.351q0-5.78,0-11.561c0-.849.431-1.351,1.119-1.335.664.015,1.068.5,1.071,1.316C-1097.161-2272.744-1097.164-2270.783-1097.164-2268.822Z" transform="translate(-127.132 -116.823)" fill="#475577"/>
    <path id="Path_21246" data-name="Path 21246" d="M-1051.468-2268.969q0-2.839,0-5.678c0-.874.394-1.365,1.081-1.373s1.109.49,1.109,1.346q.005,5.781,0,11.561c0,.852-.429,1.354-1.116,1.34s-1.073-.509-1.074-1.381Q-1051.472-2266.061-1051.468-2268.969Z" transform="translate(-166.249 -116.824)" fill="#475577"/>
    <path id="Path_21247" data-name="Path 21247" d="M-1051.476-2181.868c0-1.025-.006-2.05,0-3.075.007-.8.43-1.288,1.1-1.285s1.088.488,1.09,1.294q.01,3.109,0,6.219a1.111,1.111,0,0,1-1.065,1.251c-.664.019-1.115-.475-1.123-1.261C-1051.483-2179.773-1051.476-2180.821-1051.476-2181.868Z" transform="translate(-166.241 -190.166)" fill="#475577"/>
    <path id="Path_21248" data-name="Path 21248" d="M-1075.416-2172.616c0-1.119.333-1.629,1.076-1.642.763-.014,1.117.516,1.117,1.672,0,.159.006.318,0,.477a1.1,1.1,0,0,1-1.109,1.133,1.1,1.1,0,0,1-1.079-1.162C-1075.422-2172.3-1075.416-2172.457-1075.416-2172.616Z" transform="translate(-146.687 -199.943)" fill="#014fac"/>
    <path id="Path_21249" data-name="Path 21249" d="M-1226.494-2278.332c0-.839-.423-1.233-1.286-1.242-.822-.009-1.648-.047-2.466.013-.6.043-.7-.182-.694-.726.023-4,0-7.994.016-11.992a7.068,7.068,0,0,0-2.1-5.177q-4.454-4.558-8.839-9.182a4.12,4.12,0,0,0-4.371-1.284c0-.267,0-.469,0-.671,0-1.85.015-3.7-.006-5.551a3.813,3.813,0,0,0-3.04-3.724,7.111,7.111,0,0,0-1.637-.086A3.836,3.836,0,0,0-1255-2313.9c-.005,4.523,0,9.045,0,13.568a6.793,6.793,0,0,0,1.642,4.529q4.495,5.35,8.974,10.713a1.121,1.121,0,0,1,.361.774c-.02,1.439-.017,2.878,0,4.317,0,.327-.092.433-.423.426-.913-.02-1.827-.017-2.741,0a1.1,1.1,0,0,0-1.226,1.231q-.014,4.248,0,8.5a1.1,1.1,0,0,0,1.226,1.231q9.731.01,19.461,0a1.1,1.1,0,0,0,1.237-1.221Q-1226.479-2274.084-1226.494-2278.332Zm-7.18-1.233q-3.8-.038-7.607,0c-.435,0-.583-.094-.574-.557.031-1.53,0-3.061.019-4.591a1.873,1.873,0,0,0-.471-1.308c-3.073-3.652-6.124-7.324-9.208-10.967a5.225,5.225,0,0,1-1.307-3.566c.029-4.34.01-8.681.011-13.021,0-1.669.53-2.18,2.225-2.193a2.042,2.042,0,0,1,1.749.579,1.771,1.771,0,0,1,.414,1.2q-.006,3.667,0,7.333a1.112,1.112,0,0,1-.278.732,3.793,3.793,0,0,0,.356,5.212c1.835,1.782,3.7,3.537,5.555,5.3.606.574,1.213.6,1.691.113s.428-1.12-.21-1.731c-1.749-1.675-3.508-3.338-5.259-5.011-1.087-1.039-1.093-1.853-.03-2.918a2.609,2.609,0,0,1,1.252-.914,1.663,1.663,0,0,1,1.624.5q4.705,4.887,9.413,9.773a4.479,4.479,0,0,1,1.183,3.262c0,1.987,0,3.975,0,5.962,0,2.079-.011,4.158.009,6.236C-1233.107-2279.714-1233.2-2279.56-1233.674-2279.565Z" transform="translate(0 -82.565)" fill="#475577"/>
    <path id="Path_21250" data-name="Path 21250" d="M-1198.4-2089.936c-2.694,0-5.387-.011-8.081.01-.5,0-.722-.083-.708-.662.041-1.757.031-3.515,0-5.272-.007-.49.1-.669.634-.667q8.149.03,16.3,0c.45,0,.645.085.636.593q-.044,2.7,0,5.41c.008.505-.181.6-.634.595C-1192.964-2089.945-1195.68-2089.936-1198.4-2089.936Z" transform="translate(-39.059 -263.433)" fill="#069fce"/>
    <path id="Path_21251" data-name="Path 21251" d="M-1011-2314.231a3.773,3.773,0,0,0-2.987-3.625,7.123,7.123,0,0,0-1.7-.1,3.838,3.838,0,0,0-4.069,4.081c0,1.828,0,3.655,0,5.482,0,.243.077.5-.373.4a3.872,3.872,0,0,0-3.894,1.264c-2.906,3.036-5.795,6.09-8.755,9.072a7.572,7.572,0,0,0-2.294,5.72c.047,3.86-.007,7.72.032,11.58.007.687-.193.848-.833.8-.749-.058-1.506-.018-2.26-.013-.981.007-1.359.385-1.361,1.375q-.006,4.077,0,8.155c0,1.074.363,1.434,1.439,1.435q4.728,0,9.456,0,4.865,0,9.731,0c.9,0,1.3-.4,1.3-1.3q.01-4.18,0-8.36c0-.9-.4-1.3-1.291-1.306-.868-.009-1.737-.021-2.6.006-.383.012-.5-.1-.5-.491q.034-2.089,0-4.179a1.207,1.207,0,0,1,.359-.844q4.515-5.378,9.019-10.764a6.221,6.221,0,0,0,1.578-4Q-1010.953-2307.036-1011-2314.231Zm-3.379,17.124c-3.088,3.669-6.157,7.355-9.248,11.022a2.022,2.022,0,0,0-.53,1.423c.027,1.53,0,3.061.017,4.592,0,.372-.078.509-.482.506q-3.872-.027-7.744,0c-.375,0-.514-.086-.513-.49.014-4.18,0-8.361.015-12.541a4.482,4.482,0,0,1,1.343-3.2q4.576-4.727,9.138-9.467a1.651,1.651,0,0,1,2.63-.053c.182.174.361.35.533.532a1.641,1.641,0,0,1-.05,2.583c-1.744,1.679-3.505,3.341-5.257,5.013a3.218,3.218,0,0,0-.509.551,1,1,0,0,0,.128,1.317,1.01,1.01,0,0,0,1.309.21,2.655,2.655,0,0,0,.528-.433q2.633-2.5,5.261-5.008a3.825,3.825,0,0,0,.435-5.461,1.044,1.044,0,0,1-.194-.694c0-2.4,0-4.8,0-7.2a1.678,1.678,0,0,1,1.865-1.862c.228,0,.457,0,.685,0a1.67,1.67,0,0,1,1.831,1.827c.009,2.33,0,4.66,0,6.99,0,2.17-.017,4.341.007,6.511A4.889,4.889,0,0,1-1014.376-2297.107Z" transform="translate(-176.026 -82.568)" fill="#475577"/>
    <path id="Path_21252" data-name="Path 21252" d="M-1018.815-2089.935c-2.694,0-5.387-.011-8.081.01-.505,0-.72-.087-.707-.664.04-1.757.031-3.515,0-5.273-.008-.492.1-.668.635-.666q8.149.03,16.3,0c.452,0,.643.087.635.594q-.044,2.7,0,5.41c.008.507-.183.6-.635.594C-1013.382-2089.944-1016.1-2089.935-1018.815-2089.935Z" transform="translate(-185.742 -263.434)" fill="#069fce"/>
    <path id="Path_21253" data-name="Path 21253" d="M-1124.344-2391.613a3.333,3.333,0,0,0-2.682,1.3c-.315.379-.541.429-.908.027-.708-.775-1.459-1.513-2.226-2.23-.37-.346-.387-.567-.009-.929,1.105-1.058,2.176-2.153,3.254-3.239.717-.723.712-1.19-.009-1.922-.433-.44-.885-.861-1.3-1.313a1.1,1.1,0,0,1-.037-1.594,1.106,1.106,0,0,1,1.595.042c.484.452.934.94,1.411,1.4a1.06,1.06,0,0,0,1.724,0c1.124-1.1,2.247-2.211,3.338-3.349.365-.38.583-.348.931.014,1.061,1.1,2.153,2.175,3.24,3.253.7.693,1.177.695,1.873.018.393-.382.774-.777,1.164-1.161.639-.631,1.308-.706,1.792-.205.465.481.389,1.137-.207,1.744-.384.391-.778.773-1.161,1.165-.707.721-.7,1.19.021,1.921,1.095,1.1,2.183,2.211,3.3,3.288.33.317.314.491-.006.8-1.117,1.079-2.208,2.186-3.3,3.289a1.133,1.133,0,0,0,.01,1.833c.43.442.888.859,1.294,1.321a1.081,1.081,0,0,1,0,1.59,1.1,1.1,0,0,1-1.592-.085c-.416-.39-.807-.808-1.215-1.208-.712-.7-1.241-.707-1.941-.013-1.1,1.093-2.214,2.181-3.288,3.3-.365.381-.588.353-.931-.014-.7-.75-1.427-1.481-2.181-2.179-.367-.339-.412-.544-.017-.906a3.694,3.694,0,0,0,1.253-2.141A3.292,3.292,0,0,0-1124.344-2391.613Z" transform="translate(-101.74 -12.545)" fill="#069fce"/>
  </g>
</svg>
