<svg xmlns="http://www.w3.org/2000/svg" width="68" height="68.007" viewBox="0 0 68 68.007">
  <g id="Group_15003" data-name="Group 15003" transform="translate(-2738.825 2419.045)">
    <path id="Path_21327" data-name="Path 21327" d="M2806.82-2404.1a3.827,3.827,0,0,0-3.97-3.977c-.731-.005-1.463-.03-2.193.009a.963.963,0,0,1-1.02-.559,6.553,6.553,0,0,0-10.15-1.415c-.532.5-1.057,1.012-1.55,1.551a1.234,1.234,0,0,1-1.014.421q-7.47-.022-14.94,0c-.507,0-.683-.163-.815-.629a14.254,14.254,0,0,0-12.919-10.338,14.224,14.224,0,0,0-14.5,10.421c-.124.433-.306.545-.744.545-2.646,0-4.183,1.567-4.183,4.233q0,19.877,0,39.754c0,2.7,1.551,4.261,4.237,4.261q9.972,0,19.944,0a1.446,1.446,0,0,1,.748.072c-.08.357-.16.712-.24,1.066-.156.689-.1,1.587-.526,2.01s-1.346.109-2.047.136c-.858.034-1.264.411-1.274,1.259q-.018,1.473,0,2.947c.009.884.412,1.271,1.319,1.28.777.007,1.553,0,2.33,0h21.108c1.247,0,1.561-.321,1.562-1.59,0-.868.008-1.736,0-2.6-.01-.889-.41-1.277-1.311-1.288-.594-.007-1.188-.008-1.782,0-.257,0-.418-.039-.472-.346-.169-.964-.372-1.922-.575-2.947h.791q9.972,0,19.943,0a3.879,3.879,0,0,0,4.245-4.255q0-10.59,0-21.179Q2806.823-2394.674,2806.82-2404.1Zm-16.535-3.669a4.794,4.794,0,0,1,4.609-1.8,4.435,4.435,0,0,1,3.41,3.438c.053.29.058.589.084.885a4.845,4.845,0,0,1-1.857,3.665c-.195.179-.3.1-.441-.042q-2.874-2.881-5.754-5.757C2790.213-2407.5,2790.159-2407.582,2790.285-2407.767Zm-2.88,2.882a10.751,10.751,0,0,0,.778-.769c.112-.111.213-.245.4-.225.212,0,.315.166.44.291,1.809,1.8,3.609,3.617,5.428,5.41.281.277.26.424-.008.7-1.2,1.217-1.187,1.227-2.385.028-1.549-1.548-3.088-3.106-4.653-4.638C2787.09-2404.4,2787.049-2404.6,2787.405-2404.885Zm-17.281,29.625a6.972,6.972,0,0,1-1.382.363c-.222.05-.331-.112-.458-.24-1.469-1.47-2.935-2.944-4.413-4.4a.565.565,0,0,1-.181-.665c.188-.5.1-1.1.552-1.511.188-.173.31-.28.547-.041,1.9,1.915,3.815,3.808,5.7,5.729C2770.948-2375.565,2770.344-2375.366,2770.124-2375.26Zm-12.722-41.59a12.074,12.074,0,0,1,12.129,11.927,12.064,12.064,0,0,1-12.063,12.2,12.073,12.073,0,0,1-12.061-12.062A12.087,12.087,0,0,1,2757.4-2416.85Zm25.755,62.513c.4,0,.662-.01.658.547,0,.533-.217.565-.644.563-3.447-.014-6.894-.008-10.34-.008s-6.894,0-10.34.006c-.4,0-.662.01-.658-.548,0-.533.217-.564.644-.563Q2772.817-2354.322,2783.157-2354.337Zm21.48-10.231c-.045.314,0,.64-.015.958a1.647,1.647,0,0,1-1.575,1.594c-.182.013-.365.006-.548.006h-59.354a2.192,2.192,0,0,1-2.124-3.115c.065-.183.18-.172.313-.174.183,0,.365,0,.548,0h30.979q15.524,0,31.048-.016C2804.521-2365.316,2804.722-2365.162,2804.637-2364.568Z" fill="#475577"/>
    <path id="Path_21328" data-name="Path 21328" d="M2794.947-2347.209c-.071.259-.3.388-.47.558q-11.069,11.079-22.149,22.148a2.613,2.613,0,0,0-.766,1.331c-.707,3.179-1.451,6.35-2.169,9.527a1.07,1.07,0,0,0,1.355,1.371c3.266-.736,6.527-1.492,9.792-2.233a1.752,1.752,0,0,0,.873-.5q13.517-13.525,27.034-27.049a5.987,5.987,0,0,0,1.85-4.559c-.016-.495.09-.711.63-.667.567.047,1.142,0,1.712.013a1.653,1.653,0,0,1,1.754,1.77c.014,1.371,0,2.741,0,4.112q0,15.833.017,31.665c0,.7-.185.856-.867.855q-30.943-.029-61.885-.017c-.989,0-.874.1-.874-.881q0-17.752,0-35.5c0-1.169.563-1.9,1.525-2,.456-.049.712.016.684.6a13.236,13.236,0,0,0,1.4,6.691,13.9,13.9,0,0,0,10.217,7.794,13.642,13.642,0,0,0,11.339-2.73,13.872,13.872,0,0,0,5.427-9.552,15.593,15.593,0,0,0,.1-2.321c-.007-.344.087-.488.458-.487q6.442.015,12.884.011C2794.862-2347.272,2794.9-2347.236,2794.947-2347.209Z" transform="translate(-9.768 -58.605)" fill="#069fce"/>
    <path id="Path_21329" data-name="Path 21329" d="M2903.007-2296.716c-.26-.042-.368-.235-.51-.374-1.12-1.1-1.119-1.1-.019-2.2q8.892-8.893,17.774-17.8c.436-.438.656-.422,1.064.011,1,1.065,1.027,1.045,0,2.071l-17.833,17.834C2903.324-2297.011,2903.157-2296.859,2903.007-2296.716Z" transform="translate(-132.994 -83.015)" fill="#069fce"/>
    <path id="Path_21330" data-name="Path 21330" d="M2891.015-2092.53c-2.258,0-4.515-.011-6.773.009-.5,0-.763-.038-.577-.65.218-.716.363-1.456.51-2.191.063-.313.164-.466.523-.465q6.363.017,12.725,0c.336,0,.473.1.527.45a21.406,21.406,0,0,0,.46,2.271c.133.5-.038.583-.485.581C2895.621-2092.538,2893.318-2092.531,2891.015-2092.53Z" transform="translate(-118.252 -263.994)" fill="#069fce"/>
    <path id="Path_21331" data-name="Path 21331" d="M2908.273-2329.929c-.211.226-.344.378-.487.52q-6.027,6.03-12.055,12.058c-2.13,2.131-4.266,4.256-6.385,6.4-.329.333-.534.443-.933.054-.436-.425-.122-.606.132-.86q9.223-9.224,18.451-18.444c.155-.154.273-.5.589-.315A5.332,5.332,0,0,1,2908.273-2329.929Z" transform="translate(-122.002 -72.262)" fill="#56a3fe"/>
    <path id="Path_21332" data-name="Path 21332" d="M2918.357-2280.665a1.633,1.633,0,0,1-.627-.606c-.144-.239.112-.365.245-.5q2.463-2.476,4.936-4.942,6.778-6.779,13.543-13.571c.456-.46.688-.4,1.05.032.2.234.189.383-.025.566-.086.074-.162.16-.243.241q-9.175,9.176-18.352,18.349C2918.727-2280.938,2918.6-2280.732,2918.357-2280.665Z" transform="translate(-146.089 -96.74)" fill="#56a3fe"/>
    <path id="Path_21333" data-name="Path 21333" d="M2866.539-2187c.241-1.121.482-2.241.715-3.321l2.907,2.909-3.322.713C2866.538-2186.6,2866.438-2186.7,2866.539-2187Z" transform="translate(-104.282 -186.813)" fill="#56a3fe"/>
    <path id="Path_21334" data-name="Path 21334" d="M2866.169-2172.2a.3.3,0,0,0,.3.3c-.1.1-.228.166-.337.08C2865.98-2171.937,2866.062-2172.079,2866.169-2172.2Z" transform="translate(-103.913 -201.617)" fill="#4391ec"/>
    <path id="Path_21335" data-name="Path 21335" d="M2791.676-2401.067a10.975,10.975,0,0,0-10.944,11,10.993,10.993,0,0,0,10.884,10.931,10.982,10.982,0,0,0,11.046-10.9A10.971,10.971,0,0,0,2791.676-2401.067Zm-.061,19.738a8.779,8.779,0,0,1-8.69-8.821,8.8,8.8,0,0,1,8.787-8.726,8.78,8.78,0,0,1,8.757,8.754A8.779,8.779,0,0,1,2791.615-2381.329Z" transform="translate(-34.228 -14.684)" fill="#475577"/>
    <path id="Path_21336" data-name="Path 21336" d="M2819.931-2367.226c.685,0,1.37.01,2.055,0a1.1,1.1,0,0,0,1.215-1.106,1.109,1.109,0,0,0-1.238-1.082c-.685-.011-1.37.007-2.055-.006a3.315,3.315,0,0,1-3.273-2.989,3.3,3.3,0,0,1,2.68-3.53c.332-.068.621-.072.734-.515a.908.908,0,0,1,.96-.631.916.916,0,0,1,.964.627c.122.439.373.484.741.465.41-.021.822-.006,1.233,0,.934,0,1.437.38,1.448,1.081s-.5,1.11-1.417,1.112c-1.256,0-2.512,0-3.768,0-.879,0-1.371.387-1.386,1.072-.016.707.5,1.116,1.408,1.12.616,0,1.233-.007,1.85,0a3.311,3.311,0,0,1,3.305,2.954,3.3,3.3,0,0,1-2.71,3.571c-.32.063-.571.081-.685.479a.943.943,0,0,1-1.011.662.936.936,0,0,1-.947-.658c-.115-.4-.338-.454-.689-.435-.479.025-.959.013-1.438,0-.8-.013-1.287-.445-1.274-1.116a1.11,1.11,0,0,1,1.245-1.074C2818.561-2367.235,2819.246-2367.226,2819.931-2367.226Z" transform="translate(-63.543 -34.269)" fill="#475577"/>
  </g>
</svg>
