<svg xmlns="http://www.w3.org/2000/svg" width="68" height="69.104" viewBox="0 0 68 69.104">
  <g id="Group_15001" data-name="Group 15001" transform="translate(-1740.434 2419.045)">
    <path id="Path_21315" data-name="Path 21315" d="M1808.126-2378.236q-1.962-3.607-3.939-7.206a2.021,2.021,0,0,1-.281-1.167,29.216,29.216,0,0,0-.009-5.611,23.12,23.12,0,0,0-19.206-19.963,1.478,1.478,0,0,1-.833-.4,22.659,22.659,0,0,0-20.177-6.09,23.173,23.173,0,0,0-18.193,17.062,26.09,26.09,0,0,0-.53,8.437,1.85,1.85,0,0,1-.257,1.1q-2,3.624-3.972,7.266c-.609,1.12-.272,1.786.974,1.968,1.152.168,2.3.379,3.456.5.5.051.639.22.674.7.372,4.989.769,9.975,1.154,14.963.081,1.048.41,1.373,1.449,1.374,2.308,0,4.616.012,6.924-.01.431,0,.571.117.621.548.271,2.313.575,4.621.873,6.931.135,1.048.442,1.308,1.522,1.309,2.057,0,4.113.009,6.17-.007.374,0,.508.058.462.481-.168,1.544-.3,3.092-.429,4.639-.085,1,.332,1.468,1.318,1.468q12.374.005,24.748,0c.889,0,1.243-.319,1.353-1.191.284-2.265.582-4.529.836-6.8.067-.595.224-.852.9-.807,1.092.073,2.192.02,3.289.02,1.211,0,2.422.01,3.633,0a1.093,1.093,0,0,0,1.208-1.116c.191-2.414.369-4.828.557-7.242.207-2.665.431-5.328.615-7.994.034-.5.219-.627.694-.676,1.134-.118,2.261-.309,3.389-.485C1808.428-2376.442,1808.752-2377.085,1808.126-2378.236Zm-5.713.455c-1.143.147-1.415.428-1.5,1.551-.371,4.943-.754,9.885-1.11,14.829-.033.459-.228.5-.6.494-2.285-.013-4.57-.008-6.855-.006-1.034,0-1.352.275-1.481,1.277-.3,2.332-.607,4.664-.883,7-.048.409-.178.512-.583.511q-11-.021-22.005,0c-.516,0-.538-.205-.5-.6q.454-4.809.889-9.619c.29-3.161.573-6.323.875-9.483a1.561,1.561,0,0,0-.762-1.43,20.8,20.8,0,0,1-6.012-7.868,20.931,20.931,0,0,1,14.3-28.6,20.869,20.869,0,0,1,25.214,15.913,24.19,24.19,0,0,1,.295,7.365,3.064,3.064,0,0,0,.43,1.819c1.167,2.087,2.3,4.2,3.5,6.4C1804.49-2378.071,1803.453-2377.915,1802.413-2377.781Z" fill="#475577"/>
    <path id="Path_21316" data-name="Path 21316" d="M1755.8-2375.226c1.023-1.889,1.891-3.736,2.986-5.437a6.327,6.327,0,0,0,.881-4.242,19.467,19.467,0,0,1,2.919-12.3,20.424,20.424,0,0,1,15.116-9.9,20.331,20.331,0,0,1,15.364,4.147c-.949.11-1.858.2-2.764.323a22.176,22.176,0,0,0-11.321,4.967,22.112,22.112,0,0,0-7.812,12.483,22.565,22.565,0,0,0,4.76,20.147,17.866,17.866,0,0,0,2.607,2.616.876.876,0,0,1,.386.863c-.343,3.493-.65,6.99-.968,10.486-.047.522-.109,1.043-.137,1.566-.016.3-.159.38-.435.379-1.828-.007-3.657-.011-5.485,0-.346,0-.414-.168-.449-.451-.164-1.334-.341-2.666-.509-4-.143-1.13-.266-2.263-.427-3.391-.091-.639-.524-.939-1.3-.941-2.286,0-4.572-.018-6.857.01-.546.007-.723-.121-.763-.7-.229-3.366-.519-6.728-.778-10.092-.114-1.478-.219-2.957-.3-4.437-.068-1.178-.389-1.514-1.56-1.654C1757.936-2374.895,1756.926-2375.062,1755.8-2375.226Z" transform="translate(-12.55 -9.598)" fill="#069fce"/>
    <path id="Path_21317" data-name="Path 21317" d="M1888.538-2344.328A16.469,16.469,0,0,0,1872.058-2328a16.469,16.469,0,0,0,16.36,16.587,16.47,16.47,0,0,0,16.551-16.327A16.48,16.48,0,0,0,1888.538-2344.328Zm-1.12,23.309v-1.911c0-1.621.005-3.242,0-4.864,0-.9-.4-1.294-1.288-1.311-.524-.01-1.049-.012-1.574-.02-.012,0-.024-.032-.072-.1l5.13-5.77v2.323c0,1.484-.006,2.968,0,4.453.005.9.4,1.292,1.293,1.3.537.008,1.075,0,1.748,0Z" transform="translate(-107.499 -61.022)" fill="#475577"/>
    <path id="Path_21318" data-name="Path 21318" d="M1898.488-2332.351a14.277,14.277,0,0,0-14.449,14.261,14.3,14.3,0,0,0,14.24,14.264,14.318,14.318,0,0,0,14.283-14.162A14.3,14.3,0,0,0,1898.488-2332.351Zm-1.286,21.114v-1.911c0-1.621.005-3.242,0-4.864,0-.9-.4-1.294-1.288-1.311-.524-.01-1.049-.012-1.574-.02-.012,0-.024-.031-.072-.1l5.131-5.771v2.323c0,1.484-.006,2.968,0,4.453,0,.9.4,1.292,1.292,1.3.537.008,1.075,0,1.748,0Z" transform="translate(-117.284 -70.804)" fill="#069fce"/>
    <path id="Path_21319" data-name="Path 21319" d="M1935.193-2304.634a1.115,1.115,0,0,0-1.164-.667c-.845.01-1.691-.025-2.535.013-.5.023-.614-.161-.6-.627.028-1.324.01-2.649.009-3.974q0-2.056,0-4.112a1.07,1.07,0,0,0-.744-1.11,1.083,1.083,0,0,0-1.233.361c-.214.237-.412.489-.624.727q-4.006,4.5-8.015,9a1.1,1.1,0,0,0-.259,1.258,1.079,1.079,0,0,0,1.1.665c.845,0,1.692.036,2.535-.013.565-.034.678.177.674.7-.024,2.649-.007,5.3-.014,7.949a1.106,1.106,0,0,0,.747,1.178,1.122,1.122,0,0,0,1.282-.409q4.271-4.813,8.545-9.623A1.15,1.15,0,0,0,1935.193-2304.634Zm-8.681,7.422v-1.911c0-1.621.005-3.242,0-4.864,0-.9-.4-1.294-1.288-1.311-.524-.01-1.049-.012-1.574-.02-.012,0-.024-.031-.072-.1l5.131-5.771v2.323c0,1.484-.006,2.968,0,4.453,0,.9.4,1.292,1.292,1.3.537.008,1.075,0,1.748,0Z" transform="translate(-146.593 -84.829)" fill="#475577"/>
  </g>
</svg>
