<svg xmlns="http://www.w3.org/2000/svg" width="68" height="67.953" viewBox="0 0 68 67.953">
  <g id="Group_15005" data-name="Group 15005" transform="translate(-3737.311 2419.045)">
    <path id="Path_21343" data-name="Path 21343" d="M3804.463-2376.235q-6.85-3.661-13.686-7.346a1.565,1.565,0,0,0-1.668.024c-1.451.816-2.928,1.585-4.4,2.369-.214.114-.4.261-.685.069-1.393-.95-2.8-1.878-4.243-2.839.25-.141.447-.255.646-.364q7.6-4.147,15.2-8.291c.483-.263.91-.554.9-1.173-.008-.584-.409-.87-.873-1.121q-3.4-1.839-6.792-3.7-5.857-3.2-11.71-6.4c-.239-.131-.545-.177-.494-.617a48.343,48.343,0,0,0,.09-7.323c-.129-3.526-1.655-5.276-5.054-5.843a51.418,51.418,0,0,0-8.212-.192.929.929,0,0,0-.951.984,29.93,29.93,0,0,0,.166,5.2,3.66,3.66,0,0,0,2.746,3.24c.369.1.38.3.382.6a27.11,27.11,0,0,0,.075,3.01.814.814,0,0,1-.5,1q-9.2,4.992-18.389,10.017c-.481.262-.921.536-.926,1.155s.433.9.914,1.163q4.21,2.284,8.411,4.586l7.443,4.061c-1.461.974-2.871,1.9-4.265,2.853-.286.2-.473.03-.684-.083-1.489-.794-2.981-1.584-4.46-2.4a1.474,1.474,0,0,0-1.546-.012q-6.836,3.686-13.689,7.341c-.485.26-.915.547-.9,1.169.012.585.416.864.882,1.112q6.85,3.661,13.688,7.342a1.485,1.485,0,0,0,1.546.01q6.868-3.7,13.75-7.373a1.248,1.248,0,0,0,.835-1.143,1.248,1.248,0,0,0-.826-1.078c-1.271-.67-2.534-1.356-3.8-2.036l-2.832-1.524c1.485-.993,2.885-1.924,4.279-2.864.251-.169.424-.008.617.1,1.422.775,2.835,1.567,4.271,2.316a.811.811,0,0,1,.5.844c-.017,3.588-.021,7.176,0,10.764a.855.855,0,0,1-.557.876c-2.581,1.365-5.151,2.749-7.725,4.126q-2.594,1.389-5.189,2.775a1.213,1.213,0,0,0-.795,1.1,1.2,1.2,0,0,0,.808,1.089c.1.051.2.1.3.157,4.444,2.379,8.895,4.746,13.324,7.151a1.728,1.728,0,0,0,1.847-.006c4.413-2.388,8.842-4.748,13.266-7.115.545-.291,1.158-.532,1.151-1.295s-.633-.99-1.172-1.282c-.06-.032-.122-.063-.182-.095q-6.182-3.312-12.364-6.625c-.269-.144-.55-.226-.547-.666.022-3.7.015-7.4.007-11.107a.578.578,0,0,1,.337-.594c1.508-.807,3.008-1.63,4.509-2.451.184-.1.343-.194.559-.049,1.392.94,2.79,1.871,4.252,2.849-.291.168-.5.3-.713.411q-2.925,1.568-5.854,3.129c-.466.247-.871.526-.881,1.112-.011.622.417.91.9,1.169q6.849,3.661,13.689,7.34a1.432,1.432,0,0,0,1.484.019q6.9-3.712,13.811-7.4a1.242,1.242,0,0,0,.814-1.087C3805.317-2375.685,3804.935-2375.983,3804.463-2376.235Zm-37.3-24.567c-1.235.471-2.473.936-3.707,1.41a4.591,4.591,0,0,0-3.12,4.527c-.006,2.262,0,4.524-.005,6.786a1.37,1.37,0,0,1-.047.209l-10.679-5.825c.066-.3.331-.328.514-.428q8.194-4.481,16.4-8.948a1.21,1.21,0,0,1,1.492.718A1.147,1.147,0,0,1,3767.167-2400.8Zm5.232,36.657c.024-.432,0-.867,0-1.426l10.834,5.8c-.8.439-1.495.822-2.19,1.195q-4.612,2.472-9.224,4.944a.874.874,0,0,1-.945.044c-3.69-2-7.393-3.969-11.091-5.95-.1-.051-.183-.117-.378-.243l10.8-5.791c0,.552-.019.987,0,1.419a1.084,1.084,0,0,0,1.088,1.093A1.084,1.084,0,0,0,3772.4-2364.144Zm-1.083-39.528a3.134,3.134,0,0,1-3.291-2.906c-.026-.73.012-1.462-.015-2.192-.013-.373.129-.464.476-.456.936.02,1.873.007,2.809.007v.013c.959,0,1.919.01,2.878-.006.323-.005.443.094.433.428-.022.753.019,1.509-.017,2.261A3.136,3.136,0,0,1,3771.316-2403.672Zm3.814,2.8a1.33,1.33,0,0,1-.42-1.7c.573-.743.86-.8,1.673-.356q8.017,4.377,16.036,8.751c.2.108.392.224.719.411l-10.857,5.924v-5.215c0-.548,0-1.1,0-1.645a4.389,4.389,0,0,0-3.045-4.472C3777.859-2399.714,3776.5-2400.3,3775.13-2400.868Z" fill="#475577"/>
    <path id="Path_21344" data-name="Path 21344" d="M3879.324-2311c0-1.371.005-2.741,0-4.112,0-.817-.412-1.29-1.091-1.292s-1.1.47-1.1,1.283c-.006,2.307-.016,4.614.007,6.921.006.571-.135.594-.6.349-1.595-.841-1.6-.827-1.6-2.594q0-3.221,0-6.441a2.429,2.429,0,0,1,1.757-2.556c1.468-.566,2.918-1.189,4.413-1.673a1.786,1.786,0,0,0,1.482-1.967c-.031-.493.125-.666.632-.522a1.477,1.477,0,0,0,.812.025c.775-.25.843.155.778.748a1.347,1.347,0,0,0,1.016,1.552c1.7.654,3.375,1.386,5.059,2.088a2.191,2.191,0,0,1,1.6,2.417c0,2.444-.016,4.888.014,7.332a1.022,1.022,0,0,1-.628,1.06c-1.592.863-1.579.886-1.579-.883q0-2.878,0-5.756c0-.887-.379-1.366-1.072-1.38-.721-.015-1.119.476-1.12,1.4,0,2.7-.01,5.391.008,8.086a.814.814,0,0,1-.5.852c-1.195.62-2.367,1.283-3.542,1.942a.607.607,0,0,1-.685,0q-1.819-1.026-3.67-1.992a.67.67,0,0,1-.4-.7C3879.333-2308.218,3879.324-2309.611,3879.324-2311Z" transform="translate(-112.402 -77.905)" fill="#069fce"/>
    <path id="Path_21345" data-name="Path 21345" d="M3983.869-2207.51c-1.7.917-3.233,1.756-4.777,2.583-2.192,1.175-4.393,2.334-6.578,3.522a1.06,1.06,0,0,1-1.141,0q-5.478-2.966-10.974-5.9c-.078-.042-.146-.1-.278-.194a32.355,32.355,0,0,1,2.862-1.614c.869-.5,1.779-.931,2.652-1.427a.786.786,0,0,1,.982.064c.776.561,1.585,1.078,2.388,1.6a1.109,1.109,0,0,0,1.634-.195,1.114,1.114,0,0,0-.427-1.635c-.6-.413-1.2-.815-1.87-1.268l3.327-1.781a.577.577,0,0,1,.585.023C3976.073-2211.681,3979.893-2209.637,3983.869-2207.51Z" transform="translate(-181.977 -167.615)" fill="#069fce"/>
    <path id="Path_21346" data-name="Path 21346" d="M3771.907-2211.743c-.677.456-1.263.847-1.845,1.244-.675.46-.853,1.054-.494,1.621.371.586,1.013.66,1.734.187.8-.526,1.6-1.062,2.4-1.591.183-.121.345-.306.611-.163,1.924,1.033,3.85,2.06,5.853,3.13a20.8,20.8,0,0,1-2.625,1.494c-2.887,1.571-5.8,3.1-8.691,4.657a.958.958,0,0,1-1.019.041q-5.542-3-11.1-5.967a2.579,2.579,0,0,1-.273-.214c1.013-.555,1.96-1.084,2.917-1.6,2.776-1.488,5.561-2.961,8.33-4.462a1.1,1.1,0,0,1,1.2,0C3769.853-2212.814,3770.829-2212.319,3771.907-2211.743Z" transform="translate(-15.637 -167.844)" fill="#069fce"/>
    <path id="Path_21347" data-name="Path 21347" d="M3890.028-2406.841c.915.035,2.007-.015,3.1.113,2.344.275,3.355,1.262,3.577,3.627.161,1.717.161,1.715-1.539,1.718-1.918,0-3.836.019-5.751-.109-.317-.021-.631-.088-.947-.129a1.585,1.585,0,0,1-1.457-1.407,19.81,19.81,0,0,1-.175-3.414c-.007-.36.183-.406.474-.4C3888.158-2406.835,3889-2406.841,3890.028-2406.841Z" transform="translate(-122.125 -9.964)" fill="#069fce"/>
  </g>
</svg>
