<svg xmlns="http://www.w3.org/2000/svg" width="68" height="60.361" viewBox="0 0 68 60.361">
  <g id="Group_14997" data-name="Group 14997" transform="translate(755.731 2419.045)">
    <path id="Path_21254" data-name="Path 21254" d="M-671.941-2313.583v-.517l.118,0V-2313Z" transform="translate(-68.436 -85.711)" fill="#2367b7"/>
    <path id="Path_21255" data-name="Path 21255" d="M-671.828-2326.438v.859c-.042-.032-.091-.049-.1-.078a1.08,1.08,0,0,1-.018-.2Z" transform="translate(-68.433 -75.637)" fill="#2c6dba"/>
    <path id="Path_21256" data-name="Path 21256" d="M-468.94-2325.84q-.011.13-.021.261l-.1.008v-.85Z" transform="translate(-234.142 -75.652)" fill="#3070bb"/>
    <path id="Path_21257" data-name="Path 21257" d="M-469.057-2311.9v-.858c.043.033.092.051.1.079a1.079,1.079,0,0,1,.017.2Z" transform="translate(-234.142 -86.806)" fill="#2f6fbb"/>
    <path id="Path_21259" data-name="Path 21259" d="M-690.174-2403.561a3.2,3.2,0,0,0-3.712,1.606.8.8,0,0,1-.845.475c-2.784-.017-5.567-.01-8.351-.011-.01.068-.058.082-.082.018-.031-.083.015.028.011-.064a1.558,1.558,0,0,0-.046-.534,18.4,18.4,0,0,0-1.513-6c1.263,0,2.428.006,3.592,0,.933-.006,1.318-.4,1.326-1.343.007-.868,0-1.736.006-2.6,0-.157-.1-.431.185-.422.5.015,1.018-.217,1.367.5a3.151,3.151,0,0,0,3.474,1.608,3.322,3.322,0,0,0,2.634-2.884,3.3,3.3,0,0,0-1.983-3.362,2.979,2.979,0,0,0-3.747.917,2.128,2.128,0,0,1-2.361,1.008,4.829,4.829,0,0,0-.548,0,1.112,1.112,0,0,0-1.217,1.243c-.012.823-.048,1.648.012,2.466.044.6-.177.722-.723.689a18.011,18.011,0,0,0-2.4,0,1.292,1.292,0,0,1-1.305-.707,18.606,18.606,0,0,0-20.5-7.345,18.442,18.442,0,0,0-10.364,7.625.787.787,0,0,1-.766.423c-.958-.03-1.92-.042-2.877,0-.509.023-.6-.163-.582-.619.036-.821.016-1.645.008-2.467-.009-.9-.4-1.3-1.286-1.313-.48-.008-.961-.028-1.439.006a.956.956,0,0,1-1.057-.587,3.218,3.218,0,0,0-4.219-1.292,3.284,3.284,0,0,0-1.635,4.168,3.269,3.269,0,0,0,3.968,1.954,3.1,3.1,0,0,0,2.029-1.712c.286-.617.79-.307,1.189-.325.475-.022.235.41.245.624.033.775.01,1.553.014,2.33,0,1.035.372,1.409,1.393,1.413,1.157,0,2.313,0,3.532,0a18.129,18.129,0,0,0-1.52,6c-.116.179.056.415-.116.583-2.785,0-5.57-.006-8.354.012a.79.79,0,0,1-.843-.478,3.2,3.2,0,0,0-3.713-1.6,3.277,3.277,0,0,0-2.444,3.17,3.28,3.28,0,0,0,2.443,3.171,3.2,3.2,0,0,0,3.713-1.6.791.791,0,0,1,.843-.478c2.785.018,5.57.01,8.354.01a.492.492,0,0,0,.054-.386c0-.038-.016-.056-.041-.054-.091.007.031-.064.033-.037a8.6,8.6,0,0,0,.072,1.062,17.985,17.985,0,0,0,1.513,6h-1.274c-4.042.007-3.643-.4-3.648,3.615,0,.16,0,.32,0,.48,0,.139,0,.3-.2.285-.5-.037-1.016.2-1.364-.518a3.146,3.146,0,0,0-3.477-1.6,3.316,3.316,0,0,0-2.628,2.888,3.327,3.327,0,0,0,1.926,3.335,2.967,2.967,0,0,0,3.76-.856,2.237,2.237,0,0,1,2.485-1.048c.136.01.274,0,.411,0,.856-.02,1.264-.412,1.275-1.257.012-.891.018-1.782,0-2.673-.009-.353.084-.476.454-.466.959.025,1.92.034,2.878,0a.939.939,0,0,1,.936.5,18.894,18.894,0,0,0,4.681,4.856c.665.494,1.7.663,1.97,1.449a8.246,8.246,0,0,1,.057,2.518.476.476,0,0,0,0,.069c.057.373-.073.529-.477.5-.546-.034-1.1-.022-1.644,0a1.076,1.076,0,0,0-1.163,1.153c-.018,1.417-.006,2.833-.005,4.25a.963.963,0,0,0,.631,1.035c.483.137.472.43.47.808-.01,2.193-.006,4.387,0,6.58,0,1.2.329,1.523,1.555,1.527a1.405,1.405,0,0,0,.205,0c.388-.058.519.089.615.494a7.556,7.556,0,0,0,5.3,5.758,13.4,13.4,0,0,0,4.42.324,7.58,7.58,0,0,0,7.4-5.87c.145-.6.376-.736.939-.718,1.163.038,1.5-.33,1.5-1.5,0-2.239.005-4.479,0-6.718,0-.318.011-.536.395-.647a1,1,0,0,0,.7-1.06c0-1.417.014-2.833,0-4.25a1.092,1.092,0,0,0-1.219-1.17c-.548-.012-1.1-.019-1.645,0-.325.014-.437-.087-.428-.421.021-.822.017-1.645,0-2.467a.582.582,0,0,1,.333-.6,18.455,18.455,0,0,0,6.5-6.061.63.63,0,0,1,.6-.337c1.028.018,2.057.029,3.084,0,.429-.013.474.17.466.523-.02.891-.019,1.782,0,2.673a1.1,1.1,0,0,0,1.191,1.2,13.193,13.193,0,0,0,1.575-.007.9.9,0,0,1,1,.57,3.206,3.206,0,0,0,3.7,1.5,3.293,3.293,0,0,0,2.4-3.144,3.282,3.282,0,0,0-2.434-3.183,3.152,3.152,0,0,0-3.711,1.6c-.351.694-.881.491-1.328.429-.4-.055-.19-.53-.191-.806-.014-3.921.349-3.543-3.592-3.545h-1.342a18.191,18.191,0,0,0,1.516-6c.117-.178-.056-.414.117-.581,2.806,0,5.613,0,8.419-.009a.694.694,0,0,1,.744.409,3.2,3.2,0,0,0,3.744,1.669,3.281,3.281,0,0,0,2.445-3.168A3.279,3.279,0,0,0-690.174-2403.561Zm-25.264,38.946a5.333,5.333,0,0,1-4.553,3.655,11.979,11.979,0,0,1-3.959-.078,5.368,5.368,0,0,1-4.094-3.651c-.166-.454-.133-.621.423-.612,1.965.032,3.93.012,5.9.012,1.942,0,3.885.027,5.827-.015C-715.252-2365.317-715.251-2365.1-715.438-2364.615Zm-6.838-9.449h1.093c1.835,0,1.828,0,1.655,1.849-.025.262-.1.351-.358.348q-1.844-.014-3.687,0c-.263,0-.333-.088-.357-.349C-724.1-2374.065-724.11-2374.064-722.276-2374.064Zm9.719-4.4c.556,0,.732.11.715.7-.044,1.51-.012,1.51-1.53,1.51h-8.354c-3.081,0-6.163-.012-9.244.012-.5,0-.656-.1-.646-.626.03-1.579,0-1.579,1.6-1.579C-724.2-2378.452-718.377-2378.444-712.557-2378.466Zm-1.261-7.539a2.082,2.082,0,0,0-1.348,2.3c.089.836-.006,1.69.027,2.535.017.42-.1.539-.528.534-2.034-.024-4.067-.011-6.1-.011-1.988,0-3.977-.018-5.964.013-.5.008-.607-.144-.591-.612.036-1-.019-2.012.021-3.016a1.481,1.481,0,0,0-.937-1.5A16.173,16.173,0,0,1-738-2397.967,16.461,16.461,0,0,1-725.4-2416.43a16.459,16.459,0,0,1,19.946,13.619A16.392,16.392,0,0,1-713.818-2386Z" fill="#475577"/>
    <path id="Path_21258" data-name="Path 21258" d="M-609.43-2167.045c-2.671,0-5.343-.012-8.014.01-.509,0-.718-.092-.705-.666.04-1.78.026-3.562.006-5.343,0-.432.1-.606.567-.593,1.1.031,2.192.026,3.287,0,.413-.009.565.109.551.539-.03.866-.017,1.735-.006,2.6a1.1,1.1,0,0,0,1.269,1.251q3.117.012,6.233,0a1.1,1.1,0,0,0,1.267-1.254c.011-.868.014-1.736,0-2.6-.007-.357.062-.544.482-.536q1.712.036,3.425,0c.407-.008.5.156.493.525-.014,1.849-.025,3.7.006,5.549.009.531-.266.52-.637.519Q-605.32-2167.051-609.43-2167.045Z" transform="translate(-112.37 -200.437)" fill="#069fce"/>
    <path id="Path_21260" data-name="Path 21260" d="M-717.623-2393.985a1.086,1.086,0,0,1-1.06,1.112,1.084,1.084,0,0,1-1.127-1.112,1.084,1.084,0,0,1,1.094-1.077A1.083,1.083,0,0,1-717.623-2393.985Z" transform="translate(-29.338 -19.588)" fill="#56a3fd"/>
    <path id="Path_21261" data-name="Path 21261" d="M-431.4-2395.055a1.081,1.081,0,0,1,1.1,1.07,1.084,1.084,0,0,1-1.053,1.117,1.084,1.084,0,0,1-1.134-1.1A1.083,1.083,0,0,1-431.4-2395.055Z" transform="translate(-264.006 -19.594)" fill="#56a3fd"/>
    <path id="Path_21262" data-name="Path 21262" d="M-742.64-2323.227a1.083,1.083,0,0,1,1.071,1.1,1.088,1.088,0,0,1-1.151,1.089,1.086,1.086,0,0,1-1.036-1.133A1.084,1.084,0,0,1-742.64-2323.227Z" transform="translate(-9.78 -78.259)" fill="#56a3fd"/>
    <path id="Path_21263" data-name="Path 21263" d="M-406.365-2322.138a1.086,1.086,0,0,1-1.071,1.1,1.084,1.084,0,0,1-1.116-1.122,1.084,1.084,0,0,1,1.1-1.066A1.083,1.083,0,0,1-406.365-2322.138Z" transform="translate(-283.559 -78.26)" fill="#56a3fd"/>
    <path id="Path_21264" data-name="Path 21264" d="M-718.709-2249.206a1.083,1.083,0,0,1-1.1-1.068,1.085,1.085,0,0,1,1.051-1.12,1.085,1.085,0,0,1,1.137,1.1A1.086,1.086,0,0,1-718.709-2249.206Z" transform="translate(-29.337 -136.928)" fill="#56a3fd"/>
    <path id="Path_21265" data-name="Path 21265" d="M-431.433-2249.2a1.082,1.082,0,0,1-1.062-1.109,1.084,1.084,0,0,1,1.091-1.08,1.085,1.085,0,0,1,1.1,1.143A1.087,1.087,0,0,1-431.433-2249.2Z" transform="translate(-264.004 -136.932)" fill="#56a3fd"/>
    <path id="Path_21266" data-name="Path 21266" d="M-612.936-2369.912c-.181-.016-.365-.006-.548-.006-1.762,0-1.748,0-1.693-1.758.012-.38.14-.457.478-.443.547.023,1.1.019,1.644,0a1.1,1.1,0,0,0,1.174-1.078,1.094,1.094,0,0,0-1.144-1.108c-.3-.014-.594,0-.891,0-1.251,0-1.251,0-1.251-1.229,0-.932,0-.932.966-.965.817-.029,1.369-.61,1.2-1.3a1.129,1.129,0,0,0-1.278-.892c-.456.011-.97.136-1.077-.574a.612.612,0,0,0-.506-.422c-.384-.072-.443-.3-.407-.634a3.02,3.02,0,0,0,0-.616,1.092,1.092,0,0,0-1.074-1.037,1.114,1.114,0,0,0-1.109,1.005c-.059.39.214.927-.154,1.137-.311.178-.8.044-1.213.047a3.545,3.545,0,0,0-.411,0c-.327.041-.44-.087-.426-.419.024-.57.02-1.143,0-1.713a1.091,1.091,0,0,0-1.094-1.157,1.09,1.09,0,0,0-1.091,1.159c-.018.571-.022,1.143,0,1.713.014.335-.107.409-.427.423-1.772.076-1.772.086-1.773-1.676,0-.092,0-.183,0-.274-.011-.855-.427-1.357-1.116-1.345-.666.012-1.066.5-1.077,1.313a8.145,8.145,0,0,0,.008,1.164c.084.639-.1.929-.791.817-.444-.073-.987.167-1.325-.1-.266-.21-.035-.733-.1-1.111a1.049,1.049,0,0,0-1.054-.979.952.952,0,0,0-1.08.846,2.191,2.191,0,0,1-.848,1.828,1.933,1.933,0,0,1-1.274.619,1.054,1.054,0,0,0-1.077,1.094,1.1,1.1,0,0,0,1.033,1.08c1.019.115,1.019.115,1.019,1.123a5.61,5.61,0,0,0,0,.616c.039.349-.073.488-.448.469a17.411,17.411,0,0,0-1.781,0,1.073,1.073,0,0,0-1.061,1.115,1.093,1.093,0,0,0,1.05,1.062c.181.017.365.007.548.007,1.762,0,1.749,0,1.7,1.752-.011.372-.124.466-.472.449-.547-.026-1.1-.019-1.644,0a1.1,1.1,0,0,0-1.18,1.07,1.106,1.106,0,0,0,1.2,1.118c.342.011.685,0,1.028,0,1.054,0,1.054,0,1.054,1.083,0,1.059,0,1.059-1.025,1.112a1.1,1.1,0,0,0-1.164,1.089,1.071,1.071,0,0,0,1.151,1.093c.577,0,1.134-.068,1.294.691a.36.36,0,0,0,.244.223c.685.091.6.583.6,1.062,0,.823.4,1.306,1.066,1.322a1.1,1.1,0,0,0,1.1-1.338c-.058-.74.2-.9.894-.868,1.316.057,1.318.016,1.318,1.315,0,.206,0,.411,0,.617.008.869.4,1.367,1.089,1.371s1.094-.5,1.1-1.358c0-.091,0-.183,0-.274,0-1.761,0-1.75,1.786-1.664.338.016.426.12.414.437-.021.547-.016,1.1,0,1.645a1.1,1.1,0,0,0,1.107,1.215,1.116,1.116,0,0,0,1.082-1.241,8.462,8.462,0,0,0-.008-1.232c-.079-.633.093-.934.788-.821.444.073.987-.165,1.327.1.27.208.038.732.1,1.11a1.049,1.049,0,0,0,1.051.982.955.955,0,0,0,1.082-.844,2.212,2.212,0,0,1,.848-1.831,1.943,1.943,0,0,1,1.277-.617,1.059,1.059,0,0,0,1.075-1.1,1.1,1.1,0,0,0-1.036-1.077c-1.015-.111-1.015-.111-1.015-1.125a5.391,5.391,0,0,0,0-.616c-.041-.354.082-.483.452-.465a17.2,17.2,0,0,0,1.781,0,1.077,1.077,0,0,0,1.057-1.12A1.093,1.093,0,0,0-612.936-2369.912Zm-7.715-1.1c0,.958-.012,1.916.007,2.874.007.328-.1.426-.424.424q-2.873-.02-5.747,0c-.328,0-.426-.095-.424-.423q.02-2.874,0-5.748c0-.328.1-.426.423-.424q2.873.02,5.747,0c.328,0,.43.095.424.423C-620.663-2372.932-620.651-2371.974-620.651-2371.016Z" transform="translate(-97.789 -29.376)" fill="#475577"/>
    <path id="Path_21267" data-name="Path 21267" d="M-592.981-2352.542c0-.51-.095-.708-.666-.7q-5.925.04-11.85,0c-.488,0-.672.093-.668.632q.035,5.96,0,11.92c0,.539.181.638.669.632,1.963-.025,3.927-.01,5.891-.01s3.928-.019,5.891.012c.547.009.743-.107.739-.7Q-593.018-2346.65-592.981-2352.542Zm-3.3,5.892c0,.958-.012,1.916.007,2.874.007.328-.1.426-.423.424q-2.873-.02-5.747,0c-.328,0-.426-.095-.424-.423q.02-2.874,0-5.748c0-.328.1-.426.423-.424q2.873.02,5.747,0c.328,0,.43.095.424.423C-596.294-2348.567-596.282-2347.608-596.282-2346.65Z" transform="translate(-122.157 -53.741)" fill="#069fce"/>
    <path id="Path_21268" data-name="Path 21268" d="M-590.534-2347.188c-1.347,0-2.694,0-4.042,0-1.393,0-2.786,0-4.179,0-.991,0-1.361.373-1.362,1.366q-.006,4.111,0,8.221c0,1,.368,1.378,1.349,1.38q4.144.006,8.289,0c.946,0,1.326-.383,1.328-1.332q.007-4.144,0-8.289C-589.152-2346.822-589.529-2347.185-590.534-2347.188Zm-.809,5.484c0,.958-.012,1.916.007,2.874.007.328-.1.426-.424.424q-2.873-.021-5.747,0c-.328,0-.426-.095-.424-.423q.02-2.874,0-5.748c0-.328.1-.426.423-.424q2.873.021,5.747,0c.328,0,.43.095.424.423C-591.355-2343.62-591.342-2342.662-591.342-2341.7Z" transform="translate(-127.097 -58.688)" fill="#475577"/>
  </g>
</svg>
