<svg xmlns="http://www.w3.org/2000/svg" xmlns:xlink="http://www.w3.org/1999/xlink" width="66.436" height="62" viewBox="0 0 66.436 62">
  <defs>
    <linearGradient id="linear-gradient" y1="0.5" x2="1" y2="0.5" gradientUnits="objectBoundingBox">
      <stop offset="0.176" stop-color="#54acd2"/>
      <stop offset="0.89" stop-color="#2c82c9"/>
    </linearGradient>
  </defs>
  <g id="Group_949" data-name="Group 949" transform="translate(1037.468 882.107)">
    <path id="Path_1523" data-name="Path 1523" d="M-971.034-801.867c-.027-1.575-.008-1.61-1.548-1.561-.606.019-.694-.178-.691-.725.023-4.428.014-8.855.013-13.283,0-1.167-.347-1.506-1.533-1.506-2.237,0-4.474-.022-6.711.015-.543.009-.63-.158-.624-.651.027-2.26.014-4.52.011-6.78,0-1.077-.37-1.439-1.461-1.44-2.26,0-4.52-.021-6.78.014-.536.008-.631-.149-.627-.648.025-3,.014-6,.011-8.994,0-1.078-.37-1.442-1.457-1.443q-4.012,0-8.025,0c-1.272,0-1.586.315-1.586,1.591q0,16.189,0,32.378c0,1.455,0,1.421-1.452,1.471-.63.022-.778-.154-.777-.779q.028-23.211.014-46.422c0-1.18-.342-1.522-1.517-1.523q-6.261,0-12.522,0c-1.09,0-1.457.362-1.458,1.441,0,3.206,0,6.411-.006,9.617,0,.181.1.4-.11.563a6.649,6.649,0,0,0-4.5-1.675,4.85,4.85,0,0,0,.18-1.872,2.01,2.01,0,0,1,.512-1.551,2.4,2.4,0,0,0,.33-2.778,2.573,2.573,0,0,0-2.365-1.525c-.552-.023-1.107-.01-1.66-.005a3.315,3.315,0,0,0-3.45,3.433c-.009,1.245-.014,2.491.005,3.736.006.4-.038.576-.53.611a6.515,6.515,0,0,0-6.108,6.489q-.035,19.337-.009,38.673c0,.893.415,1.293,1.323,1.3,1.568.007,3.136,0,4.7,0q6.261,0,12.522,0a1.262,1.262,0,0,0,1.2-.531,2.482,2.482,0,0,0-.507-2.754c-1.085-.818-2.167-1.642-3.271-2.435a1.05,1.05,0,0,1-.49-.966q-.022-9.167-.085-18.333c-.008-1.554-.007-1.514,1.568-1.572.668-.025.76.208.758.8-.021,6.249-.013,12.5-.012,18.748,0,1.141.353,1.5,1.466,1.5q23.315,0,46.629.015C-971.116-801.217-971.025-801.374-971.034-801.867Zm-57.368-45.373a1.055,1.055,0,0,1,.937-.483c.506,0,1.011.005,1.517,0,.331-.006.65.067.638.448a.656.656,0,0,1-.658.656c-.389.023-.781.005-1.172.005-.322,0-.645.016-.965-.006-.161-.011-.414.122-.465-.115A.785.785,0,0,1-1028.4-847.241Zm1.26,2.837c.359-.033.844-.147.768.7-.089.986-.4,1.51-1.125,1.512-.676,0-1.108-.5-1.109-1.3C-1028.611-844.249-1028.385-844.4-1027.142-844.4Zm-1.464,4.7c.079-.117-.152-.526.22-.374.3.123.919-.22.891.514-.016.405-.153.7-.585.678C-1028.567-838.911-1028.638-839.281-1028.605-839.7Zm-6.386,2.665a4.292,4.292,0,0,1,3.547-2.911c.442-.081.636-.019.64.525a2.721,2.721,0,0,0,2.752,2.769,2.731,2.731,0,0,0,2.749-2.776c.006-.467.154-.52.576-.559,2.2-.205,3.539,1.15,4.858,2.574a.5.5,0,0,1,.117.379c0,1.03,0,2.059,0,3.26-.872-.879-1.621-1.629-2.364-2.385a1.163,1.163,0,0,0-1.355-.406,1.2,1.2,0,0,0-.713,1.288c.014,1.544.005,3.089.005,4.64-.247.069-.314-.156-.425-.266-1.686-1.672-3.373-3.344-5.033-5.041-.324-.331-.522-.347-.8.009-.333.428-1.063.72-1.02,1.2.037.412.657.775,1.029,1.151.8.809.8.807-.012,1.622-.391.391-.8.767-1.167,1.18-.251.282-.408.252-.655-.01-.583-.622-1.224-1.19-1.8-1.822A4.168,4.168,0,0,1-1034.991-837.039Zm15.212,6.911c-.08.235-.36.107-.547.109-1.64.023-1.64.019-1.64-1.6v-1.3c.754.771,1.364,1.422,2.006,2.04A.678.678,0,0,1-1019.78-830.128Zm-15.471-.376,3.793,3.811c-1.139,0-2.3-.013-3.464.007-.368.006-.331-.2-.331-.438C-1035.249-828.245-1035.25-829.368-1035.25-830.5Zm.3,32.592c-.112,0-.226.014-.3-.111a1.077,1.077,0,0,1,.572-1.388,6.459,6.459,0,0,1,2.463-.508c.757.152,1.391.919,2.078,1.418.215.156.424.32.777.588Zm4.355-3.71c-.241-.182-.117-.429-.093-.639.285-2.515.581-5.028.874-7.542l.116,0,1.08,9.666Zm3.372-5.958q-.7-6.251-1.391-12.5a1.1,1.1,0,0,0-1.132-1.072,1.1,1.1,0,0,0-1.078,1.054q-.77,6.486-1.528,12.973c-.181,1.533-.373,3.065-.539,4.6-.032.3-.118.442-.429.5-.629.127-1.248.3-1.934.475v-.862c0-7.126.008-14.251-.015-21.376,0-.576.132-.723.708-.708,1.659.044,3.32.025,4.98.008a1.084,1.084,0,0,1,.851.332,6.41,6.41,0,0,0,3.92,1.843c.406.043.529.135.531.561q.027,9.581.1,19.162c0,.352-.067.541-.438.615-.626.125-1.243.294-1.922.458C-1026.766-803.556-1027-805.567-1027.219-807.579Zm5.75,8.925a7.56,7.56,0,0,0,.984.743c-1.981,0-3.771,0-5.56.005-.266,0-.339-.079-.357-.348-.065-.969-.035-.862.875-1.234A3.282,3.282,0,0,1-1021.47-798.654Zm-2.853-25.839a3.944,3.944,0,0,1-2.744-1.14c-1.015-.973-1.991-1.987-3-2.968-.235-.229-.252-.373-.005-.6.57-.537,1.13-1.088,1.663-1.662.265-.285.424-.3.7-.006.828.867,1.7,1.693,2.533,2.553a1.645,1.645,0,0,0,1.289.53c1.544-.021,3.091-.041,4.634.007a2.059,2.059,0,0,0,1.821-.759c.26-.32.573-.6.936-.971.163,1.521.381,1.715,1.814,1.715h.415c1.252,0,1.252,0,1.148,1.269a2.192,2.192,0,0,1-2.145,2.042Q-1019.792-824.455-1024.323-824.494Zm15.63-8.062c.027.286.125.34.374.332.461-.014.923.013,1.383-.01.334-.016.507.046.475.441-.047.569.167,1.3-.113,1.669-.263.352-1.033.107-1.577.1-.4-.007-.588.065-.542.52.055.544-.164,1.267.112,1.6.291.348,1.037.11,1.581.1.41-.009.583.074.538.523-.054.544.163,1.268-.114,1.6-.292.345-1.038.111-1.582.1-.416-.011-.579.083-.535.527.054.544-.153,1.244.117,1.6.252.33.993.117,1.512.089.483-.027.656.105.6.6-.057.52.151,1.216-.116,1.525-.281.327-1,.119-1.517.089-.488-.028-.656.114-.6.6.062.519-.217,1.235.109,1.517.309.267,1.005.133,1.525.095.494-.036.652.121.594.605-.062.519.218,1.236-.111,1.516-.312.266-1.006.132-1.526.093-.5-.037-.648.129-.591.608.062.519-.219,1.235.112,1.515.314.266,1.007.131,1.528.09.5-.039.6.139.593.611-.022,1.611,0,1.641-1.58,1.6-.567-.015-.669.171-.659.686.03,1.538.01,1.57,1.582,1.527.574-.016.664.181.655.69-.029,1.539-.01,1.581-1.515,1.521-.652-.026-.738.2-.723.765.038,1.467.015,1.515,1.451,1.448.71-.033.814.21.792.839-.049,1.395-.015,1.4-1.388,1.4-3.044,0-6.088-.008-9.132.009-.43,0-.579-.08-.577-.553q.027-8.855,0-17.71c0-.43.079-.588.553-.581a10.974,10.974,0,0,0,2.619-.1,4.413,4.413,0,0,0,3.473-4.193c.02-.737.017-1.476,0-2.214a1.12,1.12,0,0,0-1.254-1.227c-.576-.011-1.153-.006-1.729,0-.2,0-.3-.019-.347-.281-.311-1.884-1.594-2.443-3.309-1.383,0-5.973,0-11.876-.009-17.779,0-.391.1-.5.494-.494q5.05.023,10.1,0c.392,0,.5.106.493.495q-.03,2.836,0,5.673c0,.394-.109.549-.5.484a.39.39,0,0,0-.069,0c-1.832.021-1.824.02-1.666,1.873.023.271.1.375.361.342a1.515,1.515,0,0,1,.207,0c1.834.02,1.825.019,1.663,1.876-.024.275-.1.371-.364.339a1.586,1.586,0,0,0-.207,0c-1.835.019-1.827.018-1.661,1.879.025.279.112.366.367.336a1.619,1.619,0,0,1,.207,0c1.837.018,1.828.018,1.658,1.882-.026.282-.119.362-.371.333a1.689,1.689,0,0,0-.207,0C-1008.876-834.423-1008.867-834.424-1008.693-832.556Zm14.883,29.124c-1.821-.036-3.643-.03-5.465,0-.455.007-.563-.12-.563-.567q.019-16.05,0-32.1c0-.452.114-.572.565-.565,1.821.027,3.644.033,5.465,0,.522-.01.637.126.635.639-.021,5.35-.013,10.7-.013,16.05,0,5.3-.008,10.607.013,15.911C-993.17-803.551-993.292-803.422-993.81-803.432Zm8.857,0c-1.821-.036-3.643-.03-5.465,0-.453.007-.565-.116-.564-.566q.022-10.515,0-21.03c0-.45.112-.573.564-.566q2.766.04,5.534,0c.453-.007.567.116.565.566-.019,3.5-.011,7.01-.011,10.515,0,3.482-.012,6.964.013,10.446C-984.312-803.554-984.434-803.421-984.953-803.432Zm8.915,0c-1.844-.023-3.689-.028-5.534,0-.471.008-.556-.144-.554-.577q.024-6.087,0-12.174c0-.469.141-.56.575-.555,1.844.023,3.689.028,5.534,0,.471-.008.559.144.554.577-.022,2.029-.01,4.058-.01,6.087s-.016,4.058.012,6.087C-975.455-803.521-975.6-803.43-976.037-803.436Z" transform="translate(0 -24.415)"/>
    <path id="Path_1524" data-name="Path 1524" d="M-810.011-858.343a2.188,2.188,0,0,0-.722-1.7q-8.745-8.712-17.464-17.451c-.407-.407-1.087-.793-1.134-1.241-.055-.523.707-.872,1.107-1.3a1.2,1.2,0,0,0,.4-1.359,1.2,1.2,0,0,0-1.288-.713c-3.135.01-6.27,0-9.405.006-1.024,0-1.394.384-1.4,1.432q0,2.317,0,4.633,0,2.455,0,4.91a1.1,1.1,0,0,0,.678,1.1,1.076,1.076,0,0,0,1.261-.274,7.112,7.112,0,0,0,.777-.786c.409-.53.692-.54,1.2-.027q11.877,11.938,23.8,23.832c.408.408.822.767,1.45.52.653-.256.73-.8.728-1.418C-810.032-851.565-810.043-854.954-810.011-858.343Zm-2.228,7.147v.593l-.187.116a4.734,4.734,0,0,0-.435-.594q-11.311-11.323-22.631-22.636c-.829-.829-1.221-.851-2.207-.055v-1.952c0-1.2.017-2.4-.009-3.595-.009-.422.065-.592.548-.583,1.82.033,3.64.013,5.449.013.1.106.021.16-.035.229a1.146,1.146,0,0,0,.1,1.855q3.857,3.867,7.722,7.726,5.622,5.622,11.252,11.235a1.366,1.366,0,0,1,.442,1.081C-812.251-855.574-812.24-853.384-812.24-851.2Z" transform="translate(-161.02 0)"/>
    <path id="Path_1525" data-name="Path 1525" d="M-903.534-827.093a1.115,1.115,0,0,1-1.081,1.11,1.11,1.11,0,0,1-1.126-1.133,1.108,1.108,0,0,1,1.114-1.075A1.111,1.111,0,0,1-903.534-827.093Z" transform="translate(-107.367 -43.946)" fill="#030303"/>
    <path id="Path_1526" data-name="Path 1526" d="M-1019.758-831.365c0,.181.1.4-.11.563a6.649,6.649,0,0,0-4.5-1.675,4.849,4.849,0,0,0,.18-1.872,2.01,2.01,0,0,1,.512-1.551,2.4,2.4,0,0,0,.33-2.778,2.573,2.573,0,0,0-2.365-1.525c-.552-.023-1.107-.01-1.66-.005a3.315,3.315,0,0,0-3.45,3.433c-.009,1.245-.014,2.491.005,3.736.006.4-.038.576-.53.611a6.515,6.515,0,0,0-6.108,6.489q-.035,19.337-.009,38.673c0,.893.415,1.293,1.323,1.3,1.568.007,3.136,0,4.7,0q6.261,0,12.522,0a1.262,1.262,0,0,0,1.2-.531,2.482,2.482,0,0,0-.507-2.754c-1.085-.818-2.167-1.642-3.271-2.435a1.05,1.05,0,0,1-.49-.966q-.022-9.167-.085-18.333c-.008-1.554-.007-1.514,1.568-1.572.668-.025,3.029,0,3.5,0a10.974,10.974,0,0,0,2.619-.1,4.413,4.413,0,0,0,3.473-4.193c.02-.737.017-1.476,0-2.214a1.12,1.12,0,0,0-1.254-1.227c-.576-.011-1.153-.006-1.729,0-.2,0-.3-.019-.347-.281-.311-1.884-1.594-2.443-3.309-1.383l-2.2,0Zm-8.643-6.146a1.055,1.055,0,0,1,.937-.483c.506,0,1.011.005,1.517,0,.331-.006.65.067.638.448a.656.656,0,0,1-.658.656c-.389.023-.781.005-1.172.005-.322,0-.645.016-.965-.006-.161-.011-.414.122-.465-.115A.785.785,0,0,1-1028.4-837.511Zm1.26,2.837c.359-.033.844-.147.768.7-.089.986-.4,1.51-1.125,1.512-.676,0-1.108-.5-1.109-1.3C-1028.611-834.519-1028.385-834.674-1027.142-834.674Zm-1.464,4.7c.079-.117-.152-.526.22-.374.3.123.919-.22.891.514-.016.405-.153.7-.585.678C-1028.567-829.18-1028.638-829.55-1028.605-829.974Zm-6.386,2.665a4.292,4.292,0,0,1,3.547-2.911c.442-.081.636-.019.64.525a2.721,2.721,0,0,0,2.752,2.769,2.731,2.731,0,0,0,2.749-2.776c.006-.467.154-.52.576-.559,2.2-.205,3.539,1.15,4.858,2.574a.5.5,0,0,1,.117.379c0,1.03,0,2.059,0,3.26-.872-.879-1.621-1.629-2.364-2.385a1.163,1.163,0,0,0-1.355-.406,1.2,1.2,0,0,0-.713,1.288c.014,1.544.005,3.089.005,4.64-.247.069-.314-.156-.425-.266-1.686-1.672-3.373-3.344-5.033-5.041-.324-.331-.522-.347-.8.009-.333.428-1.063.72-1.02,1.2.037.412.657.775,1.029,1.151.8.809.8.807-.012,1.622-.391.391-.8.767-1.167,1.18-.251.282-.408.252-.655-.01-.583-.622-1.224-1.19-1.8-1.822A4.168,4.168,0,0,1-1034.991-827.309Zm15.212,6.911c-.08.235-.36.107-.547.109-1.64.023-1.64.019-1.64-1.6v-1.3c.754.771,1.364,1.422,2.006,2.04A.677.677,0,0,1-1019.78-820.4Zm-15.471-.376,3.793,3.811c-1.139,0-2.3-.013-3.464.007-.368.006-.331-.2-.331-.438C-1035.249-818.515-1035.25-819.638-1035.25-820.773Zm.3,32.592c-.112,0-.226.014-.3-.111a1.077,1.077,0,0,1,.572-1.388,6.459,6.459,0,0,1,2.463-.508c.757.152,1.391.919,2.078,1.418.215.156.424.32.777.588Zm4.355-3.71c-.241-.182-.117-.429-.093-.639.285-2.515.581-5.028.874-7.542l.116,0,1.08,9.666Zm3.372-5.958q-.7-6.251-1.391-12.5a1.1,1.1,0,0,0-1.132-1.072,1.1,1.1,0,0,0-1.078,1.055q-.77,6.486-1.528,12.973c-.181,1.533-.373,3.065-.539,4.6-.032.3-.118.442-.429.5-.629.127-1.248.3-1.934.475v-.862c0-7.126.008-14.251-.015-21.376,0-.576.132-.723.708-.708,1.659.044,3.32.025,4.98.008a1.084,1.084,0,0,1,.851.332,6.409,6.409,0,0,0,3.92,1.843c.406.043.529.135.531.561q.027,9.581.1,19.162c0,.352-.067.541-.438.615-.626.125-1.243.294-1.922.458C-1026.766-793.826-1027-795.837-1027.219-797.849Zm5.75,8.925a7.56,7.56,0,0,0,.984.743c-1.981,0-3.771,0-5.56.005-.266,0-.339-.079-.357-.348-.065-.969-.035-.862.875-1.234A3.282,3.282,0,0,1-1021.47-788.924Zm-2.853-25.839a3.944,3.944,0,0,1-2.744-1.14c-1.015-.973-1.991-1.987-3-2.968-.235-.229-.252-.373-.005-.6.57-.537,1.13-1.088,1.663-1.662.265-.285.424-.3.7-.006.828.867,1.7,1.693,2.533,2.553a1.645,1.645,0,0,0,1.289.53c1.544-.021,3.091-.041,4.634.007a2.06,2.06,0,0,0,1.821-.759c.26-.32.573-.6.936-.971.163,1.521.381,1.715,1.814,1.715h.415c1.252,0,1.252,0,1.148,1.269a2.192,2.192,0,0,1-2.145,2.042Q-1019.792-814.725-1024.323-814.763Z" transform="translate(0 -34.145)" fill="url(#linear-gradient)"/>
  </g>
</svg>
