<svg xmlns="http://www.w3.org/2000/svg" xmlns:xlink="http://www.w3.org/1999/xlink" width="47.561" height="62" viewBox="0 0 47.561 62">
  <defs>
    <linearGradient id="linear-gradient" x1="0.2" y1="0.099" x2="0.791" y2="0.89" gradientUnits="objectBoundingBox">
      <stop offset="0.176" stop-color="#54acd2"/>
      <stop offset="0.89" stop-color="#2c82c9"/>
    </linearGradient>
  </defs>
  <g id="Group_945" data-name="Group 945" transform="translate(2334.25 882.108)">
    <path id="Path_1504" data-name="Path 1504" d="M-2286.091-657.066c0,.818.006,1.636,0,2.453-.008.844-.382,1.224-1.217,1.23-1.162.008-2.325.015-3.486-.006-.352-.006-.488.072-.471.452.031.709.032,1.421,0,2.13-.019.408.08.55.519.537,1.14-.034,2.281-.017,3.422-.01.846.005,1.225.378,1.233,1.213.009.818.018,1.636-.005,2.453-.01.347.063.485.448.475,1.075-.027,2.153-.034,3.228,0,.437.015.485-.156.473-.518-.025-.731-.008-1.463-.007-2.195,0-1.111.314-1.431,1.4-1.432s2.2-.012,3.293.007c.34.006.5-.047.48-.442-.033-.752-.032-1.507,0-2.259.015-.369-.136-.415-.446-.411-1.141.014-2.281.009-3.422,0-.94,0-1.3-.354-1.307-1.269q-.008-2.453,0-4.907a1.111,1.111,0,0,1,1.112-1.3,21.535,21.535,0,0,0,13.986-8.211c.28-.356.452-.36.8-.1,1.24.925,1.259.92.257,2.1a23.534,23.534,0,0,1-13.471,8.021c-.477.1-.673.253-.634.777a18.07,18.07,0,0,1,0,2.323c-.024.449.144.523.542.514,1.118-.025,2.238-.012,3.357-.008.895,0,1.273.365,1.277,1.234q.011,2.389,0,4.777c0,.836-.386,1.213-1.229,1.218-1.162.008-2.325.017-3.487-.007-.371-.008-.468.106-.457.466.026.838.018,1.678.005,2.517a1.041,1.041,0,0,1-1.16,1.155q-2.97.015-5.94,0a1.039,1.039,0,0,1-1.16-1.154c-.012-.839-.02-1.679.005-2.517.011-.358-.083-.475-.456-.467-1.162.024-2.324.014-3.487.007-.844-.005-1.226-.38-1.23-1.216q-.011-2.389,0-4.777c0-.872.378-1.232,1.273-1.237,1.1-.005,2.2-.022,3.292.009.448.012.651-.051.614-.576a17.721,17.721,0,0,1,0-2.322c.027-.46-.123-.616-.565-.7a23.078,23.078,0,0,1-9.716-4.371,24.38,24.38,0,0,1-3.7-3.5c-.218-.252-.23-.389.056-.592.42-.3.781-.866,1.212-.912.469-.05.711.646,1.058,1.007a21.584,21.584,0,0,0,12.566,6.54c.849.13,1.137.468,1.141,1.342C-2286.088-658.7-2286.091-657.883-2286.091-657.066Z" transform="translate(-26.446 -176.031)"/>
    <path id="Path_1505" data-name="Path 1505" d="M-2258.277-882.108c12.163.016,21.935,8.038,24.117,19.242a23.458,23.458,0,0,1-2.457,15.919c-.2.38-.357.514-.745.229s-1.019-.438-1.19-.81c-.161-.349.342-.813.547-1.229a21.738,21.738,0,0,0-15.191-30.853,21.222,21.222,0,0,0-15.666,2.806c-.4.241-.536.182-.767-.183-.838-1.319-.857-1.319.532-2.093A23.138,23.138,0,0,1-2258.277-882.108Z" transform="translate(-52.986 0)"/>
    <path id="Path_1506" data-name="Path 1506" d="M-2334.25-832.473a23.436,23.436,0,0,1,8.289-17.439c.291-.256.472-.352.729.039.271.41.827.756.862,1.164.038.441-.628.678-.974,1.014a21.478,21.478,0,0,0-6.791,16.979,20.639,20.639,0,0,0,3.137,10.1c.257.416.324.618-.173.916-1.272.765-1.257.8-2-.522A24.376,24.376,0,0,1-2334.25-832.473Z" transform="translate(0 -26.453)"/>
    <path id="Path_1507" data-name="Path 1507" d="M-2285.574-852.173a18.628,18.628,0,0,0-18.666,18.578,18.632,18.632,0,0,0,18.564,18.618,18.631,18.631,0,0,0,18.635-18.548A18.629,18.629,0,0,0-2285.574-852.173Zm6.135,33.842a44.676,44.676,0,0,1,.044-4.575,7.951,7.951,0,0,1,.964-2.434c.238-.495.114-.681-.366-.87-1.305-.513-1.241-.505-1.87.763a7.9,7.9,0,0,0-.855,4.157c.075,1.093,0,2.195.025,3.292.009.359-.129.479-.446.547a17.105,17.105,0,0,1-7.359.005c-.391-.086-.485-.264-.481-.646.02-1.937,0-3.874.018-5.811a1.9,1.9,0,0,0-.5-1.341c-1.329-1.553-2.624-3.135-3.953-4.688a1.871,1.871,0,0,1-.469-1.725c.126-.566.216-1.14.357-1.7a1.5,1.5,0,0,1,1.576-1.244c2.3-.011,4.606,0,6.911,0a2.636,2.636,0,0,1-2.519,2.06c-.408.018-.818.015-1.227,0a1.074,1.074,0,0,0-1.114.6,1.08,1.08,0,0,0,.247,1.242c.7.869,1.389,1.753,2.1,2.616a6.823,6.823,0,0,1,1.668,4.43c0,.351.113.452.439.416a5.245,5.245,0,0,1,.581,0c1.172,0,1.166,0,1.025-1.2a9.083,9.083,0,0,0-2.006-4.806c-.325-.4-.636-.8-1.005-1.272a5.155,5.155,0,0,0,3.113-1.952c.082-.111.171-.192.323-.14a.91.91,0,0,0,.125.034c.542.107,1.147-.22,1.569-.064s.494.891.9,1.266a3.2,3.2,0,0,0,3.174.763c-.223.535-.4,1.009-.618,1.462-.12.25-.085.35.167.478,1.539.777,1.522.779,2.23-.806a3.789,3.789,0,0,0,.339-1.616c-.018-2.755-.007-5.51-.008-8.265,0-2.472-1.5-3.767-3.936-3.38-.248.04-.325-.031-.427-.23a3.009,3.009,0,0,0-3.668-1.845c-.267.051-.372-.01-.475-.249a2.937,2.937,0,0,0-2.859-1.93,2.918,2.918,0,0,0-2.857,1.928c-.126.3-.276.29-.538.235a3.068,3.068,0,0,0-3.837,3.115q-.016,2.583.005,5.165a1.06,1.06,0,0,1-.369.883,5.888,5.888,0,0,0-.417,7.15c1.171,1.4,2.343,2.809,3.532,4.2a1.285,1.285,0,0,1,.354.916c-.018,1.678-.008,3.356-.008,5.089a16.328,16.328,0,0,1-10.15-17.643,16.4,16.4,0,0,1,17.069-14.125,16.462,16.462,0,0,1,15.682,14.465A16.361,16.361,0,0,1-2279.439-818.331Zm-11.359-18.78c.006.386-.133.442-.475.445-1.6.016-1.6.026-1.6-1.561v-1.158c0-.772-.008-1.544,0-2.316a1.044,1.044,0,0,1,1.009-1.169c.629-.014,1.048.446,1.052,1.191C-2290.8-840.156-2290.821-838.634-2290.8-837.112Zm4.131-.03c.006.342-.057.473-.443.478-1.631.021-1.63.037-1.63-1.6q0-2.672,0-5.344c0-.861.381-1.338,1.047-1.328s1.017.48,1.019,1.357c0,1.03,0,2.06,0,3.09C-2286.674-839.373-2286.686-838.257-2286.667-837.141Zm2.064-4.621a1.024,1.024,0,0,1,1.009-1.108,1.034,1.034,0,0,1,1.05,1.134c.013,1.011,0,2.022,0,3.033q0,1.484,0,2.969a1.044,1.044,0,0,1-.629,1.032c-.337.16-.46.1-.421-.3.073-.741.046-1.449-.888-1.67-.216-.051-.124-.247-.125-.378C-2284.609-838.621-2284.615-840.192-2284.6-841.762Zm4.131,2.131a1.044,1.044,0,0,1,1.008-1.172c.631-.015,1.051.445,1.054,1.192q.011,2.931,0,5.861c0,.751-.413,1.212-1.042,1.205s-1.016-.466-1.021-1.225c-.007-.966,0-1.932,0-2.9C-2280.474-837.656-2280.481-838.644-2280.471-839.631Z" transform="translate(-24.83 -24.768)" fill="url(#linear-gradient)"/>
  </g>
</svg>
