<svg xmlns="http://www.w3.org/2000/svg" width="570.996" height="434.871" viewBox="0 0 570.996 434.871">
  <path id="Path_1416" data-name="Path 1416" d="M-20511.6-16884.863c3.938-1.045,28.6-9.074,70.461-12.287,24.094-1.85,183.6,2.248,210.188,0,4.84-.41,28.619-2.277,49.357-13.7,17.447-9.609,32.365-28.523,35.4-33.8,3.4-5.924,12.371-22.6,14.547-43.465,2.016-19.352-.113-64.66.4-112.016.117-10.9,4.133-41.252.4-92.9-.785-10.869-2.98-29.264-10.5-44.352-9.125-18.312-24.85-32.664-37.934-35-58.008-10.367-382.5-22.412-478.289,3.824-36.555,10.01-42.687,75.18-42.687,75.18l.676,191.32s.039,24.5,10.078,47.24c4.5,10.182,12.383,20.041,19.744,28.129,23.449,25.752,57.238,28.953,57.238,28.953l14.9,1.162s-.4,21.809,0,35.576c.162,5.457.506,9.234.773,9.719,1.031,1.869,3.605,1.969,4.791,1.641,6-1.66,14.908-8.482,25.689-14.172C-20550.141-16872.389-20529.562-16880.1-20511.6-16884.863Z" transform="translate(20700.266 17284.371)" fill="#c9edff"/>
</svg>
