<svg xmlns="http://www.w3.org/2000/svg" viewBox="0 0 359.23 359.28"><defs><style>.cls-1{fill:#023e89;}.cls-2{fill:#0095c6;}.cls-3{fill:#48c9e3;}.cls-4{fill:#00b3d7;}.cls-5{fill:#fcc641;}.cls-6{fill:#e43935;}.cls-7{fill:#ace7f3;}.cls-8{fill:#fbe942;}.cls-9{fill:#ee5350;}.cls-10{fill:#fbc641;}.cls-11{fill:#eeac1b;}.cls-12{fill:#e33935;}.cls-13{fill:#e23936;}.cls-14{fill:#47c9e3;}.cls-15{fill:#ec5250;}.cls-16{fill:#ed5250;}.cls-17{fill:#00b1d6;}.cls-18{fill:#0094c5;}.cls-19{fill:#fc7273;}.cls-20{fill:#48c8e2;}.cls-21{fill:#47c5e0;}.cls-22{fill:#fac440;}.cls-23{fill:#e35353;}.cls-24{fill:#033e89;}</style></defs><g id="Layer_2" data-name="Layer 2"><g id="Layer_1-2" data-name="Layer 1"><path class="cls-1" d="M161.78,353.3c-1.32,5.05-3.65,6.55-9,5.79a23.93,23.93,0,0,1-20.95-23.83c-.09-18.91,0-37.82,0-56.73,0-1.49-.08-3-.13-4.47-1-1.3-.89-2.83-.84-4.32.19-5.59-.55-11.22.54-16.79.42-2.18-1.16-2.44-2.66-2.76A114.5,114.5,0,0,1,114,245.91,97.71,97.71,0,0,1,77.1,222.29c-16.79-17.06-26.82-37.55-29.43-61.55-2.56-23.45,2.57-45.05,14.89-65.06,2.45-4,2.37-4.25-1-7.63-1.66-1.69-3.32-3.39-5-5-2.57-2.45-3.16-2.43-5.15.51a118.64,118.64,0,0,0-20.3,72.19C32.74,182.55,42,206.48,59.62,227a117.34,117.34,0,0,0,53.84,35.69,19.83,19.83,0,0,1,5.13,2.22c2.7,1.83,3.28,4,2,7.41-2.67,4.15-4.4,4.95-9,3.38-51.85-17.6-83-53.26-92-107.31C14.34,136.71,21.44,107,38.26,79.71c.46-.74.87-1.5,1.5-2.61-13.44,3.43-24-1-32.73-10.79C6,65.1,4.75,64,3.6,62.87c-4.76-4.78-4.8-7.22-.12-11.9q13.49-13.5,27-27Q40.9,13.55,51.36,3.11c4.19-4.17,6.82-4.14,11.09.06,1.42,1.39,2.77,2.88,4.24,4.21C76.27,16,80.17,26.55,77,39.89A176.35,176.35,0,0,1,97.36,29C157.1,2.84,227.63,24.92,261.61,80.62c1.62,2.64,3.33,3.32,6.2,3.33,7.71,0,15.51-.93,23.09,1,16.51,4.29,27.34,14.71,31.2,31.32s-1.3,30.5-14.08,41.55a7.07,7.07,0,0,0-2.74,5.95c-.09,10.18,1,20.43-2,30.46a54,54,0,0,1-19.21,28.2c-.59.46-1.18.92-1.8,1.34-1.17.79-1,2-.76,3s1.42.61,2.19.68,1.75,0,2.62,0c4.44.09,6,1.42,7.17,6,1.06,1.59.28,3.13-.21,4.63q-5.18,15.76-10.5,31.48c-2,6.05-4.31,7.27-10.67,6-1-.2-2.09-.54-2.69.53-1.55,2.78-3.8,5.31-3.37,8.86,1.29,10.72,2.11,21.49,3.34,32.22.39,3.21.45,6.44.94,9.65a9.34,9.34,0,0,1-2.91,8.49c-3.39,3.3-6.64,6.76-10.08,10-4,3.74-7.61,3.81-11.52.18-3.65-3.4-7.09-7-10.6-10.55a9,9,0,0,1-2.53-8.23c.65-3.94.67-7.94,1.3-11.87.58-9.29,1.56-18.54,2.72-27.77.51-4.06-.85-7.26-2.64-10.56-.88-1.63-2.09-1.37-3.48-.87-3.55,1.27-6.6.66-8.9-2.53C219,267,217.33,260.33,215,254c-1.09-3.63-2.32-7.22-3.58-10.8-.44-1.26-.78-2.69-2.62-2.52a40.88,40.88,0,0,0-26.47,10.57,4.94,4.94,0,0,0-1.87,4.94,43.38,43.38,0,0,1,.32,4.84,18.2,18.2,0,0,1-7.25,16.33c-3.52,2.82-2.86,7.46,1.38,9.05s5.87,4.54,5.86,8.88q0,26.88,0,53.77c0,1.49.06,3-1,4.27-.53,3.51-2.37,5.87-6.07,5.87s-5.55-2.35-6.07-5.87c-1.35-1.69-1.08-3.72-1.09-5.67,0-4.05-.07-8.11,0-12.17q0-15.12,0-30.26c0-4.26-.41-4.56-4.79-4.64-1.87,0-3.74.09-5.6-.08-2.61.07-5.23,0-7.85,0-2.33,0-3.42.93-3.41,3.31,0,10.59-.2,21.19.11,31.77.17,5.66,3.79,9.4,9.42,10.46a18.78,18.78,0,0,1,4,.87C161.34,348.15,162.39,350.13,161.78,353.3Z"/><path class="cls-2" d="M179.74,353.29q0-29.1-.09-58.21c0-5.21-1-6.43-6.05-7.68-3.52-.87-2.39-4.52-3.9-6.62-1.15-1.6.58-2.62,1.58-3.23,8.54-5.17,9.43-13,7.87-21.79-.28-1.54-.4-3,.89-4.12,8.4-7.6,18-12.17,29.58-12,1.29,1.47,1,3.27,1,5,0,11.81,0,23.62,0,35.42q.15,23.63,21.67,33.54a7.44,7.44,0,0,1,2.55,1.49c-.38,3.68-.67,7.39-1.19,11.06-.48,3.42,0,6.3,2.76,8.77,3.32,3,6.36,6.31,9.55,9.46,4,4,6.87,4,10.84.12,3.19-3.15,6.21-6.49,9.55-9.46a8.87,8.87,0,0,0,2.86-9.1,53.18,53.18,0,0,1-.65-8.53c1.4-1.43,3.22-1.13,4.93-1.15,5-.07,10-.09,14.94,0,2.7,0,3.81-1,3.79-3.74q-.07-9.15,0-18.3c0-4.49,1.55-8.31,5.19-11.07,1.25-1,2.61-2.11,4.33-.79-1.67,5.85-1.21,11.85-1.22,17.81,0,15.83,0,31.67,0,47.5,0,1.95.4,4.05-1.25,5.65H203.68c-1.72-1.73-1.23-4-1.23-6,0-18.54,0-37.07,0-55.61a18.52,18.52,0,0,0-.38-5.2c-.66-2.27-2.16-3.64-4.61-3.56a4.37,4.37,0,0,0-4.24,3.57,18.43,18.43,0,0,0-.38,5.19c0,18.54,0,37.07,0,55.61,0,2.05.49,4.28-1.23,6Z"/><path class="cls-3" d="M120.59,272.32c.08-5.29-.69-6.52-5.78-8.1a117.75,117.75,0,0,1-50.83-31c-19.33-20-30.57-44-33.29-71.77C27.87,132.57,35,106.22,51,82.1c1.93-2.91,3.13-3.14,5.4-.48a79.12,79.12,0,0,0,7.65,7.67c1.82,1.64,2,2.86.55,5A97,97,0,0,0,49.27,134c-4.48,30.45,3.17,57.62,22.79,81.18,15.19,18.23,34.7,29.63,58.08,34.14,2.6.51,2.94,1.39,2.31,3.88-1.49,5.87-.39,11.91-.68,17.87-.05,1-.08,2-.13,3Z"/><path class="cls-4" d="M301.74,282.27a11,11,0,0,0-8.33,10.92c-.08,6.73-.16,13.46,0,20.18.09,3-.71,4.15-3.91,4-7-.22-14,0-20.93,0-1.32-5.94-1.3-12-2.12-18.05-.56-4.18-.52-8.48-1.44-12.58-1.14-5.07,2.37-8.37,3.89-12.42.54-1.42,1.68-.49,2.54-.15,6,2.34,8.32,1.32,10.34-4.84,3.93-11.93,7.79-23.88,11.68-35.82l8.88.84c1.43,4.38,4.83,6.33,8.85,8.21,16.34,7.67,24.48,21,25,38.84.33,10.45.09,20.92,0,31.38,0,1.8.39,3.81-1.47,5.13a83.66,83.66,0,0,1-23.28-.13c-1.6-1.44-1.3-3.4-1.31-5.22-.06-6.46,0-12.92,0-19.38C310.22,284,310.22,284,301.74,282.27Z"/><path class="cls-1" d="M335.4,77.89c-1.17,4.34-3.48,6.35-6.8,5.94s-5.27-3-5.28-7.37c0-12.21-.11-24.42.07-36.63,0-3-.52-4-3.77-3.93-12,.23-23.92.1-35.88.09-6.43,0-8.3-1.84-8.31-8.12,0-6.86,0-13.71,0-20.56,0-5.11,2.15-7.22,7.31-7.23q34.58,0,69.15,0c5.15,0,7.31,2.13,7.32,7.23q0,34.58,0,69.15c0,4.39-1.88,6.94-5.28,7.37s-5.64-1.61-6.8-5.94c-2-4.39-.72-9-1-13.55-.14-15.32,0-30.65-.07-46,0-4.87-.23-5.08-5-5.11-15.08-.08-30.16.15-45.23-.11-.74,0-1.49.09-2.23.1-4.7.11-5.09.52-5,5.17.08,3.94.48,4.4,4.63,4.42,11.06.05,22.13,0,33.2,0,7.62,0,10,2.42,10,10.11.06,13.31,0,26.61,0,39.92C336.44,74.62,336.6,76.4,335.4,77.89Z"/><path class="cls-1" d="M6.07,311.47c-4.74-1.28-6-2.78-6-7.55,0-7.1,0-14.21,0-21.31,0-4.93,2.16-7.12,7-7.16,7.35-.05,14.7-.06,22,0,4.61,0,6.82,2.27,6.84,7,0,12.58.1,25.17-.06,37.75,0,2.69.75,3.26,3.32,3.23,12.33-.14,24.66-.08,37-.06,5.59,0,7.61,2.05,7.63,7.67q0,10.47,0,20.94c0,5.13-2.16,7.29-7.26,7.29q-34.58,0-69.15,0c-5.31,0-7.36-2.13-7.38-7.55q0-10.47,0-20.93c0-4.78,1.25-6.29,6-7.55,4-.69,6.55,1.4,7,6,.4,4.09.09,8.21.16,12.31.08,4.33.32,4.61,4.74,4.61q23.9,0,47.79,0c4.63,0,4.67-.1,5.07-4.8-.41-4.73-.44-4.8-5.06-4.82-11,0-21.89,0-32.84,0-7.72,0-10-2.32-10-10.06-.05-10.95,0-21.9,0-32.85,0-4.45-.14-4.53-4.48-5-5.17.18-5.16.18-5.2,5.2,0,4,.23,7.92-.15,11.86C12.6,310,10,312.16,6.07,311.47Z"/><path class="cls-1" d="M335.18,317.31c0-12.83.75-25.7-.1-38.47-1.17-17.36-10.27-29.76-26.6-36.38-3.83-1.55-6.59-3.49-6.1-8.1,2.9-4.69,4.65-5.28,9.88-3.35,20.49,7.55,34.68,27.13,34.91,48.95.25,24.06.09,48.12.08,72.18,0,4.1-1.94,6.61-5.23,7.05s-5.7-1.6-6.82-5.9a6.23,6.23,0,0,1-1.11-4.22q-.06-13.77,0-27.53A6.31,6.31,0,0,1,335.18,317.31Z"/><path class="cls-1" d="M301.74,282.27q9.56-3,9.6,6.83.06,14.1.1,28.21c1.11,1.35,1.09,3,1.1,4.6q0,13.39,0,26.79c0,1.61,0,3.24-1.12,4.59-.53,3.51-2.37,5.87-6.06,5.87s-5.55-2.35-6.07-5.87c0-21.28.09-42.56,0-63.85C299.32,286.69,299.77,284.27,301.74,282.27Z"/><path class="cls-1" d="M191.55,353.29q0-31.77.08-63.54a22.12,22.12,0,0,1,.09-3.36,5.79,5.79,0,0,1,6.08-4.94,5.66,5.66,0,0,1,5.69,4.95,18.43,18.43,0,0,1,.11,3.72q0,31.59.08,63.17c-.53,3.51-2.37,5.87-6.07,5.87S192.07,356.81,191.55,353.29Z"/><path class="cls-2" d="M311.42,353.29q0-18,0-36h23.74q0,18,0,36Z"/><path class="cls-2" d="M167.56,335.23q0,9,0,18.06h-5.82c-.45-4-2.63-5.83-6.63-6.08-6.72-.42-11.33-5.26-11.38-11.88-.08-10.93,0-21.85-.07-32.78,0-2.37.6-3.39,3.12-3.22,3,.21,6,.11,8.93.15,1.82,2.85,1,6,.91,9a32.78,32.78,0,0,0,5.72,20C164,330.85,166.54,332.45,167.56,335.23Z"/><path class="cls-5" d="M6.07,311.47c4.74-1.28,5.95-2.78,6-7.56,0-4.24.22-8.49-.06-12.7-.22-3.11.68-4.39,3.83-3.81a20.7,20.7,0,0,0,2.23.14c1.43,1.54,1.13,3.49,1.14,5.32,0,11.33,0,22.67,0,34,0,9.15,4.1,13.22,13.25,13.25,11.33.05,22.66,0,34,0,1.84,0,3.78-.29,5.33,1.14.32,6,.32,6-5.53,6-16.94,0-33.88-.07-50.82.08-2.84,0-3.6-.74-3.45-3.51.25-4.35.09-8.72.06-13.08,0-4.77-1.24-6.28-6-7.55Z"/><path class="cls-5" d="M335.4,77.89q-.06-22.78-.11-45.58c0-6.42-1.84-8.28-8.14-8.29-11.83,0-23.67-.11-35.5.07-3.19.05-4.49-.5-4.35-4.13.31-8.2.09-8.2,8.32-7.8,4.09,4.07,9.07,5.15,14.69,4.85,5.45-.29,10.93-.08,16.4-.06,10.61,0,15.59,5,15.64,15.46,0,3.85.12,7.71,0,11.56-.26,7.26-.37,14.44,4.8,20.42v13.5Z"/><path class="cls-6" d="M206.34,227.48c-12.37,1.22-23.46,5.47-32.72,14-1.06,1-1.9,1.26-3.25.43-3.41-2.09-7.23-2.49-11.16-2.37-13.4.4-26.72-.26-39.37-5.19C85.64,221,65.65,196.17,60.62,159.69c-2.28-16.6.75-32.49,7.68-47.67a38.35,38.35,0,0,1,2-3.49c2.25-.51,3.4.89,4.4,2.55.93,7,3.77,13.59,4.83,20.58a2.78,2.78,0,0,1-.09,1.8c-1.75,10.24-2.21,20.43-.18,30.75,5.84,29.63,31.25,53.13,61.27,56.75,14.26,1.72,27.69-.78,40.64-6.64,4.83-1.3,9.63.5,14.47.16,3.71-.27,7.46.18,11.17-.34a5.69,5.69,0,0,1,3.6.64l5,5A19.11,19.11,0,0,1,206.34,227.48Z"/><path class="cls-7" d="M149.81,54c-1.63-4.91-3.64-6.17-8.52-5.7A101.13,101.13,0,0,0,93.9,64.87C92.24,66,91.22,66,89.83,64.51c-2.88-3.09-5.83-6.15-9-9-2.19-2-1.22-2.79.62-4.06a122.47,122.47,0,0,1,46.1-19.37c45.73-9.07,94.88,11.1,120.72,49.72.32.48.59,1,1.19,2-7.4,0-14.31,0-21.21,0-1.83,0-2.46-1.55-3.42-2.59a101.1,101.1,0,0,0-54.52-31.15c-4.93-1-6.59-.11-8.73,4.56C157.56,56.13,153.66,55.38,149.81,54Z"/><path class="cls-5" d="M269.36,135.57c1.27,4.78,3.07,6.24,7.89,5.79,5.28-.48,10.54-1.24,16-1.91v11.78c-2.69,2.2-6.07,2-9.2,2.4-3.31.43-6.63.89-10,1.1a57.55,57.55,0,0,0-9.19,0,144.37,144.37,0,0,1-32.29-4.51c-2.4-.62-4.74-1.42-7.1-2.16-1.87-.59-2.9,0-2.88,2a58.5,58.5,0,0,0,.22,8.16c.17,1.91-.28,3.81-.06,5.72a40.75,40.75,0,0,0,4,17.29,34.05,34.05,0,0,1,2.62,5.77,6.12,6.12,0,0,1-.45,2.54c-1,3.1.2,5.26,2.86,6.9a34.89,34.89,0,0,0,10.23,4.35,14.22,14.22,0,0,1,4.18,1.54A45.94,45.94,0,0,0,277,207.92c1.63-.27,3.37-1.09,5,.16-18.25,20.55-53.77,17.68-67.86-9.52a34.42,34.42,0,0,1-4.33-15.32c-.23-17.78-.08-35.58-.08-53.75a143,143,0,0,0,25.87,8.59q6.93,1.48,13.94,2.52c4.64.69,6.5-.61,8.06-5.14A13.52,13.52,0,0,1,269.36,135.57Z"/><path class="cls-8" d="M282,208.08c-12,2.82-23.65,1.91-34.69-4a14.74,14.74,0,0,1-1.8-1.28c2.35-1.73,5-.87,7.58-1A34.66,34.66,0,0,0,271,196.42c3.12-2,4-4.66,2.62-7.18s-4.29-3.16-7.48-1.36c-9.84,5.53-19.65,5.66-29.36-.12-2.59-1.54-5.07-.36-7.6-.54-4.77-7-7.59-14.66-7.18-23.28,3.35,2.32,6.74,3.31,10.59,1,1.21-.73,2.61.23,3.88.74,3.28,1.33,5.78.73,7.15-1.65s.5-5.33-2.49-7.25c-4.82-3.09-9.76-3.16-14.76-.35-1.39.78-2.47,2.1-4.16,2.35-1.46-3.74-.5-7.6-.55-11.4,0-1.78,1.45-1.19,2.52-.81a123.53,123.53,0,0,0,24.2,5.75c4,.56,8.12.8,12.18,1.19,1.46.14,3-.38,4.38.51-.83,1.86-2.85,2.29-4.24,3.47-2.08,1.76-2.75,3.77-1.5,6.26a4.58,4.58,0,0,0,6.29,2.29,8.29,8.29,0,0,1,7.76,0,4.59,4.59,0,0,0,6.34-2.16c1.24-2.48.47-4.54-1.46-6.34-1.34-1.25-3.4-1.62-4.24-3.48l19.35-2.75c-.08,11.89,1,23.82-.64,35.65A36.44,36.44,0,0,1,282,208.08Z"/><path class="cls-7" d="M90.57,156.42c-1.91-10.39.17-20.24,4-29.85.68-.68,1.4-.36,2,.06,4.06,2.83,8,5.83,11.87,8.89a2.32,2.32,0,0,1,1,2.26c-3.88,15.41-1,29.32,10.23,40.75,11.92,12.19,26.61,15.94,42.84,10.74s25.49-17.05,28.73-33.69c4.83,2,6.34,4.13,6.35,9.14,0,6.11,0,12.21.08,18.32a4.9,4.9,0,0,1-.89,3.49c-10.46,12.8-23.57,20.82-40.27,22.38-5.27-.27-9.74-2.95-14.23-5.18a127.67,127.67,0,0,1-48.44-41.12A26.52,26.52,0,0,1,90.57,156.42Z"/><path class="cls-4" d="M214.11,95.94c22.89,0,45.79-.19,68.69,0,13.37.11,25.7,11,27.73,23.85-1.32,1.23-3,1.1-4.59,1.1-18.55,0-37.11.4-55.65-.11-14.71-.4-26.51-7-34.78-19.41C214.46,99.78,213,98.15,214.11,95.94Z"/><path class="cls-9" d="M149.81,54l11.78.75c.55,5.06,1.61,6.11,7.62,7.46A89.27,89.27,0,0,1,210.4,83.88H188.58c-2.1,0-4.27-.3-6.15,1-1.22.85-2.15-.08-3.1-.5Q147,70.24,115.75,86.58c-1.86,1-3,1-4.46-.59-3-3.2-6.06-6.27-9.23-9.25-1.54-1.44-1.4-2.18.36-3.26a89.89,89.89,0,0,1,36.27-12.84,46.4,46.4,0,0,0,7-1C148.38,58.89,149.45,56.59,149.81,54Z"/><path class="cls-2" d="M214.11,95.94c4.1,10.33,12,16.72,22,20.82a44.46,44.46,0,0,0,17.42,3.08c19-.12,38-.06,57-.06,2.09,7.61,0,17.38-5.17,22.95,0-3.68.05-7,0-10.28-.1-5-3.19-7.42-8.12-6.32a158.53,158.53,0,0,1-22,3.4c-3.69.29-5.51,2.47-5.86,6l-11.8-.11c-.57-4.86-1.76-6-6.75-6.73a131.81,131.81,0,0,1-42.44-13.26c-6.94-3.55-10.75-1.18-10.76,6.57,0,6.77,0,13.54,0,21.37-4-5.55-5.85-10.68-5.93-16.35-.14-9.33,0-18.67-.1-28,0-2.36.57-3.32,3.11-3.25C201.16,96,207.64,95.91,214.11,95.94Z"/><path class="cls-8" d="M33.64,38.05c6-6.94,6-6.93,12.24-.67Q99.1,90.6,152.3,143.83c1.45,1.46,3.37,2.68,3.33,5.13-3.54,2.58-9.17,2.33-13.18-.6a30.53,30.53,0,0,1-3.28-3.05Q87.93,94.07,36.71,42.79C35.39,41.47,33.32,40.49,33.64,38.05Z"/><path class="cls-9" d="M146.38,120.32c11.22-2.25,24,4.12,30.06,15a30.19,30.19,0,1,1-56.27,11.16c1.26-.33,1.71.81,2.34,1.44,4.62,4.55,9.17,9.17,13.77,13.73,8,7.91,19,8.34,26.32,1.08s7-18.39-.85-26.32c-4.38-4.44-8.83-8.8-13.2-13.25C147.73,122.32,146.48,121.74,146.38,120.32Z"/><path class="cls-4" d="M234.89,315.06c-3.49.22-6.26-1.75-8.84-3.52-10.5-7.21-16.34-17.17-16.44-30.08-.11-13.94,0-27.89,0-41.84a1.76,1.76,0,0,1,2.16,1.47c1.28,4.18,2.58,8.36,3.87,12.54,1.38,5.36,1,10.82.94,16.25,0,2.54.33,4,3.23,2.43a2.13,2.13,0,0,1,2.45.15c2.38,3.21,5.4,3.9,8.8,1.9,2.18-1.28,2.58-.36,3.94,1.45,4.29,5.68,2.61,11.79,2.11,17.83C236.54,300.79,235.65,307.92,234.89,315.06Z"/><path class="cls-7" d="M179.66,120.32c-9.42-8.74-19.67-12.82-31.61-12.47a32.28,32.28,0,0,0-9.54,1.6c-2.08.72-3.4.47-4.9-1.15-3.14-3.37-6.46-6.58-9.76-9.8-1.17-1.14-1.87-1.86.26-2.83Q151.46,83.25,178,97.18a2.62,2.62,0,0,1,1.68,2.58C179.63,106.32,179.66,112.88,179.66,120.32Z"/><path class="cls-3" d="M90.57,156.42c6.2,8.56,12.43,17.07,20.2,24.34a127.62,127.62,0,0,0,42.37,26.62c1.16.43,2.27,1,3.4,1.53-9.3,1.79-18.35.41-27-2.86-20.93-7.89-33.7-23-38.58-44.83A34.66,34.66,0,0,1,90.57,156.42Z"/><path class="cls-10" d="M33.64,38.05c1,1.12,1.88,2.31,2.93,3.36q51.77,51.8,103.49,103.65c4.67,4.7,9.63,5.63,15.57,3.9.74,3-.64,5.21-3.23,6.4a5.82,5.82,0,0,1-6.88-1.36c-2.74-2.72-5.47-5.46-8.2-8.19Q85.62,94.09,33.9,42.38C32.48,41,30.52,39.68,33.64,38.05Z"/><path class="cls-5" d="M157.81,277.64a25.58,25.58,0,0,0,1.43,9.77c-4.73,0-9.2-.05-13.67,0-1.54,0-1.85-.66-1.84-2,0-9.34-.06-18.67.07-28,0-3.55,2.39-5.7,6-5.89,2-.1,4,.05,6,.09,1.25,1.31,1.09,3,1.1,4.56C156.9,263.35,156.53,270.53,157.81,277.64Z"/><path class="cls-4" d="M167.56,335.23a30.18,30.18,0,0,1-11.85-24.92c0-3.61,0-7.22,0-10.82,3.09,0,6.19,0,9.28-.14,2.18-.12,2.71.81,2.69,2.83C167.61,313.19,167.6,324.21,167.56,335.23Z"/><path class="cls-11" d="M261.36,238.84c-2.76,2.85-5.54,5.69-8.26,8.57-1,1-1.75,1.51-3,.22-5.47-5.57-11-11.06-16.41-16.87a58.46,58.46,0,0,0,30.56,1.37c-.94,3.71-4.62,3.36-6.94,4.82C258.6,237.44,260.28,237.47,261.36,238.84Z"/><path class="cls-8" d="M157.81,277.64c-2.11-3.57-2.19-7.5-2.12-11.49.1-4.85,0-9.69,0-14.53.49,0,1-.11,1.48-.12,9.39-.14,12.17,3.19,10.47,12.51a3.83,3.83,0,0,1-2.13,2.83C161.25,269.21,158.93,273,157.81,277.64Z"/><path class="cls-9" d="M210.46,214.78a96.52,96.52,0,0,1-29.24-.46A76.27,76.27,0,0,0,199.82,201c1.31-1.34,1.87-1,2.53.58C204.32,206.4,207.47,210.54,210.46,214.78Z"/><path class="cls-12" d="M256.65,323.34c.54,3.13-1.81,7.62-4.53,8.77-.53.22-1,.28-1.35-.11-2.11-2.5-5.37-3.9-4.75-8.48,1.51-11.08,2.27-22.26,3.37-33.4.13-1.22-.2-3,2.1-2.6,1.23,1.32,1.06,3,1.08,4.58,0,4.85.28,9.71,0,14.53A29.48,29.48,0,0,0,256.65,323.34Z"/><path class="cls-13" d="M74.15,110.82l-3.8-2.29c3.5-9,3.72-9.11,10.21-2.63L84,109.34c4,4,4,4,.87,9-2.79,1-4.14-1.4-6-2.53A14,14,0,0,1,74.15,110.82Z"/><path class="cls-14" d="M262.82,256.37l15.95-16c-2,5.93-4.14,12.35-6.25,18.79-.42,1.29-1.13,1.54-2.24,1C267.53,258.78,264.79,257.37,262.82,256.37Z"/><path class="cls-14" d="M224.92,239.36q7.58,7.62,15.16,15.22c.79.78.94,1.42-.17,2-.11.06-.23.1-.34.17-7.78,5.23-8.29,5.07-11.18-3.67-1.44-4.34-2.85-8.69-4.28-13Z"/><path class="cls-14" d="M51.1,25.47c-2.34-1.64-2.35-3-.14-5.11,6.7-6.41,7.68-6.37,12.72,1.8a13.3,13.3,0,0,1,2.08,5.53C61.27,30.47,56.65,29.77,51.1,25.47Z"/><path class="cls-4" d="M26.24,65.2c-4.32-1-7.33-3.86-10.26-6.9-1-1-1-1.81,0-2.79A42.37,42.37,0,0,0,20.4,51c1.83-2.35,3.4-2.31,5.09,0a13.13,13.13,0,0,1,3.79,10.41C29.21,63.1,29.48,65.8,26.24,65.2Z"/><path class="cls-15" d="M256.65,323.34c-3.67-3-5-7-5.12-11.5-.15-8.11,0-16.21,0-24.32,1.61-.42,1.92.63,2,1.84Q255.09,306.36,256.65,323.34Z"/><path class="cls-16" d="M74.15,110.82c2.37,1.92,4.68,3.93,7.15,5.73,1,.77,2.06,1.85,3.57,1.82q-2.7,7.55-5.38,15.09C77.65,125.93,74.31,118.74,74.15,110.82Z"/><path class="cls-17" d="M51.1,25.47c4.66,2.24,9.43,3.77,14.66,2.22a22,22,0,0,1-.22,8.82c-.43,1.67-1.09,2.84-2.89.92C58.86,33.39,55,29.45,51.1,25.47Z"/><path class="cls-18" d="M26.24,65.2c2.43-1.2,2.44-3.36,2.05-5.56a24,24,0,0,0-2.8-8.59Q31.63,57,37.77,62.92c1.24,1.2.81,1.88-.66,2.28C33.48,66.16,29.86,66.57,26.24,65.2Z"/><path class="cls-19" d="M246.16,267.06c2.48-1.27,4.64-3.94,7.88-1.62,1.38,1,3.7,1,3.45,3.62s-.92,4.81-3.74,5.67C249.16,274.65,246.26,271.72,246.16,267.06Z"/><path class="cls-18" d="M222.27,272.46l-6.62,2.65V253.64Q219,263,222.27,272.46Z"/><path class="cls-20" d="M206.34,227.48l9.09-7.68c1.67,1.28,3.31,2.61,5,3.82a2.56,2.56,0,0,1,1,2.95c-.31,1.43-1.57,1-2.45,1C214.79,227.56,210.57,227.5,206.34,227.48Z"/><path class="cls-21" d="M109.47,137.78a99.44,99.44,0,0,0-14.86-11.21l2-4.6c4.49,4.49,8.66,8.63,12.8,12.8A2.05,2.05,0,0,1,109.47,137.78Z"/><path class="cls-22" d="M261.36,238.84a12.9,12.9,0,0,1-5.78-1.9c2.89-1.87,6.46-2.15,8.65-4.81l5-1.69Z"/><path class="cls-23" d="M246.16,267.06a10.59,10.59,0,0,0,7.59,7.67c-2.43,1.5-4.64.7-6.39-1S244.63,269.61,246.16,267.06Z"/><path class="cls-8" d="M347.13,64.39a13.86,13.86,0,0,1-5.92-12.51c.25-7.08.08-14.18.06-21.27,0-7.59-5-12.55-12.65-12.57s-15.43.09-23.14-.05c-4.28-.07-8.07-1.36-9.86-5.83,16.45,0,32.89-.05,49.33-.15,1.76,0,2.35.47,2.34,2.29C347.19,31,347.17,47.69,347.13,64.39Z"/><path class="cls-8" d="M71.79,341.28q-20.37,0-40.74,0c-8.18,0-13-4.82-13-13q0-20.37,0-40.74c6-.32,6-.32,6,5.53,0,11.59,0,23.17,0,34.76,0,5.36,2.1,7.45,7.46,7.46,11.59,0,23.17,0,34.76,0C72.1,335.3,72.1,335.3,71.79,341.28Z"/><path class="cls-1" d="M229.2,187.22c2.88-2,5.59-1.83,8.65,0,9,5.28,18.16,5.2,27.26.07,4.18-2.35,7.51-1.9,9.43,1.29s.7,6.57-3.55,9.16c-7.88,4.82-16.52,5.79-25.5,5.12-4.58-1.32-9.21-2.5-13.36-5C227.14,194.77,226.4,192.3,229.2,187.22Z"/><path class="cls-24" d="M273.91,154a16.81,16.81,0,0,1,5.41,3.2c2.42,2.35,2.75,5.56.71,8s-4.8,3.26-7.6,1.51c-2-1.26-3.49-1.69-5.67-.22a5.6,5.6,0,0,1-8.15-1.57c-1.86-2.74-1.34-6,1.53-8.21A39.27,39.27,0,0,1,265,154,18,18,0,0,1,273.91,154Z"/><path class="cls-24" d="M222.23,158.74c5.7-6.19,14.21-7.12,20.37-2.24,3,2.38,3.68,5.67,1.72,8.5s-5.07,3.4-8.2,1.5c-1.62-1-2.85-1.46-4.71-.34-4.18,2.52-6.32,1.9-9.39-2.22A7.74,7.74,0,0,1,222.23,158.74Z"/></g></g></svg>