<svg xmlns="http://www.w3.org/2000/svg" xmlns:xlink="http://www.w3.org/1999/xlink" width="61.954" height="62" viewBox="0 0 61.954 62">
  <defs>
    <linearGradient id="linear-gradient" y1="0.5" x2="1" y2="0.5" gradientUnits="objectBoundingBox">
      <stop offset="0.176" stop-color="#54acd2"/>
      <stop offset="0.89" stop-color="#2c82c9"/>
    </linearGradient>
  </defs>
  <g id="Group_946" data-name="Group 946" transform="translate(1929.912 882.107)">
    <path id="Path_1508" data-name="Path 1508" d="M-1723.5-770.783c-.253.312-.4.525-.574.7q-9.96,9.968-19.917,19.938a2.061,2.061,0,0,1-1.643.686c-1.4-.043-2.794-.027-4.191,0-.373.006-.452-.112-.456-.467-.017-1.607-.029-1.605,1.564-1.607,1.053,0,2.224.279,3.126-.092s1.536-1.393,2.28-2.137q8.917-8.913,17.833-17.827a5.4,5.4,0,0,1,.566-.433c-.145-.106-.173-.144-.205-.148-.461-.055-1.177.2-1.331-.112a4.555,4.555,0,0,1-.086-1.706c-.009-.264.152-.254.332-.254,1.268,0,2.537-.013,3.8.01a.979.979,0,0,1,1.019,1.025c.022,1.268,0,2.537.013,3.8,0,.252-.077.358-.328.324a1.147,1.147,0,0,0-.129,0c-.513-.01-1.15.161-1.5-.081S-1723.365-770.079-1723.5-770.783Z" transform="translate(-148.652 -89.263)"/>
    <path id="Path_1509" data-name="Path 1509" d="M-1772.093-641.491c0,1.027,0,1.027-1.038,1.027s-1.027,0-1.027-1.038,0-1.027,1.038-1.027S-1772.093-642.529-1772.093-641.491Z" transform="translate(-128.897 -198.266)"/>
    <path id="Path_1510" data-name="Path 1510" d="M-1869.3-708.388q-3.805,0-7.611,0c-1.039,0-1.365.336-1.365,1.4,0,2.752-.023,5.5.017,8.256.009.6-.18.684-.711.676-2.085-.031-4.171-.015-6.256-.012-.961,0-1.306.354-1.308,1.33,0,2.128-.016,4.257.011,6.385.006.465-.129.557-.569.552-2.128-.024-4.257-.013-6.385-.01-.966,0-1.313.351-1.314,1.323q0,3.741,0,7.482c0,1.527,0,1.507-1.516,1.529-.456.007-.562-.113-.559-.563.021-3.182,0-6.364.018-9.546a2.38,2.38,0,0,0-.99-1.992,4.944,4.944,0,0,0-1.664-.819,12.12,12.12,0,0,0-7.169.032c-.474.147-.53.044-.513-.384.027-.687-.006-1.376.011-2.064a2.236,2.236,0,0,0-.791-1.762,4.156,4.156,0,0,0-1.5-.856,11.976,11.976,0,0,0-7.533-.094c-.48.146-.514.033-.511-.387.016-2.279-.038-4.559.025-6.836a2.738,2.738,0,0,0-1.714-2.752,8.926,8.926,0,0,0-3.222-.829,10.947,10.947,0,0,0-5.792.843,2.718,2.718,0,0,0-1.694,2.7q.051,12.352,0,24.7a2.713,2.713,0,0,0,1.791,2.824,11.046,11.046,0,0,0,9.285-.232.545.545,0,0,1,.57-.021,10.827,10.827,0,0,0,9.79,0,.492.492,0,0,1,.515,0,11.088,11.088,0,0,0,9.34.26,2.321,2.321,0,0,1,.869-.161q7.095,0,14.19,0,7.127,0,14.254,0c1.005,0,1.349-.346,1.349-1.356q0-14.125,0-28.251C-1867.96-708.044-1868.3-708.388-1869.3-708.388Zm-58.04,2.776a8.629,8.629,0,0,1,3.716-.717,8.568,8.568,0,0,1,3.484.672c.18.084.467.136.446.392-.016.194-.267.26-.437.336a9.268,9.268,0,0,1-4.665.614,6.936,6.936,0,0,1-2.536-.653c-.144-.072-.36-.12-.364-.32S-1927.488-705.543-1927.344-705.612Zm-.5,4.9c.051-.7.013-1.411.013-2.171a12.722,12.722,0,0,0,8.257,0c0,.877.01,1.7,0,2.533-.007.408-.375.492-.656.615a9.152,9.152,0,0,1-4.549.579,7.611,7.611,0,0,1-2.429-.583A.882.882,0,0,1-1927.84-700.71Zm.013,2.989a12.68,12.68,0,0,0,8.257,0c0,.867,0,1.679,0,2.491,0,.422-.342.521-.62.643a9.218,9.218,0,0,1-4.61.594,7.153,7.153,0,0,1-2.542-.647.754.754,0,0,1-.5-.8C-1927.8-696.167-1927.828-696.9-1927.828-697.721Zm-.013,12.55c.049-.722.013-1.449.013-2.227a12.727,12.727,0,0,0,8.258,0c0,.858-.007,1.668,0,2.477.005.425-.333.526-.612.65a9.158,9.158,0,0,1-4.609.6,7.343,7.343,0,0,1-2.486-.614A.816.816,0,0,1-1927.841-685.171Zm7.643,6.069a9.228,9.228,0,0,1-4.611.589,7.149,7.149,0,0,1-2.541-.651.748.748,0,0,1-.49-.8c.04-.642.017-1.289.007-1.934,0-.245.034-.354.321-.259a12.462,12.462,0,0,0,7.84-.034c.018-.006.042.006.1.017,0,.786-.015,1.579.006,2.372C-1919.552-679.343-1919.9-679.233-1920.2-679.1Zm-.026-10.3a9.442,9.442,0,0,1-4.615.567,7.294,7.294,0,0,1-2.481-.63.791.791,0,0,1-.519-.849c.041-.727.011-1.457.011-2.244a12.508,12.508,0,0,0,4.015.69,11.168,11.168,0,0,0,3.8-.564c.437-.154.456-.007.446.343a13.733,13.733,0,0,0,.008,1.739C-1919.5-689.8-1919.8-689.584-1920.223-689.406Zm3.26-5.914a9.5,9.5,0,0,1,7.2.015c.159.063.427.133.379.364-.026.125-.234.231-.379.309a8.994,8.994,0,0,1-3.873.693,8.293,8.293,0,0,1-3.331-.683c-.163-.076-.415-.129-.414-.35S-1917.129-695.256-1916.964-695.32Zm-.542,7.926a12.448,12.448,0,0,0,7.933.078c.274-.09.333-.011.329.249-.011.709-.013,1.419,0,2.128.008.458-.356.555-.654.686a9.178,9.178,0,0,1-4.612.576,7.247,7.247,0,0,1-2.482-.627.79.79,0,0,1-.525-.846C-1917.475-685.878-1917.506-686.609-1917.506-687.395Zm7.633,8.292a9.229,9.229,0,0,1-4.61.59,7.134,7.134,0,0,1-2.541-.649.752.752,0,0,1-.493-.8c.039-.728.011-1.459.011-2.27a12.769,12.769,0,0,0,8.258,0c0,.844-.016,1.637.006,2.428C-1909.229-679.347-1909.572-679.234-1909.872-679.1Zm-.037-10.3a9.493,9.493,0,0,1-4.553.569,7.35,7.35,0,0,1-2.486-.613.815.815,0,0,1-.57-.883c.05-.723.013-1.452.013-2.228a12.706,12.706,0,0,0,8.258-.007c0,.782-.042,1.472.013,2.155A.9.9,0,0,1-1909.909-689.4Zm3.7-.935a9.606,9.606,0,0,1,4.25-.451,6.928,6.928,0,0,1,2.066.448c.31.13.8.2.815.516.013.344-.483.41-.789.529a9.045,9.045,0,0,1-3.22.519,8.984,8.984,0,0,1-3.094-.5c-.326-.124-.843-.182-.844-.552C-1907.028-690.134-1906.526-690.22-1906.21-690.336Zm-.986,5.161c.049-.721.013-1.448.013-2.223a12.7,12.7,0,0,0,8.258,0c0,.863-.006,1.673,0,2.483,0,.424-.336.524-.614.648a9.163,9.163,0,0,1-4.609.6,7.348,7.348,0,0,1-2.486-.614A.816.816,0,0,1-1907.2-685.174Zm7.646,6.072a9.23,9.23,0,0,1-4.61.59,7.143,7.143,0,0,1-2.541-.65.752.752,0,0,1-.493-.8c.039-.728.011-1.459.011-2.278a12.724,12.724,0,0,0,8.258.006c0,.843-.016,1.635.006,2.427C-1898.907-679.346-1899.25-679.234-1899.55-679.1Zm12.559-.376q-2.644-.028-5.289,0c-.365,0-.467-.1-.46-.461.022-1.247.008-2.494.008-3.741,0-1.2.014-2.408-.008-3.612-.007-.365.1-.465.461-.461q2.644.028,5.289,0c.365,0,.463.1.46.461q-.024,3.676,0,7.353C-1886.528-679.575-1886.627-679.475-1886.992-679.479Zm8.711-8.267c0,2.58-.01,5.161.01,7.741,0,.419-.1.534-.526.528-1.741-.025-3.483-.021-5.225,0-.364,0-.461-.1-.461-.461q.018-7.8,0-15.61c0-.363.094-.466.46-.462,1.741.019,3.483.023,5.224,0,.421-.006.531.106.527.527C-1878.291-692.906-1878.281-690.326-1878.281-687.745Zm7.676,8.271c-1.7-.033-3.4-.028-5.1,0-.424.006-.526-.11-.525-.529q.019-12.9,0-25.8c0-.421.105-.533.527-.527q2.58.037,5.16,0c.423-.006.527.11.526.529-.016,4.322-.01,8.644-.01,12.966,0,4.258-.009,8.515.012,12.772C-1870.009-679.586-1870.122-679.465-1870.6-679.474Z" transform="translate(0 -143.76)"/>
    <path id="Path_1511" data-name="Path 1511" d="M-1862.359-859.916c-.128-.762-.217-1.531-.368-2.288a24.74,24.74,0,0,0-28.064-19.588,24.263,24.263,0,0,0-16.023,9.656,24.1,24.1,0,0,0-4.874,16.681c.1,1.444.146,1.428,1.64,1.189.382-.061.545-.155.484-.59a20.408,20.408,0,0,1-.143-3.025c0-.357.1-.476.467-.469q1.9.034,3.806,0a.743.743,0,0,1,.666.4c.755,1.018,1.539,2.015,2.274,3.046a1.55,1.55,0,0,0,1.412.705c2.279-.025,4.558,0,6.838-.017a.689.689,0,0,1,.709.392c.594,1.044,1.219,2.07,1.857,3.088.188.3.161.461-.134.665-.618.428-1.21.892-1.807,1.35-1.915,1.471-1.614.852-1.633,3.257-.013,1.635,0,1.635,1.646,1.578a.323.323,0,0,1,.064,0c.289.047.368-.084.357-.361-.02-.494.029-.992-.015-1.482a1.142,1.142,0,0,1,.565-1.169c1.008-.694,1.97-1.454,2.947-2.193a1.112,1.112,0,0,0,.336-1.763c-.924-1.547-1.872-3.08-2.777-4.639a1.444,1.444,0,0,0-1.414-.789c-2.279.025-4.559,0-6.838.021a.965.965,0,0,1-.9-.456c-.687-.961-1.434-1.879-2.105-2.851a1.757,1.757,0,0,0-1.669-.848c-1.31.052-2.623,0-3.934.025-.406.008-.515-.087-.446-.495a23.133,23.133,0,0,1,4.184-9.929c.266-.362.454-.327.776-.124.871.549,1.748,1.091,2.646,1.594a.679.679,0,0,1,.388.711c-.02.946-.011,1.892-.006,2.838.005.886.37,1.259,1.246,1.263,1.354.007,2.709.014,4.064-.007a.98.98,0,0,1,.783.33c1.084,1.1,2.183,2.2,3.281,3.287.648.644,1,.688,1.748.192,1.915-1.268,3.818-2.553,5.738-3.812a1.429,1.429,0,0,0,.694-1.345c-.025-1.655-.008-3.311-.009-4.967a.845.845,0,0,1,.219-.7q3.049-3.017,6.069-6.062c.137-.138.244-.267.489-.146a21.761,21.761,0,0,1,4.252,2.692c-1.755,1.465-3.469,2.9-5.185,4.327-.774.644-.831.864-.446,1.827.509,1.273,1.013,2.549,1.534,3.817a.66.66,0,0,1-.09.753c-.663.845-1.3,1.707-1.935,2.576a.753.753,0,0,1-.7.341c-1.333-.018-2.666,0-4-.012a1.492,1.492,0,0,0-.959.3c-1.285.972-2.577,1.934-3.86,2.908a1.032,1.032,0,0,0-.3,1.608c1.313,1.988,2.645,3.964,3.96,5.951a1.228,1.228,0,0,0,1.134.594c.8-.015,1.592.018,2.386-.013.41-.016.545.085.535.52-.031,1.375-.011,2.752-.011,4.128,0,1.593,0,1.581,1.608,1.564.357,0,.468-.087.465-.458-.018-2.193,0-4.386-.011-6.58,0-.843-.38-1.221-1.216-1.228-.989-.008-1.978-.009-2.967,0a.643.643,0,0,1-.634-.308q-1.407-2.157-2.86-4.285c-.21-.306-.1-.42.137-.6.8-.58,1.592-1.171,2.37-1.78a1.221,1.221,0,0,1,.823-.267c1.354.013,2.709-.008,4.064.013a1.4,1.4,0,0,0,1.262-.612c.912-1.249,1.835-2.491,2.783-3.713a1.358,1.358,0,0,0,.2-1.493c-.519-1.246-1-2.509-1.522-3.752a.542.542,0,0,1,.186-.755q2.272-1.856,4.51-3.753c.25-.211.385-.21.612.024a25.664,25.664,0,0,1,1.883,2.12,22.538,22.538,0,0,1,4.69,11.6c.024.218,0,.438.342.4.448-.057.9-.092,1.349-.108C-1862.369-859.428-1862.308-859.609-1862.359-859.916Zm-19.122-16.758c-1.327,1.318-2.638,2.651-3.972,3.962a1.608,1.608,0,0,0-.521,1.255c.021,1.633,0,3.267.015,4.9a.7.7,0,0,1-.352.677q-2.157,1.407-4.283,2.86c-.317.217-.49.179-.749-.089-.971-1-1.978-1.973-2.954-2.973a1.59,1.59,0,0,0-1.253-.527c-1.139.026-2.279-.006-3.417.016-.345.007-.433-.1-.424-.432.023-.795-.015-1.591.015-2.385a1.33,1.33,0,0,0-.732-1.317c-1.021-.589-2.02-1.218-3.043-1.805-.343-.2-.415-.308-.1-.63a22.579,22.579,0,0,1,12.061-6.461,22.342,22.342,0,0,1,11.376.77c.1.032.192.081.4.17C-1880.135-877.98-1880.815-877.334-1881.481-876.674Z" transform="translate(-15.024 0)" fill="url(#linear-gradient)"/>
  </g>
</svg>
