<svg xmlns="http://www.w3.org/2000/svg" width="65.647" height="65" viewBox="0 0 65.647 65">
  <g id="footer_india" transform="translate(2540.693 -96.856)">
    <g id="Group_14819" data-name="Group 14819" transform="translate(-2540.014 100.857)">
      <path id="Path_16069" data-name="Path 16069" d="M-2472.3,171.771c-.343-.067-.347-.283-.354-.549q-.218-7.929-.45-15.857a.67.67,0,0,1,.3-.626.9.9,0,0,0-.052-1.5.619.619,0,0,1-.3-.56q-.1-3.774-.22-7.548a.762.762,0,0,1,.287-.7.842.842,0,0,0,0-1.371.885.885,0,0,1-.36-.8c-.06-2.368-.144-4.736-.18-7.1a3.5,3.5,0,0,0-.871-2.314c-.445-.519-1.212-.8-1.477-1.342-.279-.566-.048-1.368-.111-2.061a.838.838,0,0,0-.969-.79.827.827,0,0,0-.9.856,10.431,10.431,0,0,0,0,1.4.96.96,0,0,1-.5.975,4.086,4.086,0,0,0-1.979,3.595c.029,2.261-.108,4.524-.171,6.786a.81.81,0,0,1-.338.8.848.848,0,0,0-.021,1.371.815.815,0,0,1,.291.763c-.073,2.431-.135,4.863-.2,7.295a.945.945,0,0,1-.333.876.783.783,0,0,0-.068,1.232,1.125,1.125,0,0,1,.308.958q-.207,7.421-.4,14.843c-.034,1.3-.027,1.265-1.333,1.318-.594.024-.679-.178-.677-.708.02-5.056.012-10.111.011-15.167,0-.211,0-.424-.014-.634a.936.936,0,0,0-.855-.873c-.374-.078-.9.211-1.1-.162-.168-.312-.041-.785-.044-1.187a4.272,4.272,0,0,0,0-.444,1.934,1.934,0,0,1,.487-1.493,5.962,5.962,0,0,0,.561-7.024,15.549,15.549,0,0,0-6.3-5.638A2.652,2.652,0,0,1-2492,136.9c-2.094-4.761-5.866-7.782-10.489-9.865a.7.7,0,0,1-.522-.769q.038-2.379,0-4.759a.951.951,0,0,0-1.414-.94,1,1,0,0,0-.483,1.024c0,1.587,0,3.173,0,4.759,0,.283.012.508-.358.625a14.7,14.7,0,0,0-4.258,2.322c-2.986,2.207-5.548,4.762-6.713,8.424-.056.178-.1.3-.323.308a4.825,4.825,0,0,0-2.292,1,.943.943,0,0,0-.37,1.311.957.957,0,0,0,1.374.291,6.045,6.045,0,0,1,1.166-.618.42.42,0,0,1,.06.116c.013.1.02.211.022.316a8.58,8.58,0,0,0,2.625,6.2,3.113,3.113,0,0,1,1.071,2.9.947.947,0,0,0,0,.253c.044.339-.058.479-.441.477-2.622-.017-5.244-.009-7.866-.008a.6.6,0,0,1-.512-.171c-.92-1.037-1.666-3.129-.84-4.656a10.714,10.714,0,0,1,1.479-2.05c.542-.6.584-1.143.139-1.555s-1.028-.3-1.576.313c-.253.284-.5.573-.736.873a6.1,6.1,0,0,0,.069,8.272.918.918,0,0,1,.265.619c-.015.677-.011,1.354,0,2.03,0,.247-.037.367-.336.39-1.143.087-1.3.268-1.3,1.391q0,7.329,0,14.659c0,1.319,0,1.3-1.314,1.321-.439.008-.556-.1-.567-.55q-.187-7.866-.421-15.731a.723.723,0,0,1,.3-.69.875.875,0,0,0-.077-1.492.63.63,0,0,1-.293-.623q-.1-3.711-.214-7.421a.82.82,0,0,1,.288-.765.858.858,0,0,0-.047-1.416.7.7,0,0,1-.3-.627c-.067-2.41-.168-4.82-.2-7.231a2.926,2.926,0,0,0-1.1-2.515,2.919,2.919,0,0,1-1.358-3.07c.073-.572-.334-.908-.887-.927a.884.884,0,0,0-.99.909,6.427,6.427,0,0,0,0,1.141,1.232,1.232,0,0,1-.626,1.291,3.973,3.973,0,0,0-1.839,3.533c.032,2.261-.113,4.524-.173,6.786a.831.831,0,0,1-.338.739.854.854,0,0,0-.024,1.375.829.829,0,0,1,.305.758q-.122,3.774-.221,7.548a.7.7,0,0,1-.274.579.86.86,0,0,0-.037,1.379.78.78,0,0,1,.254.66c-.085,2.981-.159,5.962-.242,8.944q-.1,3.457-.208,6.913c-.007.23.09.489-.344.506-.975.039-1.193.306-1.193,1.292q0,3.332,0,6.663c0,1.189.249,1.434,1.453,1.434h52.083c.148,0,.3.006.444,0a.927.927,0,0,0,.95-.968.92.92,0,0,0-.923-.93c-.19-.013-.381,0-.571,0H-2506.6q-13.766,0-27.532.016c-.582,0-.684-.163-.669-.695.038-1.4.05-2.793,0-4.187-.024-.62.147-.744.751-.744q29.848.027,59.7.015a2.194,2.194,0,0,0,.317,0c.332-.049.426.083.422.416-.017,1.586-.022,3.173,0,4.759.006.4-.153.434-.479.428-.993-.018-1.988-.009-2.981-.006-.8,0-1.218.335-1.208.966s.416.936,1.237.937c1.332,0,2.665-.023,4,.012a1.346,1.346,0,0,0,1.328-.646v-8.123C-2471.9,172.131-2472.009,171.828-2472.3,171.771Zm-59.583-37.687c.856-1.007,1.347-.991,2.215.024.537.628.3,1.368.361,2.065.014.167-.177.138-.3.139-.4,0-.8,0-1.205,0a1.479,1.479,0,0,1-.19,0c-.425-.055-.916.179-1.264-.132C-2532.5,135.968-2532.156,134.41-2531.879,134.084Zm-.6,8.254c.049-1.224.088-2.448.1-3.673,0-.369.13-.466.479-.455.738.023,1.479.032,2.216,0,.417-.02.5.147.482.512-.024.611-.006,1.224-.006,1.836h.108c0,.612-.018,1.225.008,1.836.013.312-.09.4-.39.393-.865-.016-1.731-.022-2.6,0C-2532.437,142.8-2532.49,142.652-2532.477,142.339Zm-.054,2.767c.008-.322.092-.44.431-.431.865.023,1.732.026,2.6,0,.369-.011.468.117.464.466-.015,1.246-.006,2.492-.006,3.737h.214c0,1.2-.02,2.408.011,3.61.01.418-.049.592-.526.572-.97-.042-1.943-.028-2.914,0-.368.009-.511-.056-.5-.475C-2532.662,150.089-2532.594,147.6-2532.532,145.106Zm3.63,26.592c-1.287-.033-2.576-.025-3.864,0-.377.006-.506-.073-.493-.483q.241-7.854.439-15.709c.011-.423.11-.579.561-.562.991.036,1.986.036,2.977,0,.432-.016.527.14.535.531.056,2.64.132,5.279.2,7.919h0c.073,2.576.133,5.152.233,7.728C-2528.3,171.607-2528.437,171.71-2528.9,171.7Zm37.544-30.73c.015-.25.05-.5.079-.775a2.859,2.859,0,0,1,1.009.548,16.522,16.522,0,0,1,4.152,3.96,4.288,4.288,0,0,1-.359,5.322.6.6,0,0,1-.541.241c-2.516-.005-5.032-.011-7.549.005-.371,0-.5-.116-.443-.466a.424.424,0,0,0,0-.127,3.468,3.468,0,0,1,1.194-3.231A7.986,7.986,0,0,0-2491.358,140.968Zm-23.319-.185a7.9,7.9,0,0,1,1.4-4.964,19.593,19.593,0,0,1,8.1-6.881,2.563,2.563,0,0,1,2.364-.013,19.011,19.011,0,0,1,8.453,7.4c2.109,3.579,1.331,6.994-1.763,9.848a.821.821,0,0,1-.648.154q-3.614,0-7.228,0c-2.388,0-4.777-.008-7.165.008a1.124,1.124,0,0,1-.88-.373A7.93,7.93,0,0,1-2514.677,140.783Zm17.776,8.076c-.028,1.4,0,1.4-1.409,1.4h-5.636c-2.153,0-4.306-.012-6.459.01-.441,0-.618-.061-.608-.569.03-1.456,0-1.456,1.442-1.456,4.01,0,8.021.008,12.031-.011C-2497.048,148.232-2496.89,148.348-2496.9,148.859Zm-18.6,22.371c0,.349-.08.468-.449.464-2.072-.018-4.144-.025-6.216,0-.471.007-.5-.19-.494-.556.011-2.39.006-4.78.006-7.17,0-2.411.01-4.822-.01-7.233,0-.411.1-.534.522-.53q3.076.034,6.153,0c.392,0,.492.1.491.49Q-2515.516,163.965-2515.5,171.23Zm-.1-17.012c-.316.324-1,.073-1.521.1-.38.016-.761,0-1.141,0-.782,0-1.565-.016-2.346.007-.336.01-.414-.1-.423-.426-.048-1.733-.058-1.733,1.664-1.733,1.1,0,2.2.019,3.3-.009.418-.011.627.061.571.537C-2515.558,153.212-2515.283,153.9-2515.6,154.218Zm15.585,17.479c-1.332-.028-2.664-.01-4-.01-1.269,0-2.538-.018-3.806.01-.442.01-.618-.058-.609-.568.035-1.967.007-3.934.018-5.9a6.764,6.764,0,0,1,2.27-5.114c.6-.559,1.261-1.062,1.879-1.607.213-.188.362-.217.588-.015.678.6,1.408,1.154,2.06,1.785a6.654,6.654,0,0,1,2.1,4.867c.021,2.009,0,4.019.017,6.028C-2499.486,171.583-2499.592,171.705-2500.012,171.7Zm5.713-.563c0,.429-.083.59-.544.564a19.656,19.656,0,0,0-2.218,0c-.466.026-.551-.144-.545-.571.023-1.881,0-3.763.012-5.645a8.872,8.872,0,0,0-3.32-7.154c-.759-.64-1.514-1.285-2.279-1.919a.993.993,0,0,0-1.522,0c-.844.7-1.694,1.4-2.517,2.128a8.71,8.71,0,0,0-3.078,6.753c-.008,1.945-.014,3.89.008,5.835,0,.428-.082.6-.547.57a19.659,19.659,0,0,0-2.218,0c-.463.026-.546-.137-.543-.565.019-3.044.01-6.089.01-9.133s.012-6.089-.012-9.133c0-.479.121-.587.591-.586q9.067.026,18.135,0c.472,0,.591.109.59.586Q-2494.324,162-2494.3,171.133Zm2-18.859c.29-.348,1.03-.1,1.573-.1.993-.017,1.987.006,2.98-.011.333-.006.512.049.487.441-.035.547.185,1.263-.086,1.6-.285.356-1.031.085-1.574.113-.316.016-.634,0-.951,0-.7,0-1.4-.021-2.093.008-.37.016-.47-.112-.446-.462C-2492.374,153.319-2492.577,152.6-2492.3,152.274Zm6.448,19.426c-2.008-.036-4.017-.024-6.026-.006-.393,0-.538-.071-.536-.508q.026-7.233,0-14.467c0-.438.145-.511.537-.508,2.03.018,4.06.024,6.089,0,.468-.006.545.155.542.575-.019,2.411-.009,4.822-.009,7.233,0,2.348-.012,4.7.01,7.043C-2485.245,171.527-2485.325,171.71-2485.855,171.7Zm7.708-37.579c.875-1.038,1.445-1.027,2.292.031.493.616.283,1.327.325,2,.014.223-.21.152-.34.155-.378.009-.757,0-1.136,0a1.735,1.735,0,0,1-.252,0c-.419-.062-1.146.2-1.2-.144A2.373,2.373,0,0,1-2478.147,134.122Zm-.553,8.28c.012-.633,0-1.266,0-1.9h.113c0-.633.012-1.266-.005-1.9-.008-.3.1-.4.4-.392.78.019,1.562.022,2.342,0,.352-.01.42.141.425.449q.028,1.868.093,3.735c.008.251-.02.394-.324.389-.907-.014-1.815-.017-2.722,0C-2478.688,142.792-2478.706,142.645-2478.7,142.4Zm-.066,2.713c.007-.308.081-.449.43-.44q1.329.037,2.66,0c.36-.011.413.142.411.446-.011,1.246,0,2.491,0,3.737h.218c0,1.246-.015,2.492.01,3.737.007.362-.089.468-.45.46-1.013-.022-2.027-.015-3.041,0-.294,0-.451-.024-.438-.4C-2478.888,150.141-2478.826,147.628-2478.767,145.115Zm3.692,26.583q-1.933-.05-3.869,0c-.472.013-.542-.152-.53-.573q.225-7.833.41-15.668c.01-.426.15-.527.553-.516q1.49.042,2.981,0c.4-.011.534.087.543.513.057,2.664.146,5.328.224,7.992h-.017c.075,2.558.14,5.117.234,7.674C-2474.529,171.549-2474.6,171.71-2475.075,171.7Z" transform="translate(2536.693 -120.441)" fill="#2f88f7"/>
      <path id="Path_16070" data-name="Path 16070" d="M-2437.208,385.048c0,.4.027.8-.007,1.2a.889.889,0,0,1-.906.877.89.89,0,0,1-.953-.889c-.036-.8-.034-1.6,0-2.4a.872.872,0,0,1,.9-.876.907.907,0,0,1,.958.889c.034.4.007.8.007,1.2Z" transform="translate(2455.656 -338.42)" fill="#2f88f7"/>
      <path id="Path_16071" data-name="Path 16071" d="M-2439.047,349.165c0-.4-.027-.8.007-1.2a.91.91,0,0,1,.958-.889.88.88,0,0,1,.9.881c.034.8.037,1.6,0,2.4a.882.882,0,0,1-.957.884.881.881,0,0,1-.9-.877C-2439.073,349.969-2439.047,349.566-2439.047,349.165Z" transform="translate(2455.622 -308.624)" fill="#2f88f7"/>
      <path id="Path_16072" data-name="Path 16072" d="M-2259.222,385.016c0,.38.021.762,0,1.14a.938.938,0,0,1-.959.965.92.92,0,0,1-.92-.936c-.031-.759-.031-1.52,0-2.279a.926.926,0,0,1,.957-.964.951.951,0,0,1,.928,1c.021.358,0,.718,0,1.076Z" transform="translate(2307.879 -338.407)" fill="#2f88f7"/>
      <path id="Path_16073" data-name="Path 16073" d="M-2259.207,349.158c0,.4.029.8-.007,1.2a.9.9,0,0,1-.962.882.869.869,0,0,1-.9-.879c-.035-.8-.036-1.6,0-2.4a.9.9,0,0,1,.959-.886.9.9,0,0,1,.9.884C-2259.182,348.355-2259.207,348.757-2259.207,349.158Z" transform="translate(2307.855 -308.622)" fill="#2f88f7"/>
    </g>
    <path id="Path_16074" data-name="Path 16074" d="M-2476.3,173.771c-.343-.067-.347-.283-.354-.549q-.219-7.929-.45-15.857a.67.67,0,0,1,.3-.626.9.9,0,0,0-.053-1.5.618.618,0,0,1-.3-.56q-.1-3.774-.22-7.548a.762.762,0,0,1,.286-.7.842.842,0,0,0,0-1.371.884.884,0,0,1-.36-.8c-.06-2.368-.144-4.736-.18-7.1a3.5,3.5,0,0,0-.871-2.314c-.444-.519-1.211-.8-1.477-1.342-.279-.566-.047-1.368-.111-2.061a.838.838,0,0,0-.969-.79.827.827,0,0,0-.9.856,10.391,10.391,0,0,0,0,1.4.96.96,0,0,1-.5.975,4.086,4.086,0,0,0-1.979,3.595c.028,2.261-.108,4.524-.171,6.786a.81.81,0,0,1-.339.8.848.848,0,0,0-.021,1.371.816.816,0,0,1,.291.763c-.073,2.431-.135,4.863-.2,7.295a.945.945,0,0,1-.333.876.784.784,0,0,0-.068,1.232,1.124,1.124,0,0,1,.308.958q-.207,7.421-.4,14.843c-.034,1.3-.027,1.265-1.333,1.318-.594.024-.679-.178-.677-.708.02-5.056.012-10.111.011-15.167,0-.211,0-.424-.015-.634a.936.936,0,0,0-.855-.873c-.374-.078-.9.211-1.1-.162-.169-.312-.041-.785-.044-1.187a4.34,4.34,0,0,0,0-.444,1.933,1.933,0,0,1,.487-1.493,5.962,5.962,0,0,0,.561-7.024,15.548,15.548,0,0,0-6.3-5.638A2.651,2.651,0,0,1-2496,138.9c-2.094-4.761-5.866-7.782-10.489-9.865a.7.7,0,0,1-.522-.769q.038-2.379,0-4.759a.951.951,0,0,0-1.414-.94,1,1,0,0,0-.483,1.024c0,1.587,0,3.173,0,4.759,0,.283.012.508-.358.625a14.707,14.707,0,0,0-4.258,2.322c-2.986,2.207-5.548,4.762-6.712,8.424-.057.178-.1.3-.323.308a4.824,4.824,0,0,0-2.292,1,.943.943,0,0,0-.37,1.311.958.958,0,0,0,1.374.291,6.041,6.041,0,0,1,1.165-.618.421.421,0,0,1,.061.116c.013.1.02.211.022.316a8.58,8.58,0,0,0,2.626,6.2,3.113,3.113,0,0,1,1.071,2.9.937.937,0,0,0,0,.253c.044.339-.058.479-.441.477-2.622-.017-5.244-.009-7.866-.008a.594.594,0,0,1-.512-.171c-.921-1.037-1.667-3.129-.84-4.656a10.724,10.724,0,0,1,1.479-2.05c.542-.6.584-1.143.139-1.555s-1.028-.3-1.576.313c-.253.284-.5.573-.736.873a6.1,6.1,0,0,0,.069,8.272.918.918,0,0,1,.266.619c-.015.677-.011,1.354,0,2.03,0,.247-.037.367-.336.39-1.143.087-1.3.268-1.3,1.391q0,7.329,0,14.659c0,1.319,0,1.3-1.314,1.321-.44.008-.556-.1-.567-.55q-.187-7.866-.421-15.731a.723.723,0,0,1,.3-.69.875.875,0,0,0-.077-1.492.629.629,0,0,1-.292-.623q-.1-3.711-.214-7.421a.819.819,0,0,1,.288-.765.858.858,0,0,0-.047-1.416.7.7,0,0,1-.3-.627c-.067-2.41-.168-4.82-.2-7.231a2.925,2.925,0,0,0-1.1-2.515,2.919,2.919,0,0,1-1.358-3.07c.073-.572-.334-.908-.887-.927a.884.884,0,0,0-.99.91,6.381,6.381,0,0,0,0,1.141,1.232,1.232,0,0,1-.626,1.291,3.972,3.972,0,0,0-1.839,3.533c.032,2.261-.113,4.524-.173,6.786a.831.831,0,0,1-.338.739.854.854,0,0,0-.024,1.375.829.829,0,0,1,.306.758q-.122,3.774-.221,7.548a.7.7,0,0,1-.274.579.86.86,0,0,0-.037,1.379.782.782,0,0,1,.254.66c-.085,2.981-.159,5.962-.242,8.944q-.1,3.457-.208,6.913c-.007.23.09.489-.344.506-.975.039-1.193.306-1.193,1.292q0,3.332,0,6.663c0,1.189.248,1.434,1.453,1.434h52.083c.148,0,.3.006.444,0a.927.927,0,0,0,.95-.968.92.92,0,0,0-.923-.93c-.189-.013-.381,0-.571,0H-2510.6q-13.766,0-27.532.016c-.581,0-.684-.163-.669-.695.039-1.4.051-2.793,0-4.187-.024-.62.147-.744.751-.744q29.848.027,59.7.015a2.195,2.195,0,0,0,.317,0c.332-.049.425.083.422.416-.017,1.586-.022,3.173,0,4.759.006.4-.154.434-.479.428-.993-.018-1.988-.009-2.981-.006-.805,0-1.218.335-1.208.966s.416.936,1.237.937c1.332,0,2.665-.023,4,.012a1.346,1.346,0,0,0,1.328-.646v-8.123C-2475.9,174.131-2476.009,173.828-2476.3,173.771Zm-59.583-37.687c.857-1.007,1.347-.991,2.215.024.537.628.3,1.368.361,2.065.014.167-.177.138-.3.139-.4,0-.8,0-1.205,0a1.479,1.479,0,0,1-.19,0c-.425-.055-.916.179-1.264-.132C-2536.5,137.968-2536.156,136.41-2535.879,136.084Zm-.6,8.254c.049-1.224.088-2.448.1-3.673,0-.369.13-.466.479-.455.738.023,1.479.032,2.216,0,.417-.02.5.147.482.512-.024.611-.006,1.224-.006,1.836h.108c0,.612-.018,1.225.007,1.836.013.312-.09.4-.39.393-.865-.016-1.731-.022-2.6,0C-2536.437,144.8-2536.49,144.652-2536.477,144.339Zm-.054,2.767c.008-.322.092-.44.431-.431.865.023,1.732.026,2.6,0,.369-.011.468.117.464.466-.015,1.246-.006,2.492-.006,3.737h.214c0,1.2-.02,2.407.011,3.61.01.418-.049.592-.526.572-.97-.042-1.943-.028-2.914,0-.368.009-.511-.056-.5-.475C-2536.662,152.089-2536.594,149.6-2536.532,147.106Zm3.63,26.592c-1.287-.033-2.576-.025-3.864,0-.377.006-.506-.073-.493-.483q.241-7.854.439-15.709c.011-.423.11-.579.562-.562.991.036,1.986.036,2.977,0,.432-.016.527.14.535.531.057,2.64.132,5.279.2,7.919h0c.073,2.576.133,5.152.233,7.728C-2532.3,173.607-2532.437,173.71-2532.9,173.7Zm37.544-30.73c.015-.25.05-.5.079-.775a2.86,2.86,0,0,1,1.009.548,16.522,16.522,0,0,1,4.152,3.96,4.287,4.287,0,0,1-.358,5.322.6.6,0,0,1-.541.241c-2.516-.005-5.033-.011-7.549.005-.371,0-.5-.116-.443-.466a.432.432,0,0,0,0-.127,3.469,3.469,0,0,1,1.194-3.231A7.985,7.985,0,0,0-2495.358,142.968Zm-23.319-.185a7.9,7.9,0,0,1,1.4-4.964,19.594,19.594,0,0,1,8.1-6.881,2.563,2.563,0,0,1,2.364-.013,19.012,19.012,0,0,1,8.453,7.4c2.109,3.579,1.331,6.994-1.763,9.848a.821.821,0,0,1-.648.154q-3.614,0-7.228,0c-2.388,0-4.777-.008-7.165.008a1.123,1.123,0,0,1-.879-.373A7.928,7.928,0,0,1-2518.677,142.783Zm17.776,8.076c-.028,1.4,0,1.4-1.409,1.4h-5.636c-2.153,0-4.306-.012-6.459.01-.441,0-.618-.061-.608-.569.03-1.456,0-1.456,1.442-1.456,4.01,0,8.021.008,12.032-.011C-2501.048,150.232-2500.89,150.348-2500.9,150.859Zm-18.6,22.371c0,.349-.08.468-.45.464-2.072-.018-4.144-.025-6.216,0-.471.007-.5-.19-.495-.556.011-2.39.006-4.78.006-7.17,0-2.411.01-4.822-.01-7.233,0-.411.1-.534.522-.53q3.076.034,6.153,0c.392,0,.492.1.491.49Q-2519.516,165.965-2519.5,173.23Zm-.1-17.012c-.316.324-1,.073-1.521.1-.38.016-.761,0-1.142,0-.782,0-1.565-.016-2.346.007-.336.01-.414-.1-.423-.426-.048-1.733-.058-1.733,1.664-1.733,1.1,0,2.2.019,3.3-.01.418-.011.628.061.571.537C-2519.558,155.212-2519.283,155.9-2519.6,156.218Zm15.585,17.479c-1.332-.028-2.664-.01-4-.01-1.269,0-2.538-.018-3.806.01-.442.01-.619-.058-.609-.568.035-1.967.007-3.934.018-5.9a6.764,6.764,0,0,1,2.271-5.114c.6-.559,1.261-1.062,1.879-1.607.213-.188.362-.217.588-.015.678.6,1.408,1.154,2.06,1.785a6.655,6.655,0,0,1,2.1,4.867c.021,2.009-.005,4.019.017,6.028C-2503.487,173.583-2503.592,173.705-2504.012,173.7Zm5.713-.563c0,.429-.083.59-.544.564a19.656,19.656,0,0,0-2.218,0c-.466.026-.551-.144-.546-.571.023-1.881,0-3.763.012-5.645a8.873,8.873,0,0,0-3.32-7.154c-.76-.64-1.514-1.285-2.279-1.919a.992.992,0,0,0-1.521,0c-.844.7-1.694,1.4-2.517,2.128a8.71,8.71,0,0,0-3.079,6.753c-.008,1.945-.014,3.89.008,5.835,0,.428-.082.6-.547.57a19.659,19.659,0,0,0-2.218,0c-.463.026-.546-.137-.544-.565.019-3.044.01-6.089.01-9.133s.012-6.089-.012-9.133c0-.479.121-.587.592-.586q9.067.026,18.134,0c.473,0,.592.109.59.586Q-2498.324,164-2498.3,173.133Zm2-18.859c.29-.348,1.03-.1,1.572-.1.993-.017,1.987.006,2.98-.011.333-.006.512.049.487.441-.035.547.185,1.263-.085,1.6-.285.356-1.031.085-1.574.113-.316.016-.634,0-.951,0-.7,0-1.4-.021-2.093.008-.37.016-.47-.112-.446-.462C-2496.374,155.319-2496.577,154.6-2496.3,154.274Zm6.448,19.426c-2.008-.036-4.017-.024-6.026-.006-.393,0-.537-.071-.536-.508q.026-7.233,0-14.467c0-.438.145-.511.537-.508,2.03.018,4.06.024,6.089,0,.468-.006.545.155.542.575-.019,2.411-.009,4.822-.009,7.234,0,2.348-.011,4.7.01,7.043C-2489.245,173.527-2489.325,173.71-2489.855,173.7Zm7.708-37.579c.875-1.038,1.445-1.027,2.292.031.493.616.283,1.327.326,2,.014.223-.21.152-.34.155-.378.009-.757,0-1.135,0a1.735,1.735,0,0,1-.252,0c-.42-.062-1.146.2-1.2-.144A2.372,2.372,0,0,1-2482.147,136.122Zm-.554,8.28c.012-.633,0-1.266,0-1.9h.113c0-.633.012-1.266-.005-1.9-.008-.3.1-.4.4-.392.781.019,1.562.022,2.342,0,.352-.01.42.141.425.449q.028,1.868.093,3.735c.008.251-.02.394-.324.389-.907-.014-1.815-.017-2.722,0C-2482.688,144.792-2482.706,144.645-2482.7,144.4Zm-.066,2.713c.007-.308.081-.449.43-.44q1.329.037,2.66,0c.36-.011.413.142.41.446-.011,1.246,0,2.491,0,3.737h.218c0,1.246-.015,2.492.01,3.737.007.362-.089.468-.449.46-1.013-.022-2.027-.015-3.041,0-.294,0-.451-.024-.439-.4C-2482.888,152.141-2482.826,149.628-2482.767,147.115Zm3.692,26.583q-1.933-.05-3.869,0c-.472.013-.542-.152-.53-.573q.225-7.833.41-15.668c.01-.426.15-.527.553-.516q1.49.042,2.981,0c.4-.011.534.087.543.513.057,2.664.146,5.328.224,7.992h-.017c.075,2.558.14,5.117.234,7.674C-2478.529,173.549-2478.6,173.71-2479.075,173.7Z" transform="translate(0 -21.245)" fill="#001d3b"/>
    <path id="Path_16075" data-name="Path 16075" d="M-2470.011,102.03a5.571,5.571,0,0,0-4.057-4.965c-.255-.073-.547-.021-.769-.21h-1.523c-.027.029-.051.078-.083.084a5.424,5.424,0,0,0-4.374,3.672c-.108.294-.266.292-.525.265a4.487,4.487,0,0,0-4.879,3.418.688.688,0,0,1-.617.62,3.439,3.439,0,0,0-2.648,3.608,3.355,3.355,0,0,0,3.249,3.2q4.434.093,8.872,0a3.3,3.3,0,0,0,3.185-3.3.7.7,0,0,1,.574-.777A5.519,5.519,0,0,0-2470.011,102.03Zm-7.787,7.822c-1.352.02-2.7,0-4.056,0s-2.7.017-4.057-.006a1.55,1.55,0,0,1-1.664-1.4,1.53,1.53,0,0,1,1.33-1.705c.209-.027.421-.022.632-.03.825-.029,1.123-.333,1.144-1.172a2.669,2.669,0,0,1,2.014-2.724,2.643,2.643,0,0,1,3.275,2.528c.07,1.183.219,1.329,1.394,1.367a1.563,1.563,0,0,1,1.719,1.543A1.559,1.559,0,0,1-2477.8,109.853Zm3.339-3.914a.654.654,0,0,1-.787-.169,2.383,2.383,0,0,0-1.344-.784.964.964,0,0,1-.908-.887,3.761,3.761,0,0,0-1.367-2.146.529.529,0,0,1-.179-.7,3.708,3.708,0,0,1,3.966-2.468,3.666,3.666,0,0,1,3.174,3.613A3.663,3.663,0,0,1-2474.459,105.938Z" transform="translate(-42.508)" fill="#001d3b"/>
    <path id="Path_16076" data-name="Path 16076" d="M-2288.916,114.948a.557.557,0,0,1-.489-.462,4.466,4.466,0,0,0-4.387-3.584,4.5,4.5,0,0,0-4.464,3.58.528.528,0,0,1-.468.462,3.46,3.46,0,0,0-2.743,3.9,3.521,3.521,0,0,0,3.612,2.983c1.352.006,2.7,0,4.057,0,1.331,0,2.662,0,3.994,0a3.51,3.51,0,0,0,3.647-3.162A3.482,3.482,0,0,0-2288.916,114.948Zm.763,3.928a1.613,1.613,0,0,1-1.647,1.041c-1.332.009-2.664,0-4,0s-2.663.005-4,0a1.591,1.591,0,0,1-1.792-1.606,1.588,1.588,0,0,1,1.783-1.547c1.044-.014,1.283-.245,1.339-1.3a2.611,2.611,0,0,1,2.707-2.658,2.618,2.618,0,0,1,2.563,2.736c.02.942.312,1.206,1.352,1.221C-2288.539,116.783-2287.752,117.767-2288.153,118.876Z" transform="translate(-198.616 -11.663)" fill="#001d3b"/>
    <path id="Path_16077" data-name="Path 16077" d="M-2441.208,387.049c0,.4.027.8-.007,1.2a.889.889,0,0,1-.906.877.89.89,0,0,1-.953-.889c-.036-.8-.034-1.6,0-2.4a.872.872,0,0,1,.9-.876.907.907,0,0,1,.958.889c.034.4.007.8.007,1.2Z" transform="translate(-81.037 -239.223)" fill="#001d3b"/>
    <path id="Path_16078" data-name="Path 16078" d="M-2443.047,351.165c0-.4-.027-.8.007-1.2a.91.91,0,0,1,.958-.889.88.88,0,0,1,.9.881c.034.8.037,1.6,0,2.4a.882.882,0,0,1-.957.884.881.881,0,0,1-.9-.877C-2443.073,351.969-2443.047,351.566-2443.047,351.165Z" transform="translate(-81.071 -209.427)" fill="#001d3b"/>
    <path id="Path_16079" data-name="Path 16079" d="M-2263.222,387.016c0,.38.021.762,0,1.14a.938.938,0,0,1-.959.965.92.92,0,0,1-.92-.936c-.031-.759-.031-1.52,0-2.279a.926.926,0,0,1,.957-.964.951.951,0,0,1,.928,1c.021.358,0,.718,0,1.076Z" transform="translate(-228.814 -239.211)" fill="#001d3b"/>
    <path id="Path_16080" data-name="Path 16080" d="M-2263.207,351.158c0,.4.029.8-.007,1.2a.9.9,0,0,1-.962.882.869.869,0,0,1-.9-.879c-.035-.8-.036-1.6,0-2.4a.9.9,0,0,1,.959-.886.9.9,0,0,1,.9.884C-2263.182,350.355-2263.207,350.757-2263.207,351.158Z" transform="translate(-228.837 -209.425)" fill="#001d3b"/>
  </g>
</svg>
