<svg xmlns="http://www.w3.org/2000/svg" width="51.195" height="65" viewBox="0 0 51.195 65">
  <g id="footer_malaysia" transform="translate(1265.68 -116.567)">
    <g id="Group_14824" data-name="Group 14824" transform="translate(-1265.005 116.567)">
      <path id="Path_16115" data-name="Path 16115" d="M-1213.042,490.007c.134-.512-.032-1.046.074-1.547.156-.738.769-.25,1.16-.321.216-.039.711-.307.73.318a6.8,6.8,0,0,0,.056,1.549Z" transform="translate(1221.252 -425.345)" fill="#2f88f7"/>
      <path id="Path_16116" data-name="Path 16116" d="M-1022.981,490.007c.134-.512-.032-1.046.074-1.547.156-.738.769-.25,1.16-.321.216-.039.711-.307.73.318a6.8,6.8,0,0,0,.056,1.549Z" transform="translate(1063.271 -425.345)" fill="#2f88f7"/>
      <path id="Path_16117" data-name="Path 16117" d="M-1188.349,490.333v-.884c0-1.011,0-1.011.947-1.011s.947,0,.947.948v.947Z" transform="translate(1200.726 -425.671)" fill="#2f88f7"/>
      <path id="Path_16118" data-name="Path 16118" d="M-1046.926,490.333v-.947c0-.948,0-.948.947-.948s.947,0,.947.948v.947Z" transform="translate(1083.174 -425.671)" fill="#2f88f7"/>
      <path id="Path_16119" data-name="Path 16119" d="M-998.288,490.333v-.947c0-.948,0-.948.947-.948s.947,0,.947.948v.947Z" transform="translate(1042.746 -425.671)" fill="#2f88f7"/>
      <path id="Path_16120" data-name="Path 16120" d="M-1212.454,118.337c-.98,0-.98,0-.98-.981,0-.79,0-.79,1.171-.789.729,0,.729,0,.729,1.043C-1211.534,118.337-1211.534,118.337-1212.454,118.337Z" transform="translate(1221.577 -116.567)" fill="#2f88f7"/>
      <path id="Path_16121" data-name="Path 16121" d="M-1022.435,118.337c-.938,0-.938,0-.938-.96,0-.81,0-.81.9-.81,1,0,1,0,1,.9C-1021.473,118.337-1021.473,118.337-1022.435,118.337Z" transform="translate(1063.597 -116.567)" fill="#2f88f7"/>
      <path id="Path_16122" data-name="Path 16122" d="M-1211.16,199.179a1.547,1.547,0,0,1-.059-.744q-.006-16.291,0-32.582c0-1.2,0-1.24-1.224-1.19-.583.023-.688-.169-.683-.707.027-2.862,0-5.725.023-8.587,0-.515-.066-.821-.669-.7-.519.1-.622-.151-.615-.628.025-1.894-.012-3.789.024-5.682.011-.578-.092-.885-.737-.762-.461.088-.57-.143-.548-.566.031-.609-.012-1.221.016-1.83a.979.979,0,0,0-.356-.821c-.859-.807-1.654-1.689-2.561-2.435a2.594,2.594,0,0,1-1.028-2.381c.088-1.434.022-1.426-1.452-1.389-.324.008-.441.083-.43.421.024.715-.006,1.431.013,2.146a.918.918,0,0,1-.328.77c-.591.538-1.107,1.171-1.744,1.645a3.544,3.544,0,0,0-1.6,3.771c.113.575-.147.769-.688.672-.488-.088-.591.133-.585.593.025,1.957-.009,3.915.024,5.872.009.518-.161.689-.64.606-.542-.094-.653.148-.649.659.025,2.694.012,5.388.012,8.082,0,1.232,0,1.261-1.259,1.224-.542-.016-.652.166-.647.673.026,2.4,0,4.8.021,7.2,0,.446-.075.618-.577.616q-6.315-.032-12.629,0c-.5,0-.582-.169-.578-.616.021-2.189.01-4.378.01-6.567,0-1.285,0-1.315-1.266-1.277-.554.016-.644-.185-.64-.683.023-2.883,0-5.767.023-8.65,0-.51-.106-.753-.648-.659-.478.083-.649-.088-.64-.606.033-1.915-.008-3.831.026-5.746.01-.561-.116-.828-.714-.721-.427.077-.6-.088-.571-.545.038-.587-.012-1.179.017-1.767a1.093,1.093,0,0,0-.384-.937c-.864-.8-1.662-1.678-2.561-2.436a2.561,2.561,0,0,1-1-2.328c.092-1.441.024-1.431-1.428-1.412-.367,0-.452.115-.453.464,0,.86.273,1.824-.1,2.552a8.654,8.654,0,0,1-1.839,1.88,1.058,1.058,0,0,1-.137.13,3.4,3.4,0,0,0-1.579,3.708c.1.529-.079.811-.666.694-.534-.106-.611.171-.606.634.022,1.915-.01,3.831.022,5.746.009.535-.1.809-.681.693-.537-.107-.607.176-.6.635.018,2.715.009,5.43.009,8.145,0,1.2,0,1.225-1.174,1.183-.564-.02-.736.118-.734.714q.029,16.544.011,33.087a1.549,1.549,0,0,1-.059.745h2.021a1.148,1.148,0,0,1-.06-.618q0-15.651-.014-31.3c0-.555.11-.738.709-.734q6.563.043,13.127,0c.6,0,.71.179.709.734q-.024,15.651-.014,31.3a1.147,1.147,0,0,1-.06.618h2.021a1.357,1.357,0,0,0,.174-.97q.007-5.682,0-11.365a1.593,1.593,0,0,1,.462-1.253c1.922-1.858,3.674-3.882,5.607-5.729.574-.549.583-.548,1.157,0,1.874,1.787,3.559,3.759,5.431,5.547a1.973,1.973,0,0,1,.643,1.561c-.021,3.746-.012,7.493-.007,11.239a1.357,1.357,0,0,0,.174.97h2.021a1.147,1.147,0,0,1-.06-.618q0-15.651-.014-31.3c0-.555.11-.738.709-.734q6.564.043,13.127,0c.6,0,.71.179.709.734q-.024,15.651-.014,31.3a1.149,1.149,0,0,1-.06.618Zm-43.444-54.346c.656-.557,1.258-1.178,1.866-1.79.21-.212.34-.219.556,0,.76.756,1.535,1.5,2.315,2.233.448.422.225.953.236,1.431.023,1.035.155.883-.9.892-.986.008-.986,0-.986-1,0-.961,0-.961-.946-.961s-.95,0-.95.957c0,1.009,0,1.009-.982,1.009-.911,0-.911,0-.911-1.191A1.531,1.531,0,0,1-1254.6,144.833Zm-1.968,5.191c-.006-.391.075-.548.512-.544,2.4.021,4.8.017,7.2,0,.362,0,.522.061.515.477q-.039,2.115,0,4.23c.007.407-.144.491-.513.485-1.2-.019-2.4-.007-3.6-.007-1.179,0-2.358-.016-3.536.009-.422.009-.59-.085-.579-.549C-1256.544,152.761-1256.552,151.393-1256.572,150.025Zm9.489,14.081c0,.463-.158.551-.579.549q-4.8-.023-9.6,0c-.421,0-.583-.087-.578-.549q.035-3.5,0-7.009c0-.467.161-.548.579-.542,1.621.022,3.241.009,4.862.009,1.579,0,3.158.013,4.736-.009.419-.006.584.075.579.542Q-1247.118,160.6-1247.083,164.106Zm3.779,19v-.9c0-.987.008-1.975,0-2.962,0-.3.049-.46.408-.455,1.3.018,2.6.007,4.006.007Zm13.767.03-4.421-4.342c1.433,0,2.782,0,4.131,0,.222,0,.291.107.291.31C-1229.538,180.438-1229.537,181.777-1229.537,183.134Zm-1.271-6.237h-5.609c-2.1,0-4.2-.015-6.3.011-.476.006-.6-.127-.6-.6.022-1.308,0-1.309,1.315-1.309,3.95,0,7.9.009,11.848-.011.492,0,.639.12.627.622C-1229.555,176.9-1229.53,176.9-1230.808,176.9Zm8.634-32.4a11.523,11.523,0,0,0,1.455-1.4c.276-.3.436-.255.7.014.57.589,1.15,1.173,1.773,1.7.536.456.886.943.712,1.564,0,1.217,0,1.182-1.14,1.231-.6.026-.8-.12-.77-.748.054-1.232.013-1.194-1.225-1.249-.6-.027-.681.182-.667.7.035,1.287.01,1.263-1.266,1.292-.5.012-.587-.148-.639-.628A2.523,2.523,0,0,1-1222.175,144.495Zm-1.822,4.992c1.2.012,2.4,0,3.6,0,1.221,0,2.442.012,3.662-.007.355-.006.471.1.466.46-.018,1.431-.015,2.862,0,4.294,0,.326-.095.439-.43.438q-3.694-.017-7.388,0c-.3,0-.4-.1-.4-.4.011-1.452.019-2.9,0-4.357C-1224.5,149.512-1224.313,149.483-1224,149.486Zm8.993,14.641c0,.425-.127.533-.537.527-1.62-.021-3.241-.009-4.862-.009-1.6,0-3.2-.017-4.8.011-.456.008-.558-.145-.555-.573.019-2.315.024-4.631,0-6.946-.006-.487.143-.588.6-.585q4.8.03,9.6,0c.449,0,.559.13.555.566Q-1215.034,160.623-1215,164.128Z" transform="translate(1261.68 -134.516)" fill="#2f88f7"/>
      <path id="Path_16123" data-name="Path 16123" d="M-1210.8,367.543c0,.692.006,1.384,0,2.076,0,.147.1.4-.142.415a15.724,15.724,0,0,1-1.632,0c-.16-.007-.117-.2-.117-.312q0-2.2,0-4.4c0-.118-.029-.29.144-.294.544-.013,1.09-.022,1.633.012.189.012.115.24.116.372C-1210.791,366.117-1210.8,366.83-1210.8,367.543Z" transform="translate(1220.964 -323.074)" fill="#2f88f7"/>
      <path id="Path_16124" data-name="Path 16124" d="M-1210.821,449.739c0,.713-.012,1.427.006,2.139.008.3-.082.384-.388.4-1.517.065-1.517.075-1.517-1.4,0-1.07.013-2.14-.008-3.209-.007-.352.09-.456.453-.461,1.454-.019,1.454-.033,1.454,1.4Z" transform="translate(1220.99 -391.392)" fill="#2f88f7"/>
      <path id="Path_16125" data-name="Path 16125" d="M-1210.821,408.654c0,.692-.013,1.385.006,2.076.008.3-.088.382-.39.394-1.515.064-1.515.074-1.515-1.4,0-1.07.014-2.14-.008-3.209-.007-.355.1-.454.455-.458,1.452-.019,1.452-.033,1.452,1.4Z" transform="translate(1220.991 -357.188)" fill="#2f88f7"/>
      <path id="Path_16126" data-name="Path 16126" d="M-1210.832,326.338c0,.692-.016,1.385.007,2.076.011.335-.1.413-.427.422-1.479.039-1.479.05-1.479-1.44,0-1.049.019-2.1-.01-3.146-.011-.394.109-.486.492-.486,1.416,0,1.416-.018,1.416,1.378Z" transform="translate(1221.001 -288.791)" fill="#2f88f7"/>
      <path id="Path_16127" data-name="Path 16127" d="M-1186.5,367.451c0,.715-.015,1.431.007,2.146.009.306-.089.376-.387.387-1.514.054-1.514.064-1.514-1.463,0-1.052.015-2.1-.009-3.156-.008-.359.1-.448.452-.451,1.451-.013,1.451-.027,1.451,1.4Z" transform="translate(1200.771 -322.994)" fill="#2f88f7"/>
      <path id="Path_16128" data-name="Path 16128" d="M-1186.489,326.322c0,.673-.015,1.347.006,2.02.01.325-.035.472-.426.477-1.475.016-1.474.034-1.474-1.442,0-1.052.011-2.1-.007-3.156-.006-.325.035-.472.427-.477,1.475-.017,1.474-.034,1.474,1.443Z" transform="translate(1200.761 -288.772)" fill="#2f88f7"/>
      <path id="Path_16129" data-name="Path 16129" d="M-1186.48,408.571c0,.736,0,1.473,0,2.209,0,.129.081.346-.135.355-.546.023-1.094.021-1.64,0-.159-.007-.114-.2-.114-.313,0-1.473,0-2.945-.007-4.418,0-.261.1-.334.333-.306a.881.881,0,0,0,.126,0c1.44-.031,1.44-.031,1.44,1.4Z" transform="translate(1200.752 -357.221)" fill="#2f88f7"/>
      <path id="Path_16130" data-name="Path 16130" d="M-1186.5,449.754c0,.715-.015,1.431.007,2.146.009.3-.087.377-.387.388-1.515.055-1.515.065-1.515-1.463,0-1.052.015-2.1-.008-3.156-.008-.358.1-.448.451-.452,1.451-.014,1.451-.027,1.451,1.4Z" transform="translate(1200.77 -391.406)" fill="#2f88f7"/>
      <path id="Path_16131" data-name="Path 16131" d="M-1022.651,326.143c0-.692.013-1.385-.006-2.076-.008-.3.086-.382.389-.4,1.516-.064,1.515-.074,1.515,1.4,0,1.07-.014,2.14.008,3.209.007.354-.094.455-.454.459-1.452.019-1.452.033-1.452-1.4Z" transform="translate(1063.001 -288.697)" fill="#2f88f7"/>
      <path id="Path_16132" data-name="Path 16132" d="M-1020.749,408.608c0,.692-.017,1.385.007,2.076.012.34-.112.41-.431.418-1.475.037-1.475.048-1.475-1.443,0-1.049.009-2.1-.006-3.146,0-.321.037-.476.429-.484,1.475-.027,1.475-.045,1.475,1.446Z" transform="translate(1062.999 -357.165)" fill="#2f88f7"/>
      <path id="Path_16133" data-name="Path 16133" d="M-996.437,326.359c0,.694-.015,1.389.007,2.083.009.3-.084.378-.386.389-1.516.055-1.516.065-1.516-1.462,0-1.052.015-2.1-.008-3.156-.008-.357.095-.449.451-.453,1.453-.014,1.452-.027,1.452,1.4Z" transform="translate(1042.789 -288.787)" fill="#2f88f7"/>
      <path id="Path_16134" data-name="Path 16134" d="M-1045.078,367.46c0,.694-.021,1.389.009,2.083.016.368-.112.442-.458.445-1.445.012-1.445.025-1.445-1.406,0-1.073.016-2.146-.009-3.219-.009-.368.112-.442.458-.445,1.445-.013,1.445-.025,1.445,1.405Z" transform="translate(1083.22 -322.997)" fill="#2f88f7"/>
      <path id="Path_16135" data-name="Path 16135" d="M-996.437,367.471c0,.694-.019,1.389.008,2.083.013.341-.1.409-.424.415-1.479.029-1.479.039-1.479-1.435,0-1.073.014-2.146-.008-3.219-.007-.341.1-.408.424-.415,1.479-.028,1.479-.039,1.479,1.435Z" transform="translate(1042.789 -322.978)" fill="#2f88f7"/>
      <path id="Path_16136" data-name="Path 16136" d="M-998.317,408.439c0-.715.011-1.431-.006-2.146-.006-.268.065-.348.347-.363,1.554-.086,1.553-.1,1.553,1.424,0,1.073-.011,2.146.007,3.219.005.32-.071.421-.411.428-1.49.03-1.49.043-1.49-1.426Z" transform="translate(1042.775 -357.063)" fill="#2f88f7"/>
      <path id="Path_16137" data-name="Path 16137" d="M-1046.954,449.592c0-.715.011-1.431-.005-2.146-.006-.267.065-.348.347-.363,1.554-.086,1.553-.1,1.553,1.424,0,1.073-.011,2.146.007,3.219.005.319-.071.421-.411.427-1.49.03-1.49.043-1.49-1.426Z" transform="translate(1083.203 -391.27)" fill="#2f88f7"/>
      <path id="Path_16138" data-name="Path 16138" d="M-998.319,449.616c0-.694.012-1.389-.006-2.083-.007-.285.052-.39.372-.4,1.529-.062,1.528-.074,1.528,1.45,0,1.073-.009,2.146.006,3.219,0,.285-.053.389-.372.4-1.529.062-1.528.074-1.528-1.45Z" transform="translate(1042.777 -391.318)" fill="#2f88f7"/>
      <path id="Path_16139" data-name="Path 16139" d="M-1198.389,260.419v1.135c0,.962,0,.962-.949.962s-.946,0-.946-.969.013-1.935-.007-2.9c-.007-.329.1-.422.424-.435,1.479-.058,1.479-.069,1.479,1.388Z" transform="translate(1210.654 -234.288)" fill="#2f88f7"/>
      <path id="Path_16140" data-name="Path 16140" d="M-1008.329,260.429c0,.568-.014,1.136.006,1.7.01.3-.087.385-.39.4-1.512.072-1.511.082-1.511-1.423,0-.82.015-1.64-.007-2.46-.009-.334.1-.419.428-.431,1.476-.056,1.475-.066,1.475,1.391Z" transform="translate(1052.674 -234.294)" fill="#2f88f7"/>
    </g>
    <path id="Path_16141" data-name="Path 16141" d="M-1217.042,492.007c.134-.512-.032-1.046.074-1.547.156-.738.769-.25,1.16-.321.216-.039.711-.307.73.318a6.8,6.8,0,0,0,.056,1.549Z" transform="translate(-40.428 -310.44)" fill="#001d3b"/>
    <path id="Path_16142" data-name="Path 16142" d="M-1026.981,492.007c.134-.512-.032-1.046.074-1.547.156-.738.769-.25,1.16-.321.216-.039.711-.307.73.318a6.8,6.8,0,0,0,.056,1.549Z" transform="translate(-198.409 -310.44)" fill="#001d3b"/>
    <path id="Path_16143" data-name="Path 16143" d="M-1240.987,492.333v-.884c0-1.011,0-1.011.947-1.011s.947,0,.947.948v.947Z" transform="translate(-20.525 -310.767)" fill="#001d3b"/>
    <path id="Path_16144" data-name="Path 16144" d="M-1192.349,492.333v-.884c0-1.011,0-1.011.947-1.011s.947,0,.947.948v.947Z" transform="translate(-60.954 -310.767)" fill="#001d3b"/>
    <path id="Path_16145" data-name="Path 16145" d="M-1050.926,492.333v-.947c0-.948,0-.948.947-.948s.947,0,.947.948v.947Z" transform="translate(-178.506 -310.767)" fill="#001d3b"/>
    <path id="Path_16146" data-name="Path 16146" d="M-1002.288,492.333v-.947c0-.948,0-.948.947-.948s.947,0,.947.948v.947Z" transform="translate(-218.934 -310.767)" fill="#001d3b"/>
    <path id="Path_16147" data-name="Path 16147" d="M-1216.454,120.337c-.98,0-.98,0-.98-.981,0-.79,0-.79,1.171-.789.729,0,.729,0,.729,1.043C-1215.534,120.337-1215.534,120.337-1216.454,120.337Z" transform="translate(-40.103 -1.662)" fill="#001d3b"/>
    <path id="Path_16148" data-name="Path 16148" d="M-1026.435,120.337c-.938,0-.938,0-.938-.96,0-.81,0-.81.9-.81,1,0,1,0,1,.9C-1025.473,120.337-1025.473,120.337-1026.435,120.337Z" transform="translate(-198.083 -1.662)" fill="#001d3b"/>
    <path id="Path_16149" data-name="Path 16149" d="M-1215.16,201.179a1.547,1.547,0,0,1-.059-.744q-.006-16.291,0-32.582c0-1.2,0-1.24-1.224-1.19-.583.023-.688-.169-.683-.707.027-2.862,0-5.725.023-8.587,0-.515-.066-.821-.669-.7-.519.1-.622-.151-.615-.628.025-1.894-.012-3.789.024-5.682.011-.578-.092-.885-.737-.762-.46.088-.57-.143-.548-.566.031-.609-.012-1.221.016-1.83a.978.978,0,0,0-.356-.821c-.859-.807-1.654-1.689-2.561-2.435a2.594,2.594,0,0,1-1.028-2.381c.088-1.434.022-1.426-1.452-1.389-.324.008-.441.083-.429.421.024.715-.006,1.431.013,2.146a.918.918,0,0,1-.328.77c-.591.538-1.107,1.171-1.744,1.645a3.544,3.544,0,0,0-1.6,3.771c.113.575-.147.769-.688.672-.488-.088-.591.133-.586.593.025,1.957-.009,3.915.024,5.872.009.518-.161.689-.64.606-.542-.094-.653.148-.649.659.025,2.694.012,5.388.012,8.082,0,1.232,0,1.261-1.259,1.224-.542-.016-.652.166-.647.673.026,2.4,0,4.8.021,7.2,0,.446-.075.618-.577.616q-6.315-.032-12.629,0c-.5,0-.582-.169-.578-.616.021-2.189.01-4.378.01-6.567,0-1.285,0-1.315-1.266-1.277-.554.016-.644-.185-.64-.683.023-2.883,0-5.767.023-8.65,0-.51-.106-.753-.648-.659-.478.083-.649-.088-.64-.606.033-1.915-.008-3.831.026-5.746.01-.561-.116-.828-.714-.721-.427.077-.6-.088-.571-.545.038-.587-.012-1.179.017-1.767a1.093,1.093,0,0,0-.384-.937c-.864-.8-1.662-1.678-2.561-2.436a2.561,2.561,0,0,1-1-2.328c.092-1.441.024-1.431-1.428-1.412-.367,0-.452.115-.453.464,0,.86.273,1.824-.1,2.552a8.654,8.654,0,0,1-1.839,1.88,1.058,1.058,0,0,1-.137.13,3.4,3.4,0,0,0-1.579,3.708c.1.529-.079.811-.666.694-.534-.106-.611.171-.606.634.022,1.915-.01,3.831.022,5.746.009.535-.1.809-.681.693-.537-.107-.607.176-.6.635.018,2.715.009,5.43.009,8.145,0,1.2,0,1.225-1.174,1.183-.564-.02-.736.118-.734.714q.029,16.544.011,33.087a1.549,1.549,0,0,1-.059.745h2.021a1.148,1.148,0,0,1-.06-.618q0-15.651-.014-31.3c0-.555.11-.738.709-.734q6.564.043,13.127,0c.6,0,.71.179.709.734q-.024,15.651-.014,31.3a1.147,1.147,0,0,1-.06.618h2.021a1.357,1.357,0,0,0,.174-.97q.007-5.682,0-11.365a1.593,1.593,0,0,1,.462-1.253c1.921-1.858,3.673-3.882,5.607-5.729.574-.549.583-.548,1.158,0,1.874,1.787,3.559,3.759,5.431,5.547a1.973,1.973,0,0,1,.643,1.561c-.021,3.746-.012,7.493-.007,11.239a1.357,1.357,0,0,0,.174.97h2.021a1.147,1.147,0,0,1-.06-.618q0-15.651-.014-31.3c0-.555.11-.738.709-.734q6.564.043,13.127,0c.6,0,.71.179.709.734q-.024,15.651-.014,31.3a1.149,1.149,0,0,1-.06.618Zm-43.444-54.346c.656-.557,1.258-1.178,1.866-1.79.21-.212.34-.219.556,0,.76.756,1.535,1.5,2.315,2.233.448.422.225.953.236,1.431.023,1.035.155.883-.9.892-.986.008-.986,0-.986-1,0-.961,0-.961-.946-.961s-.95,0-.95.957c0,1.009,0,1.009-.982,1.009-.911,0-.911,0-.911-1.191A1.531,1.531,0,0,1-1258.6,146.833Zm-1.968,5.191c-.006-.391.075-.548.512-.544,2.4.021,4.8.017,7.2,0,.362,0,.522.061.515.477q-.039,2.115,0,4.23c.007.407-.144.491-.513.485-1.2-.019-2.4-.007-3.6-.007-1.179,0-2.358-.016-3.536.009-.422.009-.59-.085-.579-.549C-1260.544,154.761-1260.552,153.393-1260.572,152.025Zm9.489,14.081c0,.463-.158.551-.579.549q-4.8-.023-9.6,0c-.421,0-.583-.087-.578-.549q.035-3.5,0-7.009c0-.467.161-.548.579-.542,1.621.022,3.241.009,4.862.009,1.579,0,3.158.013,4.736-.009.419-.006.584.075.579.542Q-1251.118,162.6-1251.083,166.106Zm3.779,19v-.9c0-.987.008-1.975,0-2.962,0-.3.049-.46.408-.455,1.3.018,2.6.007,4.006.007Zm13.767.03-4.421-4.342c1.433,0,2.782,0,4.131,0,.222,0,.291.107.291.31C-1233.538,182.438-1233.537,183.777-1233.537,185.134Zm-1.271-6.237h-5.609c-2.1,0-4.2-.015-6.3.011-.476.006-.6-.127-.6-.6.022-1.308,0-1.309,1.315-1.309,3.95,0,7.9.009,11.848-.011.492,0,.639.12.627.622C-1233.555,178.9-1233.53,178.9-1234.808,178.9Zm8.634-32.4a11.523,11.523,0,0,0,1.455-1.4c.276-.3.436-.255.7.014.57.589,1.15,1.173,1.773,1.7.536.456.886.943.712,1.564,0,1.217,0,1.182-1.14,1.231-.6.026-.8-.12-.77-.748.054-1.232.013-1.194-1.225-1.249-.6-.027-.681.182-.667.7.035,1.287.01,1.263-1.266,1.292-.5.012-.587-.148-.639-.628A2.523,2.523,0,0,1-1226.175,146.495Zm-1.822,4.992c1.2.012,2.4,0,3.6,0,1.221,0,2.442.012,3.662-.007.355-.006.471.1.466.46-.018,1.431-.015,2.862,0,4.294,0,.326-.094.439-.43.438q-3.694-.017-7.388,0c-.3,0-.4-.1-.4-.4.011-1.452.019-2.9,0-4.357C-1228.5,151.512-1228.313,151.483-1228,151.486Zm8.993,14.641c0,.425-.127.533-.537.527-1.62-.021-3.241-.009-4.862-.009-1.6,0-3.2-.017-4.8.011-.456.008-.558-.145-.555-.573.019-2.315.024-4.631,0-6.946-.006-.487.143-.588.6-.585q4.8.03,9.6,0c.449,0,.559.13.555.566Q-1219.034,162.623-1219,166.128Z" transform="translate(0 -19.612)" fill="#001d3b"/>
    <path id="Path_16150" data-name="Path 16150" d="M-1214.8,369.543c0,.692.006,1.384,0,2.076,0,.147.1.4-.142.415a15.715,15.715,0,0,1-1.632,0c-.16-.007-.117-.2-.117-.312q0-2.2,0-4.4c0-.118-.029-.29.144-.294.544-.013,1.09-.022,1.633.012.189.012.115.24.116.372C-1214.791,368.117-1214.8,368.83-1214.8,369.543Z" transform="translate(-40.716 -208.169)" fill="#001d3b"/>
    <path id="Path_16151" data-name="Path 16151" d="M-1214.821,451.739c0,.713-.012,1.427.006,2.139.008.3-.082.384-.388.4-1.517.065-1.517.075-1.517-1.4,0-1.07.013-2.14-.008-3.209-.007-.352.09-.456.453-.461,1.454-.019,1.454-.033,1.454,1.4Z" transform="translate(-40.69 -276.488)" fill="#001d3b"/>
    <path id="Path_16152" data-name="Path 16152" d="M-1214.821,410.654c0,.692-.013,1.385.006,2.076.008.3-.088.382-.39.394-1.515.064-1.515.074-1.515-1.4,0-1.07.014-2.14-.008-3.209-.007-.355.1-.454.455-.458,1.452-.019,1.452-.033,1.452,1.4Z" transform="translate(-40.689 -242.284)" fill="#001d3b"/>
    <path id="Path_16153" data-name="Path 16153" d="M-1214.832,328.338c0,.692-.016,1.385.007,2.076.011.335-.1.413-.427.422-1.479.039-1.479.05-1.479-1.44,0-1.049.019-2.1-.01-3.146-.011-.394.109-.486.492-.486,1.416,0,1.416-.018,1.416,1.378Z" transform="translate(-40.679 -173.887)" fill="#001d3b"/>
    <path id="Path_16154" data-name="Path 16154" d="M-1190.5,369.451c0,.715-.015,1.431.007,2.146.009.306-.089.376-.387.387-1.514.054-1.514.064-1.514-1.463,0-1.052.015-2.1-.009-3.155-.008-.359.1-.448.452-.451,1.451-.014,1.451-.027,1.451,1.4Z" transform="translate(-60.909 -208.089)" fill="#001d3b"/>
    <path id="Path_16155" data-name="Path 16155" d="M-1241.012,369.446c0-.715.009-1.431,0-2.146,0-.255.041-.412.338-.364a.713.713,0,0,0,.126,0c1.435-.029,1.435-.029,1.435,1.407,0,1.052-.015,2.1.008,3.156.008.362-.05.5-.467.5-1.435,0-1.435.017-1.435-1.419Z" transform="translate(-20.5 -208.103)" fill="#001d3b"/>
    <path id="Path_16156" data-name="Path 16156" d="M-1190.489,328.322c0,.673-.015,1.347.006,2.02.01.325-.035.472-.426.477-1.475.016-1.474.034-1.474-1.442,0-1.052.011-2.1-.007-3.156-.006-.325.035-.472.427-.477,1.474-.017,1.474-.034,1.474,1.443Z" transform="translate(-60.919 -173.867)" fill="#001d3b"/>
    <path id="Path_16157" data-name="Path 16157" d="M-1241.013,328.124c0-.715.01-1.431-.005-2.146-.005-.261.054-.351.342-.368,1.558-.092,1.558-.1,1.558,1.42,0,1.073-.01,2.146.006,3.219,0,.311-.057.425-.406.433-1.495.032-1.494.046-1.494-1.422Z" transform="translate(-20.499 -173.731)" fill="#001d3b"/>
    <path id="Path_16158" data-name="Path 16158" d="M-1241.025,410.6c0-.736.015-1.473-.007-2.209-.009-.309.094-.374.39-.385,1.512-.053,1.512-.063,1.512,1.465,0,1.052-.016,2.1.009,3.156.008.362-.1.446-.454.449-1.449.013-1.449.026-1.449-1.4Z" transform="translate(-20.487 -242.234)" fill="#001d3b"/>
    <path id="Path_16159" data-name="Path 16159" d="M-1190.48,410.571c0,.736,0,1.473,0,2.209,0,.129.081.346-.135.355-.546.023-1.094.021-1.64,0-.159-.007-.114-.2-.114-.313,0-1.473,0-2.945-.007-4.418,0-.261.1-.334.333-.306a.875.875,0,0,0,.126,0c1.44-.031,1.44-.031,1.44,1.4Z" transform="translate(-60.928 -242.316)" fill="#001d3b"/>
    <path id="Path_16160" data-name="Path 16160" d="M-1239.139,451.7c0,.715-.021,1.431.009,2.146.015.368-.112.442-.458.445-1.446.013-1.445.025-1.445-1.406,0-1.073.016-2.146-.009-3.219-.009-.368.112-.442.458-.445,1.446-.012,1.445-.025,1.445,1.406Z" transform="translate(-20.479 -276.505)" fill="#001d3b"/>
    <path id="Path_16161" data-name="Path 16161" d="M-1190.5,451.754c0,.715-.015,1.431.007,2.146.009.305-.087.377-.387.388-1.515.055-1.515.065-1.515-1.463,0-1.052.015-2.1-.008-3.156-.008-.358.1-.448.451-.452,1.451-.014,1.451-.027,1.451,1.4Z" transform="translate(-60.91 -276.501)" fill="#001d3b"/>
    <path id="Path_16162" data-name="Path 16162" d="M-1026.652,369.375c0-.671.013-1.343-.006-2.013-.009-.325.044-.474.432-.481,1.473-.026,1.472-.043,1.472,1.449,0,1.028-.012,2.056.007,3.083.007.372-.04.55-.5.546-1.409-.012-1.409.012-1.409-1.388Z" transform="translate(-198.677 -208.058)" fill="#001d3b"/>
    <path id="Path_16163" data-name="Path 16163" d="M-1026.651,328.143c0-.692.013-1.385-.006-2.076-.008-.3.086-.382.389-.4,1.516-.064,1.515-.074,1.515,1.4,0,1.07-.014,2.14.008,3.209.007.354-.094.455-.454.459-1.452.019-1.452.033-1.452-1.4Z" transform="translate(-198.679 -173.792)" fill="#001d3b"/>
    <path id="Path_16164" data-name="Path 16164" d="M-1024.734,451.847c0,.692.006,1.384,0,2.076,0,.147.1.4-.142.415a15.707,15.707,0,0,1-1.632,0c-.16-.007-.117-.2-.117-.312q0-2.2,0-4.4c0-.118-.029-.29.145-.294.544-.013,1.09-.022,1.632.012.189.012.115.24.116.372C-1024.73,450.421-1024.734,451.134-1024.734,451.847Z" transform="translate(-198.697 -276.581)" fill="#001d3b"/>
    <path id="Path_16165" data-name="Path 16165" d="M-1024.749,410.608c0,.692-.017,1.385.007,2.076.012.34-.112.41-.431.418-1.475.037-1.475.048-1.475-1.443,0-1.049.009-2.1-.006-3.146,0-.321.037-.476.429-.484,1.475-.027,1.475-.045,1.475,1.446Z" transform="translate(-198.681 -242.261)" fill="#001d3b"/>
    <path id="Path_16166" data-name="Path 16166" d="M-1000.437,328.359c0,.694-.015,1.389.007,2.083.009.3-.084.378-.386.389-1.516.055-1.516.065-1.516-1.462,0-1.052.015-2.1-.008-3.156-.008-.357.094-.449.451-.453,1.453-.014,1.452-.027,1.452,1.4Z" transform="translate(-218.891 -173.882)" fill="#001d3b"/>
    <path id="Path_16167" data-name="Path 16167" d="M-1049.078,369.46c0,.694-.021,1.389.009,2.083.016.368-.112.442-.458.445-1.446.013-1.445.025-1.445-1.406,0-1.073.016-2.146-.009-3.219-.009-.368.112-.442.458-.445,1.446-.013,1.445-.025,1.445,1.406Z" transform="translate(-178.46 -208.093)" fill="#001d3b"/>
    <path id="Path_16168" data-name="Path 16168" d="M-1049.075,328.3c0,.715-.014,1.431.007,2.146.009.3-.084.378-.385.389-1.516.055-1.516.065-1.516-1.462,0-1.052.015-2.1-.008-3.156-.008-.357.094-.449.451-.453,1.452-.014,1.452-.027,1.452,1.4Z" transform="translate(-178.462 -173.882)" fill="#001d3b"/>
    <path id="Path_16169" data-name="Path 16169" d="M-1000.437,369.471c0,.694-.019,1.389.008,2.083.013.341-.1.409-.424.415-1.479.029-1.479.039-1.479-1.435,0-1.073.014-2.146-.008-3.219-.007-.341.1-.408.424-.415,1.479-.028,1.479-.039,1.479,1.435Z" transform="translate(-218.891 -208.073)" fill="#001d3b"/>
    <path id="Path_16170" data-name="Path 16170" d="M-1049.156,410.283a12.894,12.894,0,0,1-.026,2.2c-.144.82-.871.219-1.314.359-.234.074-.578.146-.566-.373.033-1.43-.077-2.869.045-4.289.07-.817.864-.218,1.306-.357.234-.074.6-.146.564.373C-1049.187,408.893-1049.156,409.589-1049.156,410.283Z" transform="translate(-178.381 -242.031)" fill="#001d3b"/>
    <path id="Path_16171" data-name="Path 16171" d="M-1002.317,410.439c0-.715.011-1.431-.006-2.146-.006-.268.065-.348.347-.363,1.554-.086,1.553-.1,1.553,1.424,0,1.073-.011,2.146.007,3.219.005.32-.071.421-.412.428-1.49.03-1.49.043-1.49-1.426Z" transform="translate(-218.905 -242.159)" fill="#001d3b"/>
    <path id="Path_16172" data-name="Path 16172" d="M-1050.954,451.592c0-.715.011-1.431-.005-2.146-.006-.267.065-.348.347-.363,1.554-.086,1.553-.1,1.553,1.424,0,1.073-.011,2.146.007,3.219.005.319-.071.421-.411.427-1.49.03-1.49.043-1.49-1.426Z" transform="translate(-178.478 -276.365)" fill="#001d3b"/>
    <path id="Path_16173" data-name="Path 16173" d="M-1002.319,451.615c0-.694.012-1.389-.006-2.083-.007-.285.052-.39.372-.4,1.529-.062,1.528-.074,1.528,1.45,0,1.073-.009,2.146.006,3.219,0,.285-.053.389-.372.4-1.529.062-1.528.074-1.528-1.45Z" transform="translate(-218.903 -276.414)" fill="#001d3b"/>
    <path id="Path_16174" data-name="Path 16174" d="M-1202.389,262.419v1.135c0,.962,0,.962-.949.962s-.946,0-.946-.969.013-1.935-.007-2.9c-.007-.329.1-.422.424-.435,1.479-.058,1.479-.069,1.479,1.388Z" transform="translate(-51.027 -119.384)" fill="#001d3b"/>
    <path id="Path_16175" data-name="Path 16175" d="M-1227.356,262.16c0,.568-.014,1.136.006,1.7.01.306-.044.477-.4.451a9.98,9.98,0,0,0-1.135,0c-.266.011-.37-.074-.367-.355.012-1.2-.089-2.407.038-3.592.086-.8.85-.188,1.282-.335.222-.076.614-.157.587.364C-1227.379,260.982-1227.356,261.572-1227.356,262.16Z" transform="translate(-30.253 -119.175)" fill="#001d3b"/>
    <path id="Path_16176" data-name="Path 16176" d="M-1012.329,262.429c0,.568-.014,1.136.006,1.7.01.3-.087.385-.39.4-1.511.072-1.511.082-1.511-1.423,0-.82.015-1.64-.007-2.46-.009-.334.1-.419.428-.431,1.476-.056,1.475-.066,1.475,1.391Z" transform="translate(-209.006 -119.39)" fill="#001d3b"/>
    <path id="Path_16177" data-name="Path 16177" d="M-1037.2,262.431c0,.547-.033,1.1.01,1.639.036.466-.149.55-.57.546-1.335-.011-1.335.005-1.335-1.343,0-.82.028-1.641-.011-2.46-.021-.442.144-.514.536-.513,1.371,0,1.371-.01,1.371,1.373Z" transform="translate(-188.326 -119.473)" fill="#001d3b"/>
    <path id="Path_16178" data-name="Path 16178" d="M-1215.719,216.941c.929,0,.929,0,.929,1.115,0,.788,0,.788-1.131.787-.772,0-.772,0-.772-1.146C-1216.692,216.941-1216.692,216.941-1215.719,216.941Z" transform="translate(-40.719 -83.432)" fill="#001d3b"/>
    <path id="Path_16179" data-name="Path 16179" d="M-1025.725,218.843c-.906,0-.906,0-.906-1.138,0-.765,0-.765,1.154-.764.75,0,.758,0,.746,1.169C-1024.74,218.978-1024.583,218.827-1025.725,218.843Z" transform="translate(-198.7 -83.432)" fill="#001d3b"/>
  </g>
</svg>
