<svg xmlns="http://www.w3.org/2000/svg" viewBox="0 0 358.81 365.17"><defs><style>.cls-1{fill:#023e89;}.cls-2{fill:#fcc641;}.cls-3{fill:#fbe942;}.cls-4{fill:#0095c6;}.cls-5{fill:#eeac1b;}.cls-6{fill:#00b3d7;}.cls-7{fill:#48c9e3;}.cls-8{fill:#fe7373;}.cls-9{fill:#ee5350;}.cls-10{fill:#fbc641;}.cls-11{fill:#fae842;}.cls-12{fill:#f9e742;}.cls-13{fill:#0094c5;}.cls-14{fill:#f6e343;}.cls-15{fill:#f3e144;}</style></defs><g id="Layer_2" data-name="Layer 2"><g id="Layer_1-2" data-name="Layer 1"><path class="cls-1" d="M275.09,239.53a14.52,14.52,0,0,1,2.21,4.29c3,7.08,6.06,14.13,9.06,21.21.85,2,1.95,3.83,4.06,4.62a72.8,72.8,0,0,0,12.15,3.46c3.88.69,6.25-1.22,7.05-5.13-.14-5-1.1-6.69-5.84-7.67s-7.22-3.53-9-8c-4.16-10.65-8.94-21-13.37-31.59-1.2-2.84-2.73-5.12-6.1-5.17s-5,2.14-6.22,5c-3.89,9.15-7.89,18.25-11.9,27.35-.35.79-.4,1.89-1.59,2.35-.28-.54-.51-1-.71-1.39q-10.74-23.18-21.44-46.38c-1.22-2.67-2.76-4.78-5.94-4.89-1.46-.06-1.49-.61-1.22-1.86.91-4.35-.25-8.35-2.25-12.22-2.58-5-4.7-10.2-7.6-15-5.53-9.09-8.28-18.65-7.16-29.38.5-4.74-1.15-6.31-5.87-7.55-3.93-.71-6.61,1.48-6.92,6-.33,5,0,9.95-.14,14.92a18.67,18.67,0,0,0,2.21,9.3c4.67,9.2,9.33,18.41,13.83,27.71,1.25,2.38,1.43,4.7-1.24,6.12-2.86,1.53-4.31-.62-5.64-2.69-.27-.42-.54-.84-.78-1.28Q197,178,189.18,164.39a20.14,20.14,0,0,1-2.7-10.37c0-4.86.07-9.72,0-14.58-.12-7-3.63-9.73-10.43-8.13s-13.53,3.47-20.33,5c-4.3,1-6.69,3.38-7.41,7.76q-1.71,10.52-3.51,21a16.53,16.53,0,0,1-.85,3.63c-.88,2.12-2.27,3.79-4.77,3.3s-3.57-2.5-3.38-5.05a29.36,29.36,0,0,1,.72-4.05c1.9-8.52,3.85-17,5.66-25.55a11.61,11.61,0,0,1,7.55-9c4.87-1.92,9.74-3.85,14.57-5.87a23.19,23.19,0,0,1,9.45-1.81c8.22.09,16.45,0,24.68,0,1.72,0,3.52.26,5-.94,4.71-1.24,5.93-2.76,6-7.57,0-6.58,0-13.15,0-19.86,5.06.94,9.12,2.65,11.88,7.12,2.62,4.22,5.86,8.06,8.9,12,4.62,6,11.69,7.78,17.9,4.54s8.82-10.06,6.51-17.26c-2-6.27-4.24-12.48-6.21-18.77a24.94,24.94,0,0,0-17.15-17.25c-7.34-2.35-14.6-5-22-7.27-2.48-.77-3.53-1.49-2-4.18a18.11,18.11,0,0,0,2.12-9c0-6.36.13-12.72,0-19.08a23.91,23.91,0,0,0-47.81.22c-.12,5.61,0,11.22-.05,16.83a24.8,24.8,0,0,0,2.32,11.6c.88,1.78.88,2.46-1.35,2.91a29.24,29.24,0,0,0-12,5.85c-3.94,3-8,5.92-11.93,9A5.66,5.66,0,0,1,133.42,71c-5.35-1.18-10.68-2.53-16.1-3.23-3.35-.43-3.78-1.91-3.76-4.83.14-16.46.08-32.92.06-49.38,0-5.4-2.12-7.54-7.41-7.52A269.93,269.93,0,0,0,29,17.94c-2.61.79-4.51,2.22-5,5-.52,2.93.91,5,3.32,6.54,3.77,2.43,7.44,5,11.23,7.42,1.61,1,2.16,2,1.37,4-1.27,3.1-2.12,6.37-3.26,9.53-1,2.74-1.33,5.37.91,7.66s4.86,2.19,7.6,1.08q.69-.28,1.41-.51C64.44,53,81.91,54,98.89,62.07c1.06.5,2.75.67,2.68,2.22-.13,3,.77,6-1.18,9a12,12,0,0,0-.09,13.44A9.46,9.46,0,0,1,101.68,92q-.08,18,0,35.91a21.18,21.18,0,0,1-.81,5.88q-13.55,48.72-27,97.47c-.73,2.63-2.06,3.77-4.62,4.46-11.27,3.08-22.47,6.45-33.73,9.55a7.61,7.61,0,0,0-5.89,6c-2.45,9.25-5.13,18.45-7.68,27.69-1.2,4.38-.41,6.19,3.56,8.67,1.43,1.85,3.14,1.09,4.71.35,2.58-1.2,3.74-3.5,4.45-6.14,1.87-7,4-13.9,5.72-20.9a6.24,6.24,0,0,1,4.94-4.9c10.68-3,21.3-6.16,32-9.14,4.36-1.22,6.65-3.64,7.84-8q11.6-42.17,23.43-84.25c.24-.84-.35-2.36,1.37-2.47q7.31,14.07,14.21,28.4c2,4.23,5,6.14,9.7,6,8.48-.19,17,0,25.43-.09a5.44,5.44,0,0,1,5.59,3.43c2.29,4.85,4.92,9.54,7.11,14.43,2,4.44,5.12,6.26,10,6.18,12-.19,23.93,0,35.9-.12,3.43,0,5.41,1,6.92,4.22,8.57,18.42,17.05,36.87,25.58,55.31Q270.25,312.9,290,355.85c.57,1.23,1,2.57,2.35,3.25a9.06,9.06,0,0,1,.77,1.24c1.2,3,3.13,5.07,6.59,4.71s5-2.66,5.55-5.89c1-1.37.3-2.63-.28-3.87-6.08-13-11.94-26.07-18-39.06-6.52-14-12.59-28.25-19.61-42-3.22-6.3-3.45-11.73,0-17.81C270.44,251.17,272.17,245.27,275.09,239.53ZM129.35,135c-1.23,5.84-2.58,11.65-3.95,17.82-2.16-2.46-2.85-5.44-4.45-7.86-6.28-9.51-8.43-19.87-7.42-31.17.53-5.9.1-11.87.1-18.28,3.72,1.56,7.1,2.77,10.29,4.36,13.07,6.54,25.42,5.9,37.57-4.1,0,4.75,0,8.87,0,13,0,1.56-1.48,1.51-2.4,1.9-4.6,1.9-9.23,3.69-13.86,5.52C136.56,119.59,131.29,125.86,129.35,135Zm55.5,62.59c-1.86.11-2.25-1.19-2.85-2.39-2.83-5.67-5.74-11.3-8.45-17-1.51-3.19-3.76-4.74-7.33-4.59-3.1.13-6.21,0-9.61,0,1.23-7.46,2.46-14.56,3.52-21.69.38-2.49,1.31-3.92,4-4.31,3.05-.43,6-1.38,9.33-2.17v9.93a31,31,0,0,0,4.42,15.59c5,8.69,9.94,17.42,15.17,26.59C190,197.53,187.41,197.41,184.85,197.57Z"/><path class="cls-2" d="M25.52,287.59c4.7.39,6.71-.91,8-5.33,2.06-7.3,4.2-14.57,6-21.93.73-3,2.06-4.47,5.14-5.28,10.57-2.78,21-6.11,31.57-8.85,4.64-1.21,7-3.64,8.28-8.29,7.81-28.77,15.87-57.47,23.85-86.2.24-.87,0-2.1,1.21-2.35.2,0,.66,1.16,1,1.79,1.42,11.49,2.49,23,3.56,34.55.39,4.26,1,4.75,5.4,4.76,12.35,0,24.69,0,37,0,5.29,0,6,.64,6.89,5.75,1.5,8.72,3,17.45,4.33,26.2.42,2.72,1.37,3.33,3.94,2.25,7.13-3,14.36-5.72,21.51-8.67a12.44,12.44,0,0,1,8.37-.62c4.93,1.35,9.88,2.66,14.89,3.67,4.18.84,6.37,3.11,7.51,7.21,4.89,17.66,10.12,35.23,15,52.91,1.14,4.14,3,7.1,7,9,4.8,2.36,9.29,5.34,14,7.87a7.71,7.71,0,0,1,4.5,7.49c-.08,17.08,0,34.16-.05,51.24,0,1.49.1,3-1.07,4.23l-23.82.13c-6.25-9.59-12.16-19.39-18.26-29.07-4.31-6.85-8.56-13.75-13-20.55-2.28-3.5-4.58-4.11-8.21-2.07-4.89,2.75-9.54,5.89-14.38,8.74-3.95,2.33-4.77,2.09-7.16-1.72-1.92-3.06-3.54-6.3-5.28-9.45a13.19,13.19,0,0,0-5.45-5.4c-7.54-4.12-15.25-7.94-22.61-12.39-2.92-1.76-6.25-2.29-9.28-3.69-.51-3.39-1.21-6.76-1-10.22a4.66,4.66,0,0,1,2.07-2.07,5.72,5.72,0,0,0,2.59-6.14c-1-6.51-1.74-13-2.88-19.54-.93-5.27-5.27-6.8-9.25-3.09-5.36,5-10.34,10.39-15.63,15.47-4.47,4.3-8.38,9.19-13.46,12.85-5.27,2.35-8.4,6-9,12.11-.8,7.92-2.58,15.74-3.77,23.63a13.86,13.86,0,0,1-4.17,8.1q-20.83,20.7-41.55,41.51A11.37,11.37,0,0,1,35.87,359l-23.63.09c-1.24-1.57-.26-3.14.15-4.61C16.32,340.32,20,326.09,24.27,312c1.46-4.85,2.1-9.14-1.93-13Z"/><path class="cls-2" d="M305.29,359.16a21,21,0,0,0-2.08-5.57q-19.54-42.31-39.13-84.6a7.5,7.5,0,0,1,0-6.94c3.7-8.14,7.2-16.37,10.93-24.92a20.53,20.53,0,0,1,3,6.11c2,10.88,2.64,21.93,3.72,32.93.31,3.13,1.8,4.82,4.92,5.66,10.58,2.87,21.05,6.14,31.65,8.93,4.27,1.13,6.4,3.52,7.51,7.72,4.91,18.67,10,37.29,15.15,55.9.42,1.5,1.25,3.06.17,4.65Z"/><path class="cls-3" d="M263.27,359c0-18.57-.07-37.14.09-55.71,0-2.89-.86-4.65-3.3-6-6-3.3-11.88-6.75-17.88-10a5.51,5.51,0,0,1-3.06-3.79c-5.4-19.35-11-38.66-16.49-58-.77-2.71-1.95-4.44-5.11-5-5.72-1.07-11.34-2.69-17-4.26a9.4,9.4,0,0,0-6.44.54c-7.81,3.23-15.7,6.25-23.47,9.56-2.72,1.16-3.49.11-3.86-2.28-1.5-9.53-3.09-19-4.52-28.58-.41-2.74-1.34-4-4.49-4-13.46.19-26.93,0-40.39.14-2.54,0-3.81-.47-4-3.31-.47-5.91-1.43-11.78-1.94-17.69-.39-4.69-.81-9.36-1.43-14-.23-1.76-.7-3.72.51-5.42,4.82,9.54,9.8,19,14.38,28.67,2,4.33,4.87,6,9.65,5.83,8.83-.32,17.69,0,26.54-.15a3.74,3.74,0,0,1,4,2.47c2.72,5.72,5.7,11.33,8.42,17.06,1.53,3.2,3.85,4.54,7.4,4.51,13.21-.1,26.42,0,39.63-.08,2.11,0,3.28.49,4.23,2.56q33.51,72.89,67.15,145.7a12.64,12.64,0,0,1,.48,1.39Z"/><path class="cls-2" d="M137.57,359l-70.08,0c-.64-2.08,1.06-3.18,2-4.48,9.21-12.38,18.41-24.76,27.78-37a20.73,20.73,0,0,0,4.13-9.8c1.37-9,3-17.92,4.44-26.88a7.6,7.6,0,0,1,1.91-4.35q8.23-8.4,16.64-16.62c.79-.78,1.7-1.66,2.93-1.27s1.15,1.45.8,2.48c-2.13,4-3.17,8.36-4.5,12.61q-3.54,11.4-7.21,22.75c-1,3.06-.39,4.76,2.49,6.3,7.23,3.87,14.46,7.74,21.65,11.69,3.07,1.69,4,3.81,3.45,7.32-1.69,11.05-3.25,22.13-4.77,33.21A5.94,5.94,0,0,1,137.57,359Z"/><path class="cls-1" d="M136.12,283.46a10.34,10.34,0,0,1,6.39,1.47c8.26,4.57,16.55,9.1,24.92,13.45a14.79,14.79,0,0,1,7,6.9c1.67,3.46,3.81,6.69,5.54,10.13,1,1.92,1.84,2.15,3.66,1,5.13-3.28,10.35-6.41,15.57-9.54,4.47-2.67,7.27-2,10,2.34q14.26,22.73,28.48,45.51a10.44,10.44,0,0,1,1.79,4.45c-.42,3.1-1.95,5.34-5.16,5.88s-5.29-1.32-6.83-3.93c-.43-.72-1-1.37-1.49-2.05-1.92-1.13-2.56-3.23-3.77-4.9-6.61-10.09-12.89-20.39-19.21-30.66-1.4-2.27-2.45-2.47-4.63-1.1-6.54,4.08-13.19,8-19.76,12-1.34.77-2.63,1.63-4,2.38a10.77,10.77,0,0,0-6.59,7.88c-2,4.8-2.78,10.07-5.87,14.4a10.54,10.54,0,0,0-.68,1.28c-1.08,3-3,5-6.36,4.7-3.51-.28-5.18-2.61-5.69-5.91-.94-1.33-.38-2.65.09-3.93,2.5-6.79,5-13.57,7.26-20.44,1.43-4.35,5-6.35,8.54-8.46,4.37-2.59,3.86-2.67,2.11-7.23-3.4-8.92-11.22-12.22-18.69-16.12-4.42-2.31-8.75-4.77-13.17-7.09a7.18,7.18,0,0,1-3.85-8.81C132.36,285,133.38,283.12,136.12,283.46Z"/><path class="cls-1" d="M127.69,261.09c-.09-1.36.23-3.48-2-1.26-5.84,5.8-11.62,11.65-17.47,17.45a5.45,5.45,0,0,0-1.36,3.35c-1.65,9.95-3.41,19.88-5,29.85a13.31,13.31,0,0,1-2.64,6q-15.9,21.24-31.73,42.53c-.71.86-1.48,1.67-2.11,2.58-1.67,2.41-3.78,4-6.85,3.34s-4.46-2.87-4.88-5.83c-1.34-2.6.63-4.23,1.91-5.94,9.81-13.18,19.59-26.37,29.59-39.4a25.08,25.08,0,0,0,5.09-12.16c1.26-8.74,2.81-17.43,4.33-26.13.41-2.35,1.27-4.28,3.5-5.39q13.75-13.62,27.52-27.26c2.18-2.18,4.34-4.27,7.76-3.14s4.05,3.9,4.44,7.05c.71,5.79,1.66,11.55,2.55,17.31.78,5.05-.18,6.8-5,9-3.12,1.35-5.07-.55-6.39-2.78C127.31,267.5,126.5,264.36,127.69,261.09Z"/><path class="cls-3" d="M127.69,261.09c.27,1.58.58,3.15.81,4.74.74,5.1,1.72,6.16,6.84,7.22.07,3.49,1.95,6.83.78,10.41-5.63,3.52-5.58,8.54.15,11.68,6.85,3.76,13.63,7.68,20.64,11.1a20.61,20.61,0,0,1,9.75,9.63c4.21,8.22,4.44,8.2-3.42,12.8a11.83,11.83,0,0,0-5.69,6.95c-2.55,7.89-5.39,15.7-8.12,23.54L137.57,359c2-13.2,3.89-26.4,5.89-39.6.29-1.92-.85-2.62-2.24-3.38-8.1-4.37-16.14-8.84-24.25-13.16-2.06-1.1-3-2.15-2.14-4.67,3.94-12.17,7.71-24.39,11.5-36.6C126.61,260.69,127.09,260.88,127.69,261.09Z"/><path class="cls-4" d="M213.25,189.29c2,3.56,1.64,5.73-1.34,7.58-2.36,1.47-5,.54-6.75-2.53q-8.49-14.72-16.92-29.47a20.29,20.29,0,0,1-2.8-10.69c.09-5,0-10,0-15,0-6.11-2.91-8.4-8.77-7-7.23,1.78-14.45,3.66-21.71,5.35-3.18.75-5,2.46-5.47,5.73-1.18,7.6-2.48,15.18-3.75,22.77a21.22,21.22,0,0,1-.74,3.27c-1,2.79-3,4.53-5.93,4s-5-2.55-4.48-5.87c.7-4.28,1.72-8.51,2.65-12.75,1.31-5.94,2.81-11.85,4-17.82a11.88,11.88,0,0,1,7.66-9.35q9.17-3.72,18.39-7.28a8.25,8.25,0,0,1,2.9-.55c11.09,0,22.19,0,33.28.05,0,1-.1,1.93-.16,2.9-3,3.38-6.79,6.18-8.6,10.6a18.38,18.38,0,0,0-1.64,4.92c-1.27,11.72-1.94,23.31,5.55,33.62,2,2.7,3.59,5.67,5.27,8.55C206.16,184.3,210.27,186.18,213.25,189.29Z"/><path class="cls-3" d="M341.09,359c-5.53-20.43-11.1-40.85-16.53-61.3a7.42,7.42,0,0,0-5.87-5.85c-11.24-3-22.38-6.42-33.65-9.3-3.9-1-4.25-3.73-4.48-6.61-.79-10-1.73-19.93-3-29.86a3.65,3.65,0,0,1,.43-2.87c3.06,7,6.18,14.05,9.14,21.13a7.69,7.69,0,0,0,5.82,5.13c2.41.52,4.75,1.4,7.13,2.08,5.18,1.47,6.75.87,9.56-3.61l11.24,3.17c1.29,4,3.67,6.79,8,7.86,2.19.55,2.54,2.86,3,4.84,3.55,16.19,7,32.41,10.44,48.63,1.54,7.19,3.16,14.36,4.62,21.57.34,1.67,1,3.39-.05,5.07Z"/><path class="cls-1" d="M346.84,359.11q-8.14-38.33-16.24-76.66c-.45-2.17-1.77-2.72-3.49-3.22-5.37-1.58-6.23-2.72-6.24-8.09,2.88-4.24,4.23-4.26,9.41-3.46,7.68,1.17,10.83,5.25,12.29,12.82,4.89,25.25,10.55,50.36,15.9,75.52,1.06,5-.35,8.06-4.05,9C351,365.83,348.28,363.73,346.84,359.11Z"/><path class="cls-2" d="M162.16,359.09a115.33,115.33,0,0,1,5.3-14.94c2-2.85,4.57-5.26,6.78-8l3.77-2.28c5.33-1.64,10.69-3.16,16-4.75,2.73-.82,4.25,0,5.12,2.58,1.23,3.66,2.52,7.29,3.63,11a7.44,7.44,0,0,0,4.88,5.16c5.09,2,10.19,3.92,15.19,6.15a17.83,17.83,0,0,1,3.11,5Z"/><path class="cls-1" d="M22.34,299c4.48,2.32,5.27,4.08,3.92,9q-7,25.51-14,51c-.2.58-.37,1.18-.61,1.74-1.5,3.52-4.58,5.1-7.71,4s-4.62-4.19-3.6-7.9q5.18-18.82,10.44-37.62,2-7.17,4-14.32C16.15,300.15,17.36,299.21,22.34,299Z"/><path class="cls-5" d="M98.07,270.13c-3.29,3.45-2.89,8.07-3.69,12.24-1.52,8.05-2.73,16.15-4,24.24a10.11,10.11,0,0,1-2.22,4.62q-16,21.31-32,42.65c-1.2,1.6-2.37,3.19-2.57,5.27L35.87,359c13-13.06,25.6-26.51,39.07-39,6.94-6.44,10.46-13.56,11.13-22.78.46-6.26,1.81-12.47,3-18.65C90,273.68,94.09,271.9,98.07,270.13Z"/><path class="cls-6" d="M213.25,189.29c-7.18-2.47-10.11-9-14.19-14.54-8.43-11.51-9.09-24.35-6.72-37.55a19.19,19.19,0,0,1,10.95-14.51l.15,8.9c-4.7,1.11-5.95,2.66-6,7.42a2.41,2.41,0,0,1,0,.38c-1.42,12,1.28,22.94,7.64,33.25C208.3,177.88,210.55,183.72,213.25,189.29Z"/><path class="cls-7" d="M173.52,66c9.19,0,18.39-.11,27.59-.09a13.83,13.83,0,0,1,8.41,2.59c2.78,2.26-.73,5.24-.87,8-.08,1.58-.89,2.29-2.77,1.93-5.87-1.12-8.38,1-8.45,6.93q0,4.84-.11,9.69c-1.27,1.12-2.61.51-3.86,0-11.74-4.43-18.58-12.9-20.69-25.23C172.54,68.45,172.4,67.07,173.52,66Z"/><path class="cls-6" d="M173.52,66c0,14.07,10.33,26.68,23.8,29.05,0,3.36,0,6.72.13,10.08.07,1.81-.39,2.73-2.46,2.69-6.34-.1-12.69-.12-19,0-2.44,0-2.49-1.27-2.48-3,.05-6.47,0-12.94,0-19.41,0-2.93-.49-5.47-3.4-6.88s-5.27-.38-7.5,1.55a38.26,38.26,0,0,1-3.15,2.19c-.61-3.46-1.13-6.56-1.71-9.65-.32-1.73.44-2.77,1.82-3.69C163.85,66,168.58,65.5,173.52,66Z"/><path class="cls-8" d="M53.79,24C65,21.07,76.51,19.77,88,18.73c3.6-.32,7.21-.38,10.81-.7,2-.17,3,.27,2.85,2.55-.19,4.35-.13,8.72-.17,13.07-.27.26-.53.61-.87.69-11.42,2.36-22.82,5.73-34.41.91a27.84,27.84,0,0,1-11.38-8.2C54.19,26.2,53.45,25.27,53.79,24Z"/><path class="cls-9" d="M53.79,24c8.91,12.13,21.1,14.32,35,11.61,4.22-.83,8.5-1.33,12.76-2V49.91a84.44,84.44,0,0,0-49.86-5.16c-.19-3.94,3.38-7.23,1.58-11.16-1.67-3.67-5.93-4.35-8.53-7.33A36.59,36.59,0,0,1,53.79,24Z"/><path class="cls-3" d="M179.48,36c5.2,0,10.4-.11,15.59-.1.86,0,1.9-.46,2.37,1,1.68,5.4-1.41,12.65-6.73,15.44-1.48.74-2.65-.13-3.71-.89A19.65,19.65,0,0,1,179,39.87C178.63,38.52,178.39,37.18,179.48,36Z"/><path class="cls-6" d="M180.2,13.41c7.14-3.38,14.71,0,16.82,7.4.63,2.21.35,3.23-2.24,3.16-5.08-.15-10.18-.1-15.27-.13C177.93,20.24,177.28,16.71,180.2,13.41Z"/><path class="cls-10" d="M147.36,84.49c1.65,5.84,1.07,6.81-4.74,7.48a18.36,18.36,0,0,1-9.51-1.23c-6.74-2.91-13.51-5.73-20.23-8.65-1-.44-2.81-.62-2.19-2.39.53-1.49,1.87-.75,2.92-.52q5.25,1.13,10.51,2.29c4.19,1.46,8.42,2.81,12.56,4.45C140.43,87.4,144,86.44,147.36,84.49Z"/><path class="cls-10" d="M242.47,100.83c.73,1.53,2,3.35-.08,4.47-2,1-2.72-1.16-3.63-2.34q-6-7.81-11.82-15.76a7.85,7.85,0,0,0-4.69-3.41c-2.34-.49-3-1.69-2.13-3.94.73-2,1.25-4,1.82-6,.3-1.07.72-1.6,1.74-.67A23.24,23.24,0,0,0,232.43,83c2.18,1.37,2.84,4,3.64,6.39a44.59,44.59,0,0,0,3.52,8.65C240.27,99.23,241,100.46,242.47,100.83Z"/><path class="cls-10" d="M179.48,36c.34,7.79,4.2,13.16,11.23,16.36a11.77,11.77,0,0,1-17.2-9.82c0-.24,0-.49,0-.74C173.72,35,172,35.86,179.48,36Z"/><path class="cls-11" d="M242.47,100.83c-1.79,1.73-2.34-.24-3-1.14-2.28-3.15-3.29-6.89-4.44-10.52-1-3.09-2.51-5.6-5.41-7.17a11,11,0,0,1-5.94-8.85c7.36,1.12,12.15,5,14,12.43C239,90.74,240.86,95.76,242.47,100.83Z"/><path class="cls-12" d="M147.36,84.49c-2,4-6,3.6-9.05,2.85a47,47,0,0,1-14.19-5.87,81.47,81.47,0,0,1,9.13,1.64,10.08,10.08,0,0,0,10.6-2.49,19.59,19.59,0,0,1,2.44-1.72A12,12,0,0,1,147.36,84.49Z"/><path class="cls-13" d="M180.2,13.41c-1.39,3.4-.48,7-.69,10.43-1.95-.24-4.78,1.26-5.66-.84s.66-4.72,2.34-6.58C177.31,15.18,178.32,13.68,180.2,13.41Z"/><path class="cls-1" d="M186.11,260.37c-2.29,3.68-4.56,7.38-6.87,11.06s-5.66,4.83-8.78,2.93-3.71-5.33-1.45-9.13q8.31-14,16.72-27.87c3.15-5.19,7.81-5.29,11.27-.38a10.42,10.42,0,0,1,.83,1.25c5,10.29,12.53,17.25,24.19,19.1,2.51.39,4.16,2.07,5.25,4.36,1.67,3.48,3.49,6.88,5.14,10.37,1.76,3.74.78,7-2.44,8.61s-6.31.31-8.32-3.33c-.54-1-1.1-1.92-1.65-2.87-.24-.08-.56-.17-.63-.37-1.94-5.06-6.34-6.75-11-7.69a20.23,20.23,0,0,1-15-11.57,4.82,4.82,0,0,0-1.56-1.94C189.46,255,188.8,258.52,186.11,260.37Z"/><path class="cls-1" d="M125.56,214.71c-2.19,3.16-4.35,6.33-6.57,9.47-2.4,3.39-5.68,4.21-8.65,2.25s-3.54-5.37-1.28-8.84q5.49-8.44,11.19-16.75c2.78-4.06,6.52-4.49,10-1.07,5.71,5.55,11.33,11.2,16.9,16.89,2.93,3,3,6.4.5,8.93s-5.87,2.37-8.94-.45-5.86-6.39-9.45-8.88C128.13,215.56,127.13,214.44,125.56,214.71Z"/><path class="cls-1" d="M41.82,306a7.79,7.79,0,0,1,1.6-4.93c3.53-5.28,7-10.6,10.59-15.84,3.37-4.93,8.09-5,11.43-.1q5.5,8,10.78,16.17c2.3,3.53,1.82,6.87-1.09,8.9s-6.4,1.24-8.91-2.38c-1.7-2.45-3.42-4.91-4.95-7.47-1.08-1.79-1.74-2.13-3-.09a103.36,103.36,0,0,1-5.83,8.67,5.47,5.47,0,0,1-6.66,2A5.69,5.69,0,0,1,41.82,306Z"/><path class="cls-3" d="M186.11,260.37l5.48-9.66a8.91,8.91,0,0,1,1,1.31c3.83,8.29,10.36,13,19.29,14.44,4.67.75,6.94,3.77,8.09,8-5.29,1.79-10.7.73-16.06.6-1.09,0-1.62-1.39-2.24-2.33-2.66-4-5.56-7.91-8-12.07-1.65-2.85-3.16-3.38-5.61-1.11A6.09,6.09,0,0,1,186.11,260.37Z"/><path class="cls-14" d="M125.56,214.71c2.65-2.89,2.66.63,3.74,1.55A4.41,4.41,0,0,1,125.56,214.71Z"/><path class="cls-3" d="M222.86,354c-2.41.89-4.1-1.09-6.16-1.54-9.93-2.2-16.23-7.66-17.87-18.25-.76-4.87-1.44-4.8-6.25-3.54-4.07,1.06-8.12,2.19-12.16,3.35-.86.24-1.64.62-2.41-.13,7.19-4.43,14.41-8.81,21.56-13.3,1.49-.93,2.2-.79,3.15.76C209.37,332.29,216.13,343.14,222.86,354Z"/><path class="cls-15" d="M174.24,336.19a15.78,15.78,0,0,1-6.78,8C167.7,339.78,170.65,337.71,174.24,336.19Z"/></g></g></svg>