<svg xmlns="http://www.w3.org/2000/svg" viewBox="0 0 335.2 360.21"><defs><style>.cls-1{fill:#023e89;}.cls-2{fill:#00abd2;}.cls-3{fill:#0095c6;}.cls-4{fill:#00b3d7;}.cls-5{fill:#c52828;}.cls-6{fill:#fbe942;}.cls-7{fill:#fcc641;}.cls-8{fill:#ee5350;}.cls-9{fill:#48c9e3;}.cls-10{fill:#e43935;}.cls-11{fill:#eeac1b;}.cls-12{fill:#fe7373;}.cls-13{fill:#fbc641;}.cls-14{fill:#e33935;}.cls-15{fill:#ed5350;}.cls-16{fill:#fc7273;}.cls-17{fill:#eaab1d;}.cls-18{fill:#ebbc45;}.cls-19{fill:#ebbc44;}.cls-20{fill:#054089;}.cls-21{fill:#053f89;}</style></defs><g id="Layer_2" data-name="Layer 2"><g id="Layer_1-2" data-name="Layer 1"><path class="cls-1" d="M176.54,354.05c-1.36,1.25-2.73,2.5-4.08,3.76-3.43,3.19-6.3,3.18-9.74,0-1.35-1.26-2.73-2.48-4.1-3.72a12,12,0,0,1-4-2.74c-4.82-4.87-9.63-9.76-14.53-14.54a10.76,10.76,0,0,1-3.27-9.82q3.85-29.47,7.38-59c.16-1.36.41-2.71.67-4.06.88-4.57,2.76-6.18,7.62-6.6,5,1.42,6.78,4,6.14,9.05-2.38,18.82-4.49,37.68-7,56.48a8.57,8.57,0,0,0,2.75,8.07c3.46,3.24,6.71,6.7,10.08,10,3,3,3.33,2.94,6.31,0,1.07-1.05,2.1-2.13,3.14-3.21,2.48-2.45,4.88-5,7.4-7.37a7.4,7.4,0,0,0,2.33-6.75c-2.9-22.33-5.6-44.69-8.43-67-.51-4.09-.62-4.08-4.61-3.52a27.37,27.37,0,0,1-5.58.14c-4.16-.43-7.74-2.46-11.44-4.17-1.94-1.55-4-3-5.29-5.19-1.07-1.75-2.08-1.82-3.51-.5a31.09,31.09,0,0,1-2.6,2.11c-2.55,1.84-5.2,2.25-8,.55-4.11-2.73-4.72-7.53-6.6-11.5-3.21-6.76-6.09-13.68-9.23-20.48-3.14-7.86-6.76-15.51-10.15-23.26-.63-1.45-1.67-2.87-.53-4.54,1.24-4.72,2.76-5.93,7.57-6,4.61,0,9.23-.12,13.83,0,2.17.08,2.47-.72,2.71-2.72.65-5.41-1.14-8.87-5.61-12.41-15.5-12.29-23.34-28.82-24.3-48.57-.11-2.29-.87-3.1-2.92-3.75C84.21,108.13,75.27,93.28,78.45,79A23.51,23.51,0,0,1,99,60.53c2.63-.32,2.64-1.34,2.87-3.41.76-6.85-.76-11.19-7.69-15.16C80.54,34.15,76.68,20.6,78,5.5c.27-3.24,2.6-5.13,5.9-5.14q26.91-.09,53.84,0c3.7,0,5.53,2.42,6.07,5.92,1.36,3.24-.72,4.86-3,6.25a9.61,9.61,0,0,1-5.08.93c-11.17,0-22.34.12-33.51-.07-2.48.13-5-.07-7.47,0-3.29.14-3.67.63-3.07,3.87,1.75,9.55,10.56,17,21,17.81,1.37.1,2.75.07,4.12.07h96.51c.87,0,1.75,0,2.62,0,3.06-.2,3.47-.84,2.27-3.76a35.8,35.8,0,0,0-4-7.16c-6.26-7.41-14.28-10.9-23.91-10.87-8.7,0-17.39,0-26.08,0a13.86,13.86,0,0,1-4.79-.54q-4.65-1.69-3.75-6.55C156,3,157.73.4,161.22.42c12.32.09,24.75-1.35,36.94.64,17.5,2.87,28.73,13.49,33.7,30.47,1,3.33,1.78,3.63,4.48,1.82,3.34-2.23,5.54-5.36,7.55-8.65,6.18-10.11,14.37-17.79,25.71-21.76A50.67,50.67,0,0,1,287.6.3c5.48.1,11,.07,16.45,0,2.83,0,5.17.67,6.53,3.37s.46,5-1.31,7.21c-4,5-4,9.81.07,14.94,1.66,2.11,2.57,4.26,1.35,6.89s-3.52,3.64-6.38,3.61c-5.24-.06-10.47,0-15.7,0a17.81,17.81,0,0,0-15.28,7.91c-3.24,4.58-5.95,9.55-10,13.53-1.35,1.34-.46,1.81.62,2.38a46,46,0,0,1,18.64,18.42c4.93,8.6,11.95,12.63,21.89,11.79,4-.33,8,0,12-.06,2.73,0,4.85.92,6.11,3.45s.47,4.78-1.18,6.91c-4.11,5.3-4.17,9.87-.31,15,2.77,3.65,2.7,6.87-.21,9.22s-6.2,1.73-9.08-1.69c-.8-1-1.54-2-2.3-3-3.68-3.1-3.51-7.6-4.26-11.77.66-5.13.66-5.11-4.63-5.17q-16-.18-25.63-13.08c-4-5.37-7-11.57-12.61-15.66-1-.73-2-1.52-3-2.21a18.23,18.23,0,0,0-5.88-2.61A28,28,0,0,1,258.37,83a4.07,4.07,0,0,0,1.3,2.64c3.54,3.41,6.08,7.58,8.75,11.64,5.58,8.46,13.17,13.82,23.26,15.44a21.19,21.19,0,0,1,4,.92c3,1.13,4.34,3.35,3.95,6.6-1.36,4.87-3.57,6.33-8.43,5.64q-21.42-3-33.33-21.1a44,44,0,0,1-2.48-3.74c-1.19-2.25-1.92-2.28-3.39,0A28.14,28.14,0,0,1,235.81,113c-1.58.45-2.37,1-2.46,3-.95,21.83-10.19,39.32-27.9,52.12-2.88,2.07-1.79,4.62-1.87,7-.19,5.16-.06,5.07,4.94,5.18,10.83.25,21.73-1,32.49.66,19.63,3,33.54,13.84,41.7,31.89,1.27,2.81,2.62,3.66,5.48,3.48,3.72-.24,7.48-.15,11.22,0a17.34,17.34,0,0,1,15.5,9.43c.93,1.69,1.73,2.49,3.82,2.66a17.86,17.86,0,0,1,16.45,18.81,18.05,18.05,0,0,1-18,17c-5.53.12-5.73.24-5.89,5.84-.08,2.73.18,5.48.34,8.22.13,2.28.49,4.26,3.12,5.32,1.79.73,2.33,2.74,2.51,4.73,1.16,12.93,2.49,25.85,3.54,38.79,1.34,16.66-9.63,30.36-26.08,32.86-6,.91-8.46-.53-9.79-5.77-.69-4.07,1.42-6.54,6.34-6.93a17.52,17.52,0,0,0,14.45-9,23,23,0,0,0,1.77-12.75c-1-8.77-1.61-17.59-2.47-26.38-.28-2.9-1.56-3.82-4.27-3.81-8.58,0-17.15.08-25.73,0-4.37.56-4.48.62-4.49,5.06-.05,16,0,32.07,0,48.1,0,2,.28,4-1.07,5.74-.58,3.58-2.46,6-6.26,5.9-3.6-.09-5.4-2.44-5.9-5.88a5.24,5.24,0,0,1-1.08-3.51c.08-21.33-.43-42.67.3-64a5.34,5.34,0,0,1,2.17-3.4c2.75-1.78,3.34-4.51,3.53-7.45.3-4.52.24-9.08-1.76-13.23a45.52,45.52,0,0,1-4.17-22.57c.15-3-.13-6,.18-9a20.69,20.69,0,0,1,10.61-13.79c2.19-1.17,2.5-2.3,1.18-4.38-9.26-14.65-22.86-20.41-39.7-19.69-2.65.11-3.51,2.07-4.37,4-4.31,9.82-8.7,19.6-13,29.41q-3.39,7.69-6.82,15.38c-1.81,4.06-3.8,5.11-8.23,4.82-3.36-.95-5.64-3.45-8-5.5.12,2.76-.56,5.77.52,8.66,3,24.41,6.15,48.79,9.12,73.19,2.23,7.73-1.34,13-7,17.79-3.71,3.12-6.94,6.81-10.35,10.27A10.88,10.88,0,0,1,176.54,354.05Z"/><path class="cls-2" d="M152.61,258.06c-4.93.55-6.11,1.7-6.81,7.08q-4.08,31.42-8.1,62.85a8.59,8.59,0,0,0,2.79,7.72c6.13,6,12.1,12.22,18.13,18.35l-56.73.11c-1.87-1.82-1.28-4.19-1.29-6.36q-.06-38.51,0-77c0-1.37,0-2.74,0-4.11-.15-5.31-1-6.31-6.31-7.53-2.14-.58-2.76-2.36-3.24-4.2a63.63,63.63,0,0,1-2.36-15.49c-.1-13.34,0-26.68,0-40a10.4,10.4,0,0,1,.8-5.11c2.77-2.08,5.28-4.38,6.33-7.86l11.91-.28c1.74,6.2,5,11.76,7.41,17.7,1.32,3.31,3.2,6.4,4,9.93,3.3,9.42,4.07,19.38,6.11,29.07.29,1.33.52,2.68.73,4,.38,2.36,1.22,2.67,3.09,1,1.58-1.38,3-3.48,5.69-2.51,3.65,1.79,6.37.1,8.87-2.39,2.23-2.21,4.06-3.07,5.85.68.84,1.78,2.74,3.05,4.16,4.55C155.11,251.75,154.35,255,152.61,258.06Z"/><path class="cls-1" d="M95.76,186.49c.22,3.84-1.41,6.36-5.22,7.31A23.54,23.54,0,0,1,85.1,197a41.24,41.24,0,0,0-17.77,15.52c-1.32,2.12-1.27,3.47,1.07,4.82C75.73,221.6,79,228,79,236.58c0,9.33-.37,18.4-4.57,27-2.07,4.24-1.76,9-1.28,13.64a7.42,7.42,0,0,0,3,5.76,6.49,6.49,0,0,1,2.67,5.52c.15,20.84.07,41.68,0,62.53a4.81,4.81,0,0,1-.95,3.16c-.51,3.43-2.3,5.79-5.9,5.88-3.8.09-5.69-2.31-6.26-5.9-1.8-2.71-.91-5.77-1-8.68a55.29,55.29,0,0,1,.06-7.05c-.2-12.59,0-25.18-.1-37.77,0-5.08-.22-5.26-5.23-5.3-7.59-.06-15.18.1-22.76-.07-.87-.07-1.74.05-2.61-.05-2.68-.28-3.66.92-3.95,3.6-1.06,9.79-1.81,19.6-2.74,29.4-.91,9.6,5.78,17.52,15.39,18.78a15.33,15.33,0,0,1,4,.74c2.91,1.22,4,3.25,3.46,6.4-1.25,4.85-3,6.17-7.93,5.92-17-.86-29.61-16.13-27.92-33.76q1.8-18.64,3.45-37.3c.25-2.84,1.06-5.09,3.85-6.27.68-.29,1.33-.63,1.46-1.53.72-5.08,1.32-10.13.15-15.26-.38-1.7-1.33-1.8-2.67-1.79a26.61,26.61,0,0,1-7-.57,17.94,17.94,0,0,1,2.5-35.24c2.32-.21,3.31-1.07,4.39-3a17.09,17.09,0,0,1,14.93-9.1c4.11-.18,8.24-.22,12.34,0,2.48.13,3.62-.64,4.63-3,6.6-15.49,18.05-25.72,34.08-30.77C91.49,180.92,93.33,181.79,95.76,186.49Z"/><path class="cls-3" d="M77.9,354.21c0-21.35-.09-42.69-.05-64,0-3.21-.46-5.83-3.79-7.37-2.48-1.14-1.84-4-2.06-6a29.9,29.9,0,0,1,2.73-17.09,28.57,28.57,0,0,0,3.06-14.1c-.22-5.34.77-10.74-.66-16a17.15,17.15,0,0,0-10.47-11.87c-2.51-1-2.53-2.16-1.32-4.17,5.9-9.8,14.18-16.51,25.2-19.75-.91,1.34-.76,2.86-.76,4.35,0,14-.09,28,0,42a64,64,0,0,0,2.57,15.76c.27,1,.41,2.33,1.95,2.38-4,4.11-3.39,9.27-3.38,14.34q0,37.61,0,75.21c0,2.18.55,4.54-1.25,6.4Z"/><path class="cls-3" d="M176.54,354.05c5.12-5.22,10-10.78,15.46-15.55,4.67-4,6.47-8.47,4.91-14.35,1.43-1.34,3.24-1.1,5-1.11,6.48-.05,12.95,0,19.43,0,4.77,0,5-.22,5-5.13q0-22.85,0-45.67c0-4.72,1.05-8.93,4.87-12,1.34-1.08,2.73-2.32,4.68-1.2-1.89,7.6-1.12,15.34-1.15,23-.08,22.05,0,44.11-.05,66.17,0,2.06.46,4.29-1.26,6Z"/><path class="cls-4" d="M101.83,12.43l34.52-.12c4.73,0,6.29-1.32,7.4-6h11.79c1.12,4.73,2.66,6,7.47,6,9.71,0,19.42-.16,29.13.07a28.44,28.44,0,0,1,22.6,11.19c-.61,2.48-2.72,1.8-4.27,1.84-6.1.16-12.21.06-18.31.06h-65.8a31.63,31.63,0,0,1-22.07-8.67C103.05,15.65,101.56,14.5,101.83,12.43Z"/><path class="cls-1" d="M233.37,354.21q0-44,0-88c0-2.76.44-5.19,2.42-7.18,3.46-3,8.1-1.88,10,2.37a10.66,10.66,0,0,1,.77,4.39c0,19.48.13,38.95-.05,58.43.21,8.57.07,17.15.07,25.72a6.12,6.12,0,0,1-1.1,4.24c-.53,3.51-2.37,5.88-6.07,5.88S233.89,357.73,233.37,354.21Z"/><path class="cls-1" d="M89.7,354.21c0-29.45.1-58.9,0-88.35,0-3.7,1.16-6.23,4.62-7.6,5.48.12,7.38,2,7.39,7.48q.09,44.22.15,88.44c-.63,3.54-2.45,6-6.28,5.91C92,360,90.2,357.65,89.7,354.21Z"/><path class="cls-4" d="M65.73,338.41q0,7.89,0,15.78H50.24c-.48-3.73-2.47-5.77-6.34-6-11.44-.8-18.8-9.67-17.62-21,1-9.39,2.22-18.78,2.67-28.2.2-4.33,1.74-5.38,5.5-4.74a14.71,14.71,0,0,0,1.49.11c1.51,2.05,1,4.55,1.44,6.82,2.74,15.39,10.67,27,24.42,34.56C63.2,336.46,64.75,337,65.73,338.41Z"/><path class="cls-4" d="M269.47,354.19q-.06-28.59-.1-57.18c0-5.27,4-1.85,6-2.7,1.51,2.05,1.06,4.56,1.45,6.84,2.78,16.3,11.67,28,26.23,35.5,1.19.61,3.06.61,3.08,2.65-3,5.66-8,8.28-14.12,8.83-4.64.42-6,1.46-7,6.06Z"/><path class="cls-3" d="M245.5,354.21q0-15,0-30.06c4.66-.76,5.2-3.9,4.86-7.89-.28-3.46-.06-7,0-10.46a15.43,15.43,0,0,1,1.08-6.59,48.48,48.48,0,0,0,4.44-12.62,1.7,1.7,0,0,1,1.42-1.53.63.63,0,0,1,.19,1.06l-.15,68.09Z"/><path class="cls-5" d="M306.06,108.28c.58,4.12,1.39,8.19,3.44,11.89l-9.86.1c-.48-3.68-2.39-5.74-6.23-6.21-11.76-1.47-20.52-7.56-26.72-17.61-2.34-3.81-4.74-7.63-8.29-10.5a2.7,2.7,0,0,1-1-2.26c-.15-5.68-2.22-10.65-6.09-15.47a16.74,16.74,0,0,1,8.27,3.34,102.4,102.4,0,0,0,12.1,20.15c7.58,10,17.81,14.85,30.16,15.61C303.27,107.41,304.83,107.1,306.06,108.28Z"/><path class="cls-4" d="M257.38,285.18c-3.25,10.77-7.5,21.24-6.13,33,.74,6.37,1.3,6-5.73,5.95q0-29.08-.1-58.19c0-6.64-3.2-8.92-9.59-6.9-5.3,1.39-8.35,5.59-8.36,11.65,0,16.45-.09,32.9.07,49.35,0,3.27-.8,4.3-4.14,4.21-8.83-.25-17.66-.11-26.49-.12q-4.5-35.17-9-70.34c-.19-1.48-.15-3-.21-4.49-.33-.7-.55-1.54,0-2.09.76-.77,1.42,0,1.8.57,1.69,2.38,2.61,1.38,3.49-.65.61-1.41,1.74-1.63,3.08-1,4.44.55,6.43-2.14,8-5.77,6.53-15,13.23-29.86,19.73-44.83,1.1-2.53,2.49-3.35,5.28-3.43,12.07-.38,22.91,2.62,32.13,10.67a44.09,44.09,0,0,1,8.95,11.42c.66,1.12,1.27,2.31-.59,3-6.44,2.24-9.89,7.24-12.22,13.27-4.12,3.9-5,8.77-5,14.28,0,7.34.6,14.38,3.76,21.14,2.27,4.83,2.61,10.09,2.33,15.39A7,7,0,0,1,257.38,285.18Z"/><path class="cls-6" d="M221.35,78.29c-.1,14.92,1.3,29.91-.73,44.73-1.85,13.56-8.52,24.74-19.43,33.21a31.18,31.18,0,0,1-24.73-3.88c.36-2,2.24-2.07,3.6-2.75,1.82-.91,3.54-1.86,4.17-4a4.81,4.81,0,0,0-5-6.17,10.36,10.36,0,0,0-3.57,1,20.06,20.06,0,0,1-16.31-.11c-1.61-.7-3.33-1-5-1.52-4.85-4.37-8.3-9.77-11.29-15.5-.51-1-1-2-.32-3.17a5.67,5.67,0,0,1,2-1c3.16-1.34,4.48-3.69,3.63-6.4s-3.11-3.74-6.31-3.23c-1.15.19-2.36,1.11-3.46-.16-1.06-3.7-3.17-7.34-.64-11.24,1.71-.86,3.4-.26,5.08.13,3.75.87,7.43,2,11.22,2.68,3.15.55,5.45-.91,6.06-3.54s-.77-5-3.77-6c-3.78-1.22-7.71-1.94-11.53-3-1.61-.45-3.56-.54-4-2.74,2.67-6.27,8.14-8.14,14.17-8.48,6.83-.4,13.69-.1,20.54-.11q20,0,40,0C217.61,77.14,219.69,76.77,221.35,78.29Z"/><path class="cls-7" d="M138.57,98.42c-2.23,2.92.38,5.78.12,8.69a10.25,10.25,0,0,0,.54,2.83,2,2,0,0,1,0,1.45c-1.88,4.28.94,6.61,3.68,9,1.74,5.31,5.05,9.68,8.46,14a18.08,18.08,0,0,1,2.79,3.93,3.06,3.06,0,0,1-.72,1.28c-4.17,4.71-3.4,8.28,2.5,10.32,5.41,1.86,10.95,3.26,16.78,1.79,1.23-.31,2.66-1,3.85.28,7.76,4,16.13,4.51,24.62,4.32-27.28,22.8-71.49,12.33-84.48-24.29a52.57,52.57,0,0,1-3-17.63c0-12.86.09-25.73-.07-38.6,0-2.79.66-3.51,3.47-3.49,22.32.12,44.64.08,67,.06,4.78,0,6.29-1.24,7.57-6a13.39,13.39,0,0,1,11.75,0c1.26,4.73,2.78,5.94,7.56,6,1.61,0,3.23,0,4.85,0,5.85,0,5.85,0,5.53,6-22,0-44-.09-66,.06-6,0-11.06,2.34-14,8.05-1.24,1.22-2.58.37-3.86.14a45.46,45.46,0,0,0-4.74-1,4.92,4.92,0,0,0-2.15,9.6c1.63.61,3.38.85,5,1.38C136.81,96.85,138.27,96.8,138.57,98.42Z"/><path class="cls-8" d="M164.62,252.25c1.86-.05,3.74,0,5.58-.18,5.48-.63,5.53-.68,6.22,4.82,2.79,22.22,5.5,44.45,8.36,66.65.42,3.26-.21,5.69-2.81,7.82s-5,4.78-7.54,7.19c-9.29-.68-17.87-10.34-18.36-20.55-.33-6.78,1-13.42,1.75-20.09,1.63-13.49,3.38-27,5-40.46C163.07,255.59,163.24,253.71,164.62,252.25Z"/><path class="cls-3" d="M101.83,12.43c6.41,8,14.72,11.9,25,11.89,27.9,0,55.81,0,83.71,0,1.42,0,3,.58,4.25-.72,2.71,3,4.26,6.68,5.59,10.46.59,1.67,0,2.35-1.66,2.28-.62,0-1.24,0-1.87,0q-51,0-102.06,0c-13,0-22.18-7.7-24.7-20.45-.51-2.56-.06-3.77,2.83-3.57S98.84,12.39,101.83,12.43Z"/><path class="cls-6" d="M276.84,228.35c7.34,0,14.69-.15,22-.09,4,0,6.3,2.31,6.38,6.26.15,8.22.44,16.36-3.58,24.09-3.2,6.16-2.4,13.13-2.31,19.86-1.48,1.34-3.26,1.08-4.94.72-7.67-1.61-13.06-6.13-15.48-13.55-3.32-10.18-5.79-20.57-4.62-31.46C274.56,232,274.45,229.62,276.84,228.35Z"/><path class="cls-9" d="M306.14,339.3c-6.22-3.14-12.32-6.48-17.17-11.62-8.84-9.35-13.52-20.42-13.59-33.37,9.34,0,18.68,0,28-.14,1.94,0,2.51.66,2.67,2.57.87,10.3,1.93,20.59,2.83,30.89C309.26,331.79,308.86,335.84,306.14,339.3Z"/><path class="cls-8" d="M203.41,66.3H191.66c-1.25-4.75-2.76-6-7.53-6-22.27,0-44.54-.07-66.8.06-3,0-4.1-.81-3.6-3.71a2.28,2.28,0,0,0,0-.37c0-8.27,0-8.27,8.2-7.86,4.28,4.1,9.48,4.8,15.19,4.77,26-.17,52.11-.09,78.16,0,2.07,0,4.28-.45,6.07,1.15a10.43,10.43,0,0,1,.11,1.11c0,6.09.51,4.74-4.93,4.88-1.87,0-3.73,0-5.6,0C206.16,60.34,204.64,61.56,203.41,66.3Z"/><path class="cls-10" d="M164.62,252.25c-1.44,11.17-3.11,22.32-4.25,33.52-1,9.87-2.67,19.64-3.34,29.56-.7,10.28,6.81,19.36,15.5,22.17.71.23,1.49.31,1.9,1.06-6.42,7.51-6.42,7.51-13.14.78-2.64-2.65-5.06-5.57-8-7.87s-3.25-5.16-2.81-8.56c2.46-18.88,4.83-37.78,7.22-56.68.58-4.59-.61-6.47-5.12-8.17.32-3.24.63-6.49.95-9.74C157.29,249.52,160.7,251.61,164.62,252.25Z"/><path class="cls-9" d="M205.34,192.24c6.91,0,6.9,0,4.21,6-4.33,9.78-8.71,19.53-12.89,29.37-1.1,2.57-2,2.73-4.1,1-4.65-3.93-9.38-7.77-14.23-11.46-1.63-1.24-1.31-1.9-.11-3.09,6.8-6.75,13.63-13.47,20.27-20.37C200.77,191.36,203.41,192.75,205.34,192.24Z"/><path class="cls-9" d="M130.45,192.24c3.23-.82,5.87.89,8.46,3.66q8,8.59,16.61,16.64c2.5,2.35,3.14,3.66-.14,5.93-4.58,3.18-8.8,6.89-13.12,10.44-1.52,1.25-2.41,1.66-3.42-.67q-7.17-16.61-14.66-33.08c-1.05-2.33-.64-3.17,1.93-2.94C127.34,192.33,128.59,192.24,130.45,192.24Z"/><path class="cls-11" d="M183.44,191.6c-4.79,4.89-9.61,9.76-14.36,14.7-1.18,1.22-1.94,1-3-.1-7-7.1-14.1-14.13-21.11-21.23-2.61-2.63-.69-5.92-1.38-9.29a67.82,67.82,0,0,0,33,4c-1,2.68-3.7,2.34-5.49,3.28C174.72,186.25,179.34,188.55,183.44,191.6Z"/><path class="cls-12" d="M221.35,54.29h-88.8c-4.61,0-8.57-1.21-10.62-5.87l87.48-.12h6.36C221.67,48.3,221.67,48.3,221.35,54.29Z"/><path class="cls-8" d="M264.85,34.78c-1.5,1.54-1.71,3.92-3.44,5.32-3.93,4.5-8.74,6.82-14.81,5.74-1.43-.25-3-.48-3.65-2.17A43.45,43.45,0,0,0,254.6,30.3c8.74-14.76,22.25-19.19,38.43-18,1.47.11,2,.53,1.74,2s-.45,2.69-.67,4c-1.22,1.15-2.76,1-4.24,1-8.62,0-15.71,3.12-20.82,10.27C267.74,31.36,266.17,33,264.85,34.78Z"/><path class="cls-7" d="M276.84,228.35c-2.86,6.57-1.76,13.56-1.21,20.22.5,6.05,2.46,12.16,4.74,17.86,3.32,8.29,9.94,12.33,19,12,1.3,2.79.72,3.93-2.65,3.8-6.34-.24-12.69-.15-19,0-2.34,0-3.24-.34-2.83-3,1.26-8.29.56-16.38-3.22-24.06-3.49-7.06-2.26-14.67-2-22.08C269.69,229.77,272.54,228.29,276.84,228.35Z"/><path class="cls-3" d="M257.38,285.18c.74-8.75-1.24-16.87-4.42-25-2.92-7.5-2-15.66-.87-23.54a7.21,7.21,0,0,1,5.29-6.13c.34,7.45-.64,14.94.75,22.38.93,4.94,3.94,9.13,4.81,14.1a36,36,0,0,1-.41,14.07c-.57,2.63-4.24,2.51-5.07,5.09C257.44,285.8,257.41,285.49,257.38,285.18Z"/><path class="cls-10" d="M306.06,108.28c-12.69.5-23.81-3.37-32.45-12.77A74.94,74.94,0,0,1,260,74.35c-.35-.82-1-1.75-.42-2.79,5.92,3,9.71,8.08,13.11,13.49s7.12,10.25,12.79,13.35a31.42,31.42,0,0,0,15.76,3.9C307.19,102.21,307.19,102.29,306.06,108.28Z"/><path class="cls-10" d="M243,43.67c7.06,3.52,12.83.33,18.46-3.57-5.32,9.9-13.05,16.79-24.23,19.37-2.5.58-3.74.5-3.88-2.92-.24-5.87.08-10.78,7.28-11.84A9.67,9.67,0,0,0,243,43.67Z"/><path class="cls-7" d="M183.44,191.6c-5.33-1.47-9.26-5-13.35-8.5,2-2,4.63-1.85,6.43-3.4a82.77,82.77,0,0,0,14.57-3.82C193.83,183.85,188,187.4,183.44,191.6Z"/><path class="cls-13" d="M233.57,82c0-2.35.05-4.72-.16-7.05s.64-3,2.94-2.37A12.3,12.3,0,0,1,245.19,87c-.43,2.28-.86,4.65-2.56,6.46-3.27-.05-7.51-4-8.39-7.81C234,84.44,234,83.21,233.57,82Z"/><path class="cls-13" d="M92.57,93.43C87.19,84.87,90,75.31,98.51,72.76c2.17-.65,3.58-.79,3.29,2.23-.23,2.33-.12,4.7-.17,7.06a14.24,14.24,0,0,1-5.45,10.23C95.14,93.16,94.15,94.24,92.57,93.43Z"/><path class="cls-3" d="M134.68,245.47c-2.53.61-4.23,2.42-6,4.12-.68.64-1.26,1.95-2.34,1.44s-1.09-1.88-1.28-2.93q-2.34-12.75-4.57-25.51c-.51-2.91-.94-5.83-1.41-8.75C123.61,222.3,127,231.29,131,240,131.91,242.07,132.74,244.13,134.68,245.47Z"/><path class="cls-14" d="M264.85,34.78c4.94-10.52,12.86-16.53,24.8-16.47,1.49,0,3,0,4.45,0,1.17,6,1.17,6.05-4.78,6a30.4,30.4,0,0,0-23,9.48A8.81,8.81,0,0,1,264.85,34.78Z"/><path class="cls-15" d="M177.56,234.25c-4.07,6.76-12.58,8-18.14,2.6-3.12-3-3.08-4,.33-6.61.58-.46,1.22-.85,1.83-1.26C166.35,232.41,172.13,232.79,177.56,234.25Z"/><path class="cls-16" d="M177.56,234.25c-4.67.1-9.28,0-13.36-2.8a7.17,7.17,0,0,1-2.62-2.48c5.75-5.34,5.75-5.33,11.78-.47,1.25,1,2.5,2,3.77,3C178.14,232.31,178.71,233.14,177.56,234.25Z"/><path class="cls-11" d="M92.57,93.43c5.16-2.09,7.16-6.7,9.06-11.38.05,5.49,0,11,.17,16.47.08,2.8-1,2.57-2.79,1.44C96.37,98.27,93.87,96.44,92.57,93.43Z"/><path class="cls-11" d="M233.57,82c1.76,4.8,3.92,9.29,9.06,11.38a15.23,15.23,0,0,1-1.35,2.2c-1.95,2.29-4.4,5.44-7.05,4.77-1.94-.48-.64-4.62-.73-7.12C233.35,89.54,233.53,85.79,233.57,82Z"/><path class="cls-3" d="M196.09,246.18c-1.78-.25-2.17,1-2.75,2.31-1.59,3.56-1.7,3.54-4,.43-.36-.49-.77-.94-1.36-1.65-.11.87-.19,1.46-.27,2a4.63,4.63,0,0,1-.61-1.68c.12-2.26-1.23-5.35,1-6.51,1.36-.72,3.3,1.91,4.91,3.14C194,245,195.06,245.55,196.09,246.18Z"/><path class="cls-17" d="M323.08,247a5,5,0,0,1-2,3.8c-1.07.87-2.38,1.81-3.7,1.28-1.69-.69-.21-2.13-.23-3.23-.06-2.22.05-4.45.13-6.68,0-.92-.27-2.21,1.46-1.62A29,29,0,0,1,323.08,247Z"/><path class="cls-18" d="M323.08,247c-2.15-1.68-3.87-3.64-4.36-6.45C322,241.45,323.46,243.58,323.08,247Z"/><path class="cls-6" d="M37.4,228.35c7.35,0,14.69-.15,22-.09,4,0,6.29,2.31,6.38,6.26.19,8.35.41,16.61-3.67,24.45-3.14,6-2.29,12.9-2.21,19.5-1.49,1.34-3.26,1.08-5,.72-7.67-1.61-13.06-6.13-15.48-13.55-3.32-10.18-5.79-20.57-4.61-31.46C35.12,232,35,229.62,37.4,228.35Z"/><path class="cls-9" d="M65.73,338.41c-16.16-6.55-25.39-18.81-29-35.6a26.65,26.65,0,0,1-.77-8.5c9.07,0,18.15,0,27.22-.15,2.15,0,2.74.7,2.72,2.78C65.77,310.77,65.77,324.59,65.73,338.41Z"/><path class="cls-7" d="M37.4,228.35c-2.86,6.57-1.76,13.56-1.21,20.22.5,6.05,2.47,12.16,4.74,17.86,3.32,8.29,9.94,12.33,19,12,1.29,2.79.71,3.93-2.65,3.8-6.34-.24-12.7-.15-19.05,0-2.33,0-3.23-.34-2.82-3,1.25-8.29.56-16.38-3.23-24.06-3.49-7.06-2.26-14.67-2-22.08C30.25,229.77,33.1,228.29,37.4,228.35Z"/><path class="cls-17" d="M17.15,240.39c1.92,3.48.19,7.4,1.31,11,.28.92-1,.85-1.68.67-2.59-.71-4.36-2.24-4.65-5.1C13.4,244.47,14.76,242,17.15,240.39Z"/><path class="cls-19" d="M17.15,240.39c-1.39,2.42-2.63,4.94-5,6.58C11.84,243.28,13.44,241,17.15,240.39Z"/><path class="cls-1" d="M176.57,151.91A33.74,33.74,0,0,1,155,150.56c-2.68-1.08-4.95-2.5-5.27-5.67-.35-3.39,1.73-5.26,4.45-6.65a10.59,10.59,0,0,1,4,.64c6.34,3,12.64,2.81,19.05,0a5.65,5.65,0,0,1,7.76,3c1.38,3,.29,6.15-2.91,7.82C180.31,150.58,178.4,151.17,176.57,151.91Z"/><path class="cls-1" d="M209.39,90.58a5.93,5.93,0,0,1-4.52,5.52c-7.93,2.09-15.88,4.1-23.86,6a6,6,0,0,1-7.24-4.34,5.81,5.81,0,0,1,4-7.09q12.23-3.34,24.57-6.2C206,83.61,209.41,86.7,209.39,90.58Z"/><path class="cls-1" d="M138.57,98.42c-2.61-.73-5.22-1.43-7.81-2.19-3.61-1-5.57-4.08-4.75-7.26.89-3.46,4-5.19,7.82-4.33,2.53.56,5,1.17,7.57,1.76l14,3.69c4.76,1.26,7,4.16,6,7.74s-4.1,4.94-8.71,3.85S143.27,99.51,138.57,98.42Z"/><path class="cls-20" d="M191.72,108.29a6,6,0,1,1-6.14,5.71A6,6,0,0,1,191.72,108.29Z"/><path class="cls-21" d="M142.91,120.36c-5.5-2.33-6.47-5.08-3.68-10.42,2.18-1.35,4.39-2.39,7-1s3.74,3.4,3.32,6.13C149,118.7,146.42,120.21,142.91,120.36Z"/></g></g></svg>