<svg xmlns="http://www.w3.org/2000/svg" width="30" height="30" viewBox="0 0 30 30">
  <g id="Group_888" data-name="Group 888" transform="translate(-1104 -30)">
    <g id="Rectangle_984" data-name="Rectangle 984" transform="translate(1104 30)" fill="#c4f3fa" stroke="#fff" stroke-width="1">
      <rect width="30" height="30" rx="15" stroke="none"/>
      <rect x="0.5" y="0.5" width="29" height="29" rx="14.5" fill="none"/>
    </g>
    <path id="Path_1395" data-name="Path 1395" d="M-1318.868,670.868q-1.42-1.415-2.838-2.833c-.064-.064-.068-.1-.011-.17a4.4,4.4,0,0,0,.889-3.635,4.489,4.489,0,0,0-5.5-3.487,4.5,4.5,0,0,0-3.375,4.382,3.834,3.834,0,0,0,.052.634c.023.146.05.292.087.436a4.478,4.478,0,0,0,7.109,2.41c.078-.061.117-.063.19.011q1.174,1.184,2.356,2.36c.171.171.339.346.514.512a.4.4,0,0,0,.681-.2A.431.431,0,0,0-1318.868,670.868Zm-6.371-2.114a3.673,3.673,0,0,1-3.653-3.677,3.673,3.673,0,0,1,3.673-3.657,3.672,3.672,0,0,1,3.659,3.683A3.673,3.673,0,0,1-1325.239,668.754Z" transform="translate(2443.207 -621.104)" fill="#475577" stroke="#28324e" stroke-width="0.5"/>
  </g>
</svg>
