<svg xmlns="http://www.w3.org/2000/svg" viewBox="0 0 371.14 371.2"><defs><style>.cls-1{fill:#004fab;}.cls-2{fill:#014fac;}.cls-3{fill:#57a3fe;}</style></defs><g id="Layer_2" data-name="Layer 2"><g id="Layer_1-2" data-name="Layer 1"><path class="cls-1" d="M342.83,150.47a36.12,36.12,0,0,0-40.7,21.14c-1.13,2.63-.45,6.61-3.29,7.74-2.59,1-5.92,0-8.88.3-2.6.24-3.09-.94-3.28-3.16a98.26,98.26,0,0,0-23-55.71c-2-2.37-1.52-3.46.39-5.31,6.79-6.6,13.52-13.27,20.08-20.11,2-2.09,3.33-2.8,6.36-1.43,9.16,4.14,20.3,1.23,26.83-6.39a23.91,23.91,0,1,0-39.88-5.93c.45,1,1.88,2,.26,3.52-7.78,7.55-15.45,15.22-23.09,22.92-1.25,1.26-2,1.27-3.35.13-16.58-14-35.64-22.07-57.31-23.78-1.9-.15-2.51-.86-2.47-2.77.11-6.11.18-12.22,0-18.32-.09-2.84.49-4.18,3.57-5.15,13.41-4.22,22.11-18.13,20.26-31.67C213.33,11.91,201.76.85,187.66.05,172.05-.83,159,9.45,156.12,25c-2.72,14.46,6,28.83,20.6,33.42,2.33.73,3,1.71,2.93,4.1-.19,6.11-.17,12.22,0,18.33.07,2.44-.49,3.45-3.16,3.67a97.67,97.67,0,0,0-55.69,23c-2.38,2-3.44,1.49-5.31-.39Q90.31,81.71,64.93,56.57c-1.87-1.85-2.21-3-1.1-5.47A23.4,23.4,0,0,0,55.6,22.3,23.92,23.92,0,0,0,21.74,54.77c6.08,9.52,18.06,13.76,28.42,9.4,3.42-1.43,5-.68,7.31,1.68q24.82,25.16,50,50c1.53,1.52,2.12,2.43.4,4.46a100.47,100.47,0,0,0-22.94,51.1c-.4,2.66.74,6.43-1.42,7.72s-5.6.12-8.41.51c-3,.41-3.93-.89-4.66-3.58A35.73,35.73,0,0,0,32.58,149.8C15,151.62,1.09,165.82.07,182.93-1,200.81,10.65,216.67,27.73,220.59A36.18,36.18,0,0,0,69.07,199.4c1.11-2.6.5-6.54,3.39-7.61,2.63-1,5.92,0,8.89-.27,2.37-.18,3,.81,3.09,2.95a73.61,73.61,0,0,0,2.24,14.37,101.23,101.23,0,0,0,89.77,77.82c2.63.24,3.27,1.16,3.19,3.65-.17,5.85-.21,11.72,0,17.57.11,2.88-.57,4.16-3.6,5.12a29.7,29.7,0,0,0-20.28,31.32A29.93,29.93,0,1,0,200,314.92c-2.74-1.53-7.06-1.08-8.15-4.12s-.25-6.64-.25-10v-1.12c0-3.12.15-6.25-.05-9.35-.16-2.48.54-3.44,3.18-3.65a97.72,97.72,0,0,0,55.7-23c2.4-2,3.47-1.45,5.3.43,6.7,6.88,13.45,13.71,20.39,20.34,2,1.87,2.51,3.06,1.28,5.77a23.32,23.32,0,0,0,6,26.92,23.9,23.9,0,1,0,6.17-39.64c-1,.45-1.95,1.85-3.52.23q-11.31-11.69-22.92-23.09c-1.61-1.58-.81-2.39.22-3.63a101.88,101.88,0,0,0,22.89-50.75c.44-2.85-.9-6.86,1.68-8.32,2.28-1.29,5.85-.13,8.81-.45,2.53-.26,3.31.77,3.92,3.05,5,18.54,22.38,29.6,41.13,26.29a35.86,35.86,0,0,0,29.41-34.32C371.39,169,359.43,153.82,342.83,150.47Zm-301-96.6a12,12,0,1,1,12-11.81A12,12,0,0,1,41.86,53.87ZM248.65,249.33c-17.53,17-38.56,25.57-63,26.12-24.26-.48-45.32-8.94-62.92-25.91a5,5,0,0,1-1.65-5.2c5-25.84,20-43,44.71-52,1.4-.51,2.9-.79,4.24-1.42a5.84,5.84,0,0,0,.93-10.31c-1.61-1.16-3.48-2-5-3.19-8.22-6.41-11.31-15-10-25.13,1.45-11.39,7.52-19.78,18.15-24.2,11.2-4.67,21.9-3,31.09,5s12.23,18.57,9.5,30.45a23.91,23.91,0,0,1-11.89,15.63c-2.82,1.64-5.48,3.23-5.09,7,.42,4,3.63,4.9,6.78,6q38.25,12.94,45.79,52.65A4.36,4.36,0,0,1,248.65,249.33Zm86.73-39.81a23.94,23.94,0,1,1,23.77-24.2A24,24,0,0,1,335.38,209.52Z"/><path class="cls-1" d="M36,359.17a23.94,23.94,0,0,1-16.84-41.05,23.39,23.39,0,0,1,26.24-4.68c2.14,1,3.2.81,4.87-.94,7.34-7.63,14.89-15.06,22.41-22.52,3.19-3.16,6.59-3.39,9.22-.82s2.48,6.06-.64,9.21C73.75,306,66.23,313.63,58.49,321c-1.73,1.65-1.62,2.67-.78,4.59A23.82,23.82,0,0,1,36,359.17Z"/><path class="cls-2" d="M340.37,23.88c3.31.13,5.13,1.18,6.22,3.41a5.25,5.25,0,0,1-.71,6.25c-4.18,4.42-8.44,8.77-12.9,12.9a5.5,5.5,0,0,1-8-.43c-2.18-2.45-2.54-5.34-.32-7.76,4.11-4.48,8.51-8.69,12.86-12.94A4.59,4.59,0,0,1,340.37,23.88Z"/><path class="cls-2" d="M107.71,269.42a7.06,7.06,0,0,1-2.2,4.71c-3.7,3.69-7.34,7.45-11.11,11.08-2.92,2.81-6.49,2.88-8.93.37s-2.32-5.9.34-8.67q5.7-5.93,11.62-11.61a5.59,5.59,0,0,1,6.86-1.16A6.07,6.07,0,0,1,107.71,269.42Z"/><path class="cls-3" d="M260.19,234.35c-.89-2.49-1.65-4.8-2.53-7.06A77.69,77.69,0,0,0,219.49,185c-2.13-1.09-2.7-1.59-.92-3.86A41.49,41.49,0,0,0,192,114.43c-17.29-2.64-31.35,3.52-41,17.88-9.51,14.16-10.16,29.29-1.64,44.44.06.11.13.21.19.33,1.14,2.4,4.77,4.25,3.94,6.57-.66,1.85-4.25,2.63-6.49,4a77.54,77.54,0,0,0-34.67,42.93c-.37,1.06-.72,2.12-1.09,3.18a6.48,6.48,0,0,1-.66.74A80.88,80.88,0,0,1,96.7,198.37c-3.57-26.29,2.94-50.14,20-70.42a89.39,89.39,0,0,1,128.17-9.81C284.21,153.05,281.07,206.62,260.19,234.35Z"/><path class="cls-3" d="M59.86,185.75A23.93,23.93,0,1,1,36,161.64,24,24,0,0,1,59.86,185.75Z"/><path class="cls-3" d="M203.52,29.88a18,18,0,1,1-35.9.11,18,18,0,0,1,35.9-.11Z"/><path class="cls-3" d="M203.52,341.21a18,18,0,1,1-17.77-17.94A18.1,18.1,0,0,1,203.52,341.21Z"/><path class="cls-3" d="M299.66,59.88a12,12,0,1,1-12.31,11.41A12,12,0,0,1,299.66,59.88Z"/><path class="cls-3" d="M287.34,299.32a12,12,0,1,1,11.78,12A11.91,11.91,0,0,1,287.34,299.32Z"/><path class="cls-3" d="M24,335A12,12,0,1,1,35.55,347.2,11.93,11.93,0,0,1,24,335Z"/></g></g></svg>