<svg xmlns="http://www.w3.org/2000/svg" viewBox="0 0 371.18 370.48"><defs><style>.cls-1{fill:#004fab;}.cls-2{fill:#014fac;}.cls-3{fill:#57a3fe;}</style></defs><g id="Layer_2" data-name="Layer 2"><g id="Layer_1-2" data-name="Layer 1"><path class="cls-1" d="M243.26,31.49c.1,6.08-2.77,10.76-7.16,14.59-2,1.71-2,2.76-.07,4.62,6,5.77,11.88,11.75,17.76,17.68,4,4.08,4.06,6.75,0,10.83C248.37,84.7,243,90.3,237.35,95.54c-2.78,2.56-3,4-.09,6.79,6.56,6.18,7.78,14.48,3.82,21.78-5.77,10.64-19.59,12.57-28.65,4-3.87-3.66-3.87-3.66-7.7.17-5.47,5.46-10.9,11-16.4,16.4-4,3.89-6.65,3.86-10.54,0q-11.67-11.61-23.29-23.27c-3.82-3.84-3.8-6.72,0-10.57,2.36-2.4,4.82-4.71,7.12-7.17,2.69-2.88,2.74-6.2.32-8.67s-5.87-2.43-8.69.19c-2.56,2.37-4.93,4.93-7.44,7.36-3.53,3.43-6.59,3.49-10,.09q-12.09-12-24.06-24.07c-3.3-3.33-3.23-6.29.15-9.72,5.52-5.59,11.1-11.12,16.66-16.67,3.73-3.73,3.73-3.73.1-7.47-6.83-7-7.79-16.46-2.41-23.76A17.86,17.86,0,0,1,152.55,18a26.39,26.39,0,0,1,3.21,3.13c1.36,1.66,2.35,1.52,3.82,0,5.92-6.08,12-12,18-18,4.23-4.21,6.79-4.21,11.07.05C194.45,9,200.36,14.73,206,20.7c2,2.11,3.11,2,4.92-.09,5.17-5.9,11.55-8.54,19.4-6.34A17.64,17.64,0,0,1,243.26,31.49Z"/><path class="cls-1" d="M191.57,197.29q0,17,0,34c0,4.73-2.2,7.44-5.94,7.47s-6-2.7-6-7.38q0-34.55,0-69.09c0-4.63,2.36-7.37,6.11-7.28s5.83,2.73,5.84,7.19C191.59,173.89,191.57,185.59,191.57,197.29Z"/><path class="cls-1" d="M167.62,182.32c0,10.33,0,20.66,0,31,0,4.74-2.2,7.45-5.93,7.49s-6-2.7-6-7.38q0-31.56,0-63.11c0-4.63,2.36-7.37,6.11-7.28s5.83,2.73,5.84,7.18C167.65,160.91,167.62,171.62,167.62,182.32Z"/><path class="cls-1" d="M203.54,181.52q0-15.51,0-31c0-4.77,2.15-7.44,5.9-7.49s6.05,2.67,6.05,7.34q0,31.56,0,63.11c0,4.65-2.34,7.39-6.09,7.32s-5.85-2.78-5.86-7.55Q203.52,197.4,203.54,181.52Z"/><path class="cls-1" d="M203.54,256.61c0-5.59,0-11.19,0-16.78,0-4.39,2.35-7,6-7s5.94,2.66,5.95,7.06q.06,17,0,33.95c0,4.13-2.32,6.73-5.82,6.83s-6.08-2.6-6.13-6.89C203.5,268.05,203.54,262.33,203.54,256.61Z"/><path class="cls-2" d="M179.6,253.75c0-6.11,1.82-8.89,5.87-9s6.1,2.82,6.1,9.12c0,.87,0,1.74,0,2.61-.22,3.73-2.67,6.23-6.05,6.18s-5.71-2.55-5.89-6.34C179.57,255.49,179.6,254.62,179.6,253.75Z"/><path class="cls-1" d="M155.63,317.4c0-4.57-2.31-6.72-7-6.78-4.48-.05-9-.25-13.46.07-3.29.24-3.8-1-3.78-4,.12-21.82,0-43.64.08-65.46A38.56,38.56,0,0,0,120,213Q95.7,188.13,71.76,162.89c-6.51-6.86-14-9.6-23.86-7v-3.67c0-10.09.08-20.19,0-30.29a20.82,20.82,0,0,0-16.6-20.33c-3-.69-5.95-.48-8.93-.47C8.87,101.13,0,109.89,0,123.28,0,148,0,172.66,0,197.34a37.07,37.07,0,0,0,9,24.72q24.54,29.2,49,58.48c1,1.24,2,2.36,2,4.22-.11,7.86-.09,15.71,0,23.57,0,1.78-.5,2.36-2.31,2.32-5-.11-10-.09-15,0-4.42.07-6.67,2.29-6.69,6.72q-.08,23.19,0,46.38c0,4.42,2.29,6.72,6.69,6.72q53.13.06,106.24,0c4.42,0,6.73-2.28,6.75-6.66Q155.72,340.6,155.63,317.4Zm-39.19-6.72c-13.84-.14-27.68-.12-41.53,0-2.37,0-3.18-.51-3.13-3,.17-8.36,0-16.71.11-25.07a10.23,10.23,0,0,0-2.57-7.14c-16.77-19.93-33.43-40-50.26-59.86a28.5,28.5,0,0,1-7.13-19.46c.16-23.69.06-47.39.06-71.08,0-9.11,2.89-11.9,12.15-12,3.58,0,7,.17,9.54,3.16a9.67,9.67,0,0,1,2.26,6.55c0,13.34,0,26.68,0,40a6,6,0,0,1-1.51,4c-7,9-6.24,20.51,1.94,28.45,10,9.73,20.18,19.31,30.32,28.91,3.31,3.14,6.63,3.29,9.23.62s2.34-6.11-1.14-9.45c-9.55-9.14-19.15-18.22-28.7-27.35-5.94-5.67-6-10.11-.17-15.93,2-2,3.84-4.38,6.84-5a9.08,9.08,0,0,1,8.86,2.72q25.7,26.69,51.38,53.35c4.75,4.95,6.47,11.07,6.46,17.81q0,16.26,0,32.54c0,11.35,0,22.7.05,34C119.53,309.86,119,310.7,116.44,310.68Z"/><path class="cls-3" d="M95.8,358.5c-14.71,0-29.41-.06-44.11.05-2.75,0-3.94-.45-3.87-3.61.22-9.59.17-19.19,0-28.78,0-2.68.54-3.65,3.46-3.64q44.49.17,89,0c2.46,0,3.52.46,3.47,3.23q-.24,14.76,0,29.53c0,2.76-1,3.27-3.46,3.25C125.45,358.45,110.62,358.5,95.8,358.5Z"/><path class="cls-1" d="M371.08,121.43c0-9.63-6.87-17.52-16.3-19.78-3.1-.75-6.2-.54-9.3-.53-13.41,0-22.18,8.82-22.21,22.27,0,10,0,20,0,29.93,0,1.32.42,2.73-2,2.16-8.41-2-15.35.73-21.25,6.89-15.86,16.58-31.63,33.25-47.79,49.52-8.73,8.8-12.67,19-12.52,31.23.25,21.07,0,42.14.17,63.21,0,3.75-1.05,4.63-4.55,4.36-4.09-.32-8.22-.1-12.33-.07-5.36,0-7.42,2.1-7.43,7.5q0,22.26,0,44.51c0,5.86,2,7.83,7.85,7.84H275q26.56,0,53.12,0c4.89,0,7.1-2.2,7.11-7.07q.06-22.81,0-45.63c0-4.91-2.19-7.08-7.05-7.14s-9.47-.11-14.21,0c-2.09.06-2.75-.54-2.72-2.68q.19-11.42,0-22.82a6.59,6.59,0,0,1,2-4.6q24.65-29.35,49.23-58.76c5.3-6.33,8.55-13.59,8.61-21.82Q371.33,160.71,371.08,121.43ZM352.64,214.9c-16.86,20-33.61,40.15-50.48,60.17a11,11,0,0,0-2.89,7.77c.15,8.35,0,16.7.09,25.06,0,2-.43,2.78-2.63,2.76q-21.14-.15-42.28,0c-2,0-2.8-.47-2.79-2.67.07-22.82,0-45.64.07-68.46a24.52,24.52,0,0,1,7.33-17.46q25-25.8,49.89-51.67c4.72-4.88,9.51-4.92,14.35-.29,1,1,2,1.91,2.92,2.91,4.45,4.71,4.43,9.57-.28,14.09-9.52,9.17-19.13,18.24-28.69,27.37a17.49,17.49,0,0,0-2.78,3,5.44,5.44,0,0,0,.7,7.19,5.51,5.51,0,0,0,7.15,1.15,14.66,14.66,0,0,0,2.88-2.36q14.37-13.65,28.71-27.34c9.11-8.71,10-19.64,2.38-29.81a5.72,5.72,0,0,1-1.06-3.79c0-13.09,0-26.18,0-39.28,0-6.61,3.55-10.08,10.18-10.16h3.74c6.38.1,10,3.61,10,10,0,12.72,0,25.44,0,38.15,0,11.85-.1,23.7,0,35.54A26.69,26.69,0,0,1,352.64,214.9Z"/><path class="cls-3" d="M275.37,358.5c-14.7,0-29.4-.06-44.1.06-2.76,0-3.94-.48-3.86-3.63.22-9.59.17-19.19,0-28.78-.05-2.68.54-3.64,3.46-3.63q44.49.17,89,0c2.46,0,3.51.47,3.46,3.24q-.24,14.76,0,29.53c.05,2.76-1,3.25-3.46,3.24C305,358.45,290.2,358.5,275.37,358.5Z"/><path class="cls-3" d="M157.87,81.26c-6.07,0-10.87,2.57-14.65,7.11-1.72,2.07-2.95,2.35-4.95.15-3.86-4.23-8-8.26-12.15-12.17-2-1.89-2.12-3.1-.05-5.07,6-5.78,11.87-11.76,17.76-17.69,3.91-3.94,3.88-6.49-.05-10.49-2.36-2.4-4.83-4.7-7.12-7.16-2.58-2.79-2.59-6.32-.2-8.71s5.94-2.35,8.7.23,5.1,5.13,7.71,7.64c3.34,3.21,6.11,3.26,9.41,0,6.14-6,12.27-12.07,18.22-18.28,2-2.07,3.18-1.9,5.08.08,5.79,6,11.76,11.87,17.69,17.75,3.81,3.79,6.42,3.8,10.22.1,2.14-2.09,4.23-4.24,6.36-6.34,3.49-3.44,7.14-3.85,9.78-1.12s2.12,6.2-1.13,9.52c-2.1,2.14-4.25,4.22-6.34,6.36-3.87,3.93-3.85,6.49.11,10.48,6,6,11.92,12.07,18,18,1.81,1.73,1.72,2.68,0,4.36-6.1,5.89-12,11.94-18,18-3.39,3.42-3.35,6.51.06,10,2.35,2.41,4.84,4.68,7.06,7.21,2.6,3,2.49,6.23,0,8.68s-5.85,2.19-8.69-.47c-2.27-2.13-4.4-4.41-6.63-6.59-3.89-3.81-6.77-3.86-10.6-.07-6,6-12.08,11.91-17.94,18-2,2.08-3.21,1.93-5.08-.07-3.83-4.1-7.79-8.09-11.91-11.9-2-1.85-2.25-3-.09-4.94,3.43-3.13,6-6.84,6.84-11.69C177.1,91.44,168.64,81.17,157.87,81.26Z"/></g></g></svg>