<svg xmlns="http://www.w3.org/2000/svg" viewBox="0 0 371.14 371.14"><defs><style>.cls-1{fill:#004fab;}.cls-2{fill:#57a3fe;}.cls-3{fill:#014fac;}.cls-4{fill:#55a2fd;}</style></defs><g id="Layer_2" data-name="Layer 2"><g id="Layer_1-2" data-name="Layer 1"><path class="cls-1" d="M371.14,163.82c0-6.33-1.87-8.18-8.27-8.18H199.76c-6.37,0-8.2,1.84-8.2,8.24q0,40.77,0,81.55v81.18c0,6.89,1.72,8.61,8.58,8.61,32.92,0,65.85,0,98.77-.06A8.65,8.65,0,0,1,305.7,338c10,10.14,20.07,20.14,30.09,30.22,2.16,2.16,4.43,3.73,7.61,2.41s3.85-3.89,3.82-7c-.07-8.48.08-17-.09-25.43-.05-2.52.73-3.16,3.13-3.05,4.23.19,8.48.06,12.72.05,6.31,0,8.16-1.88,8.16-8.29ZM251.62,271.58V219.3l52.28,26.13Z"/><path class="cls-1" d="M179.58,8.18c0-6.33-1.86-8.18-8.26-8.18H8.21C1.84,0,0,1.84,0,8.24V89.42q0,41.34,0,82.67c0,5.38,2.1,7.45,7.46,7.49,4.61,0,9.23.11,13.84,0,2.13-.08,2.71.61,2.68,2.71-.11,8.35,0,16.71-.07,25.06,0,3.31.32,6.3,3.85,7.73s5.66-.5,7.87-2.72c10-10.08,20.13-20.08,30.11-30.21a7.85,7.85,0,0,1,6.16-2.59q49.76.14,99.51.06c6.31,0,8.16-1.88,8.16-8.29Q179.6,89.74,179.58,8.18ZM65.85,80.72a6.09,6.09,0,0,0,0,.74c0,8.33,0,8.33-8.13,8.33H54c-5.88,0-6.1-.22-6.1-6.06,0-5.63.27-5.91,5.89-5.91,3.1,0,6.22.18,9.31-.06C65.53,77.58,66.19,78.55,65.85,80.72Z"/><path class="cls-2" d="M359.24,171.46c0-3.13-.86-3.92-3.95-3.92q-73.89.15-147.78,0c-3.42,0-4.06,1-4,4.2q.15,73.7,0,147.4c0,3.67,1.25,4.19,4.45,4.18,31.55-.1,63.1,0,94.65-.13a11.66,11.66,0,0,1,9.2,3.88c7.44,7.71,15.1,15.21,23.48,23.6,0-7.5,0-13.94,0-20.38,0-4.91,2.15-7,7.12-7,4.36,0,8.74-.18,13.09.05,2.89.15,3.79-.67,3.79-3.7Q359.09,245.54,359.24,171.46ZM251.62,271.58V219.3l52.28,26.13Z"/><path class="cls-2" d="M167.68,15.85c0-3.1-.79-3.95-3.92-3.95q-73.89.15-147.78,0c-3.38,0-4.09.95-4.08,4.17q.16,60.06.07,120.1v26.56c0,4.89,0,4.89,4.71,4.89,4,0,8,0,12,0,5.18,0,7.23,2.08,7.26,7.27,0,6.34,0,12.68,0,20.15,8.5-8.51,16.29-16.2,23.93-24a10.59,10.59,0,0,1,8.25-3.44c31.8.1,63.6,0,95.4.13,3.18,0,4.21-.63,4.2-4.05Q167.51,89.74,167.68,15.85ZM65.85,80.72a6.09,6.09,0,0,0,0,.74c0,8.33,0,8.33-8.13,8.33H54c-5.88,0-6.1-.22-6.1-6.06,0-5.63.27-5.91,5.89-5.91,3.1,0,6.22.18,9.31-.06C65.53,77.58,66.19,78.55,65.85,80.72Z"/><path class="cls-1" d="M335.22,55.9c0-6.1-1.93-8-8.06-8H199.67c-6.29,0-8.11,1.87-8.11,8.32q0,39.63,0,79.26c0,6.35,1.86,8.19,8.24,8.19H326.91c6.42,0,8.31-1.84,8.31-8.13Q335.24,95.72,335.22,55.9Zm-11.9,72.36c0,2.73-.57,3.52-3.43,3.51q-56.46-.17-112.91,0c-2.7,0-3.55-.52-3.53-3.41q.21-32.53,0-65c0-2.74.57-3.54,3.43-3.51,19,.14,37.89.07,56.83.07,18.69,0,37.39.06,56.08-.06,2.7,0,3.55.51,3.53,3.41Q323.12,95.73,323.32,128.26Z"/><path class="cls-1" d="M177.76,197.55q-57.94,0-115.89,0c-6.1,0-8,1.91-8,8q0,33.84,0,67.67c0,6.14,1.91,8.07,8,8.07h58q29,0,57.94,0c5.83,0,7.81-2,7.82-7.88q0-34,0-68C185.56,199.54,183.6,197.55,177.76,197.55Zm-7.58,71.89c-16.82-.13-33.65-.07-50.47-.07s-33.64-.07-50.46.08c-2.81,0-3.49-.68-3.47-3.48q.21-26.54,0-53.08c0-2.84.74-3.45,3.49-3.44q50.46.15,100.93,0c2.8,0,3.49.68,3.47,3.48q-.21,26.54,0,53.08C173.7,268.84,172.93,269.47,170.18,269.44Z"/><path class="cls-1" d="M137.66,47.92c0-5.58-3.89-8.07-9.12-5.94-10,4.09-20,8.16-30,12.42C83.13,61,68,68.36,50.34,66c-5-.67-9.21,2.4-12.1,6.8s-2.35,9.05-2.3,13.75C36,93.72,39.83,98.92,46.66,101a3.59,3.59,0,0,1,2.85,3.31c1.31,7.2,2.87,14.37,4.33,21.55.85,4.17,2.65,5.76,6.87,5.8,5.36,0,10.72.06,16.08,0s7.72-3,6.67-8.22c-1.15-5.7-2.28-11.4-3.55-17.75,1.35.5,2,.74,2.74,1,15.29,6.3,30.58,12.64,45.89,18.9,5.2,2.13,9.11-.39,9.12-5.94Q137.74,83.81,137.66,47.92ZM65.85,80.72a6.09,6.09,0,0,0,0,.74c0,8.33,0,8.33-8.13,8.33H54c-5.88,0-6.1-.22-6.1-6.06,0-5.63.27-5.91,5.89-5.91,3.1,0,6.22.18,9.31-.06C65.53,77.58,66.19,78.55,65.85,80.72Z"/><path class="cls-1" d="M263,83.81H224.9c-.75,0-1.49,0-2.24,0-4.43-.07-7.08-2.27-7.13-5.9s2.59-6,7-6.06c3.23,0,6.47,0,9.71,0h71c5.31,0,8.14,2.16,8.07,6.09s-2.81,5.88-7.91,5.88H263Z"/><path class="cls-1" d="M263.35,89.79q20.16,0,40.34,0c4.8,0,7.47,2.1,7.56,5.84s-2.71,6.12-7.67,6.12H222.9c-5.19,0-8.43-3.39-7.17-7.51,1-3.33,3.53-4.5,6.9-4.48C236.2,89.83,249.77,89.79,263.35,89.79Z"/><path class="cls-1" d="M245,107.75c7.34,0,14.68,0,22,0,4.78,0,7.46,2.13,7.53,5.87s-2.68,6.08-7.32,6.08q-22.21,0-44.41,0c-4.67,0-7.39-2.3-7.33-6.06s2.74-5.88,7.5-5.89C230.37,107.73,237.7,107.75,245,107.75Z"/><path class="cls-3" d="M290.37,119.72c-6.12,0-8.9-1.8-9-5.85s2.81-6.12,9.09-6.12h.75c5.3,0,8.1,2.11,8.07,6s-2.81,5.93-8.17,5.94Z"/><path class="cls-1" d="M119.7,227.47H80.86c-.75,0-1.5,0-2.24,0-4.13-.12-6.71-2.39-6.76-5.91s2.54-6,6.6-6c3.49-.08,7,0,10.46,0h71c5,0,7.77,2.25,7.69,6.09s-2.75,5.87-7.53,5.88Z"/><path class="cls-1" d="M119.7,233.46q20.17,0,40.34,0c4.79,0,7.47,2.13,7.54,5.87s-2.67,6.09-7.31,6.09q-40.53,0-81.06,0c-5.85,0-9.1-4.46-6.56-8.9,1.4-2.44,3.66-3.09,6.34-3.08C92.56,233.48,106.13,233.46,119.7,233.46Z"/><path class="cls-1" d="M101.4,251.42c7.47,0,14.93,0,22.4,0,4.42,0,7.07,2.26,7.12,5.89s-2.62,6-7,6.05q-22.58.06-45.16,0c-4.34,0-7-2.43-6.93-6.08s2.71-5.84,7.15-5.86C86.48,251.39,93.94,251.42,101.4,251.42Z"/><path class="cls-3" d="M146.68,263.39c-6.11,0-8.89-1.83-9-5.88s2.8-6.1,9.11-6.09c.87,0,1.74,0,2.61,0,3.74.22,6.23,2.66,6.18,6s-2.53,5.72-6.33,5.91C148.41,263.42,147.54,263.38,146.68,263.39Z"/><path class="cls-2" d="M125.71,111.5c-6.59-2.73-12.65-5.26-18.72-7.76-8.63-3.54-17.25-7.11-25.93-10.52-2.42-1-3.52-2.2-3.3-4.92a89.36,89.36,0,0,0,0-10.09A3,3,0,0,1,80,74.9q21.41-8.76,42.78-17.64c1.53-.63,3-1.54,2.94,1.49C125.66,76.06,125.71,93.37,125.71,111.5Z"/><path class="cls-4" d="M65.11,101.67c1.24-.22,2,.56,2.37,2.65.66,4.29,1.71,8.52,2.57,12.78.21,1,.78,2.57-1,2.51-1.59-.06-4,1.39-4.62-1.53-1-4.74-2-9.49-2.9-14.24C61,101.22,63,101.9,65.11,101.67Z"/><path class="cls-1" d="M318.73,239.42q-34.61-17.22-69.16-34.52c-6.23-3.1-10.11-.58-10.12,6.5,0,11.21,0,22.42,0,33.63,0,11.59,0,23.17,0,34.76,0,6.72,4,9.21,10.08,6.19q34.59-17.24,69.16-34.52c2.65-1.32,4.6-3,4.53-6.19C323.15,242.25,321.24,240.67,318.73,239.42Zm-67.11,32.16V219.3l52.28,26.13Z"/></g></g></svg>