<svg xmlns="http://www.w3.org/2000/svg" viewBox="0 0 371.14 263.39"><defs><style>.cls-1{fill:#004fab;}.cls-2{fill:#57a3fe;}.cls-3{fill:#004fac;}</style></defs><g id="Layer_2" data-name="Layer 2"><g id="Layer_1-2" data-name="Layer 1"><path class="cls-1" d="M338.62,0h-153Q108.41,0,31.17,0C12.93,0,0,12.86,0,31Q0,107.71,0,184.38c0,18.21,12.87,31.05,31.06,31.11,12.22,0,24.44,0,36.66,0,25.55,0,51.11,0,76.67-.06,3,0,4.33.17,3.23,3.74a90.8,90.8,0,0,0-2.42,12.07c-.27,1.73-1,2.29-2.66,2.24-3.36-.1-6.73-.08-10.1,0-4.44.09-6.67,2.27-6.73,6.68-.08,5.48-.07,11,0,16.45.05,4.44,2.27,6.76,6.65,6.76q53.12.06,106.22,0c4.59,0,6.77-2.31,6.81-7,.06-5.36.07-10.73,0-16.09-.06-4.6-2.29-6.75-7-6.82-2.86-.05-5.74-.16-8.59,0-2.51.17-3.83-.31-4.12-3.22a59.38,59.38,0,0,0-2.19-11c-1-3.19-.26-3.89,3.06-3.88,37.4.11,74.8.07,112.2.07,19.91,0,32.34-12.48,32.34-32.48q0-75.18,0-150.36C371.14,12.39,358.81,0,338.62,0ZM212.42,233.48c-18.39,0-36.78,0-55.47,0,1.15-5.69,2.24-10.66,3.12-15.67.28-1.66.83-2.32,2.58-2.31q22.95.08,45.91,0c1.47,0,2.2.38,2.49,2,.81,4.65,1.82,9.26,2.77,13.88C214.07,232.55,214.22,233.48,212.42,233.48Zm143-65.79q-84.91-.16-169.82-.08-84.72,0-169.44.08c-3.39,0-4.25-.81-4.24-4.22C12,119.71,12,75.94,12,32.18c0-13,7.14-20.2,20-20.2H339.12c12.76,0,20,7.2,20.05,19.82,0,44,0,88,.08,132C359.25,166.94,358.52,167.69,355.4,167.69Z"/><path class="cls-2" d="M185.66,179.58q84.53,0,169-.08c3.56,0,4.63.79,4.55,4.47-.26,12.06-7.57,19.55-19.67,19.55H31.4c-12.62,0-21-9.54-19.44-22,.17-1.39.62-2,2-2,1,0,2,0,3,0Z"/><path class="cls-2" d="M185.61,251.41c-14.82,0-29.65,0-44.47.05-2.41,0-3.56-.36-3.55-3.19s1.41-2.87,3.48-2.86q44.48,0,89,0c2.4,0,3.55.36,3.55,3.18s-1.41,2.87-3.48,2.87C215.26,251.39,200.44,251.41,185.61,251.41Z"/><path class="cls-1" d="M71.87,83.81h29.64c2,0,4-.07,6,0,3.78.17,6.28,2.64,6.23,6s-2.56,5.85-6.39,5.88c-10.83.08-21.67,0-32.5,0h-3l8.47,11.33c.82,1.1,1.71,2.16,2.42,3.32a5.81,5.81,0,0,1-1.3,8,5.69,5.69,0,0,1-8.29-1.06C67,109.39,61,101.31,55,93.2a5.49,5.49,0,0,1,.09-7C61,78.25,67,70.26,73,62.36A5.76,5.76,0,0,1,81.29,61c2.82,2,3.39,5.43,1.16,8.57C79.16,74.22,75.68,78.71,71.87,83.81Z"/><path class="cls-1" d="M299.31,83.81c-3.7-4.94-6.93-9.19-10.09-13.48-2.64-3.6-2.42-7,.52-9.22s6.32-1.5,9,2c5.64,7.43,11.2,14.93,16.84,22.37,2.17,2.88,2.22,5.64,0,8.53-5.71,7.54-11.33,15.15-17.06,22.67-2.51,3.3-5.9,3.92-8.76,1.82s-3.26-5.55-.83-8.9c3.22-4.42,6.55-8.76,9.83-13.14-.72-1.24-1.83-.66-2.7-.67-10.34,0-20.67,0-31,0-4.95,0-7.75-2.29-7.65-6.14s2.78-5.82,7.58-5.83C276.2,83.8,287.38,83.81,299.31,83.81Z"/><path class="cls-1" d="M50.9,185.57c4.73,0,9.46,0,14.19,0,4.17,0,6.68,2.31,6.73,5.88s-2.48,6-6.56,6.05q-14.39.09-28.76,0c-4.07,0-6.6-2.49-6.53-6.07s2.56-5.81,6.74-5.86C41.44,185.53,46.17,185.57,50.9,185.57Z"/><path class="cls-3" d="M86.81,185.57c6.21,0,8.89,1.76,9,5.89s-2.72,6.09-9.15,6.08c-.74,0-1.49,0-2.24,0-4.06-.15-6.58-2.5-6.53-6.08s2.49-5.71,6.35-5.88C85.07,185.54,85.94,185.57,86.81,185.57Z"/><path class="cls-1" d="M239.45,86.9c0-8.47-.08-17,0-25.43a7.79,7.79,0,0,0-4-7.43q-22.85-14.17-45.6-28.51a7.29,7.29,0,0,0-8.66,0Q158.54,39.9,135.66,54a7.85,7.85,0,0,0-4,7.41q.14,25.42,0,50.86a7.85,7.85,0,0,0,4.13,7.34Q158.5,133.72,181.08,148c3.14,2,5.86,2,9,0q22.59-14.26,45.29-28.31A8.08,8.08,0,0,0,239.5,112C239.35,103.61,239.45,95.26,239.45,86.9ZM220,61.26Q203.7,71.37,187.41,81.62a2.76,2.76,0,0,1-3.39.15c-11.45-7.21-22.94-14.37-35-21.91,12-7.5,23.39-14.59,34.75-21.76a3,3,0,0,1,3.71,0q16.27,10.26,32.62,20.37C221.92,59.63,221.66,60.25,220,61.26Z"/><path class="cls-2" d="M144.14,71c5.53,3.4,10.89,6.68,16.23,10,5.71,3.55,11.37,7.17,17.08,10.71,1.23.75,2.18,1.43,2.17,3.12-.08,12.2-.07,24.4-.1,36.61,0,.2-.21.4-.52,1-6-3.73-12-7.43-17.95-11.15-5.07-3.16-10.12-6.35-15.19-9.5-1.31-.82-2.24-1.65-2.23-3.49.1-12,.06-23.91.08-35.86A7.79,7.79,0,0,1,144.14,71Z"/><path class="cls-2" d="M227.48,70.67c0,13.23,0,25.55,0,37.87a2.88,2.88,0,0,1-1.38,2.82c-11.28,7-22.55,14-34.55,21.5v-5.7q0-15.51,0-31c0-1.29-.41-2.7,1.12-3.66C204.07,85.39,215.41,78.25,227.48,70.67Z"/></g></g></svg>