<svg xmlns="http://www.w3.org/2000/svg" viewBox="0 0 371.12 371.14"><defs><style>.cls-1{fill:#004fab;}.cls-2{fill:#57a3fe;}</style></defs><g id="Layer_2" data-name="Layer 2"><g id="Layer_1-2" data-name="Layer 1"><path class="cls-1" d="M347.47,156.54c-2.42-.47-3.3-1.4-3.75-3.62a156.67,156.67,0,0,0-23.35-56.17c-1.18-1.77-1.25-3,0-4.86a29.63,29.63,0,0,0-41.23-41.15c-1.95,1.32-3.14,1.11-4.86,0a156.48,156.48,0,0,0-55.82-23.25c-2.3-.47-3.42-1.22-3.93-3.88A29.45,29.45,0,0,0,185.7,0c-14,0-26.4,9.7-29.08,23.3-.58,3-1.85,4-4.44,4.28a22.77,22.77,0,0,0-2.57.48,158.89,158.89,0,0,0-52.55,22.5c-1.84,1.23-3.07,1.59-5.17.17A29.67,29.67,0,0,0,50.78,92.07c1,1.49,1.41,2.46.26,4.2A157.91,157.91,0,0,0,27.36,153.1c-.44,2.16-1.3,3-3.53,3.39a29.64,29.64,0,0,0,0,58.12c2.53.48,3.22,1.61,3.65,3.72a156.35,156.35,0,0,0,23.4,56.15c1.26,1.88,1.06,3.08-.19,4.85a27.92,27.92,0,0,0-5.11,16.53C45.92,307.51,51,316.53,61.28,322S81.9,326.8,91.8,320.6c1.31-.82,2.22-2,4.19-.7a158.44,158.44,0,0,0,57.49,24c2.17.44,2.62,1.51,3,3.45a29.62,29.62,0,0,0,28.33,23.8c14.27.25,26.75-9.23,29.64-23,.64-3.08,1.94-4,4.63-4.55a156.34,156.34,0,0,0,55.44-23.19c1.64-1.08,2.71-1.29,4.54-.06a29.5,29.5,0,0,0,37.7-3.33c10.23-10.11,11.72-25.64,3.5-38-1.07-1.61-1.16-2.61-.08-4.23a157.78,157.78,0,0,0,23.56-56.48c.44-2.19,1.25-3.18,3.71-3.67a29.63,29.63,0,0,0,0-58.05ZM329.87,213c2,.89,2.52,1.62,2,3.79a153.08,153.08,0,0,1-20.59,49.75c-1.28,2-2.17,2.53-4.61,1.47a28.69,28.69,0,0,0-32.07,6.31c-8.87,9.18-11.25,20-6.67,32,1,2.67.54,3.7-1.73,5.14a153.51,153.51,0,0,1-49.44,20.41c-1.88.42-2.79.23-3.64-1.77-5.22-12.23-14.63-18.88-27.9-18.77-12.95.11-22.11,6.75-27.25,18.65-.82,1.89-1.54,2.31-3.55,1.88a152.62,152.62,0,0,1-50.09-20.73c-1.93-1.23-2.21-2.15-1.32-4.34,8.12-19.92-6.23-41.3-28.63-41.19a27.34,27.34,0,0,0-10.82,2.68c-1.59.79-2.3.45-3.23-1a153.64,153.64,0,0,1-21.3-51c-.6-2.7,1.22-2.79,2.73-3.45a29.66,29.66,0,0,0,11.64-45.73,28,28,0,0,0-12.13-9.07c-2-.78-2.59-1.54-2.1-3.78a153.54,153.54,0,0,1,20.6-49.75c1.31-2,2.23-2.45,4.63-1.45A29,29,0,0,0,96.8,96.47c8.76-9.29,10.83-20.17,6.3-32.15-.67-1.76-1.21-2.82.89-4.17a153.79,153.79,0,0,1,50.76-21c1.94-.42,2.52.26,3.23,1.91,5.22,12,14.48,18.7,27.59,18.7S208,53.08,213.14,41c.84-1.95,1.68-2.26,3.61-1.83A153.41,153.41,0,0,1,266.83,60c2,1.28,2.09,2.27,1.22,4.36-4.72,11.37-2.31,24,6.44,32.4,9.36,9,20.35,11.07,32.42,6.31,2.24-.88,3.12-.5,4.33,1.38A153.62,153.62,0,0,1,332,154.51c.44,2,0,2.73-2,3.52-11.66,4.8-18.95,15.42-18.67,27.64C311.64,198.63,318,207.83,329.87,213Z"/><path class="cls-2" d="M313.53,75.52a18,18,0,0,1-35.93,0,18,18,0,0,1,35.93,0Z"/><path class="cls-2" d="M203.5,30a17.94,17.94,0,1,1-35.88-.14A17.94,17.94,0,1,1,203.5,30Z"/><path class="cls-2" d="M30,167.63a17.94,17.94,0,1,1-.16,35.88A17.94,17.94,0,1,1,30,167.63Z"/><path class="cls-2" d="M359.15,185.46a17.95,17.95,0,1,1-17.85-17.84A18.11,18.11,0,0,1,359.15,185.46Z"/><path class="cls-2" d="M203.51,341.37a17.95,17.95,0,1,1-18-18.11A18.11,18.11,0,0,1,203.51,341.37Z"/><path class="cls-2" d="M57.61,295.47a17.94,17.94,0,1,1,17.94,18A17.85,17.85,0,0,1,57.61,295.47Z"/><path class="cls-2" d="M313.52,295.62a17.88,17.88,0,0,1-17.82,17.84,17.91,17.91,0,1,1,17.82-17.84Z"/><path class="cls-2" d="M57.6,75.48A17.79,17.79,0,0,1,75.36,57.64c9.87,0,18.22,8.36,18.09,18.08a17.93,17.93,0,0,1-35.85-.24Z"/><path class="cls-2" d="M279.11,213.44c-5.66-2.42-6.06-3-4.69-9.22a66.81,66.81,0,0,0,1.79-13.94c0-4.68.87-8.48,5.19-10.87l-1.61-11.09c-4.52-1.66-6.74-5-7.64-9.66a33.18,33.18,0,0,0-3.7-9.76c-2.45-4.39-4.06-8.68-1.32-13.5l-6.1-9c-5.13,1.34-8.43-1.45-11.49-5a39.09,39.09,0,0,0-8.36-7.43c-4.05-2.59-6.67-5.74-6.32-10.78-3.21-2.07-7.25-2.76-9.82-5.9-3.63,4.15-7.81,3.52-12.32,1.63a40.69,40.69,0,0,0-11.55-2.72c-4.64-.48-8.25-2.19-10.4-6.48H179.66c-1.66,4.54-5.23,6-9.74,6.44a46.71,46.71,0,0,0-11.87,2.89c-4.27,1.61-8.31,2.17-12.33-.48l-9.64,4.82c.46,4.91-2.21,7.85-6,10.49a43.35,43.35,0,0,0-8.34,7.33c-3.14,3.67-6.58,6.63-11.88,5.88-.91,1.16-1.75,2.38-2.76,3.44-1.54,1.63-1.77,4.46-4.52,5,3.94,4.64,2.53,9.1-.12,13.8a34.44,34.44,0,0,0-3.71,10.05c-.93,4.73-2.84,8.33-8.13,9,.74,3.79-.53,7.45-.78,11.17,1.92,2.13,4.86,3.43,4.89,7a95.08,95.08,0,0,0,2.45,19.87,6,6,0,0,1-2,6.36c-.56.47-1.15,1-.94,1.87Q96.12,219.87,98,225c5.29-.11,8,3,10.07,7.49a35.6,35.6,0,0,0,6.06,8.84c3.17,3.53,5.64,7.17,4.06,12.21,2.75,2.29,4.94,5.26,8.22,6.91,5.11-1.67,9.22.27,13.3,3.23a39.37,39.37,0,0,0,10.3,5.18c4.36,1.48,7,3.92,7.23,8.66,3.77.31,7.34,1.54,11,2.37,3-3.9,6.76-4.64,11.51-3.74a41.7,41.7,0,0,0,12.27,0c7.58-.84,7.69-.84,10.34,6a1.54,1.54,0,0,0,.51.54c.54-2.52,1.94-3.75,4.65-4,2.15-.19,4.23-1.14,6.33-1.75a1.36,1.36,0,0,0,.85-1.14c.11-3.92,2.71-5.42,6-6.71A54.89,54.89,0,0,0,232.55,263c3.95-2.86,7.85-4.65,12.55-1.88l7.89-7.62a10.59,10.59,0,0,1,2.87-10.79,43.1,43.1,0,0,0,7.58-10.94c2.11-4.18,4.77-7,9.63-7.3a52.21,52.21,0,0,0,2.4-6.25c.62-2.43,1.91-3.8,4.39-4A1.58,1.58,0,0,0,279.11,213.44Zm-83.67,32c-3.34-.18-6.7,0-10.05,0s-6.47-.15-9.69,0c-2.85.16-2-1.78-2.09-3.22s-.39-2.92,2.08-2.86q9.87.23,19.74,0c2.46-.06,2.19,1.37,2.09,2.85S198.31,245.62,195.44,245.47Zm15.67-58.88c-6.31,6.11-11.93,12.35-13.21,21.42-.22,1.58-1.29,1.52-2.45,1.51-3.37,0-6.73,0-10.09,0h-.75c-3.36,0-7.08.89-10-.27s-2.06-5.61-3.41-8.44a43.61,43.61,0,0,0-10-12.89c-10.07-9.49-13.81-21.26-10.56-34.65s12-22.39,25.46-26.22a35.49,35.49,0,0,1,40.4,16.55C224.68,157.5,222.66,175.41,211.11,186.59Z"/><path class="cls-1" d="M215.45,209.53a17.5,17.5,0,0,0-2.61,0c-2.58.22-3.07-.89-2.16-3.11a22.46,22.46,0,0,1,5.75-8.16c12.8-11.7,18.76-26,16.36-43.49A47.55,47.55,0,0,0,177,114.57c-22.39,4.14-39.35,24.43-39.27,47.17.05,13.79,5.28,25.42,15.25,34.93,2.61,2.49,5.33,4.86,6.85,8.29,1.81,4.1,1.63,4.47-2.93,4.55-4.72.08-7.1,2-7.18,6.19q-.18,8.79,0,17.58c.07,3.8,2.31,5.92,6.09,6.15a10,10,0,0,0,2.25,0c3.1-.52,3.88,1,3.63,3.78-.2,2.35-.06,4.73,0,7.1.06,4.94,2.14,7.05,7.06,7.09,5.61,0,11.22,0,16.83,0s11.47.05,17.21,0c4.5-.05,6.65-2.19,6.77-6.62a40.84,40.84,0,0,0-.05-6.73c-.53-3.86.94-4.92,4.7-4.68,4.74.31,7.19-1.86,7.29-6q.19-9,0-18C221.34,211.84,219.06,209.77,215.45,209.53Zm-20,35.94c-3.34-.18-6.7,0-10.05,0s-6.47-.15-9.69,0c-2.85.16-2-1.78-2.09-3.22s-.39-2.92,2.08-2.86q9.87.23,19.74,0c2.46-.06,2.19,1.37,2.09,2.85S198.31,245.62,195.44,245.47ZM197.9,208c-.22,1.58-1.29,1.52-2.45,1.51-3.37,0-6.73,0-10.09,0h-.75c-3.36,0-7.08.89-10-.27s-2.06-5.61-3.41-8.44a43.61,43.61,0,0,0-10-12.89c-10.07-9.49-13.81-21.26-10.56-34.65s12-22.39,25.46-26.22a35.49,35.49,0,0,1,40.4,16.55c8.13,13.91,6.11,31.82-5.44,43C204.8,192.7,199.18,198.94,197.9,208Z"/><path class="cls-1" d="M136.08,103.45c1.81,3.93.52,6.82-2.87,9.22a79.87,79.87,0,0,0-14.05,12.56c-2.72,3.1-5.74,3.49-9.29,1.92-3.12-4.57-3-6.34.75-10.42a99.3,99.3,0,0,1,15.59-13.8C130.26,100.05,132.16,100.15,136.08,103.45Z"/><path class="cls-1" d="M279.86,214.22c-6.39-.61-8-2.61-6.71-8.91a103,103,0,0,0,2.21-18.84c.07-4.42,1.5-6,6-7.06,4.29.81,5.91,2.53,5.9,6.6a101.14,101.14,0,0,1-2.76,23.11C283.92,211.77,282.63,213.63,279.86,214.22Z"/><path class="cls-1" d="M213.82,277c-.52-4.41,1.5-6.91,5.64-8.39,5.88-2.09,11.19-5.38,16.48-8.68,4.06-2.54,5.67-2.2,9.16,1.22,1.56,4.38,1,6.32-2.73,8.82a99.09,99.09,0,0,1-19.3,10.17C218.49,282,216.6,281.3,213.82,277Z"/><path class="cls-1" d="M179.66,89.78c-.5,4.8-1.76,6-6.6,6.82a100,100,0,0,0-18.26,4.58c-3.67,1.33-6.79.94-9.08-2.55-.93-4.85.34-7,5-8.72a112.23,112.23,0,0,1,20.82-5.18C176.05,84.06,178,85.26,179.66,89.78Z"/><path class="cls-1" d="M279.79,168.32c-4.09.15-6.45-1.93-7.45-5.77A77.35,77.35,0,0,0,265.56,145c-2-3.7-1.59-6.81,1.57-9.57,5-1.32,6.81-.48,9.2,4.22A97.79,97.79,0,0,1,283.74,159C285.08,164.05,284.4,165.75,279.79,168.32Z"/><path class="cls-1" d="M89.85,179.6c4.77,1.53,5.85,2.9,5.94,7.7a78.32,78.32,0,0,0,2.34,18.45c1.11,4.25-.25,7-3.84,9-5.1-.1-6.62-1.28-7.79-6.14a97.63,97.63,0,0,1-2.66-21.06C83.75,182.48,84.87,181,89.85,179.6Z"/><path class="cls-1" d="M126.38,260.47c3.33-2.46,6.6-2.32,10,0a88.2,88.2,0,0,0,16.81,8.8c4.14,1.75,5.15,4,4.06,8.22-2.85,3.9-4.51,4.43-8.84,2.72a102.09,102.09,0,0,1-18.49-9.55C125.11,267.6,124.54,265.94,126.38,260.47Z"/><path class="cls-1" d="M253,253.53c-2.29-3.29-2.09-6.28.62-9.38A80.53,80.53,0,0,0,264.66,228c1.86-3.64,4.82-4.23,8.41-3.47,3.84,3.4,4.16,5.47,1.68,10A97.73,97.73,0,0,1,263,251.58C259.49,255.61,257.86,255.92,253,253.53Z"/><path class="cls-1" d="M168.21,279.91c1.66-4.47,3.46-5.77,8.12-5.17a74.21,74.21,0,0,0,18.54,0c5.93-.71,8.1,1.61,8,8-1,2.6-3.07,3.62-5.76,3.91a97.79,97.79,0,0,1-22.23,0C170.21,286.13,168.68,284.68,168.21,279.91Z"/><path class="cls-1" d="M225,97.34c-2.06,4.25-4.22,5.3-8.58,3.83a109.13,109.13,0,0,0-19.84-4.73c-3.7-.52-5.54-3-5.85-6.67,1.69-4.41,3.63-5.72,8.08-5.12a104.91,104.91,0,0,1,21.59,5.28C223.91,91.18,225.7,93.51,225,97.34Z"/><path class="cls-1" d="M102.59,135.58c4.08,2.77,5,5.21,2.91,9.37a108.77,108.77,0,0,0-7.08,18.78c-1.19,4.22-3.49,5.46-7.8,4.7-3.77-1.39-4.57-4.31-3.71-7.79a99.34,99.34,0,0,1,8.23-21.76C96.71,135.83,99.27,134.81,102.59,135.58Z"/><path class="cls-1" d="M261,126.42c-3.67,2.25-6.72,1.43-9.51-1.69a79.31,79.31,0,0,0-14.14-12.5c-3.49-2.39-4.06-5.33-2.52-9,3.46-3.16,5.77-3.33,9.52-.67a99.39,99.39,0,0,1,15.93,14C263.62,120.15,263.76,122.32,261,126.42Z"/><path class="cls-1" d="M98,225c4.75-1.27,6.59-.58,8.83,3.61a83.6,83.6,0,0,0,10.74,15.53c2.69,3.1,2.9,6.1.62,9.4-4.79,2.41-6.48,2.07-10-2a99.76,99.76,0,0,1-12-17.49C94,230.16,94.44,228,98,225Z"/><path class="cls-2" d="M186,221.48c6.84,0,13.69.07,20.53,0,2.16,0,3.12.44,3.1,2.87s-.62,3.23-3.13,3.21q-20.91-.17-41.82,0c-2.15,0-3.12-.43-3.1-2.86s.62-3.27,3.13-3.22C171.76,221.58,178.86,221.48,186,221.48Z"/></g></g></svg>