<svg xmlns="http://www.w3.org/2000/svg" viewBox="0 0 371.22 371.1"><defs><style>.cls-1{fill:#004fab;}.cls-2{fill:#57a3fe;}</style></defs><g id="Layer_2" data-name="Layer 2"><g id="Layer_1-2" data-name="Layer 1"><path class="cls-1" d="M370.65,104.17c1.87-5.12-1-8.46-6.53-8.49q-16.83-.08-33.67,0c-4.35,0-6.05,1.34-7.15,5.55q-2.12,8.13-4.11,16.29c-1,4-4.05,1.52-6.12,2s-1.84-1.38-2-2.62c-.72-5.31-1.09-10.68-2.14-15.92C295.85,35.47,234-8.1,167.51,1.26,111.75,9.12,67.09,54.93,60.79,110.75c-.33,2.91.67,7-1.44,8.39s-6,.33-9.13.5c-1.84.11-2.32-.59-2.28-2.34.1-5,.12-10,0-15-.14-5.86-4.94-8.47-9.84-5.26Q20.62,108.56,3.3,120.31c-4.44,3-4.39,7.61.1,10.65q17.34,11.72,34.82,23.21c4.86,3.19,9.6.47,9.74-5.42.08-3.61,0-7.23,0-10.85,0-6.32,0-6.32,6.46-6.32,5.61,0,5.51,0,6.14,5.61,5.07,44.88,27.57,78.09,67,99.92,3.32,1.84,8.25,2.27,9.77,5.44s.22,7.58.44,11.43c.14,2.51-.42,3.65-3.19,3.35a64.63,64.63,0,0,0-7.1-.05c-5.67,0-7.7,2-7.72,7.6,0,11.34,0,22.69,0,34s0,22.45,0,33.67c0,6.69,1.77,8.49,8.32,8.5,6.23,0,12.47.09,18.7-.05,2.19,0,3.2.38,3,2.83a51,51,0,0,0,0,7.1,20.78,20.78,0,0,0,19.94,20c10.59.25,21.2.21,31.79,0a20.69,20.69,0,0,0,19.41-15.85c1-3.7.69-7.44.59-11.15-.06-2.3.55-3,2.89-2.92,6.73.17,13.47.1,20.2.05,4.49,0,6.87-2.23,6.88-6.55q.08-35.34,0-70.69c0-4.19-2.32-6.42-6.5-6.53-3.12-.08-6.24-.1-9.36,0-1.66.06-2.15-.52-2.1-2.14.1-3.49.19-7,0-10.47-.14-2.26.8-3.19,2.75-4a121.69,121.69,0,0,0,35.36-23.35Q307,183.5,311.06,134.64c.12-1.5-.26-3.6,2.39-3,2.07.44,5.06-1.65,5.9,2.41,1.11,5.35,2.58,10.63,3.95,15.93,1.09,4.2,2.81,5.55,7.16,5.56,11.22,0,22.44.05,33.66,0,5.48,0,8.4-3.39,6.53-8.5A60.39,60.39,0,0,1,370.65,104.17ZM194.81,359.1c-7.59-.36-15.2,0-22.81-.07-6.81,0-10.23-3.53-10.29-10.43-.06-7.52-.06-7.52,7.5-7.52H186c7,0,14,.08,20.93-.05,2.15,0,2.6.66,2.69,2.72C210.2,355.27,208,359.72,194.81,359.1Zm104.3-225c-5,46-28.6,78.4-71,97-6,2.62-6.53,3.15-6.53,9.67,0,4.49-.13,9,0,13.46.09,2.39-.53,3.17-3,3.13-11-.14-22-.06-32.92-.06s-21.95-.08-32.92.06c-2.49,0-3.16-.69-3.06-3.11.18-4.61.05-9.22.05-13.84,0-6-.67-6.91-6.18-9.16-27.63-11.29-48-30.35-60.8-57.29C50.31,105.42,93.59,24.52,168.59,13.21a113.81,113.81,0,0,1,129.9,97.86c1.14,8.54,1.14,8.54-7.58,8.54-4.12,0-8.26-.26-12.34.08-3,.25-3.44-1.1-3.75-3.54C270.68,83.2,253.73,59,223.94,44.54c-53.11-25.77-116.73,7.39-126.68,65.59-8.56,50,24.95,96.47,75.3,104.33,47.52,7.41,93.63-25.94,101.49-73.4.12-.73.33-1.46.44-2.2.36-2.33-.11-5.71,1.23-6.74,1.61-1.23,4.75-.51,7.23-.53,4.61,0,9.23.07,13.84-.05C298.77,131.49,299.33,132,299.11,134.08Zm-143.27-5.51a30.17,30.17,0,0,0,26.89,26.84A29.73,29.73,0,0,0,214,135c.89-2.83,2-3.54,4.85-3.46,7.48.21,15,.29,22.44,0,3.55-.15,4,.94,3.51,4.1-3.86,24.47-24.61,45.27-49.11,49.06-32.51,5-61.81-15.18-68.68-47.34-7.1-33.23,16.59-66.55,50.41-70.93,32.13-4.15,60.71,16.33,67.11,48.11.12.61.14,1.24.3,1.84.64,2.41.16,3.56-2.75,3.36-4-.28-8-.07-12-.07h-3c-3.62,0-7.5.82-10.78-.24s-2.87-5.76-4.57-8.64a30,30,0,0,0-55.89,17.84Zm179.88,15c-1.45,0-1.89-.62-2.17-1.87-.74-3.26-1.6-6.49-2.5-10.13,7.53,0,14.49,0,21.45,0,1.44,0,2.23.29,2.56,1.87.67,3.27,1.58,6.5,2.48,10.13C350.07,143.55,342.9,143.51,335.72,143.58Z"/><path class="cls-2" d="M185.68,329.11c-16.7,0-33.4-.05-50.1.05-2.73,0-3.91-.43-3.88-3.6q.26-26.35,0-52.71c0-3.1,1-3.66,3.83-3.65q50.1.12,100.21,0c2.73,0,3.9.43,3.87,3.6q-.24,26.35,0,52.71c0,3.11-1,3.68-3.83,3.66C219.08,329.05,202.38,329.11,185.68,329.11Z"/><path class="cls-2" d="M107.84,126.3c0-38.82,27.88-71.83,65.47-77.55,24.41-3.71,46.17,2.72,64.62,19.37a74.61,74.61,0,0,1,24.91,48.71c.14,1.25,1,3-1.44,2.75-1.79-.14-4.31,1-4.54-2.27a58.47,58.47,0,0,0-6.21-22.16c-11.46-23-29.82-37.08-55.43-40.58-24.68-3.37-45.58,4.73-62.69,22.75-18.67,19.66-24.06,51.53-13,76.27,10.57,23.57,28.63,37.76,53.85,42.8,28.36,5.66,60.22-9.37,74.38-34.82,4.77-8.58,8.19-17.59,9-27.43.29-3.5,2.79-2.44,4.71-2.53,2.58-.12,1.42,1.7,1.32,2.85-2.9,32.48-29.62,61.63-61.78,67.44-26.61,4.8-50-2-69.54-20.48-13.17-12.44-20.8-28.07-23-46.22A61,61,0,0,1,107.84,126.3Z"/><path class="cls-2" d="M192.63,119.63c-2.36,0-4.74-.11-7.1,0a5.95,5.95,0,0,0,.14,11.89c4.73.13,9.47.08,14.2,0,2.25,0,2.57.68,1.53,2.65-3.5,6.62-12.15,10.71-19.32,9a18.17,18.17,0,0,1-14.37-18c.12-8.17,6.12-15.28,14.51-17.21,7.17-1.65,16,2.58,19.25,9.16.84,1.68.8,2.56-1.36,2.51-2.49,0-5,0-7.48,0Z"/><path class="cls-2" d="M342.79,119.61c-3.23,0-6.46-.06-9.68,0-1.53,0-2-.46-1.6-1.95.75-2.74,1.48-5.5,2.08-8.28.35-1.62,1.37-1.78,2.72-1.78,6.33,0,12.66.06,19,0,1.7,0,2.27.5,1.74,2.13a6,6,0,0,0-.13.74C355,119.61,355,119.61,342.79,119.61Z"/><path class="cls-2" d="M35.78,138.18c-6-4-11.54-7.74-17.14-11.42-1.41-.93-1.21-1.54.07-2.38C24.29,120.7,29.84,117,35.78,113Z"/></g></g></svg>