<svg xmlns="http://www.w3.org/2000/svg" viewBox="0 0 371 377.03"><defs><style>.cls-1{fill:#004fab;}.cls-2{fill:#57a3fe;}</style></defs><g id="Layer_2" data-name="Layer 2"><g id="Layer_1-2" data-name="Layer 1"><path class="cls-1" d="M369.32,222.65Q358.61,203,347.83,183.34a11,11,0,0,1-1.54-6.37c.73-10.2,1.19-20.4-.05-30.62A126.15,126.15,0,0,0,241.46,37.44a8,8,0,0,1-4.55-2.17Q190.09-8.53,126.83,2C79.66,9.89,38.69,48.45,27.57,95.13a142.3,142.3,0,0,0-2.89,46,10,10,0,0,1-1.4,6Q12.36,167,1.61,186.83c-3.32,6.11-1.48,9.74,5.32,10.73,6.28.92,12.54,2.07,18.85,2.71,2.72.28,3.49,1.2,3.68,3.81,2,27.21,4.2,54.42,6.3,81.63.44,5.72,2.23,7.49,7.9,7.5,12.6,0,25.19.07,37.78,0,2.35,0,3.11.63,3.39,3C86.31,308.76,88,321.36,89.59,334c.74,5.72,2.41,7.14,8.3,7.14,11.22,0,22.44,0,33.66,0,2,0,2.78.32,2.53,2.63-.92,8.42-1.63,16.87-2.34,25.31-.46,5.48,1.81,8,7.19,8q67.51,0,135,0c4.85,0,6.78-1.74,7.38-6.5,1.55-12.35,3.18-24.71,4.56-37.08.36-3.25,1.22-4.65,4.89-4.41,6,.4,12,.11,17.94.11,6.61,0,13.22.06,19.83,0,4.06-.05,6.27-2.12,6.59-6.09,1-13.17,2-26.35,3-39.52,1.13-14.53,2.36-29.06,3.36-43.61.18-2.73,1.19-3.42,3.78-3.69,6.19-.64,12.34-1.68,18.49-2.64C371,232.44,372.74,228.93,369.32,222.65Zm-31.17,2.48c-6.23.8-7.72,2.34-8.18,8.46-2,27-4.11,53.93-6.05,80.91-.18,2.5-1.25,2.71-3.27,2.69-12.47-.07-24.94,0-37.4,0-5.65,0-7.38,1.5-8.08,7-1.64,12.72-3.32,25.44-4.82,38.18-.26,2.23-1,2.8-3.18,2.79q-60-.11-120.06,0c-2.81,0-2.93-1.12-2.73-3.28q2.49-26.23,4.86-52.48c1.58-17.25,3.12-34.5,4.77-51.74.35-3.65-1.63-5.77-4.15-7.8a113.38,113.38,0,0,1-32.8-42.93c-28.49-63.73,9.94-140.65,78-156C258,36.63,318.37,74.78,332.64,137.67c3,13.3,2.7,26.73,1.61,40.18a16.66,16.66,0,0,0,2.34,9.92c6.37,11.39,12.55,22.89,19.1,34.91C349.48,223.55,343.82,224.4,338.15,225.13Z"/><path class="cls-2" d="M15.37,186.71C21,176.4,25.68,166.33,31.66,157.05c4.74-7.37,5.57-14.94,4.8-23.14-2.25-24.16,3.29-46.59,15.93-67.09,19-30.79,46.72-48.85,82.47-54,29.64-4.25,60.78,4.22,83.82,22.63-5.17.6-10.13,1.1-15.08,1.76-23.2,3.06-43.76,12.35-61.76,27.1C120,82.18,105.4,104.9,99.22,132.43c-9.15,40.68-.52,77.49,26,109.91a97,97,0,0,0,14.22,14.28,4.75,4.75,0,0,1,2.1,4.7c-1.87,19.06-3.54,38.14-5.28,57.21-.25,2.85-.59,5.7-.74,8.55-.09,1.65-.87,2.07-2.37,2.07-10,0-20-.06-29.93,0-1.89,0-2.26-.92-2.45-2.46-.89-7.28-1.86-14.55-2.78-21.83-.78-6.16-1.45-12.34-2.33-18.49-.5-3.49-2.86-5.13-7.08-5.14-12.47,0-24.94-.1-37.41.06-3,0-3.94-.67-4.16-3.84-1.25-18.37-2.83-36.71-4.24-55.07-.63-8.06-1.2-16.13-1.66-24.2-.38-6.43-2.13-8.27-8.52-9C27,188.52,21.51,187.6,15.37,186.71Z"/><path class="cls-1" d="M221.53,74.72c-49.21-.16-89.7,40-89.91,89.09-.2,49.8,39.71,90.26,89.26,90.49s90.09-39.79,90.31-89.08A89.92,89.92,0,0,0,221.53,74.72Zm-6.11,127.17V191.46c0-8.84,0-17.69,0-26.53,0-4.91-2.18-7.06-7-7.15-2.86-.05-5.72-.07-8.58-.11-.07,0-.14-.17-.4-.53l28-31.49v12.68c0,8.09,0,16.19,0,24.29,0,4.89,2.19,7,7.05,7.12,2.93,0,5.86,0,9.54,0Z"/><path class="cls-2" d="M222.44,86.69c-43.82-.06-78.72,34.39-78.84,77.81-.11,42.69,34.85,77.71,77.7,77.83,42.51.12,77.83-34.9,77.92-77.27C299.31,122.19,264.6,86.76,222.44,86.69Zm-7,115.2V191.46c0-8.84,0-17.69,0-26.53,0-4.91-2.18-7.06-7-7.15-2.86-.05-5.72-.07-8.58-.11-.07,0-.14-.17-.4-.53l28-31.49v12.68c0,8.09,0,16.19,0,24.29,0,4.89,2.19,7,7.05,7.12,2.93,0,5.86,0,9.54,0Z"/><path class="cls-1" d="M262.79,161.4c-1.2-2.76-3.48-3.67-6.35-3.64-4.61.06-9.23-.14-13.83.07-2.72.13-3.35-.88-3.3-3.42.15-7.22.06-14.45.05-21.68,0-7.48,0-14.95,0-22.43,0-3-1.28-5.07-4.07-6.06s-4.89,0-6.72,2c-1.17,1.29-2.25,2.66-3.41,4q-21.85,24.54-43.73,49.08c-1.8,2-2.54,4.26-1.41,6.86s3.22,3.64,6,3.63c4.61,0,9.23.2,13.82-.07,3.09-.19,3.71,1,3.68,3.8-.13,14.46,0,28.91-.07,43.37,0,3.08,1.11,5.38,4.07,6.43s5.1-.1,7-2.23q23.3-26.27,46.62-52.5C263,166.42,264,164.17,262.79,161.4Zm-47.37,40.49V191.46c0-8.84,0-17.69,0-26.53,0-4.91-2.18-7.06-7-7.15-2.86-.05-5.72-.07-8.58-.11-.07,0-.14-.17-.4-.53l28-31.49v12.68c0,8.09,0,16.19,0,24.29,0,4.89,2.19,7,7.05,7.12,2.93,0,5.86,0,9.54,0Z"/></g></g></svg>