<svg xmlns="http://www.w3.org/2000/svg" viewBox="0 0 371.04 370.79"><defs><style>.cls-1{fill:#004fab;}.cls-2{fill:#57a3fe;}</style></defs><g id="Layer_2" data-name="Layer 2"><g id="Layer_1-2" data-name="Layer 1"><path class="cls-1" d="M366.42,233.6q-37.37-20-74.68-40.09a8.56,8.56,0,0,0-9.1.13c-7.92,4.46-16,8.65-24,12.93-1.17.63-2.2,1.43-3.74.38-7.6-5.19-15.29-10.25-23.16-15.49,1.37-.77,2.44-1.39,3.53-2q41.46-22.62,82.94-45.24c2.64-1.43,5-3,4.92-6.4,0-3.18-2.23-4.75-4.76-6.11q-18.56-10.05-37.06-20.18-32-17.43-63.9-34.91c-1.3-.71-3-1-2.69-3.37,1.53-13.29,1-26.65.48-39.95-.7-19.24-9-28.79-27.57-31.88-14.83-2.47-29.87-1-44.81-1a5.06,5.06,0,0,0-5.19,5.37c-.07,9.46-.67,19,.9,28.37,1.48,8.81,6,15.26,15,17.68,2,.54,2.08,1.65,2.09,3.25,0,5.49-.23,11,.41,16.43.34,2.91-.27,4.1-2.74,5.44q-50.22,27.24-100.34,54.66c-2.62,1.43-5,2.92-5,6.3s2.36,4.92,5,6.35q23,12.47,45.89,25l40.62,22.16c-8,5.31-15.67,10.38-23.27,15.57-1.57,1.06-2.59.16-3.74-.46-8.12-4.33-16.26-8.64-24.33-13.08a8.06,8.06,0,0,0-8.44-.07Q42.32,213.49,4.92,233.43c-2.65,1.41-5,3-4.92,6.38.07,3.19,2.27,4.71,4.81,6.07q37.38,20,74.69,40.06a8.11,8.11,0,0,0,8.44.05q37.47-20.17,75-40.22c2.57-1.38,4.64-3.06,4.56-6.24-.08-3-2.05-4.59-4.51-5.88-6.94-3.66-13.83-7.4-20.73-11.11l-15.45-8.31c8.1-5.42,15.73-10.51,23.34-15.63,1.37-.93,2.31,0,3.37.53,7.76,4.23,15.47,8.54,23.3,12.63a4.44,4.44,0,0,1,2.75,4.61q-.15,29.37,0,58.73c0,2.58-1,3.69-3,4.78-14.08,7.45-28.11,15-42.15,22.52Q120.26,310,106.1,317.54c-2.45,1.3-4.36,3-4.34,6s1.92,4.71,4.41,5.94c.56.27,1.11.56,1.66.86,24.25,13,48.53,25.89,72.7,39,3.63,2,6.53,1.9,10.08,0,24.08-13,48.25-25.9,72.39-38.82,3-1.59,6.32-2.91,6.28-7.07s-3.46-5.4-6.4-7l-1-.52-67.47-36.15c-1.46-.79-3-1.23-3-3.64.12-20.2.08-40.4,0-60.6a3.17,3.17,0,0,1,1.85-3.25c8.23-4.4,16.41-8.89,24.6-13.37,1-.55,1.87-1.06,3.05-.27,7.59,5.13,15.22,10.21,23.2,15.55-1.59.92-2.72,1.61-3.89,2.24q-16,8.57-31.94,17.07c-2.54,1.35-4.76,2.88-4.81,6.07-.06,3.4,2.27,5,4.92,6.38q37.38,20,74.69,40.06a7.83,7.83,0,0,0,8.1.1q37.65-20.25,75.36-40.39c2.45-1.31,4.41-2.94,4.44-5.93C371.08,236.6,369,235,366.42,233.6Zm-203.51-134c-6.73,2.57-13.49,5.1-20.22,7.69-11,4.22-17,12.93-17,24.7,0,12.35,0,24.69,0,37a7.41,7.41,0,0,1-.26,1.14L67.11,138.33c.36-1.65,1.81-1.79,2.8-2.33q44.72-24.47,89.46-48.83c2.58-1.41,7.52,1,8.15,3.92C168.48,95.61,167.25,97.89,162.91,99.55Zm28.55,200c.14-2.36,0-4.73,0-7.78l59.12,31.67c-4.39,2.39-8.16,4.48-12,6.51q-25.17,13.5-50.33,27c-1.76.94-3.18,1.32-5.16.24Q153,340.87,122.66,324.73c-.53-.28-1-.64-2.07-1.33l59-31.59c0,3-.11,5.38,0,7.74a5.95,5.95,0,1,0,11.89,0ZM185.55,83.88c-9.78,0-17.63-6.85-18-15.85-.14-4,.06-8-.08-12-.07-2,.71-2.53,2.6-2.49,5.11.11,10.22,0,15.33,0v.07c5.23,0,10.47.06,15.7,0,1.76,0,2.42.51,2.36,2.34-.12,4.11.1,8.23-.09,12.33C203,77.14,195.2,83.86,185.55,83.88Zm20.81,15.3c-2.74-1.14-4.14-6.85-2.29-9.26,3.13-4,4.69-4.36,9.13-1.94q43.74,23.89,87.5,47.76c1.08.59,2.14,1.22,3.92,2.24L245.38,170.3V132.87c0-12.14-5.41-20-16.62-24.4C221.25,105.48,213.82,102.3,206.36,99.18Z"/><path class="cls-2" d="M161.57,164.44c0-7.48,0-15,0-22.43,0-4.46-2.25-7-5.95-7.06s-6,2.57-6,7c0,12.59-.08,25.18,0,37.76,0,3.12-.74,3.24-3.28,1.9-8.7-4.58-8.74-4.51-8.74-14.15q0-17.58,0-35.15c0-7.22,2.88-11.37,9.58-13.95,8-3.09,15.92-6.49,24.08-9.13,5.56-1.8,8.45-4.89,8.09-10.73-.17-2.69.68-3.64,3.45-2.85a8.06,8.06,0,0,0,4.43.14c4.23-1.37,4.6.84,4.24,4.08-.47,4.32,1.37,6.86,5.55,8.46,9.29,3.57,18.41,7.57,27.6,11.4,6.61,2.75,8.74,6,8.74,13.19,0,13.33-.08,26.67.08,40,0,2.9-.87,4.4-3.43,5.78-8.68,4.71-8.61,4.84-8.61-4.81q0-15.71,0-31.41c0-4.84-2.07-7.46-5.85-7.54-3.94-.08-6.11,2.6-6.11,7.65,0,14.71-.05,29.41,0,44.12,0,2.27-.61,3.56-2.7,4.65-6.52,3.38-12.92,7-19.33,10.59a3.3,3.3,0,0,1-3.74,0q-9.92-5.59-20-10.87a3.64,3.64,0,0,1-2.18-3.82C161.62,179.65,161.57,172,161.57,164.44Z"/><path class="cls-2" d="M352.39,239.65c-9.25,5-17.64,9.58-26.06,14.1-12,6.41-24,12.73-35.9,19.22a5.76,5.76,0,0,1-6.22,0q-29.9-16.19-59.88-32.19c-.42-.22-.8-.55-1.52-1.05,5-3.6,10.52-5.87,15.62-8.81,4.74-2.74,9.71-5.08,14.47-7.79a4.27,4.27,0,0,1,5.35.35c4.24,3.06,8.65,5.88,13,8.73,3.49,2.27,6.9,1.82,8.91-1.06s1.23-6.46-2.33-8.92c-3.25-2.26-6.54-4.45-10.2-6.92,6.32-3.39,12.24-6.55,18.15-9.73a3.19,3.19,0,0,1,3.2.13C309.85,216.89,330.7,228,352.39,239.65Z"/><path class="cls-2" d="M103.45,215.31c-3.69,2.49-6.89,4.62-10.07,6.78-3.68,2.52-4.65,5.76-2.69,8.85s5.52,3.6,9.46,1c4.37-2.87,8.7-5.8,13.07-8.68,1-.66,1.88-1.67,3.34-.89,10.49,5.63,21,11.24,31.93,17.08-4.77,3.52-9.68,5.63-14.32,8.15-15.75,8.57-31.63,16.92-47.42,25.41-1.91,1-3.51,1.34-5.56.23Q51,256.91,20.64,240.7a13.58,13.58,0,0,1-1.49-1.17c5.52-3,10.69-5.91,15.91-8.71,15.15-8.12,30.34-16.16,45.45-24.35a6,6,0,0,1,6.56,0C92.25,209.46,97.57,212.16,103.45,215.31Z"/><path class="cls-2" d="M166.93,12.22c5,.19,10.95-.08,16.93.62,12.79,1.5,18.31,6.88,19.52,19.79.88,9.37.88,9.35-8.4,9.37-10.46,0-20.93.1-31.38-.59-1.73-.11-3.44-.48-5.17-.7-4.55-.59-7.09-3.26-8-7.68-1.19-6.16-.83-12.41-.95-18.63,0-2,1-2.22,2.58-2.2C156.73,12.25,161.34,12.22,166.93,12.22Z"/></g></g></svg>