<svg xmlns="http://www.w3.org/2000/svg" viewBox="0 0 371.1 323.14"><defs><style>.cls-1{fill:#004fab;}.cls-2{fill:#57a3fe;}</style></defs><g id="Layer_2" data-name="Layer 2"><g id="Layer_1-2" data-name="Layer 1"><path class="cls-1" d="M362.49,131.73H7.89c-5.92,0-7.95,2-7.89,7.78a180.11,180.11,0,0,0,6.52,46.86c26.88,96.16,121.3,153.32,218.87,132.51C309,301.06,370.65,225.48,371.1,140.3,371.14,133.48,369.38,131.73,362.49,131.73Zm-171,14.59c0-2.15.66-2.69,2.73-2.66,8.1.11,16.21,0,24.31,0s16,.08,23.94,0c2.26,0,3,.49,2.86,2.89A214.69,214.69,0,0,1,238.65,190c-.63,2.37-1.66,2.39-3.72,1.9a197.69,197.69,0,0,0-40.65-5.53c-2-.06-2.81-.45-2.8-2.67Q191.65,165,191.49,146.32Zm2.83,52a206.9,206.9,0,0,1,36.91,5c1.57.37,2.94.51,2,2.78-5.92,14-13.13,27.09-25.24,36.83a41.07,41.07,0,0,1-13.74,7.3c-2.19.67-2.78.35-2.75-2,.11-8,0-15.93,0-23.9,0-7.72.08-15.43-.05-23.15C191.45,199,191.89,198.16,194.32,198.28Zm-65.39-54.64c8,.18,16,.06,23.94.06s15.72.08,23.57,0c2.28,0,3.22.36,3.19,3q-.23,18.31,0,36.65c0,2.47-.72,3.07-3.11,3.14a191.31,191.31,0,0,0-40.28,5.5c-2.4.58-3.22.13-3.84-2.21A212.29,212.29,0,0,1,125.77,147C125.62,144.36,126.24,143.57,128.93,143.64Zm50.63,81c0,7.84-.05,15.68,0,23.52,0,2.17-.34,2.79-2.69,2.07-10.49-3.19-18.15-10.08-24.68-18.47a106.47,106.47,0,0,1-14-25c-.8-1.93-1.07-2.89,1.59-3.51a210.72,210.72,0,0,1,36.91-5c2.31-.12,2.95.5,2.91,2.83C179.47,209,179.56,216.8,179.56,224.65ZM329,146.33A144.11,144.11,0,0,1,212.25,278.88a138.84,138.84,0,0,1-26.76,2.5c-68.84,0-128-49-141.1-117-1.15-6-1.48-12.11-2.29-18.15-.27-2,.29-2.65,2.32-2.58a111,111,0,0,0,12,0c2.95-.22,3.74.89,3.93,3.63a116.92,116.92,0,0,0,15.8,52.06c22.12,37.51,54.81,59.37,98.3,63.4a125.26,125.26,0,0,0,134.4-100.38,146.66,146.66,0,0,0,2.05-15.93c.21-2.31,1-2.85,3.2-2.76,4.1.18,8.23.14,12.34,0C328.44,143.6,329.15,144.06,329,146.33Z"/><path class="cls-1" d="M125.68,85.09c0-16.25-6.79-28.82-20.72-37.3-2-1.23-1.77-2.15-.83-3.77a27.32,27.32,0,0,0,3.53-12.08A29.92,29.92,0,0,0,55.9,9.56a29.63,29.63,0,0,0-4.68,34c1.12,2.15,1.22,3.09-1.09,4.53-13.28,8.3-20,20.44-20.19,36.09-.13,11.22,0,22.44,0,33.66,0,5.89,2,7.89,7.79,7.9q20,0,40,0,19.82,0,39.64,0c6.55,0,8.32-1.81,8.32-8.49C125.69,106.53,125.71,95.81,125.68,85.09ZM77.56,47.9A17.94,17.94,0,1,1,95.73,30,18,18,0,0,1,77.56,47.9Z"/><path class="cls-1" d="M341.13,83.5C340.82,68.16,334,56.26,321,48.1c-2.25-1.41-2.35-2.26-1.2-4.49a29.88,29.88,0,1,0-53.06,0c1.19,2.28,1,3.12-1.23,4.5-13.24,8.35-20,20.49-20.11,36.14-.11,11.22,0,22.44,0,33.66,0,5.84,2,7.8,7.88,7.81q20,0,40,0,20.19,0,40.38,0c5.37,0,7.47-2.11,7.49-7.46C341.2,106.69,341.37,95.09,341.13,83.5ZM293,47.9a17.94,17.94,0,1,1,18.24-17.83A18,18,0,0,1,293,47.9Z"/><path class="cls-1" d="M233.38,83.48c-.32-15.33-7.11-27.24-20.11-35.39-2.28-1.42-2.32-2.29-1.18-4.5a29.88,29.88,0,1,0-53.05,0c1.19,2.31.9,3.13-1.26,4.49-13.24,8.36-19.95,20.51-20.1,36.16-.11,11.22,0,22.44,0,33.66,0,5.82,2,7.78,7.9,7.79q20,0,40,0,20.2,0,40.39,0c5.36,0,7.46-2.11,7.47-7.48C233.45,106.67,233.62,95.07,233.38,83.48ZM185.5,47.9a17.94,17.94,0,1,1,18-18.08A18,18,0,0,1,185.5,47.9Z"/><path class="cls-2" d="M185.54,311.38c-41.64-.69-79-13.52-111-40.38-33.32-27.9-53.4-63.5-60.35-106.42-.93-5.76-1.37-11.6-2.09-17.4-.31-2.41.2-3.7,3.07-3.53,4,.22,8,.14,12,0,2-.06,2.83.46,3,2.63A171,171,0,0,0,35.51,179a154.3,154.3,0,0,0,42.72,71.19c23.78,22.73,52,36.87,84.44,41.42,45.78,6.43,87-5,122.61-34.72C314,233,331.64,202.26,338.66,165.56c1.21-6.33,1.71-12.81,2.31-19.24.2-2.14,1-2.71,3-2.65q6.16.18,12.34,0c2.07-.06,2.89.54,2.75,2.75-2.38,36.67-14.3,69.71-37.18,98.68a172.15,172.15,0,0,1-59.23,48.14A169.66,169.66,0,0,1,199,310.72C194.51,311,190.05,311.26,185.54,311.38Z"/><path class="cls-2" d="M93.05,143.7c6,0,12,.08,17.94,0,2.1,0,2.74.65,2.84,2.76a201.47,201.47,0,0,0,7.22,46.67c.55,1.92.48,3.09-1.87,3.84a111.54,111.54,0,0,0-20.81,9.17c-2.09,1.18-3.14.81-4.49-1.05A113.23,113.23,0,0,1,73.32,156c-.5-3.06-.59-6.2-1.19-9.23-.48-2.41.25-3.1,2.6-3.05C80.83,143.78,86.94,143.7,93.05,143.7Z"/><path class="cls-2" d="M278.28,143.7c6.1,0,12.21,0,18.32,0,1.85,0,2.67.37,2.47,2.53-2,21.41-8.92,40.94-21.56,58.44-1.68,2.32-2.94,2.56-5.33,1.18A108.14,108.14,0,0,0,252,197c-2.17-.71-2.64-1.67-2-3.75a203.58,203.58,0,0,0,7.27-47c.1-2,.81-2.54,2.69-2.52C266.06,143.76,272.17,143.71,278.28,143.7Z"/><path class="cls-2" d="M104.19,216.63A136.34,136.34,0,0,1,123.38,208c2.52-1,2.72.69,3.27,2.12a117.69,117.69,0,0,0,10.95,21.55c2.67,4.11,5.69,8,8.6,12.06C136.79,242.41,113.5,228,104.19,216.63Z"/><path class="cls-2" d="M267.12,216.72A104.93,104.93,0,0,1,225,243.84a161.9,161.9,0,0,0,12.67-19.23,128.89,128.89,0,0,0,6.86-14.87c.74-1.9,1.51-2.35,3.54-1.59A136,136,0,0,1,267.12,216.72Z"/><path class="cls-2" d="M77.68,113.77c-10.83,0-21.67-.08-32.51.06-2.63,0-3.39-.76-3.35-3.37.15-9.09-.22-18.19.14-27.27.5-12.57,6.69-21.58,18.16-26.89a3.94,3.94,0,0,1,3.85.07c9.14,4.76,18.37,4.79,27.53.07a4.24,4.24,0,0,1,4.18,0c11.44,5.4,17.53,14.45,18,27,.31,9.09,0,18.19.12,27.28,0,2.5-.8,3.15-3.2,3.13C99.61,113.71,88.65,113.77,77.68,113.77Z"/><path class="cls-2" d="M185.56,113.77c-10.71,0-21.43-.13-32.13.08-3.22.06-3.94-1-3.87-4,.2-8.72-.14-17.45.12-26.16.38-12.75,6.49-21.88,18.07-27.35a4.27,4.27,0,0,1,4.18.15,28.37,28.37,0,0,0,27.2,0,4.53,4.53,0,0,1,4.52,0C215.06,62,221,71.09,221.41,83.66c.27,8.83-.09,17.69.13,26.53.08,3.12-1,3.68-3.84,3.64C207,113.69,196.28,113.77,185.56,113.77Z"/><path class="cls-2" d="M293.17,113.77c-10.83,0-21.67-.08-32.51.06-2.65,0-3.38-.78-3.34-3.38.15-9.09-.23-18.19.14-27.27.5-12.57,6.69-21.58,18.17-26.89a3.92,3.92,0,0,1,3.84.09c9.15,4.75,18.37,4.78,27.53,0a4.24,4.24,0,0,1,4.18,0c11.45,5.4,17.53,14.46,18,27,.31,9-.06,17.94.13,26.91.06,2.86-.86,3.54-3.6,3.5C314.85,113.68,304,113.77,293.17,113.77Z"/></g></g></svg>