<svg xmlns="http://www.w3.org/2000/svg" viewBox="0 0 371.12 371.16"><defs><style>.cls-1{fill:#004fab;}.cls-2{fill:#57a3fe;}.cls-3{fill:#56a3fe;}.cls-4{fill:#4391ec;}</style></defs><g id="Layer_2" data-name="Layer 2"><g id="Layer_1-2" data-name="Layer 1"><path class="cls-1" d="M371.09,81.58c0-12.71-9-21.61-21.66-21.71-4,0-8-.16-12,.05-2.64.14-4.12-.6-5.57-3.05a35.76,35.76,0,0,0-55.39-7.72c-2.91,2.74-5.77,5.53-8.46,8.47a6.74,6.74,0,0,1-5.53,2.3q-40.77-.12-81.54,0c-2.77,0-3.73-.89-4.45-3.43-9-31.9-37.9-55-70.51-56.43C69.07-1.57,37.07,21.38,26.89,57c-.67,2.36-1.67,3-4.06,3C8.39,59.92,0,68.48,0,83V300c0,14.75,8.47,23.26,23.13,23.26q54.42,0,108.84,0c1.32,0,2.7-.34,4.08.39-.44,1.95-.87,3.89-1.31,5.82-.85,3.76-.57,8.66-2.87,11s-7.35.59-11.17.75c-4.69.18-6.9,2.24-7,6.87-.06,5.36,0,10.72,0,16.08.05,4.82,2.25,6.94,7.2,7,4.24,0,8.48,0,12.71,0H248.86c6.8,0,8.52-1.75,8.52-8.67,0-4.74,0-9.48,0-14.22s-2.24-7-7.16-7q-4.86-.06-9.72,0c-1.4,0-2.28-.21-2.57-1.89-.93-5.26-2-10.49-3.14-16.08H347.94c14.66,0,23.16-8.52,23.16-23.22q0-57.79,0-115.59Q371.11,133,371.09,81.58Zm-90.24-20c5-7.27,16-11.63,25.15-9.8a24.2,24.2,0,0,1,18.61,18.77c.29,1.58.32,3.21.47,4.82.05,8.43-4.27,14.59-10.14,20-1.06,1-1.62.56-2.4-.22Q296.85,79.38,281.13,63.7C280.46,63,280.16,62.57,280.85,61.55ZM265.13,77.28a57.9,57.9,0,0,0,4.25-4.19c.61-.61,1.16-1.34,2.18-1.23s1.72.9,2.41,1.59c9.87,9.84,19.69,19.74,29.62,29.52,1.54,1.52,1.42,2.32,0,3.81-6.53,6.64-6.48,6.69-13,.15-8.45-8.45-16.85-17-25.39-25.31C263.41,79.93,263.19,78.85,265.13,77.28ZM170.82,239c-2.3,1.11-5,1.37-7.55,2-1.21.28-1.8-.61-2.5-1.3-8-8-16-16.07-24.08-24a3.07,3.07,0,0,1-1-3.63c1-2.73.56-6,3-8.24,1-.95,1.69-1.53,3-.22,10.35,10.45,20.82,20.78,31.13,31.26C175.31,237.3,172,238.38,170.82,239ZM101.39,12c36.32-.05,66,29.18,66.19,65.1a65.83,65.83,0,1,1-131.66.74C35.8,41.82,65.43,12,101.39,12ZM242,353.15c2.21,0,3.61,0,3.59,3s-1.18,3.09-3.51,3.08c-18.81-.08-37.63-.05-56.44-.05s-37.62,0-56.43,0c-2.21,0-3.61.05-3.59-3s1.18-3.08,3.51-3.08Q185.51,353.23,242,353.15Zm117.23-55.83c-.25,1.71,0,3.49-.08,5.23a9,9,0,0,1-8.6,8.7c-1,.07-2,0-3,0H23.57c-9.46,0-14.84-7.94-11.59-17,.36-1,1-.94,1.71-1,1,0,2,0,3,0H185.75q84.74,0,169.45-.09C358.54,293.23,359.64,294.07,359.18,297.32Z"/><path class="cls-2" d="M253,72.21c-.39,1.41-1.64,2.12-2.56,3Q190,135.73,129.54,196.13a14.29,14.29,0,0,0-4.18,7.26c-3.86,17.35-7.92,34.66-11.84,52-1.15,5.09,2.33,8.62,7.4,7.48,17.82-4,35.62-8.14,53.44-12.19a9.53,9.53,0,0,0,4.76-2.75q73.77-73.81,147.54-147.62c6.82-6.83,10.4-15.15,10.1-24.89-.09-2.7.49-3.88,3.44-3.64s6.23,0,9.34.07c5.91.13,9.51,3.72,9.58,9.66.07,7.48,0,15,0,22.45q0,86.4.09,172.81c0,3.84-1,4.67-4.73,4.67q-168.88-.17-337.75-.09c-5.4,0-4.77.57-4.77-4.81q0-96.89,0-193.77c0-6.38,3.07-10.34,8.32-10.91,2.48-.27,3.88.09,3.73,3.26a72.28,72.28,0,0,0,7.66,36.52c11.67,23.08,30.18,37.65,55.76,42.53,22.78,4.35,43.58-.73,61.88-14.9,17-13.19,26.87-30.67,29.62-52.13a85.36,85.36,0,0,0,.56-12.67c0-1.88.47-2.66,2.49-2.66,23.44.06,46.88,0,70.32.06C252.52,71.87,252.71,72.07,253,72.21Z"/><path class="cls-2" d="M170.21,214.56c-1.42-.23-2-1.28-2.78-2-6.12-6-6.11-6-.11-12q48.52-48.52,97-97.12c2.38-2.39,3.59-2.3,5.81.06,5.49,5.81,5.61,5.7,0,11.3l-97.32,97.33C172,213,171,213.78,170.21,214.56Z"/><path class="cls-2" d="M185.22,341.21c-12.32,0-24.65-.06-37,.05-2.72,0-4.16-.21-3.14-3.54,1.19-3.91,2-8,2.78-12,.34-1.71.9-2.55,2.85-2.54q34.72.09,69.45,0c1.83,0,2.58.54,2.88,2.45a115.85,115.85,0,0,0,2.51,12.4c.72,2.73-.21,3.19-2.65,3.17C210.36,341.17,197.79,341.21,185.22,341.21Z"/><path class="cls-3" d="M258.94,92c-1.15,1.24-1.88,2.06-2.65,2.84L190.5,160.63c-11.63,11.63-23.29,23.23-34.85,34.92-1.8,1.81-2.92,2.41-5.09.29-2.38-2.31-.67-3.3.71-4.69Q201.61,140.81,252,90.49c.85-.84,1.5-2.75,3.22-1.72A30.21,30.21,0,0,1,258.94,92Z"/><path class="cls-3" d="M182.52,227.26a9,9,0,0,1-3.43-3.31c-.78-1.3.61-2,1.34-2.73q13.44-13.5,26.94-27,37-37,73.91-74.06c2.49-2.52,3.76-2.18,5.73.17,1.07,1.28,1,2.09-.14,3.09-.47.4-.88.87-1.32,1.31q-50.07,50.08-100.16,100.15C184.54,225.76,183.87,226.89,182.52,227.26Z"/><path class="cls-3" d="M127.88,246.85c1.32-6.12,2.63-12.23,3.9-18.13l15.87,15.88-18.13,3.89Q127.06,249.32,127.88,246.85Z"/><path class="cls-4" d="M127.88,246.85a1.61,1.61,0,0,0,1.64,1.64c-.52.54-1.24.9-1.84.44C126.85,248.27,127.3,247.5,127.88,246.85Z"/><path class="cls-1" d="M101.64,18C68.74,17.9,41.94,44.84,41.91,78c0,32.55,26.84,59.54,59.4,59.65,33.15.11,60.24-26.63,60.28-59.5A59.87,59.87,0,0,0,101.64,18ZM101.3,125.7C75.12,125.61,53.85,104,53.88,77.56c0-26.16,21.73-47.71,47.95-47.62a47.88,47.88,0,1,1-.53,95.76Z"/><path class="cls-1" d="M95.85,95.78c3.74,0,7.48.06,11.22,0,4.07-.08,6.67-2.51,6.63-6s-2.63-5.84-6.76-5.9c-3.73-.07-7.48,0-11.21,0a17.94,17.94,0,0,1-3.24-35.58c1.81-.37,3.39-.39,4-2.81S99.29,42,101.74,42s4.6,1.07,5.26,3.42,2,2.64,4,2.54c2.24-.11,4.49,0,6.73,0,5.1,0,7.84,2.07,7.9,5.89s-2.74,6.06-7.73,6.07c-6.86,0-13.71,0-20.56,0-4.81,0-7.49,2.11-7.57,5.85s2.71,6.09,7.68,6.12c3.37,0,6.73,0,10.1,0a17.94,17.94,0,0,1,3.25,35.61c-1.75.34-3.12.44-3.74,2.61-.73,2.52-2.92,3.69-5.52,3.62-2.44-.07-4.49-1.23-5.17-3.59-.63-2.18-1.85-2.48-3.77-2.38-2.61.14-5.23.07-7.85,0-4.36-.08-7-2.43-7-6.09s2.65-5.8,6.8-5.86C88.37,95.74,92.11,95.78,95.85,95.78Z"/></g></g></svg>