<svg xmlns="http://www.w3.org/2000/svg" viewBox="0 0 371.08 329.4"><defs><style>.cls-1{fill:#2367b7;}.cls-2{fill:#2c6dba;}.cls-3{fill:#3070bb;}.cls-4{fill:#2f6fbb;}.cls-5{fill:#57a3fe;}.cls-6{fill:#004fab;}.cls-7{fill:#56a3fd;}</style></defs><g id="Layer_2" data-name="Layer 2"><g id="Layer_1-2" data-name="Layer 1"><path class="cls-1" d="M83.79,107.79V105l.64,0v6C84.22,109.92,84,108.85,83.79,107.79Z"/><path class="cls-2" d="M84.42,92.61V97.3c-.23-.18-.5-.27-.54-.43a5.49,5.49,0,0,1-.09-1.08Z"/><path class="cls-3" d="M287.31,95.79l-.12,1.43-.52,0V92.63C286.89,93.68,287.1,94.74,287.31,95.79Z"/><path class="cls-4" d="M286.67,111v-4.69c.24.18.5.28.55.43a6.5,6.5,0,0,1,.09,1.09Z"/><path class="cls-5" d="M185.17,281.38c-14.58,0-29.16-.06-43.74.06-2.77,0-3.92-.5-3.85-3.64.22-9.71.15-19.44,0-29.15,0-2.36.54-3.31,3.09-3.24,6,.17,12,.14,17.94,0,2.25,0,3.08.6,3,2.94-.16,4.73-.09,9.47,0,14.21s2.21,6.81,6.93,6.82q17,.08,34,0c4.71,0,6.86-2.16,6.92-6.84s.08-9.47,0-14.2c0-1.95.34-3,2.63-2.93q9.34.2,18.69,0c2.22,0,2.7.86,2.69,2.87-.08,10.09-.14,20.19,0,30.28.05,2.9-1.45,2.84-3.48,2.83Q207.59,281.36,185.17,281.38Z"/><path class="cls-6" d="M357.75,84.5a17.47,17.47,0,0,0-20.26,8.77c-1.15,2.14-2.4,2.6-4.61,2.58-15.19-.09-30.38,0-45.57-.06-.06.37-.32.45-.45.1s.09.15.06-.35a8.47,8.47,0,0,0-.25-2.92c-.51-11.36-4-22-8.25-32.73,6.89,0,13.25,0,19.6,0,5.09,0,7.2-2.18,7.24-7.33,0-4.74,0-9.48,0-14.21,0-.86-.56-2.36,1-2.31,2.71.08,5.55-1.18,7.46,2.75,3.37,7,11.65,10.39,19,8.78a17.92,17.92,0,0,0,3.55-34.08c-7.31-3.13-16.33-1.71-20.45,5-3.44,5.61-7.63,5.93-12.88,5.5a24.86,24.86,0,0,0-3,0c-4.39.14-6.57,2.33-6.64,6.78s-.26,9,.06,13.46c.24,3.3-1,3.94-3.94,3.76a98.43,98.43,0,0,0-13.08,0c-3.42.25-5.27-1.09-7.13-3.86C245.21,8.31,198.65-8.3,157.37,4.05,133.55,11.18,114.62,25,100.81,45.67A4.29,4.29,0,0,1,96.63,48c-5.23-.16-10.48-.22-15.7,0-2.78.12-3.29-.89-3.18-3.38.2-4.48.09-9,0-13.47,0-4.92-2.18-7.08-7-7.16-2.62,0-5.25-.15-7.86,0s-4.29-.51-5.76-3.2c-4.45-8.14-14.69-11-23-7A17.94,17.94,0,0,0,46.86,47.17a16.9,16.9,0,0,0,11.08-9.34c1.56-3.37,4.31-1.67,6.49-1.78,2.59-.12,1.28,2.24,1.33,3.41.18,4.23.06,8.47.08,12.71,0,5.65,2,7.69,7.6,7.71,6.31,0,12.63,0,19.27,0C88.34,70.66,85,81.28,84.42,92.61c-.63,1,.31,2.26-.63,3.18-15.2,0-30.4,0-45.59.07-2.22,0-3.47-.47-4.6-2.61a17.43,17.43,0,0,0-20.26-8.76,17.89,17.89,0,0,0,0,34.6,17.44,17.44,0,0,0,20.27-8.75c1.13-2.15,2.38-2.62,4.6-2.61,15.19.1,30.39.06,45.59.06a2.7,2.7,0,0,0,.3-2.11c0-.21-.09-.3-.23-.29-.5,0,.17-.35.18-.2.36,2.15-.18,4,.39,5.79.48,11.34,3.91,22,8.26,32.72h-7c-22.06,0-19.88-2.2-19.91,19.72,0,.88,0,1.75,0,2.62s0,1.63-1.07,1.56c-2.72-.21-5.55,1.11-7.45-2.83-3.35-7-11.65-10.36-19-8.73a17.94,17.94,0,0,0-3.83,34C41.7,193.24,51,192,55,185.33c3.63-6,8.08-6.12,13.56-5.72.74,0,1.49,0,2.24,0,4.67-.1,6.9-2.24,7-6.86.06-4.86.1-9.72,0-14.58-.05-1.93.46-2.6,2.48-2.55,5.24.14,10.48.19,15.71,0a5.11,5.11,0,0,1,5.11,2.71,103.12,103.12,0,0,0,25.54,26.5c3.63,2.69,9.3,3.62,10.75,7.91s.31,9.12.31,13.74c0,.12,0,.25,0,.37.32,2-.39,2.89-2.6,2.75-3-.18-6-.11-9,0-4,.13-6.3,2.33-6.35,6.29-.1,7.73,0,15.47,0,23.2,0,2.58.93,4.93,3.44,5.64s2.58,2.35,2.57,4.41c-.06,12,0,23.94,0,35.91,0,6.56,1.8,8.32,8.49,8.34a8.34,8.34,0,0,0,1.12,0c2.12-.32,2.84.48,3.36,2.69,3.73,15.83,13.46,26.34,28.9,31.43,7.85,2.59,16,1.85,24.11,1.77a41.39,41.39,0,0,0,40.41-32c.79-3.29,2-4,5.12-3.91,6.34.2,8.2-1.8,8.2-8.18,0-12.22,0-24.44,0-36.66,0-1.74.06-2.92,2.15-3.53,2.68-.78,3.84-3,3.85-5.78,0-7.73.08-15.47,0-23.2-.06-4.12-2.4-6.28-6.65-6.38-3-.07-6-.1-9,0-1.77.08-2.38-.47-2.33-2.29.11-4.49.09-9,0-13.47a3.18,3.18,0,0,1,1.82-3.27,100.64,100.64,0,0,0,35.45-33.08,3.45,3.45,0,0,1,3.28-1.84c5.61.1,11.23.16,16.83,0,2.35-.07,2.59.93,2.55,2.86-.11,4.86-.1,9.73,0,14.59.07,4.19,2.31,6.41,6.5,6.54a72.39,72.39,0,0,0,8.59,0c2.71-.25,4.1.65,5.44,3.11a17.49,17.49,0,0,0,20.2,8.2,17.9,17.9,0,0,0-.19-34.53c-8.05-2.17-16.38,1.11-20.25,8.76-1.92,3.79-4.81,2.68-7.25,2.34-2.18-.3-1-2.89-1-4.39-.08-21.4,1.9-19.34-19.6-19.35H278.4c4.36-10.78,7.75-21.41,8.27-32.73.64-1-.3-2.26.64-3.17,15.31,0,30.63,0,45.94,0,1.89,0,3.05.31,4.06,2.23a17.49,17.49,0,0,0,20.43,9.11,17.88,17.88,0,0,0,0-34.59ZM219.88,297c-4.43,11.48-12.67,18.49-24.84,20-7.13.85-14.48,1.12-21.61-.43-11.11-2.41-18.44-9.26-22.34-19.92-.9-2.48-.72-3.39,2.31-3.34,10.72.17,21.45.07,32.17.07s21.21.14,31.8-.09C220.9,293.2,220.91,294.39,219.88,297Zm-37.31-51.56h6c10,0,10,0,9,10.09-.13,1.43-.52,1.91-1.95,1.9q-10.06-.07-20.12,0c-1.44,0-1.82-.48-2-1.91C172.6,245.46,172.56,245.47,182.57,245.47Zm53-24c3,0,4,.6,3.91,3.8-.24,8.24-.07,8.24-8.35,8.24H185.57c-16.82,0-33.64-.06-50.45.07-2.71,0-3.58-.53-3.52-3.42.16-8.62,0-8.62,8.72-8.62C172.08,221.52,203.84,221.57,235.6,221.45Zm-6.88-41.15c-5.54,2.94-8,6.32-7.35,12.56.48,4.56,0,9.22.15,13.83.09,2.3-.54,2.94-2.88,2.92-11.1-.13-22.2-.06-33.3-.06-10.85,0-21.7-.1-32.54.07-2.71,0-3.32-.79-3.23-3.34.2-5.48-.1-11,.12-16.46.16-4.06-1.62-6.32-5.12-8.18C117.74,167.3,101.65,145,96.75,115c-7.48-45.66,23.57-90.87,68.79-100.75C217.13,3,266,36.35,274.39,88.6,280.25,124.85,261.48,162.94,228.72,180.3Z"/><path class="cls-7" d="M47.86,29.86a6,6,0,1,1-6-5.88A5.94,5.94,0,0,1,47.86,29.86Z"/><path class="cls-7" d="M329.17,24a6,6,0,1,1-5.93,5.91A5.89,5.89,0,0,1,329.17,24Z"/><path class="cls-7" d="M18.07,95.82A6,6,0,1,1,12,101.57,5.91,5.91,0,0,1,18.07,95.82Z"/><path class="cls-7" d="M359.12,101.76a6,6,0,1,1-5.91-5.94A5.93,5.93,0,0,1,359.12,101.76Z"/><path class="cls-7" d="M41.93,179.6a6,6,0,1,1,5.93-5.93A5.91,5.91,0,0,1,41.93,179.6Z"/><path class="cls-7" d="M329,179.6a6,6,0,1,1,6.14-5.71A5.9,5.9,0,0,1,329,179.6Z"/><path class="cls-6" d="M245.6,107.81c-1-.08-2,0-3,0-9.61,0-9.53,0-9.24-9.59.07-2.07.77-2.5,2.61-2.42,3,.13,6,.11,9,0,3.84-.11,6.35-2.49,6.4-5.88s-2.45-5.86-6.24-6.05c-1.61-.07-3.24,0-4.86,0-6.83,0-6.83,0-6.83-6.71,0-5.08,0-5.08,5.27-5.27,4.46-.15,7.48-3.33,6.56-7.12-.87-3.57-3.41-5-7-4.87-2.48.06-5.29.74-5.87-3.13-.18-1.17-1.52-2.07-2.77-2.31-2.09-.39-2.41-1.65-2.22-3.46a16.41,16.41,0,0,0,0-3.36A6,6,0,0,0,221.54,42a6.09,6.09,0,0,0-6,5.49c-.32,2.13,1.17,5.06-.84,6.21-1.69,1-4.37.23-6.61.25a21.09,21.09,0,0,0-2.25,0c-1.78.22-2.4-.48-2.32-2.29.13-3.11.11-6.23,0-9.35-.13-3.82-2.56-6.32-6-6.31s-5.83,2.5-5.95,6.32c-.1,3.12-.12,6.24,0,9.35.08,1.83-.58,2.24-2.33,2.31-9.67.42-9.67.47-9.68-9.14,0-.5,0-1,0-1.5-.06-4.67-2.33-7.41-6.09-7.34s-5.82,2.71-5.87,7.17a44.84,44.84,0,0,0,0,6.35c.46,3.49-.56,5.07-4.32,4.45-2.42-.39-5.38.92-7.23-.54-1.45-1.14-.19-4-.53-6.06-.53-3.24-2.45-5.21-5.75-5.34-3.14-.13-5.63,1.62-5.89,4.61-.35,4-.84,7-4.63,10-2.35,1.86-3.89,3.35-6.95,3.38a5.76,5.76,0,0,0-5.88,6,6,6,0,0,0,5.64,5.89c5.56.63,5.56.63,5.56,6.13a31.37,31.37,0,0,0,0,3.36c.22,1.91-.39,2.66-2.44,2.56a95.49,95.49,0,0,0-9.72,0A5.85,5.85,0,0,0,119.73,90a6,6,0,0,0,5.73,5.8c1,.09,2,0,3,0,9.62,0,9.54,0,9.27,9.56-.06,2-.67,2.54-2.57,2.45-3-.14-6-.1-9,0-3.85.11-6.37,2.45-6.44,5.84s2.52,6,6.57,6.1c1.87.06,3.74,0,5.61,0,5.75,0,5.75,0,5.75,5.91s0,5.78-5.59,6.07c-3.84.2-6.33,2.53-6.35,5.94s2.48,6,6.28,6c3.15,0,6.19-.38,7.06,3.77a2,2,0,0,0,1.33,1.21c3.74.49,3.29,3.19,3.28,5.8,0,4.49,2.18,7.12,5.82,7.21s6.39-2.69,6-7.3c-.32-4,1.1-4.9,4.88-4.74,7.18.32,7.19.09,7.19,7.18,0,1.12,0,2.24,0,3.36,0,4.75,2.21,7.46,5.95,7.49s6-2.71,6-7.41c0-.5,0-1,0-1.5,0-9.61,0-9.55,9.75-9.08,1.84.09,2.32.66,2.26,2.38-.12,3-.09,6,0,9,.09,4.07,2.51,6.67,6,6.63s5.81-2.65,5.91-6.77a45.77,45.77,0,0,0-.05-6.73c-.43-3.46.51-5.1,4.3-4.48,2.43.4,5.39-.9,7.24.53,1.48,1.14.21,4,.54,6.06.52,3.25,2.45,5.21,5.73,5.36s5.63-1.63,5.91-4.61c.37-4,.83-7,4.62-10,2.37-1.87,3.92-3.33,7-3.37a5.77,5.77,0,0,0,5.87-6,6,6,0,0,0-5.66-5.88c-5.54-.6-5.54-.6-5.54-6.14a29,29,0,0,0,0-3.36c-.22-1.94.45-2.64,2.47-2.54a92.7,92.7,0,0,0,9.72,0,5.86,5.86,0,0,0,5.76-6.11A6,6,0,0,0,245.6,107.81Zm-42.09-6c0,5.23-.07,10.46,0,15.69,0,1.79-.52,2.32-2.31,2.31q-15.67-.12-31.36,0c-1.79,0-2.33-.52-2.31-2.31q.1-15.69,0-31.37c0-1.79.52-2.32,2.31-2.31q15.67.11,31.36,0c1.79,0,2.35.52,2.31,2.31C203.44,91.34,203.51,96.56,203.51,101.79Z"/><path class="cls-5" d="M221.52,69.64c0-2.78-.52-3.86-3.64-3.84q-32.32.21-64.67,0c-2.66,0-3.66.51-3.64,3.45q.18,32.52,0,65.05c0,2.94,1,3.48,3.65,3.45,10.71-.14,21.43-.06,32.14-.06s21.44-.1,32.15.07c3,.05,4.05-.59,4-3.84C221.39,112.51,221.42,91.08,221.52,69.64Zm-18,32.15c0,5.23-.07,10.46,0,15.69,0,1.79-.52,2.32-2.31,2.31q-15.67-.12-31.36,0c-1.79,0-2.33-.52-2.31-2.31q.1-15.69,0-31.37c0-1.79.52-2.32,2.31-2.31q15.67.11,31.36,0c1.79,0,2.35.52,2.31,2.31C203.44,91.34,203.51,96.56,203.51,101.79Z"/><path class="cls-6" d="M207.92,71.87c-7.35,0-14.7,0-22.06,0-7.6,0-15.2,0-22.8,0-5.41,0-7.43,2-7.43,7.45q0,22.44,0,44.87c0,5.46,2,7.52,7.36,7.53q22.6,0,45.23,0c5.16,0,7.24-2.09,7.25-7.27q0-22.62,0-45.24C215.46,73.87,213.4,71.88,207.92,71.87Zm-4.41,29.92c0,5.23-.07,10.46,0,15.69,0,1.79-.52,2.32-2.31,2.31q-15.67-.12-31.36,0c-1.79,0-2.33-.52-2.31-2.31q.1-15.69,0-31.37c0-1.79.52-2.32,2.31-2.31q15.67.11,31.36,0c1.79,0,2.35.52,2.31,2.31C203.44,91.34,203.51,96.56,203.51,101.79Z"/></g></g></svg>