<svg xmlns="http://www.w3.org/2000/svg" width="52.391" height="65" viewBox="0 0 52.391 65">
  <g id="footer_singapore" transform="translate(851.021 -154.163)">
    <g id="Group_14826" data-name="Group 14826" transform="translate(-834.175 154.163)">
      <path id="Path_16180" data-name="Path 16180" d="M-722.933,181.118a2.16,2.16,0,0,1-2.074-2.277c-.008-.919.019-1.839-.011-2.757-.013-.382.116-.523.471-.659a4.261,4.261,0,0,0,2.764-3.859,1.09,1.09,0,0,0-1.071-1.208,2.174,2.174,0,0,1-2.156-2.4,31.708,31.708,0,0,0-.122-3.625,11.868,11.868,0,0,0-10.026-9.982,69.516,69.516,0,0,0-8.33-.116,8.555,8.555,0,0,0-8.141,6.427c-.282,1.088-.287,1.16-1.369,1.074-2.867-.229-4.518,1.228-4.314,4.431a5.513,5.513,0,0,0,4.387,5.164,15.558,15.558,0,0,0,2.547.1c.376.012.611.182.6.562a.507.507,0,0,1-.579.515c-.471,0-.941,0-1.412,0a3.239,3.239,0,0,0-3.372,3.251,3.241,3.241,0,0,0,3.35,3.206c1.053.008,2.107,0,3.16,0,.231,0,.46-.042.353.333-.6,2.085-.361,4.226-.407,6.348-.005.232,0,.465,0,.755-1.578-1.171-2.973-1.272-4.2-.36-1.258.931-1.565,2.313-.888,4.1a12.073,12.073,0,0,1,.789,4.334q-.005,5.548,0,11.1a16.519,16.519,0,0,0,.109,1.944,12.93,12.93,0,0,0,15.749,10.936,12.9,12.9,0,0,0,9.967-12.575c.018-3.451,0-6.9,0-10.459,1.015.255,1.967.5,2.921.733a1.047,1.047,0,0,0,1.1-.325,1.017,1.017,0,0,0,.164-1.186c-.154-.323-.3-.649-.445-.976a18.875,18.875,0,0,1-1.58-6.687.7.7,0,0,1,.523-.824,4.144,4.144,0,0,0,2.685-3.7C-721.719,181.617-722.1,181.2-722.933,181.118Zm-26.9-4.3c-.672,0-1.345.013-2.017,0a1.069,1.069,0,0,1-1.139-1.067,1.068,1.068,0,0,1,1.129-1.076c.537-.018,1.076.008,1.613-.009a2.686,2.686,0,0,0,2.633-2.681,2.683,2.683,0,0,0-2.621-2.691c-.582-.018-1.165.007-1.748-.009a3.235,3.235,0,0,1-3.162-3.19c-.048-1.764-.043-2.292,2.11-2.193.693.032,1.389.016,2.084,0a1.084,1.084,0,0,0,1.187-1.093,2.162,2.162,0,0,1,2.355-2.131c1.322-.005,2.644-.008,3.966,0a2.137,2.137,0,0,1,2.28,2.265,23.829,23.829,0,0,1-.232,5.089,9.423,9.423,0,0,1-2.443,4.551,18.105,18.105,0,0,0-3.344,4.006c-.141.268-.35.232-.568.232Q-748.789,176.816-749.831,176.814Zm-1,17.949a14.929,14.929,0,0,0-1-5.582c-.292-.758-.156-1.241.39-1.482.575-.254,1.059-.008,1.428.717a11.956,11.956,0,0,1,1.326,5.493c0,1.412,0,2.825,0,4.237,0,.791.419,1.27,1.076,1.269s1.065-.48,1.073-1.272c.008-.672-.01-1.345.006-2.018a3.236,3.236,0,0,1,2.986-3.157,3.259,3.259,0,0,1,3.438,2.75c.16,1-.292,1.54-1.311,1.548-.583,0-1.166-.007-1.749,0a1.085,1.085,0,0,0-1.212,1.063,1.083,1.083,0,0,0,1.124,1.088,3.234,3.234,0,0,1,3.178,3.45,4.408,4.408,0,0,1-.412,2.414,3.143,3.143,0,0,1-1.856,1.5,7.9,7.9,0,0,0,.111-1.964,3.216,3.216,0,0,0-3.24-3.246c-1.569-.018-3.139-.036-4.707.012-.587.018-.682-.169-.673-.7C-750.818,198.843-750.856,196.8-750.833,194.763Zm4.3,9.977c.173-.329-.445-1,.454-1.019,1.179-.021,1.646.273,1.691,1.115a9.936,9.936,0,0,1,0,1,1.074,1.074,0,0,1-1.088,1.11,1.078,1.078,0,0,1-1.058-1.141c-.012-.289,0-.579,0-.869C-746.534,204.871-746.557,204.792-746.53,204.74Zm17.2,1.438a10.768,10.768,0,0,1-10.055,10.446,10.784,10.784,0,0,1-11.351-9.261c-.146-1.1-.067-2.193-.113-3.289-.013-.323.135-.344.4-.357,1.761-.084,1.761-.09,1.761,1.676,0,2.466,1.249,3.72,3.722,3.707a14.16,14.16,0,0,0,2.681-.1,5.419,5.419,0,0,0,4.36-5.107,6.2,6.2,0,0,0-1.489-4.94c2.078-1.848,2-3.51-.259-6.81,2.189-.666,1.758-.813,1.717-2.608-.022-.983.2-1.613,1.188-1.875a4.1,4.1,0,0,0,.722-.351c1.2-.594,1.491-.512,2.309.6a.845.845,0,0,1,.114.57c0,1.39,0,2.78,0,4.169,0,.918.21,1.195,1.084,1.419.909.233,1.819.464,2.734.675.348.08.5.2.5.614C-729.325,198.959-729.281,202.569-729.326,206.177Zm4.819-22.529a2.21,2.21,0,0,1-2.15.648,3.221,3.221,0,0,1-2.653-3.183c-.016-1.278-.02-2.556.005-3.834.008-.391-.119-.471-.488-.475-1.674-.018-1.691-.03-1.669,1.633a20.329,20.329,0,0,0,.1,3.623,5.22,5.22,0,0,0,3.715,4.194c.272.091.5.124.513.54a20.247,20.247,0,0,0,1.321,6.727c-1.241-.306-2.421-.593-3.6-.889-.67-.168-1.593-.15-1.933-.583s-.108-1.328-.116-2.021c-.008-.673-.035-1.347.008-2.017a1.6,1.6,0,0,0-.66-1.525,3.4,3.4,0,0,1-1.5-3.629.4.4,0,0,0,0-.067c0-1.767,0-1.755-1.761-1.681-.339.014-.4.123-.4.428.017.919-.008,1.839.014,2.758a.6.6,0,0,1-.4.67c-.568.248-1.116.546-1.727.85-.119-3.149-.184-6.239,1.248-9.1a18.374,18.374,0,0,0,1.956-8.95c-.057-1.837-.025-3.677,0-5.515.006-.422-.109-.514-.519-.514-1.645,0-1.625-.015-1.649,1.6-.036,2.4.129,4.8-.1,7.191a12.129,12.129,0,0,1-1.207,4.306,18.036,18.036,0,0,0-1.923,8.755c.055,1.971,0,3.946.02,5.919,0,.357-.1.51-.444.581-1.181.245-2.324.654-3.53.793a5.594,5.594,0,0,0-2.493,1v-.717c0-2.511.094-5.027-.022-7.532a10.766,10.766,0,0,1,3.739-9.024,11.243,11.243,0,0,0,3.206-4.965,10.846,10.846,0,0,0,.6-3.426,22.372,22.372,0,0,0-.1-4.293,4.211,4.211,0,0,0-4.114-3.4c-1.569-.022-3.138,0-4.855,0a5.786,5.786,0,0,1,4.165-2.1,56.37,56.37,0,0,1,8.53.086,9.616,9.616,0,0,1,8.223,9.159c.022.807,0,1.614.011,2.421a4.173,4.173,0,0,0,2.586,4.042c.515.232.367.418.118.707a2.382,2.382,0,0,1-2.713.567,3.226,3.226,0,0,1-2.138-2.973q-.032-1.95,0-3.9c.006-.38-.1-.478-.48-.483-1.682-.019-1.7-.032-1.676,1.626a20.452,20.452,0,0,0,.095,3.623,5.173,5.173,0,0,0,3.712,4.19c.38.123.518.276.5.682-.034.918-.027,1.838-.007,2.757a4.142,4.142,0,0,0,2.53,3.943C-724.052,183.129-724.211,183.338-724.507,183.648Z" transform="translate(757.33 -154.163)" fill="#2f88f7"/>
      <path id="Path_16181" data-name="Path 16181" d="M-641.256,353.009c0,1.13,0,1.13-1.157,1.13-1,0-1,0-1-1.023,0-1.13,0-1.13,1.157-1.13C-641.256,351.986-641.256,351.986-641.256,353.009Z" transform="translate(663.891 -316.418)" fill="#2f88f7"/>
      <path id="Path_16182" data-name="Path 16182" d="M-635.27,377.011c0,1.074,0,1.074-1.078,1.074s-1.074,0-1.074-1.078,0-1.074,1.078-1.074S-635.27,375.932-635.27,377.011Z" transform="translate(658.982 -336.059)" fill="#2f88f7"/>
      <path id="Path_16183" data-name="Path 16183" d="M-618.336,402.031c-1.13,0-1.13,0-1.13-1.157,0-1,0-1,1.023-1,1.129,0,1.129,0,1.129,1.158C-617.313,402.031-617.313,402.031-618.336,402.031Z" transform="translate(644.252 -355.7)" fill="#2f88f7"/>
      <path id="Path_16184" data-name="Path 16184" d="M-629.285,424.914c0,1.062,0,1.062-1.09,1.062-1.062,0-1.062,0-1.062-1.09,0-1.063,0-1.063,1.09-1.063C-629.285,423.824-629.285,423.824-629.285,424.914Z" transform="translate(654.072 -375.34)" fill="#2f88f7"/>
      <path id="Path_16185" data-name="Path 16185" d="M-618.383,447.77c1.07,0,1.07,0,1.07,1.082s0,1.071-1.082,1.071-1.07,0-1.07-1.082S-619.465,447.77-618.383,447.77Z" transform="translate(644.252 -394.981)" fill="#2f88f7"/>
      <path id="Path_16186" data-name="Path 16186" d="M-701.114,472.825c0,1.044,0,1.044-1.041,1.044-1.111,0-1.111,0-1.111-1.109,0-1.044,0-1.044,1.041-1.044C-701.114,471.716-701.114,471.716-701.114,472.825Z" transform="translate(712.986 -414.622)" fill="#2f88f7"/>
      <path id="Path_16187" data-name="Path 16187" d="M-629.285,472.795c0,1.074,0,1.074-1.078,1.074s-1.074,0-1.074-1.079,0-1.074,1.078-1.074S-629.285,471.716-629.285,472.795Z" transform="translate(654.072 -414.622)" fill="#2f88f7"/>
    </g>
    <path id="Path_16188" data-name="Path 16188" d="M-839.116,246.195c1.254,0,2.509.011,3.763-.007.349-.005.5.044.505.457.023,1.7.04,1.7-1.671,1.7-1.926,0-3.852-.011-5.779,0a6.445,6.445,0,0,0-6.531,6.015c-.029.329-.085.489-.45.447a7.844,7.844,0,0,0-.873-.006c-.941,0-.941,0-.8-.962a8.623,8.623,0,0,1,8.815-7.649Q-840.628,246.193-839.116,246.195Z" transform="translate(0 -75.479)" fill="#001d3b"/>
    <path id="Path_16189" data-name="Path 16189" d="M-819.337,270.138c1.23,0,2.461.013,3.691-.008.349-.006.441.091.449.443.036,1.718.048,1.717-1.651,1.717-1.9,0-3.8,0-5.7,0a2.142,2.142,0,0,0-2.305,1.808c-.066.281-.146.369-.418.348s-.536,0-.8,0c-1.1,0-1.1,0-.823-1.1a4.3,4.3,0,0,1,4.009-3.2c1.185-.028,2.371-.005,3.557-.005Z" transform="translate(-19.653 -95.116)" fill="#001d3b"/>
    <path id="Path_16190" data-name="Path 16190" d="M-848.773,307.126c0,1.121,0,1.121-1.1,1.121-1.053,0-1.053,0-1.053-1.032,0-1.121,0-1.121,1.1-1.121C-848.773,306.094-848.773,306.094-848.773,307.126Z" transform="translate(-0.078 -124.614)" fill="#001d3b"/>
    <path id="Path_16191" data-name="Path 16191" d="M-825.849,308.247c-1.133,0-1.133,0-1.133-1.154,0-1,0-1,1.019-1,1.133,0,1.133,0,1.133,1.154C-824.83,308.247-824.83,308.247-825.849,308.247Z" transform="translate(-19.716 -124.614)" fill="#001d3b"/>
    <path id="Path_16192" data-name="Path 16192" d="M-726.933,183.118a2.16,2.16,0,0,1-2.074-2.277c-.008-.919.019-1.839-.011-2.757-.013-.382.116-.523.471-.659a4.261,4.261,0,0,0,2.764-3.859,1.09,1.09,0,0,0-1.071-1.208,2.174,2.174,0,0,1-2.156-2.4,31.707,31.707,0,0,0-.122-3.625,11.867,11.867,0,0,0-10.026-9.982,69.516,69.516,0,0,0-8.33-.116,8.555,8.555,0,0,0-8.141,6.427c-.282,1.088-.287,1.16-1.369,1.074-2.867-.229-4.518,1.228-4.314,4.431a5.513,5.513,0,0,0,4.387,5.164,15.56,15.56,0,0,0,2.547.1c.376.012.611.182.6.562a.507.507,0,0,1-.579.515c-.471,0-.941,0-1.412,0a3.239,3.239,0,0,0-3.372,3.251,3.241,3.241,0,0,0,3.35,3.206c1.053.008,2.107,0,3.16,0,.231,0,.46-.042.353.333-.6,2.085-.361,4.226-.407,6.348-.005.232,0,.465,0,.755-1.578-1.171-2.973-1.272-4.2-.36-1.258.931-1.565,2.313-.888,4.1a12.074,12.074,0,0,1,.789,4.334q-.005,5.548,0,11.1a16.519,16.519,0,0,0,.109,1.944,12.93,12.93,0,0,0,15.749,10.936,12.9,12.9,0,0,0,9.967-12.575c.018-3.451,0-6.9,0-10.459,1.015.255,1.967.5,2.921.733a1.047,1.047,0,0,0,1.1-.325,1.017,1.017,0,0,0,.164-1.186c-.154-.323-.3-.649-.445-.976a18.875,18.875,0,0,1-1.58-6.687.7.7,0,0,1,.523-.824,4.144,4.144,0,0,0,2.685-3.7C-725.719,183.617-726.1,183.2-726.933,183.118Zm-26.9-4.3c-.672,0-1.345.013-2.017,0a1.069,1.069,0,0,1-1.139-1.067,1.068,1.068,0,0,1,1.129-1.076c.537-.018,1.076.008,1.613-.009a2.686,2.686,0,0,0,2.633-2.681,2.683,2.683,0,0,0-2.621-2.691c-.582-.018-1.165.007-1.748-.009a3.235,3.235,0,0,1-3.162-3.19c-.048-1.764-.043-2.292,2.11-2.193.693.032,1.389.016,2.084,0a1.084,1.084,0,0,0,1.187-1.093,2.162,2.162,0,0,1,2.355-2.131c1.322-.005,2.644-.008,3.966,0a2.137,2.137,0,0,1,2.28,2.265,23.829,23.829,0,0,1-.232,5.089,9.423,9.423,0,0,1-2.443,4.551,18.107,18.107,0,0,0-3.344,4.006c-.141.268-.35.232-.568.232Q-752.789,178.816-753.831,178.814Zm-1,17.949a14.929,14.929,0,0,0-1-5.582c-.292-.758-.156-1.241.39-1.482.575-.254,1.059-.008,1.428.717a11.956,11.956,0,0,1,1.326,5.493c0,1.412,0,2.825,0,4.237,0,.791.419,1.27,1.076,1.269s1.065-.48,1.073-1.272c.008-.672-.01-1.345.006-2.018a3.236,3.236,0,0,1,2.986-3.157,3.259,3.259,0,0,1,3.438,2.75c.16,1-.292,1.54-1.311,1.548-.583,0-1.166-.007-1.749,0a1.085,1.085,0,0,0-1.212,1.063,1.083,1.083,0,0,0,1.124,1.088,3.234,3.234,0,0,1,3.178,3.45,4.408,4.408,0,0,1-.412,2.414,3.143,3.143,0,0,1-1.856,1.5,7.9,7.9,0,0,0,.111-1.964,3.216,3.216,0,0,0-3.24-3.246c-1.569-.018-3.139-.036-4.707.012-.587.018-.682-.169-.673-.7C-754.819,200.843-754.856,198.8-754.833,196.763Zm4.3,9.977c.173-.329-.445-1,.454-1.019,1.179-.021,1.646.273,1.691,1.115a9.936,9.936,0,0,1,0,1,1.074,1.074,0,0,1-1.088,1.11,1.078,1.078,0,0,1-1.058-1.141c-.012-.289,0-.579,0-.869C-750.534,206.871-750.557,206.792-750.53,206.74Zm17.2,1.438a10.768,10.768,0,0,1-10.055,10.446,10.784,10.784,0,0,1-11.351-9.261c-.146-1.1-.067-2.193-.113-3.289-.013-.323.135-.344.4-.357,1.761-.084,1.761-.09,1.761,1.676,0,2.466,1.249,3.72,3.722,3.707a14.16,14.16,0,0,0,2.681-.1,5.419,5.419,0,0,0,4.36-5.107,6.2,6.2,0,0,0-1.489-4.94c2.078-1.848,2-3.51-.259-6.81,2.189-.666,1.758-.813,1.717-2.608-.022-.983.2-1.613,1.188-1.875a4.1,4.1,0,0,0,.722-.351c1.2-.594,1.491-.512,2.309.6a.845.845,0,0,1,.114.57c0,1.39,0,2.78,0,4.169,0,.918.21,1.195,1.084,1.419.909.233,1.819.464,2.734.675.348.08.5.2.5.614C-733.325,200.959-733.281,204.569-733.326,208.177Zm4.819-22.529a2.21,2.21,0,0,1-2.15.648,3.221,3.221,0,0,1-2.653-3.183c-.016-1.278-.02-2.556.005-3.834.008-.391-.119-.471-.488-.475-1.674-.018-1.691-.03-1.669,1.633a20.329,20.329,0,0,0,.1,3.623,5.22,5.22,0,0,0,3.715,4.194c.272.091.5.124.513.54a20.247,20.247,0,0,0,1.321,6.727c-1.241-.306-2.421-.593-3.6-.889-.67-.168-1.593-.15-1.933-.583s-.108-1.328-.116-2.021c-.008-.673-.035-1.347.008-2.017a1.6,1.6,0,0,0-.66-1.525,3.4,3.4,0,0,1-1.5-3.629.4.4,0,0,0,0-.067c0-1.767,0-1.755-1.761-1.681-.339.014-.4.123-.4.428.017.919-.008,1.839.014,2.758a.6.6,0,0,1-.4.67c-.568.248-1.116.546-1.727.85-.119-3.149-.184-6.239,1.248-9.1a18.374,18.374,0,0,0,1.956-8.95c-.057-1.837-.025-3.677,0-5.515.006-.422-.109-.514-.519-.514-1.645,0-1.625-.015-1.649,1.6-.036,2.4.129,4.8-.1,7.191a12.129,12.129,0,0,1-1.207,4.306,18.036,18.036,0,0,0-1.923,8.755c.055,1.971,0,3.946.02,5.919,0,.357-.1.51-.444.581-1.181.245-2.324.654-3.53.793a5.594,5.594,0,0,0-2.493,1v-.717c0-2.511.094-5.027-.022-7.532a10.766,10.766,0,0,1,3.739-9.024,11.243,11.243,0,0,0,3.206-4.965,10.846,10.846,0,0,0,.6-3.426,22.372,22.372,0,0,0-.1-4.293,4.211,4.211,0,0,0-4.114-3.4c-1.569-.022-3.138,0-4.855,0a5.786,5.786,0,0,1,4.165-2.1,56.368,56.368,0,0,1,8.53.086,9.616,9.616,0,0,1,8.223,9.159c.022.807,0,1.614.011,2.421a4.173,4.173,0,0,0,2.586,4.042c.515.232.367.418.118.707a2.382,2.382,0,0,1-2.713.567,3.226,3.226,0,0,1-2.138-2.973q-.032-1.95,0-3.9c.006-.38-.1-.478-.48-.483-1.682-.019-1.7-.032-1.676,1.626a20.452,20.452,0,0,0,.095,3.623,5.173,5.173,0,0,0,3.712,4.19c.38.123.518.276.5.682-.034.918-.027,1.838-.007,2.757a4.142,4.142,0,0,0,2.53,3.943C-728.052,185.129-728.211,185.338-728.507,185.648Z" transform="translate(-73.565 -1.64)" fill="#001d3b"/>
    <path id="Path_16193" data-name="Path 16193" d="M-645.256,355.009c0,1.13,0,1.13-1.157,1.13-1,0-1,0-1-1.023,0-1.13,0-1.13,1.157-1.13C-645.256,353.986-645.256,353.986-645.256,355.009Z" transform="translate(-167.003 -163.896)" fill="#001d3b"/>
    <path id="Path_16194" data-name="Path 16194" d="M-639.27,379.011c0,1.074,0,1.074-1.078,1.074s-1.074,0-1.074-1.078,0-1.074,1.078-1.074S-639.27,377.932-639.27,379.011Z" transform="translate(-171.913 -183.536)" fill="#001d3b"/>
    <path id="Path_16195" data-name="Path 16195" d="M-645.256,402.973c0,1.058,0,1.058-1.028,1.058-1.125,0-1.125,0-1.125-1.095,0-1.058,0-1.058,1.028-1.058C-645.256,401.878-645.256,401.878-645.256,402.973Z" transform="translate(-167.003 -203.177)" fill="#001d3b"/>
    <path id="Path_16196" data-name="Path 16196" d="M-622.336,404.031c-1.129,0-1.129,0-1.129-1.157,0-1,0-1,1.023-1,1.129,0,1.129,0,1.129,1.158C-621.313,404.031-621.313,404.031-622.336,404.031Z" transform="translate(-186.642 -203.177)" fill="#001d3b"/>
    <path id="Path_16197" data-name="Path 16197" d="M-633.285,426.914c0,1.062,0,1.062-1.09,1.062-1.062,0-1.062,0-1.062-1.09,0-1.063,0-1.063,1.09-1.063C-633.285,425.824-633.285,425.824-633.285,426.914Z" transform="translate(-176.823 -222.818)" fill="#001d3b"/>
    <path id="Path_16198" data-name="Path 16198" d="M-645.256,450.874c0,1.049,0,1.049-1.037,1.049-1.116,0-1.116,0-1.116-1.1,0-1.049,0-1.049,1.037-1.049C-645.256,449.77-645.256,449.77-645.256,450.874Z" transform="translate(-167.003 -242.458)" fill="#001d3b"/>
    <path id="Path_16199" data-name="Path 16199" d="M-622.383,449.77c1.07,0,1.07,0,1.07,1.082s0,1.071-1.082,1.071-1.07,0-1.07-1.082S-623.465,449.77-622.383,449.77Z" transform="translate(-186.642 -242.458)" fill="#001d3b"/>
    <path id="Path_16200" data-name="Path 16200" d="M-705.114,474.825c0,1.044,0,1.044-1.041,1.044-1.111,0-1.111,0-1.111-1.109,0-1.044,0-1.044,1.041-1.044C-705.114,473.716-705.114,473.716-705.114,474.825Z" transform="translate(-117.908 -262.099)" fill="#001d3b"/>
    <path id="Path_16201" data-name="Path 16201" d="M-681.171,474.837c0,1.032,0,1.032-1.053,1.032-1.1,0-1.1,0-1.1-1.121,0-1.032,0-1.032,1.053-1.032C-681.171,473.716-681.171,473.716-681.171,474.837Z" transform="translate(-137.546 -262.099)" fill="#001d3b"/>
    <path id="Path_16202" data-name="Path 16202" d="M-659.38,474.727c0-1.011,0-1.011,1.007-1.011,1.146,0,1.146,0,1.146,1.142,0,1.011,0,1.011-1.007,1.011C-659.38,475.869-659.38,475.869-659.38,474.727Z" transform="translate(-157.184 -262.099)" fill="#001d3b"/>
    <path id="Path_16203" data-name="Path 16203" d="M-633.285,474.795c0,1.074,0,1.074-1.078,1.074s-1.074,0-1.074-1.079,0-1.074,1.078-1.074S-633.285,473.716-633.285,474.795Z" transform="translate(-176.823 -262.099)" fill="#001d3b"/>
    <path id="Path_16204" data-name="Path 16204" d="M-713.252,199.356c0-1.019,0-1.019,1-1.019,1.153,0,1.153,0,1.153,1.133,0,1.019,0,1.019-1,1.019C-713.252,200.49-713.252,200.49-713.252,199.356Z" transform="translate(-112.998 -36.232)" fill="#001d3b"/>
  </g>
</svg>
