<svg xmlns="http://www.w3.org/2000/svg" width="54.683" height="65" viewBox="0 0 54.683 65">
  <g id="footer_uae" transform="translate(2104.618 -104.539)">
    <g id="Group_14821" data-name="Group 14821" transform="translate(-2103.558 104.539)">
      <path id="Path_16081" data-name="Path 16081" d="M-2097.567,128.666a3.66,3.66,0,0,1,2.473,1.139c.261.285.39.339.681.017a3.632,3.632,0,0,1,2.4-1.149c.617-.065,1.023.208,1.034.7.013.58-.351.773-.87.825a2.213,2.213,0,0,0-2.128,2.2c-.032.484-.233.783-.731.808-.539.027-.776-.294-.829-.791a2.182,2.182,0,0,0-2.157-2.217c-.5-.056-.827-.273-.833-.8C-2098.531,128.926-2098.135,128.642-2097.567,128.666Z" transform="translate(2098.525 -124.465)" fill="#2f88f7"/>
      <path id="Path_16082" data-name="Path 16082" d="M-1827.882,157.594c-.523.019-.892-.188-.955-.737-.054-.47.365-.793.959-.8.518-.005.9.18.952.739C-1826.879,157.279-1827.277,157.593-1827.882,157.594Z" transform="translate(1875.78 -147.092)" fill="#2f88f7"/>
      <path id="Path_16083" data-name="Path 16083" d="M-1859.225,122.933c0,.633-.273,1-.745,1-.489,0-.768-.386-.757-1.058.01-.627.3-.977.784-.957S-1859.223,122.269-1859.225,122.933Z" transform="translate(1902.115 -118.891)" fill="#2f88f7"/>
      <path id="Path_16084" data-name="Path 16084" d="M-1837.984,134.149a.706.706,0,0,1-.68-.73,1.26,1.26,0,0,1,1.055-1.066.726.726,0,0,1,.751.738A1.225,1.225,0,0,1-1837.984,134.149Z" transform="translate(1883.893 -127.511)" fill="#2f88f7"/>
      <path id="Path_16085" data-name="Path 16085" d="M-1837.89,178.808c.532.065,1.1.73,1.018,1.155a.715.715,0,0,1-.837.631,1.216,1.216,0,0,1-.957-1.139A.727.727,0,0,1-1837.89,178.808Z" transform="translate(1883.9 -165.882)" fill="#2f88f7"/>
      <path id="Path_16086" data-name="Path 16086" d="M-1859.237,189.1c.04.527-.2.909-.748.911s-.76-.4-.755-.931c.007-.633.288-1,.789-.96C-1859.368,188.175-1859.208,188.569-1859.237,189.1Z" transform="translate(1902.126 -173.574)" fill="#2f88f7"/>
      <path id="Path_16087" data-name="Path 16087" d="M-2020.465,167.69a2.245,2.245,0,0,0-.519-.019c-2.083,0-4.166-.013-6.248.01-.408,0-.507-.1-.5-.5.029-1.149.041-2.3.005-3.45-.056-1.8.137-3.593.11-5.391-.014-.977-.377-1.751-1.13-1.828-1.02-.1-.941-.694-.914-1.382.024-.607,0-1.215.006-1.822.014-1.6-.078-3.206-.078-4.806,0-1.122.089-2.249.073-3.374a1.646,1.646,0,0,0-1.6-1.78c-.365-.038-.4-.172-.405-.474-.013-2.687.038-5.374-.083-8.062-.058-1.294.075-2.6.081-3.894,0-1.03-.5-1.8-1.35-1.865-.694-.054-.69-.371-.689-.89q.021-7.649.007-15.3c0-1.133-.507-1.843-1.5-1.935-.506-.047-.518-.257-.513-.644.017-1.475.007-2.951.007-4.426q0-.2,0-.391c0-.522-.2-.93-.768-.927s-.76.394-.757.928q.014,2.473,0,4.947c0,.17.148.408-.227.486-1.478.308-1.79.71-1.791,2.2q0,3.873,0,7.746c0,.564.207,1.323-.076,1.64-.33.369-1.1.11-1.683.116-1.729.015-2.282.564-2.282,2.312q0,5.791,0,11.582c0,.253.009.415-.345.471a1.7,1.7,0,0,0-1.665,1.989q-.006,4.069,0,8.137c0,1.649,0,3.3,0,4.947,0,.192.091.408-.25.494-1.525.381-1.78.725-1.78,2.275,0,4.1-.008,8.2.011,12.3,0,.449-.1.579-.562.572-2.017-.027-4.035-.012-6.053-.011a3.364,3.364,0,0,0-.455.006.71.71,0,0,0-.69.724.7.7,0,0,0,.641.767,2.84,2.84,0,0,0,.519.021h16.4q8.266,0,16.531,0a2.506,2.506,0,0,0,.58-.047.669.669,0,0,0,.545-.711A.708.708,0,0,0-2020.465,167.69Zm-10.688-11.812c0,.285-.006.448-.387.495a1.69,1.69,0,0,0-1.639,1.878c0,.325.016.651-.008.974-.013.177.145.468-.236.478s-.264-.273-.266-.46c-.008-1.277,0-2.555,0-3.833s.013-2.555-.008-3.832c-.006-.365.095-.491.467-.47.668.038,1.551-.22,1.949.115.415.349.11,1.261.124,1.927C-2031.142,154.058-2031.163,154.968-2031.153,155.878Zm-1.252-11.01c1.294,0,1.467.211,1.254,1.511-.035.216-.113.3-.326.294-.3-.009-.606,0-.909,0-1.453,0-1.444,0-1.314-1.442.025-.276.118-.393.388-.383C-2033.01,144.857-2032.708,144.868-2032.405,144.868Zm-.77-1.987c0,.3-.04.429-.4.462a1.643,1.643,0,0,0-1.611,1.7c-.027.41-.01.823-.014,1.234,0,.2.018.416-.285.39-.265-.023-.208-.235-.208-.394,0-1.516,0-3.032,0-4.548,0-1.473.012-2.945-.008-4.418-.005-.4.061-.589.519-.554.644.049,1.5-.214,1.883.108.4.338.109,1.22.117,1.863C-2033.168,140.109-2033.188,141.5-2033.175,142.881Zm-.394-12.385c.263,0,.417.088.388.377a1.007,1.007,0,0,0,0,.13c.042,1.3.042,1.3-1.243,1.3-1.346,0-1.336,0-1.281-1.35.013-.325.092-.475.444-.462C-2034.7,130.513-2034.133,130.5-2033.569,130.5Zm-3.651,1.469c0,.177.021.345-.253.341s-.26-.159-.26-.343q0-1.854,0-3.707v-2.862c0-2.081.02-4.163-.014-6.244-.008-.508.144-.627.614-.588a11.388,11.388,0,0,0,1.495,0c.325-.016.446.065.445.42q-.02,4.78,0,9.561c0,.337-.105.422-.437.456a1.653,1.653,0,0,0-1.584,1.727C-2037.229,131.141-2037.22,131.553-2037.22,131.965Zm.795-19.526c1.252-.01,1.232-.01,1.236,1.261,0,.435-.131.566-.553.539-.537-.033-1.078-.019-1.617,0-.272.007-.362-.078-.383-.363C-2037.845,112.45-2037.855,112.45-2036.425,112.439Zm-1.315,3.51c.061-.262.226-.216.389-.218.433-.005.867,0,1.3,0,.858,0,1.026.221.854,1.07-.04.2-.128.245-.3.243-.325,0-.65,0-.976,0h-.455C-2037.725,117.042-2037.925,116.756-2037.739,115.949Zm.263,17.87c1.214,0,2.429.014,3.642-.008.4-.007.568.064.555.519-.026.911,0,.912-.925.912-2.342,0-4.684-.024-7.025.017-.573.01-.588-.251-.541-.649.041-.346-.232-.84.521-.806C-2039.994,133.86-2038.734,133.819-2037.477,133.819Zm-.251,3.434c0-.178-.141-.469.229-.49.432-.025.272.309.274.5.012,1.474.007,2.948.007,4.422,0,1.5.005,2.992-.007,4.487,0,.176.154.474-.22.495-.422.024-.282-.306-.282-.505Q-2037.74,141.708-2037.728,137.253Zm-2.013,1.836a2.23,2.23,0,0,0-.42-1.529,3.169,3.169,0,0,0-1.576-.8c.731,0,1.463.009,2.193,0,.353-.006.3.232.3.441q0,4.487,0,8.973c0,.188.112.487-.242.489s-.242-.3-.243-.486C-2039.743,143.814-2039.74,141.451-2039.74,139.089Zm-2.04-14.4c0-.421.109-.585.545-.557a13.541,13.541,0,0,0,1.561,0c.347-.018.44.1.435.441-.018,1.215-.007,2.43-.007,3.645,0,1.193-.016,2.387.009,3.579.008.394-.093.551-.5.512-.66-.063-1.524.272-1.926-.141-.319-.328-.1-1.192-.1-1.817C-2041.775,128.463-2041.76,126.576-2041.78,124.689Zm-2.008,14.268c0-.365.113-.5.486-.481.647.038,1.482-.2,1.893.12.441.343.119,1.216.144,1.857.029.715.007,1.432.007,2.148,0,1.193-.019,2.387.01,3.58.01.415-.124.523-.517.5a15.32,15.32,0,0,0-1.562,0c-.323.013-.464-.069-.462-.428Q-2043.77,142.6-2043.789,138.957Zm0,9.954c.024-.392-.124-.793.581-.772,1.885.056,3.773.019,5.659.019,1.908,0,3.818.035,5.725-.018.7-.02.548.383.577.774.033.445-.007.708-.594.679-1.549-.076-3.105-.094-4.652-.076-2.238.026-4.478,0-6.714.077C-2043.808,149.616-2043.813,149.338-2043.787,148.911Zm8.593,10.339c0,.2.075.473-.282.455-.319-.016-.223-.271-.224-.441-.008-1.278,0-2.557,0-3.835s0-2.557.005-3.835c0-.182-.13-.473.24-.481s.263.276.264.467Q-2035.187,155.415-2035.194,159.25Zm-2.029.018c0,.162.116.414-.217.436-.363.024-.291-.234-.292-.437q0-1.948,0-3.9,0-1.915,0-3.831c0-.2-.071-.453.292-.43.338.021.216.27.217.43Q-2037.213,155.4-2037.224,159.268Zm-2.022-3.889c0,1.28,0,2.56,0,3.84,0,.188.11.49-.254.475s-.229-.313-.23-.5q-.012-3.807,0-7.615c0-.182-.127-.478.253-.464s.228.309.23.487C-2039.24,152.863-2039.246,154.121-2039.246,155.379Zm-3.771-4.275c.566.091,1.338-.24,1.666.135.282.323.087,1.069.09,1.628.006.844,0,1.688,0,2.532,0,1.277.005,2.554-.006,3.83,0,.179.132.467-.246.473s-.256-.281-.257-.464c-.009-1.558,0-3.116-.006-4.674,0-1.289-.407-1.8-1.68-2.019-.469-.08-.29-.386-.331-.629C-2043.885,151.309-2043.718,150.992-2043.017,151.1Zm-2.263,2.905c1.991-.049,1.991-.061,1.991,1.915,0,1.1-.014,2.21.008,3.314.007.375-.113.491-.482.472a15.4,15.4,0,0,0-1.624,0c-.354.019-.44-.113-.431-.445.021-.779.007-1.559.007-2.339s.021-1.56-.009-2.339C-2045.835,154.171-2045.717,154.02-2045.28,154.01Zm-.005,7.166q7.739.044,15.479,0c.652,0,.567.332.555.721-.011.36.142.742-.529.731-2.6-.043-5.2-.018-7.8-.018-2.558,0-5.117-.023-7.674.017-.566.009-.6-.23-.551-.642C-2045.767,161.635-2046.034,161.171-2045.285,161.175Zm1.889,6.391c-.294.343-1.063.034-1.614.113-.7.1-.864-.187-.814-.839.059-.775.025-1.557.008-2.336-.006-.282.077-.377.364-.367q.908.03,1.817,0c.3-.01.36.117.351.382-.016.475,0,.952,0,1.428h-.049C-2043.338,166.5-2043.122,167.246-2043.4,167.567Zm2.141-.212c0,.19-.008.328-.267.324s-.25-.165-.25-.34c0-.5,0-.991,0-1.487,0-.474,0-.948,0-1.422,0-.166.019-.284.235-.291.238-.008.286.1.284.308C-2041.261,165.415-2041.259,166.385-2041.256,167.354Zm2.01-2.872c0,.474,0,.947,0,1.421s0,.947,0,1.421c0,.17.031.347-.241.351s-.253-.161-.253-.34c0-.947,0-1.894,0-2.842,0-.17-.033-.35.241-.352S-2039.245,164.3-2039.246,164.482Zm1.76,3.2c-.328-.011-.243-.235-.245-.408-.008-.474,0-.948,0-1.422q0-.679,0-1.357c0-.169-.031-.34.24-.353.317-.015.276.184.276.377,0,.926,0,1.853,0,2.779C-2037.22,167.477-2037.159,167.689-2037.486,167.677Zm2.3-.346c0,.18.006.346-.258.347s-.26-.156-.259-.339c0-.5,0-.995,0-1.492,0-.454,0-.908,0-1.362,0-.178-.012-.348.251-.349s.267.153.266.341Q-2035.193,165.9-2035.19,167.332Zm1.762.346c-.256,0-.269-.136-.268-.328,0-.969.006-1.939,0-2.908,0-.217.066-.307.293-.3s.225.137.225.295c0,.5,0,.991,0,1.486q0,.711,0,1.421C-2033.179,167.514-2033.154,167.68-2033.428,167.678Zm4.191-2.821a21.877,21.877,0,0,0-.007,2.34c.011.35-.059.543-.45.474a1.193,1.193,0,0,0-.13,0c-.6-.038-1.4.257-1.742-.122-.289-.323-.06-1.111-.06-1.694.027-.554-.279-1.29.083-1.612.308-.274,1.031-.05,1.564-.108C-2029.4,164.072-2029.191,164.249-2029.237,164.858Zm-1.2-5.155c-1.245,0-1.23,0-1.229-1.267,0-.4.076-.6.53-.565.538.037,1.08.016,1.62.006.275,0,.405.1.374.382a.4.4,0,0,0,0,.065C-2029.071,159.7-2029.071,159.7-2030.435,159.7Z" transform="translate(2062.643 -104.539)" fill="#2f88f7"/>
      <path id="Path_16088" data-name="Path 16088" d="M-1875.266,137.528a3.985,3.985,0,0,0-3.977,4.025,3.993,3.993,0,0,0,3.975,3.967,4.012,4.012,0,0,0,3.989-4.029A4.006,4.006,0,0,0-1875.266,137.528Zm-.027,6.467a2.49,2.49,0,0,1-2.455-2.5,2.49,2.49,0,0,1,2.5-2.45,2.454,2.454,0,0,1,2.437,2.5A2.453,2.453,0,0,1-1875.293,143.995Z" transform="translate(1917.409 -131.786)" fill="#2f88f7"/>
    </g>
    <path id="Path_16089" data-name="Path 16089" d="M-2100.648,208.332c.631.3,1.087-.106,1.64-.6a3.722,3.722,0,0,1,5.875,1.312.909.909,0,0,0,.737.6,3.168,3.168,0,0,1,2.444,2.855.737.737,0,0,1-.681.869.734.734,0,0,1-.823-.66c-.3-1.273-.676-1.6-1.934-1.641a.871.871,0,0,1-.917-.739c-.307-1.2-.961-1.884-1.949-1.977a2.257,2.257,0,0,0-2.446,1.427.7.7,0,0,1-1.078.348,2.218,2.218,0,0,0-3.288,2.07,2,2,0,0,1-.006.325c-.055.441-.286.742-.747.746-.494,0-.731-.308-.779-.781A3.815,3.815,0,0,1-2100.648,208.332Z" transform="translate(0 -84.462)" fill="#001d3b"/>
    <path id="Path_16090" data-name="Path 16090" d="M-1859.885,240.656a2.1,2.1,0,0,1-.005.453.728.728,0,0,1-.774.643.714.714,0,0,1-.715-.634,5.581,5.581,0,0,1-.034-.713,2.206,2.206,0,0,0-3.177-1.852c-.64.307-.914.215-1.251-.419a2.29,2.29,0,0,0-2.391-1.308,2.26,2.26,0,0,0-1.911,1.869.943.943,0,0,1-1.083.854,1.618,1.618,0,0,0-1.774,1.523c-.09.506-.333.8-.852.779-.463-.022-.718-.455-.643-1.011a3.135,3.135,0,0,1,2.494-2.733.738.738,0,0,0,.606-.476,3.767,3.767,0,0,1,6.409-.96.56.56,0,0,0,.6.225A3.726,3.726,0,0,1-1859.885,240.656Z" transform="translate(-190.061 -107.992)" fill="#001d3b"/>
    <path id="Path_16091" data-name="Path 16091" d="M-2100.567,129.666a3.66,3.66,0,0,1,2.473,1.139c.261.285.39.339.68.017a3.633,3.633,0,0,1,2.4-1.149c.617-.065,1.023.208,1.034.7.013.58-.35.773-.87.825a2.213,2.213,0,0,0-2.128,2.2c-.032.484-.233.783-.731.808-.539.027-.776-.294-.829-.791a2.182,2.182,0,0,0-2.157-2.217c-.5-.056-.827-.273-.833-.8C-2101.531,129.926-2101.135,129.642-2100.567,129.666Z" transform="translate(-2.555 -20.752)" fill="#001d3b"/>
    <path id="Path_16092" data-name="Path 16092" d="M-2061.076,159.941a3.549,3.549,0,0,1,2.582,1.187c.247.27.346.239.575-.005a3.637,3.637,0,0,1,2.521-1.178c.527-.031.933.136.964.7.029.521-.309.741-.821.8a2.2,2.2,0,0,0-2.159,2.227c-.048.514-.335.833-.825.816-.449-.016-.707-.314-.741-.817a2.226,2.226,0,0,0-2.178-2.226c-.509-.055-.836-.263-.813-.8C-2061.947,160.092-2061.567,159.93-2061.076,159.941Z" transform="translate(-35.225 -45.759)" fill="#001d3b"/>
    <path id="Path_16093" data-name="Path 16093" d="M-1831.882,159.594c-.523.019-.892-.188-.955-.737-.054-.47.365-.793.959-.8.518-.005.9.18.952.739C-1830.879,159.279-1831.277,159.593-1831.882,159.594Z" transform="translate(-224.475 -44.205)" fill="#001d3b"/>
    <path id="Path_16094" data-name="Path 16094" d="M-1863.225,124.933c0,.633-.273,1-.745,1-.489,0-.768-.386-.757-1.058.01-.627.3-.977.784-.957S-1863.223,124.269-1863.225,124.933Z" transform="translate(-198.139 -16.004)" fill="#001d3b"/>
    <path id="Path_16095" data-name="Path 16095" d="M-1887.951,136.145a1.222,1.222,0,0,1-1.133-1.049.722.722,0,0,1,.741-.747,1.267,1.267,0,0,1,1.065,1.059A.708.708,0,0,1-1887.951,136.145Z" transform="translate(-178.021 -24.621)" fill="#001d3b"/>
    <path id="Path_16096" data-name="Path 16096" d="M-1841.984,136.149a.706.706,0,0,1-.68-.73,1.26,1.26,0,0,1,1.055-1.066.726.726,0,0,1,.751.738A1.225,1.225,0,0,1-1841.984,136.149Z" transform="translate(-216.361 -24.624)" fill="#001d3b"/>
    <path id="Path_16097" data-name="Path 16097" d="M-1841.89,180.808c.532.065,1.1.73,1.018,1.155a.715.715,0,0,1-.837.631,1.216,1.216,0,0,1-.957-1.139A.727.727,0,0,1-1841.89,180.808Z" transform="translate(-216.354 -62.995)" fill="#001d3b"/>
    <path id="Path_16098" data-name="Path 16098" d="M-1897.893,158.061c.558.025.9.346.864.819s-.41.74-1.033.713c-.565-.025-.889-.333-.858-.818S-1898.519,158.033-1897.893,158.061Z" transform="translate(-169.895 -44.205)" fill="#001d3b"/>
    <path id="Path_16099" data-name="Path 16099" d="M-1888.378,182.62a.7.7,0,0,1-.7-.712,1.242,1.242,0,0,1,1.032-1.081.723.723,0,0,1,.771.715A1.235,1.235,0,0,1-1888.378,182.62Z" transform="translate(-178.021 -63.011)" fill="#001d3b"/>
    <path id="Path_16100" data-name="Path 16100" d="M-1863.237,191.1c.04.527-.2.909-.748.911s-.76-.4-.755-.931c.007-.633.288-1,.789-.96C-1863.369,190.175-1863.208,190.569-1863.237,191.1Z" transform="translate(-198.129 -70.687)" fill="#001d3b"/>
    <path id="Path_16101" data-name="Path 16101" d="M-2024.465,169.69a2.245,2.245,0,0,0-.519-.019c-2.083,0-4.166-.013-6.248.01-.408,0-.507-.1-.5-.5.029-1.149.041-2.3.005-3.45-.056-1.8.137-3.593.11-5.391-.014-.977-.377-1.751-1.13-1.828-1.02-.1-.941-.694-.914-1.382.024-.607,0-1.215.006-1.822.015-1.6-.078-3.206-.078-4.806,0-1.122.089-2.249.073-3.374a1.646,1.646,0,0,0-1.6-1.781c-.365-.038-.4-.172-.405-.474-.013-2.687.038-5.374-.083-8.062-.058-1.294.075-2.6.081-3.894,0-1.03-.5-1.8-1.35-1.865-.694-.054-.69-.371-.689-.89q.021-7.649.007-15.3c0-1.133-.507-1.843-1.5-1.935-.506-.047-.518-.257-.513-.644.017-1.475.007-2.951.007-4.426q0-.2,0-.391c0-.522-.2-.93-.768-.927s-.76.394-.757.928q.014,2.473,0,4.947c0,.17.148.408-.227.486-1.478.308-1.79.71-1.791,2.2q0,3.873,0,7.746c0,.564.207,1.323-.076,1.64-.33.369-1.1.11-1.683.116-1.729.015-2.282.564-2.282,2.312q0,5.791,0,11.582c0,.253.009.415-.345.471a1.7,1.7,0,0,0-1.665,1.989q-.006,4.069,0,8.137c0,1.649,0,3.3,0,4.947,0,.192.091.408-.25.494-1.525.381-1.78.725-1.78,2.275,0,4.1-.008,8.2.011,12.3,0,.449-.1.579-.562.572-2.017-.027-4.035-.012-6.053-.011a3.364,3.364,0,0,0-.455.006.71.71,0,0,0-.69.724.7.7,0,0,0,.64.767,2.844,2.844,0,0,0,.519.021h16.4q8.266,0,16.531,0a2.5,2.5,0,0,0,.58-.047.669.669,0,0,0,.545-.711A.708.708,0,0,0-2024.465,169.69Zm-10.688-11.812c0,.285-.006.448-.387.495a1.69,1.69,0,0,0-1.639,1.878c0,.325.016.651-.008.974-.013.177.145.468-.236.478s-.264-.273-.265-.46c-.008-1.277,0-2.555,0-3.833s.013-2.555-.008-3.832c-.006-.365.095-.491.467-.47.668.038,1.551-.22,1.949.115.415.349.11,1.262.124,1.927C-2035.142,156.058-2035.163,156.968-2035.153,157.878Zm-1.252-11.01c1.294,0,1.467.211,1.254,1.511-.035.216-.113.3-.326.294-.3-.009-.606,0-.909,0-1.453,0-1.444,0-1.314-1.442.025-.276.118-.393.388-.383C-2037.01,146.857-2036.708,146.868-2036.405,146.868Zm-.77-1.987c0,.3-.04.429-.4.462a1.643,1.643,0,0,0-1.61,1.7c-.027.41-.01.823-.014,1.234,0,.2.018.416-.285.39-.265-.023-.208-.235-.208-.394,0-1.516,0-3.032,0-4.548,0-1.473.012-2.945-.008-4.418-.005-.4.061-.589.519-.554.644.049,1.5-.214,1.883.108.4.338.109,1.22.117,1.863C-2037.168,142.109-2037.188,143.5-2037.175,144.881Zm-.394-12.385c.263,0,.417.088.388.377a.986.986,0,0,0,0,.13c.042,1.3.042,1.3-1.243,1.3-1.346,0-1.336,0-1.281-1.35.013-.325.092-.475.444-.462C-2038.7,132.513-2038.133,132.5-2037.569,132.5Zm-3.651,1.469c0,.177.021.345-.253.341s-.26-.159-.26-.343q0-1.854,0-3.707v-2.862c0-2.081.02-4.163-.014-6.244-.008-.508.144-.627.614-.588a11.389,11.389,0,0,0,1.495,0c.325-.016.446.065.445.42q-.02,4.78,0,9.561c0,.337-.105.422-.437.456a1.653,1.653,0,0,0-1.584,1.727C-2041.229,133.141-2041.22,133.553-2041.22,133.965Zm.795-19.526c1.252-.01,1.232-.01,1.236,1.261,0,.435-.131.566-.553.539-.537-.033-1.078-.019-1.617,0-.272.007-.362-.078-.383-.363C-2041.845,114.45-2041.855,114.45-2040.425,114.439Zm-1.315,3.51c.061-.262.226-.216.389-.218.433-.005.867,0,1.3,0,.858,0,1.026.221.854,1.07-.04.2-.128.245-.3.243-.325,0-.65,0-.976,0h-.455C-2041.725,119.042-2041.925,118.756-2041.739,117.949Zm.262,17.87c1.214,0,2.429.014,3.642-.008.4-.007.568.064.555.519-.026.911,0,.912-.925.912-2.342,0-4.684-.024-7.025.017-.573.01-.588-.251-.541-.649.041-.346-.232-.84.521-.806C-2043.994,135.86-2042.734,135.819-2041.477,135.819Zm-.251,3.434c0-.178-.141-.469.229-.49.432-.025.272.309.274.5.012,1.474.007,2.948.007,4.422,0,1.5.005,2.992-.007,4.487,0,.176.154.474-.22.495-.422.024-.282-.306-.282-.505Q-2041.74,143.708-2041.728,139.253Zm-2.013,1.836a2.23,2.23,0,0,0-.42-1.529,3.169,3.169,0,0,0-1.576-.8c.731,0,1.463.009,2.193,0,.353-.006.3.232.3.441q0,4.487,0,8.973c0,.188.112.487-.242.489s-.242-.3-.243-.486Q-2043.747,144.633-2043.74,141.089Zm-2.04-14.4c0-.421.109-.585.545-.557a13.539,13.539,0,0,0,1.561,0c.347-.018.44.1.435.441-.018,1.215-.007,2.43-.007,3.645,0,1.193-.016,2.387.009,3.579.008.394-.093.551-.5.512-.66-.063-1.524.272-1.926-.141-.32-.328-.1-1.192-.1-1.817C-2045.775,130.463-2045.76,128.576-2045.78,126.689Zm-2.008,14.268c0-.365.113-.5.486-.481.647.038,1.482-.2,1.893.12.441.343.119,1.216.144,1.857.029.715.007,1.432.007,2.148,0,1.193-.019,2.387.01,3.58.01.415-.124.523-.517.5a15.32,15.32,0,0,0-1.562,0c-.323.013-.464-.069-.463-.428Q-2047.77,144.6-2047.789,140.957Zm0,9.954c.024-.392-.124-.793.581-.772,1.885.056,3.773.019,5.66.019,1.908,0,3.818.035,5.725-.018.7-.02.548.383.577.774.033.445-.007.708-.594.679-1.549-.076-3.105-.094-4.652-.076-2.238.026-4.478,0-6.715.077C-2047.808,151.616-2047.813,151.338-2047.787,150.911Zm8.593,10.339c0,.2.075.473-.282.455-.319-.016-.223-.271-.224-.441-.008-1.278,0-2.557,0-3.835s0-2.557.005-3.835c0-.182-.13-.473.24-.481s.263.276.264.467Q-2039.187,157.415-2039.194,161.25Zm-2.029.018c0,.162.116.414-.217.436-.363.024-.291-.234-.292-.437q0-1.948,0-3.9,0-1.915,0-3.831c0-.2-.071-.453.292-.43.338.021.216.27.217.43Q-2041.213,157.4-2041.224,161.268Zm-2.022-3.889c0,1.28,0,2.56,0,3.84,0,.188.11.49-.254.475s-.229-.313-.23-.5q-.012-3.807,0-7.615c0-.182-.127-.478.253-.464s.228.309.23.487C-2043.24,154.863-2043.246,156.121-2043.246,157.379Zm-3.771-4.275c.566.091,1.338-.24,1.666.135.282.323.087,1.069.09,1.628.006.844,0,1.688,0,2.532,0,1.277.005,2.554-.006,3.83,0,.179.132.467-.246.473s-.256-.281-.257-.463c-.009-1.558,0-3.116-.006-4.674,0-1.289-.407-1.8-1.68-2.019-.469-.08-.29-.386-.331-.629C-2047.885,153.309-2047.718,152.992-2047.017,153.1Zm-2.263,2.905c1.991-.049,1.991-.061,1.991,1.915,0,1.1-.014,2.21.008,3.314.007.375-.113.491-.482.472a15.4,15.4,0,0,0-1.624,0c-.354.019-.44-.113-.431-.445.021-.779.007-1.559.007-2.339s.021-1.56-.009-2.339C-2049.835,156.171-2049.717,156.02-2049.28,156.01Zm-.005,7.166q7.739.044,15.479,0c.652,0,.567.332.555.721-.011.36.142.742-.529.731-2.6-.043-5.2-.018-7.8-.018-2.558,0-5.117-.023-7.674.017-.566.009-.6-.23-.551-.642C-2049.767,163.635-2050.034,163.171-2049.285,163.175Zm1.889,6.391c-.294.343-1.063.034-1.614.113-.7.1-.864-.187-.814-.839.059-.775.025-1.557.008-2.336-.007-.282.077-.377.364-.367q.908.03,1.817,0c.3-.01.36.117.351.382-.016.475,0,.952,0,1.428h-.049C-2047.338,168.5-2047.122,169.246-2047.4,169.567Zm2.141-.212c0,.19-.008.328-.267.324s-.25-.165-.25-.34c0-.5,0-.991,0-1.487,0-.474,0-.948,0-1.422,0-.166.019-.284.235-.291.238-.008.286.1.284.308C-2045.261,167.415-2045.26,168.385-2045.256,169.354Zm2.01-2.872c0,.474,0,.947,0,1.421s0,.947,0,1.421c0,.17.031.347-.241.351s-.253-.161-.253-.34q0-1.421,0-2.842c0-.17-.033-.35.241-.352S-2043.245,166.3-2043.246,166.482Zm1.76,3.2c-.328-.011-.242-.235-.245-.408-.008-.474,0-.948,0-1.422q0-.679,0-1.357c0-.169-.031-.34.24-.353.317-.015.276.184.276.377,0,.926,0,1.853,0,2.779C-2041.22,169.477-2041.159,169.689-2041.486,169.677Zm2.3-.346c0,.18.006.346-.258.347s-.26-.156-.259-.339c0-.5,0-.995,0-1.492,0-.454,0-.908,0-1.362,0-.178-.012-.348.251-.349s.267.153.266.341Q-2039.193,167.9-2039.19,169.332Zm1.762.346c-.256,0-.269-.136-.268-.328,0-.969.006-1.939,0-2.908,0-.217.066-.307.293-.3s.226.138.225.295c0,.5,0,.991,0,1.486q0,.711,0,1.421C-2037.179,169.514-2037.154,169.68-2037.428,169.678Zm4.191-2.821a21.877,21.877,0,0,0-.007,2.34c.011.35-.059.542-.45.474a1.193,1.193,0,0,0-.13,0c-.6-.038-1.4.257-1.742-.122-.289-.323-.06-1.111-.06-1.694.027-.554-.279-1.29.084-1.612.308-.274,1.031-.05,1.564-.108C-2033.4,166.072-2033.191,166.249-2033.237,166.858Zm-1.2-5.155c-1.245,0-1.23,0-1.229-1.267,0-.4.076-.6.53-.565.538.037,1.08.016,1.62.006.275,0,.405.1.374.382a.4.4,0,0,0,0,.065C-2033.071,161.7-2033.071,161.7-2034.435,161.7Z" transform="translate(-37.611 -1.652)" fill="#001d3b"/>
    <path id="Path_16102" data-name="Path 16102" d="M-1879.266,139.528a3.985,3.985,0,0,0-3.977,4.025,3.993,3.993,0,0,0,3.975,3.967,4.013,4.013,0,0,0,3.989-4.029A4.006,4.006,0,0,0-1879.266,139.528Zm-.027,6.467a2.49,2.49,0,0,1-2.455-2.5,2.49,2.49,0,0,1,2.5-2.45,2.454,2.454,0,0,1,2.437,2.5A2.453,2.453,0,0,1-1879.293,145.995Z" transform="translate(-182.845 -28.899)" fill="#001d3b"/>
  </g>
</svg>
