<svg xmlns="http://www.w3.org/2000/svg" viewBox="0 0 335.27 359.28"><defs><style>.cls-1{fill:#023e89;}.cls-2{fill:#0095c6;}.cls-3{fill:#00b3d7;}.cls-4{fill:#fbe942;}.cls-5{fill:#fcc641;}.cls-6{fill:#ee5350;}.cls-7{fill:#e43935;}.cls-8{fill:#48c9e3;}.cls-9{fill:#eeac1b;}.cls-10{fill:#fbc641;}.cls-11{fill:#fc7272;}.cls-12{fill:#e05254;}.cls-13{fill:#023e8a;}.cls-14{fill:#fae842;}.cls-15{fill:#f9e842;}.cls-16{fill:#fae942;}</style></defs><g id="Layer_2" data-name="Layer 2"><g id="Layer_1-2" data-name="Layer 1"><path class="cls-1" d="M329.32,317.3c4.31,1.12,6.34,3.47,5.89,6.81s-3,5.23-7.4,5.24q-16.44,0-32.88,0c-5.52,0-7.73-2.1-7.46-7.76.16-3.36-.65-4.29-4-3.52-5.15,1.17-10.21,2.63-14.42,5.81-11.56,8.72-24.53,12.28-38.87,11.49-2.85-.16-5.72,0-8.58.06-6.69,2.75-11.88.31-13-6.09.86-4.85,2.87-6.83,7.64-7,6.35-.22,12.71-.09,19.07-.06a37.49,37.49,0,0,0,22.54-6.76c7.54-5.38,15.68-9.19,24.87-10.57,2.58-.39,3.57-1.81,3.57-4.34q0-28,0-56.08c0-3-1.33-4.05-4.07-3.89-5.72-.27-11.44-.15-17.16-.1a10.21,10.21,0,0,1-8.36-4c-10.69-12.46-21.64-24.68-32.35-37.12-1.93-2.24-2.78-2.07-3.92.57a15,15,0,0,0-1,4.72c-1.43,6,.29,11.49,3,16.73,1.46,2.85,3.29,5.51,4.89,8.29a7.91,7.91,0,0,1,1.15,4.6c-1.35,4.83-3.24,6.32-8.63,6.36-12.44.1-24.87,0-37.31,0-2.65,0-5.29.05-6.95,2.64-1.41,3.91.13,6.6,4.23,7,3.57.37,7.18.08,10.77.15,2.72.05,5.13.76,6.84,3.06,2.61,6.24-.08,10.65-6.74,11-3.22.15-6.45,0-9.67.07-2.35,0-4.42.62-5.63,2.88-1,4.15.54,6.52,4.74,6.86,3.47.29,7,.06,10.44.12,2.74,0,5.16.75,6.88,3.08,2.59,6.26-.11,10.64-6.81,10.93-3.23.15-6.46,0-9.68.07-2.37,0-4.42.68-5.6,2.95-.8,4,.35,5.76,4.2,6,3.61.26,7.23,0,10.84.11a8.53,8.53,0,0,1,5.61,1.68,6.66,6.66,0,0,1,2.39,6.69,6.54,6.54,0,0,1-5.12,5.35,20.2,20.2,0,0,1-5.21.34,33.43,33.43,0,0,0-6.7.41c-4.15.9-6,2.71-5.76,5.64s2.42,4.42,6.64,4.54c3,.08,6-.1,9,.09,4.54.29,6.52,2.21,7.29,6.9-1.24,5-3.31,6.82-8.2,7.05-3.61.16-7.23.18-10.84,0-10.39-.5-18.1-8.21-18.77-18.66a19.33,19.33,0,0,1,2.69-10,4.33,4.33,0,0,0,0-4.85c-3.62-6.25-3.56-12.6,0-18.83a4.68,4.68,0,0,0-.08-5.21,17.69,17.69,0,0,1,0-18.51,5.22,5.22,0,0,0,0-5.56c-6.87-13.44,2.06-28,17.21-28.12,9.47-.07,19,0,28.42,0a3.53,3.53,0,0,0,.56-.14,28.62,28.62,0,0,1-3.82-13.09c-.22-6.09-3.84-9.81-8.26-13a42,42,0,0,0-21.22-7.59c-3.27-.31-4.7,1.58-5.82,4.17-5.2,12-10.59,23.93-15.89,35.9-1.11,2.5-2.26,5-3.33,7.52-3,7-7.55,8-13.46,3.24-1.11-1-2.3-1.84-3.42-2.8-1-.83-2-1.52-3.33-.85a3.47,3.47,0,0,0-1.9,3.33,15.08,15.08,0,0,0,.66,4c3.09,20.12,5.76,40.29,8.77,60.41.53,3.51.26,6.65-1.93,9.51-5.38,8.68-10.49,17.54-15.84,26.25-4,6.53-9.66,6.57-13.62.07-5.5-9-10.89-18.18-16.39-27.24a10.32,10.32,0,0,1-1.47-7.49c.56-3.06.89-6.16,1.34-9.24.69-4.75,2.58-6.61,7.4-7.47,5.16,1.59,6.43,3.29,6.36,8.51a1.35,1.35,0,0,1,0,.37c-3.44,10.41,4.23,17.1,8.38,25,1,1.87,1.83,1,2.59-.28,1.64-2.77,3.3-5.53,4.89-8.34,3.61-4.6,4.24-9.57,3.29-15.39-2.81-17.29-5-34.68-7.54-52a3.73,3.73,0,0,0-.82-2.39c-2.7-1.31-3,.71-3.24,2.45-1.1,6.73-2,13.5-2.94,20.26-.25,1.72-.49,3.44-.84,5.14-.95,4.65-3.42,6.64-8.3,6.79-4.8-2.17-6.13-4.43-5.39-9.63,1.3-9.21,2.64-18.4,3.92-27.61.53-3.77-.41-4.76-4-4.59-1.91,1.34-3.68,2.84-5.51,4.28-2.52,2-5.21,2.64-8.17,1-2.31-1.31-3.32-3.55-4.33-5.85-3.86-8.75-7.58-17.55-11.76-26.15-2-4.8-4.16-9.5-6.19-14.27-3.07-7.2-3.39-7.41-11.08-5.78-20,3.59-34,20.12-34,40.49-.08,37.64,0,75.27,0,112.9,0,2.2.46,4.52-1,6.51-1.13,4.31-3.48,6.34-6.81,5.89s-5.23-3-5.23-7.41c0-39.63-.13-79.26,0-118.89.13-29.14,24-52.86,53.15-53.19,6.85-.08,13.71.06,20.56-.09,1.33,0,3.47,1.29,4-1.15a4.53,4.53,0,0,0-2.3-5.28,52.09,52.09,0,0,1-11.6-10.49c-10.47-12.35-16.11-26.64-15.82-42.81.14-8.44-1.63-15-7.13-22.14C25.64,77.85,26.64,55.84,38.18,34.58,50.33,12.19,70,.9,95.47.2c12.33-.34,24.68-.17,37,0A64.32,64.32,0,0,1,174,15.53c3.95,3.29,4.3,5.38,1.83,10-2.58,3.05-5.48,3.37-9.09.76a87.64,87.64,0,0,0-8.57-6,53.57,53.57,0,0,0-26-7.11c-11.71,0-23.43,0-35.15,0a54.78,54.78,0,0,0-17.65,2.7C54.06,23.32,33.83,55.15,47.1,84.47c-.59-5.84.91-11.38,2.79-16.77,1.82-5.17,4.69-6.41,10.28-5.1,3.48,2.39,4.25,5.58,2.89,9.48a42.17,42.17,0,0,0-2.14,14.33c.06,10.83,0,21.67,0,32.5,0,24.65,15,45.18,38.62,51.7,18.92,5.22,36,1,50.43-12.57,11.43-10.67,16.59-24,16.6-39.44,0-11.47-.05-22.93,0-34.4-.06-5.2-.06-5.17-5.15-5.23-8.2-.1-16.41.46-24.56-1.09A70.19,70.19,0,0,1,97,55.49c-.32-.38.06.12-.26-.26-5.16-6.37-5.92-6.55-13.7-3.43-2.19.88-4.22,2.06-6.32,3.11-4.44,2.21-6.26,1.92-10-1.48-2-4.81-1.31-7.49,2.83-10.26,7.78-5.21,16.57-7.3,25.75-8,3.53-.28,5.76,1.88,7.52,4.66a54.89,54.89,0,0,0,16.53,16.47C128,62,137.65,64.59,147.91,64.9c8,.25,15.94,0,23.91.07,6.37.07,8.73,2.49,8.83,8.89,0,3.11,0,6.22,0,9.78,1.41-3.86,2.88-7.28,3.29-11,1.93-10-.28-19.43-4.09-28.63-2-4.89-1-7.61,3.22-9.19,4.83-1,6.68-.23,8.51,3.78,10.2,22.26,8,48.12-10.4,65.92a5.22,5.22,0,0,0-1.54,4.31c.09,10.09.28,20.17-2.81,30a66.39,66.39,0,0,1-23.89,33.94,11.89,11.89,0,0,1-1.83,1.29c-2.14,1.07-1.44,3-1.3,4.62.18,2,2,1,3,1,8.6.15,17.24-.28,25.8.38,11.46.87,21.65,5.42,30.59,13.23,2.11-3.84,4.14-7.49,7-10.58,3.71-4,7.11-4.08,10.71,0,12.33,14.06,24.68,28.1,36.89,42.27a6.8,6.8,0,0,0,6,2.68c5-.19,10-.16,15,0,2.15.07,2.9-.62,2.65-2.71a17.25,17.25,0,0,1,0-3.37c.26-3.54,2.42-5.86,6-5.89q18-.15,35.91,0a5.79,5.79,0,0,1,5.93,5.57c.21,3.23-1.71,5.31-5.94,6.45-1.71,1.35-3.75,1.07-5.71,1.07-4.08,0-8.16.12-12.24-.07-2.49.19-5,.07-7.47.11-2.11,0-3.26.94-3.28,3.13,0,1-.05,2-.05,3q0,37.72,0,75.46c0,5.75.05,5.78,5.84,5.8,6,0,12,0,17.94,0C326.06,316.21,327.84,316.09,329.32,317.3Z"/><path class="cls-2" d="M98.26,292.73c-5.2,1.22-6.44,2.63-6.93,7.71a26.56,26.56,0,0,1-.83,5.88c-1.69,5,.43,8.83,3,12.85,5,8,9.78,16.18,14.65,24.29,3.15,5.25,8.2,5.23,11.38,0q7.93-13.06,16-26.08a59.84,59.84,0,0,1,26.13,0c.86,11,8.32,17.93,19.43,18q4.31,0,8.6,0c5,0,6.42-1.06,8.08-6a13.87,13.87,0,0,1,11.81,0c1,4.65,2.61,5.95,7.3,6l4.8.09c0,4.48-.28,9,0,13.44.25,3.49-.61,4.53-4.35,4.52q-79.38-.21-158.78-.09l-4.48,0c-1.8-1.86-1.24-4.22-1.25-6.4q-.06-39.27,0-78.55a23.14,23.14,0,0,0-.32-5.58c-.58-2.3-2-3.77-4.47-3.77S44,260.5,43.47,262.8a22.68,22.68,0,0,0-.33,5.58q0,39.28,0,78.55c0,2.18.55,4.54-1.25,6.4H12.09c0-40.71-.21-81.43,0-122.14.11-18,15.62-35.54,33.2-38.66a18.86,18.86,0,0,1,2.61-.11c1.35,1.44,1,3.27,1,5,0,10.22-.14,20.44,0,30.66.47,26.64,10.84,48.78,30.59,66.59.65.58,1.34,1.11,2,1.64,2.74,2.09,3,2,3.53-1.35,1.54-10.22,2.85-20.49,4.44-30.71,1.28-8.23,1.83-16.58,4-24.68,1-.91,1.86-1.9,3.48-.8,1.8,1.22,2.88,2.53,2.51,4.86-.92,5.84-1.73,11.71-2.59,17.56-.62,4.15-1.2,8.3-1.87,12.44s1.63,6.2,4.75,7.91A12.58,12.58,0,0,1,98.26,292.73Z"/><path class="cls-3" d="M183,34.78c-3.78,3.13-4,4.6-2.07,9.29,3.81,9.19,6,18.62,3.86,28.62-1.33.46-2.17-.47-2.83-1.27C176.69,65,171.73,58.24,165.13,53a3.31,3.31,0,0,1,.23-1.08c2.43-6.08.78-8.55-5.66-8.92A53.43,53.43,0,0,1,126,29c-4.17-3.77-6.65-3.53-10.21.83-1.24,1.62-2.58,1.11-3.88.14-4.88-3.66-10.4-4.9-16.44-5.06a24.51,24.51,0,0,1-15.27-6.19c-1.08-.91-2.6-1.77-1.56-3.65a41,41,0,0,1,15.67-2.95q19.08-.18,38.16,0a52.19,52.19,0,0,1,33.64,12.42c3.26,2.71,6.22,3.39,9.75,1Z"/><path class="cls-1" d="M264.05,116.87c.52-3.16.91-6.9,1.8-10.51.55-2.2-.18-3.47-1.66-4.83-2.47-2.27-4.81-4.7-7.23-7a5.91,5.91,0,0,1-1.79-6.44,5.85,5.85,0,0,1,5.23-4.13c3.33-.46,6.64-1.17,10-1.41a4.59,4.59,0,0,0,4.38-3.27c1.1-2.63,2.52-5.13,3.73-7.72s2.84-5,6.3-4.93S289.73,69,291,71.67s2.7,5.33,3.88,8.06a4.19,4.19,0,0,0,4,2.75c3.46.32,6.9,1,10.34,1.45a5.74,5.74,0,0,1,5,3.92,6,6,0,0,1-1.58,6.52c-1.71,1.64-3.19,3.6-5.12,4.9-4.2,2.82-4.68,6.45-3.34,10.91a34.26,34.26,0,0,1,1.15,6.61c.54,5.55-3.86,8.7-8.89,6.34a85.69,85.69,0,0,1-8.89-4.71,5,5,0,0,0-5.78.08c-2.89,1.7-5.86,3.29-8.9,4.7C268.11,125.39,263.86,122.52,264.05,116.87Z"/><path class="cls-1" d="M264.06,50.43c.5-3,.89-6.63,1.75-10.12.6-2.44-.18-3.92-1.92-5.46-2.43-2.13-4.66-4.49-7-6.75a6,6,0,0,1-1.73-6.47c.79-2.57,2.8-3.74,5.27-4.14,3.44-.55,6.89-1.15,10.35-1.43a4.17,4.17,0,0,0,3.83-2.89c1.38-3.06,3-6,4.42-9,1.17-2.46,3-4,5.79-3.95,2.64,0,4.37,1.54,5.5,3.83a41.88,41.88,0,0,1,3.06,6.38c1.33,4.55,4.47,6,8.8,6.2a46.26,46.26,0,0,1,7,1c5.39,1.09,7.06,6.39,3.37,10.48a9.7,9.7,0,0,1-1.87,1.81c-7.15,4.52-8.45,10.79-5.79,18.43.78,2.24,1,4.71-.6,6.81-2,2.6-4.61,3.33-7.6,1.87s-6.24-3.11-9.23-4.87A4.78,4.78,0,0,0,282,52a96.83,96.83,0,0,1-9.23,4.89C268.07,59.06,263.84,56.15,264.06,50.43Z"/><path class="cls-1" d="M264,183.38c.55-3.41,1.08-7.37,1.9-11.26a3.37,3.37,0,0,0-1.15-3.59c-2.64-2.47-5.17-5.06-7.77-7.56a6,6,0,0,1-1.82-6.46,5.76,5.76,0,0,1,5.2-4.16c2.72-.35,5.41-1.14,8.12-1.17,3.79-.05,5.84-1.8,7.09-5.22.88-2.44,2.33-4.67,3.41-7,1.16-2.53,3.05-4,5.81-3.94a6,6,0,0,1,5.53,3.79c1.4,2.91,3.06,5.72,4.21,8.73,1,2.5,2.62,3.28,5.06,3.52,3.21.31,6.43.79,9.6,1.41,5.42,1.06,7.09,6.35,3.28,10.41-2.39,2.54-4.92,4.95-7.51,7.29a4.07,4.07,0,0,0-1.49,4.55c.83,3.24,1.22,6.6,1.77,9.91.44,2.65,0,5-2.36,6.65s-4.68,1.31-7,0a71.41,71.41,0,0,1-7.23-3.87c-2.84-1.95-5.26-1.82-8.08.08a51.89,51.89,0,0,1-7.93,4.14C268.05,191.68,263.91,188.86,264,183.38Z"/><path class="cls-2" d="M329.32,317.3c-9,0-17.94,0-26.91.13-2.55.05-3.1-.91-3.1-3.26q.1-41.67,0-83.34c0-2.34.51-3.46,3.09-3.28,3,.22,6,.11,9,.15,1.46,1.69,1.07,3.76,1.07,5.71q0,25.53,0,51.06c0,10.91,3.85,16.25,14.09,19.61a5.76,5.76,0,0,1,2.62,1.34Q329.25,311.36,329.32,317.3Z"/><path class="cls-3" d="M329.16,305.42a18.25,18.25,0,0,1-17.83-18.26q0-29.73,0-59.46H329.3q0,36.81,0,73.61C329.28,302.68,329.2,304.05,329.16,305.42Z"/><path class="cls-1" d="M41.86,353.33l.09-87.1a24.5,24.5,0,0,1,.09-3.74,5.77,5.77,0,0,1,6.08-4.94,5.66,5.66,0,0,1,5.69,4.95,19.28,19.28,0,0,1,.1,3.73q.06,43.54.09,87.1c-.53,3.5-2.37,5.87-6.07,5.87S42.38,356.84,41.86,353.33Z"/><path class="cls-4" d="M167.53,84c-.08,14.78,1.18,29.61-.68,44.32a48.07,48.07,0,0,1-16.23,30.56c-7.91,4.27-16.49,4.49-25.07,3.62a59.5,59.5,0,0,1-36-16.6C78.69,135.38,72.68,122.33,71,107.3c-.13-1.24-.15-2.53,1.13-3.32,1-.08,1.57.63,2.23,1.17,2.51,2.08,4.93,1.75,7.47-.05,5.55-3.94,9.84-4,15.4-.34.41.27.81.58,1.24.82,2.84,1.6,5.35,1.28,7-.88s1.37-5.25-1.22-7.26c-6.81-5.33-14.29-7.32-22.63-3.8a32.22,32.22,0,0,0-6.71,4c-.92.7-1.73,2-3.23,1.18-1.1-1.39-1-3.06-1-4.66,0-9.34.07-18.68-.06-28,0-3.69,1.3-6,4.65-7.68a48.9,48.9,0,0,1,17.09-5c1.89-.2,3.46,0,4.66,1.59,6,7.68,12.43,14.86,21.07,19.69a62.48,62.48,0,0,0,29.47,8.21c5.09.11,10.19,0,15.28,0C164.53,83,166.21,82.69,167.53,84Z"/><path class="cls-4" d="M218.58,204.4c.1-3.32,1.37-6.21,3.29-9.22l24.71,28.23c3.85,4.4,7.73,8.78,11.52,13.23a7.88,7.88,0,0,0,6.5,3c5.6-.07,11.19.05,16.79.09a4.59,4.59,0,0,1,1.08,3.47c0,6.48.3,13-.09,19.44s-2.63,12.23-7.91,15.91c-8.25,5.75-16.38,11.88-26.45,14.38a44.07,44.07,0,0,1-10.69,1.64q-28.05,0-56.1,0a13.25,13.25,0,0,1-3.72-.3c-1.56-.45-3.2-.91-3.16-3.06.85-2.87,3.09-3.65,5.72-3.71,3.21-.06,6.43,0,9.64,0,6.63,0,9-3.24,7-9.44-3-4.86-7-7.83-13-7.51a19.86,19.86,0,0,1-7-.42c-1.31-.4-3.13-.63-2.37-2.85.85-2.86,3.09-3.64,5.72-3.7,3.21-.07,6.43,0,9.64,0,6.63,0,9-3.24,7-9.44-3-4.87-7-7.84-13-7.51a20.09,20.09,0,0,1-7-.42c-1.31-.4-3.13-.63-2.37-2.85,1-3.24,3.62-3.73,6.51-3.73q19.6,0,39.2,0c4.77,0,6.26-1.23,7.57-6,1.61-1.38,3.44-.93,4.72-.72-3.87-5.76-6.94-12.4-10.38-18.82C220.35,211,218.59,208,218.58,204.4Z"/><path class="cls-3" d="M161.56,317.35l-26.13,0c4.41-6.39,1.13-13,.34-19.45-2.12-17.23-4.66-34.42-7-51.62,1.85-.38,1.66,2,3.14,2.27,1.47-1.16,2-3,3-4.51.65-1,1.11-2.43,2.8-1.5.31.21.64.39.93.61,5.07,4,8.74,3,11.36-2.92,6.6-14.9,13.34-29.75,19.74-44.74,1.4-3.28,3.23-4.15,6.48-3.84,10.83,1,20.16,5.12,27.66,13.14a7.67,7.67,0,0,1,2.15,4.93c.54,6,1.51,12,5.07,17.86-10.31,0-19.9.46-29.44-.11-15.57-.92-25.71,16.11-16.51,28.56a2.1,2.1,0,0,1,0,2.93c-4.74,6.91-4.77,13.94-.1,20.88a2.4,2.4,0,0,1,0,3.24c-4.58,6.8-4.6,13.73-.09,20.59.76,1.16,1.16,1.93.12,3.22C162.67,309.93,161.8,313.55,161.56,317.35Z"/><path class="cls-5" d="M174.35,291.18c1.2,2,3.11,2.26,5.19,2.26,19.7,0,39.4.09,59.09-.06a39,39,0,0,0,17.84-4.82,126.26,126.26,0,0,0,17.94-11.31c4.81-3.7,6.83-9.4,6.95-15.49.15-7.36,0-14.71,0-22.07,6-.31,6-.31,6,5.53,0,18.94-.05,37.87.07,56.81,0,2.64-.6,3.61-3.33,3.89a49.51,49.51,0,0,0-24.32,9.69A40.08,40.08,0,0,1,235,323.38c-6-.09-12,0-17.94,0-4.81,0-6.34,1.26-7.54,6H197.67c-1.18-4.77-2.64-5.95-7.48-6-3.23,0-6.47.08-9.7,0-3.73-.12-6.11-2.26-6.36-5.51s1.64-5.44,5.37-6.47c3.44-1,6.91-.59,10.37-.65,5-.09,7.76-2.27,7.69-6.11s-2.76-5.85-7.53-5.87c-3.49,0-7,0-10.46,0C174.87,298.78,172.86,295.9,174.35,291.18Z"/><path class="cls-2" d="M165.25,53.23a27.16,27.16,0,0,1,11,9.72c2.46,3.61,4.89,7.2,8.54,9.74a27.12,27.12,0,0,1-5.2,13.44c0-4.15,0-8.3,0-12.44,0-5.73-1.93-7.69-7.55-7.7-8,0-16,.18-24,0-19.19-.57-34.54-8.65-45.39-24.52-2.95-4.32-5.79-5.8-11.1-4.9-7.47,1.28-14.59,3.06-21,7.1-4.52,2.84-5,4.52-3.23,9.67A38.28,38.28,0,0,1,59.57,63c-6.19-.29-7.76.9-9.45,6.91C48.63,75.23,47.55,80.56,48,86.33,33.85,66.69,44.77,26,78.61,15.11c.33,2.84,3,3.62,4.8,4.83a22.67,22.67,0,0,0,13.3,4.12,24.54,24.54,0,0,1,15.63,5c1,.74,1.76,1.93,2.83.19,4.19,11.14,14.26,15.21,24,19.41a50.12,50.12,0,0,0,24.37,4.1A2.27,2.27,0,0,1,165.25,53.23Z"/><path class="cls-5" d="M59.57,63a35.89,35.89,0,0,1,7.81-9.74c3,2.82,6.06,2.84,9.39.53a28.41,28.41,0,0,1,7.71-3.59c7.94-2.53,8-2.5,12.88,4.41a.54.54,0,0,1,.18.62c-.08.19-.16.28-.24.28-2.48-2.7-5.45-.81-8-.56-5.48.53-10.51,2.81-15.32,5.47-1.16.65-2.06,1.33-2.05,2.81.05,11.58.06,23.15.12,34.73,0,.31.36.63.55.94a5.4,5.4,0,0,1-.21,5.2c-1.23,4.16.32,8.16,1.27,12a59.8,59.8,0,0,0,49.52,45c9.44,1.4,18.46.05,27.49-2.27-13.26,14.32-38.23,19.26-57.43,10.72C71.81,160,60.6,143.25,60,119.8c-.32-11.71,0-23.43-.06-35.15A31.84,31.84,0,0,1,62,72.22C63.6,68.42,62.79,65.45,59.57,63Z"/><path class="cls-3" d="M93.56,239.55c.82,3.95-.54,7.74-1,11.55-1.73,13.35-3.78,26.66-5.69,40-.3,2.08-.5,4.17-.79,6.25-.34,2.5-1.39,2.9-3.39,1.27C64.93,284.2,53.54,266,49.38,243.41c-2.25-12.21-1.19-24.52-1.43-36.8-.1-4.73,0-9.46,0-14.19,6.61-1.95,7.87-1.46,10.49,4.69,2.29,5.38,5.08,10.54,6.81,16.15,3.72,11.85,4.65,24.29,7.45,36.34,2.64-1.78,4.17-5.39,8.16-4.79,2.93,1.39,5.45.71,7.8-1.39C90.2,242,91.91,240.83,93.56,239.55Z"/><path class="cls-6" d="M116.1,246.1c1.38,8.94,2.81,17.88,4.13,26.84,1.63,11.06,2.93,22.18,4.84,33.2.9,5.21-2.35,8.28-4.59,12-2.25,1.12-3.86-.36-5.36-1.53-5.87-4.59-8.47-10.7-7.47-18.06,2.21-16.13,4.57-32.24,6.91-48.36C114.77,248.75,114.83,247.17,116.1,246.1Z"/><path class="cls-7" d="M116.1,246.1c-1.39,10-2.76,20.06-4.18,30.09-1.09,7.7-2.51,15.37-3.3,23.1-.91,8.95,3.85,16.13,11.86,18.84l-6.63,11.63c-4-6.74-8-12.83-11.34-19.27-1.18-2.29.33-5.33.7-8,.81-6,.06-7.39-4.95-9.74q.78-5.6,1.58-11.2c5.7-1.24,6.49-2.08,7.32-7.75,1.18-8.12,2.41-16.24,3.56-24.37C111.33,245,111.5,244.88,116.1,246.1Z"/><path class="cls-8" d="M153.61,191.68c4.86,0,4.83,0,3,4.12-4.6,10.34-9.27,20.64-13.68,31.06-1.2,2.83-2.14,2.94-4.34,1-4.25-3.64-8.63-7.14-13.08-10.54-1.76-1.34-1.81-2.08,0-3.47,7.06-5.52,14-11.18,21-16.81.86-.69,2.06-1.43,2.29-2.36C149.48,191.72,151.44,191.29,153.61,191.68Z"/><path class="cls-8" d="M73.36,191.84c2.94-.59,4.17.25,5.49,2.72,1.93,3.61,6,5.45,9.14,8.08,4.57,3.84,9.27,7.53,14,11.18,1.59,1.23,2.17,2,.17,3.48-4.76,3.6-9.4,7.37-14,11.19-1.69,1.41-2.33,1-3.13-.86-4.83-11-9.76-22-14.66-33.07C68.18,189.63,72.63,192.61,73.36,191.84Z"/><path class="cls-9" d="M129,195.55c-4.5,3.71-9,7.37-13.49,11.13-1.37,1.15-2.33.82-3.56-.17-6.76-5.48-13.58-10.88-20.34-16.35-2.14-1.73-2.1-1.79-1.49-8.94,13.42,5.23,27.1,5.64,41,2.32.19,1.59-1,2.17-2.11,2.67a57.55,57.55,0,0,1-12,4.38C120.5,192.46,125.19,192.82,129,195.55Z"/><path class="cls-5" d="M97.3,55.54l.06-.9c9.86,10.49,21.5,18,35.62,21.43,9.59,2.35,19.31,1.82,29,1.88,5.86,0,5.86,0,5.54,6-7.21,0-14.45.4-21.64-.09-20.21-1.38-36.48-10.11-48.14-26.92A4.89,4.89,0,0,1,97.3,55.54Z"/><path class="cls-2" d="M80.84,244.81c-3.39,1.19-5.59,3.95-8.46,6.43C70.61,247.92,70.6,244.33,70,241c-1.63-9.22-3.78-18.36-4.77-27.69,4.58,8.42,7.93,17.41,11.91,26.1C78.08,241.41,78.94,243.44,80.84,244.81Z"/><path class="cls-10" d="M129,195.55a45.12,45.12,0,0,1-13.45-5c5.25-2.76,11.23-3.09,15.52-7l6.26-2.23c1.52,5.13.16,8.89-4.46,11.45A37.14,37.14,0,0,0,129,195.55Z"/><path class="cls-10" d="M218.58,204.4c4,9.95,9.61,19.06,14.91,29.19h-5.86c-.87-4.25-3.82-7.42-5.79-11.09C218.79,216.8,216.92,210.93,218.58,204.4Z"/><path class="cls-10" d="M174.35,243.29c.77,2.3,2.83,2.11,4.59,2.22,2.35.15,4.71,0,7.07.06,5.34.16,9.21,3.25,10.72,8.5a8.6,8.6,0,0,0-7-2.57c-3.34.15-6.69.16-10,0C175.07,251.27,172.91,247.82,174.35,243.29Z"/><path class="cls-10" d="M174.35,267.23c.77,2.3,2.83,2.11,4.59,2.23,2.35.15,4.72,0,7.07.05,5.34.16,9.21,3.25,10.72,8.5a8.59,8.59,0,0,0-7-2.56c-3.34.15-6.69.16-10,0C175.07,275.21,172.91,271.76,174.35,267.23Z"/><path class="cls-11" d="M108.58,227.66c1.81-1.4,3.36-4.44,5.59-3.64,2.67.95,4.79,3.46,7.09,5.36.87.71.23,1.31-.4,1.74-1.24.82-2.42,1.8-4,1.79a8.35,8.35,0,0,1-7.24-1.54C108.33,230.46,107.41,229.3,108.58,227.66Z"/><path class="cls-2" d="M137.72,242.56c-3.18,1.7-3.29,5.61-5.88,7.9-1.86-.67-1.52-3.18-3.11-4.16-1.19-1.38-.83-3.1-.66-4.6a3.68,3.68,0,0,1,6-2.25C135.36,240.43,136.52,241.52,137.72,242.56Z"/><path class="cls-12" d="M108.58,227.66c.84,4.76,4.8,4.6,8.25,5.25-2.71,1.37-5.35.68-7.89-.43C105.07,230.79,105.06,230.14,108.58,227.66Z"/><path class="cls-13" d="M165.25,53.23c-6.48,1.92-12.82.33-19-1.13-10.55-2.48-19.73-7.79-27.91-14.91a8.66,8.66,0,0,1-3.13-7.9c3-4.9,6.7-5.4,10.94-1.42A51.23,51.23,0,0,0,159.77,42c3,.15,5.74.34,7.26,3.43S167.16,50.92,165.25,53.23Z"/><path class="cls-14" d="M277.78,106.91c1.68-5.43.63-9.49-3.79-12.74,5.62,0,8.91-2.71,10.67-8.64,1.84,5.71,4.88,8.67,10.81,8.5-4,3.34-6.14,7.12-3.67,12.66-2.88-1-4.85-2-6.93-2.35C282.6,104,280.76,105.77,277.78,106.91Z"/><path class="cls-15" d="M284.71,19.06c1.73,6.1,5.21,8.61,11.8,8.48-5.55,3.58-6.8,7.67-5.21,12.88-4.6-3.26-8.78-3.05-13.72.77,1.94-5.89.88-10-4.64-13.68C279.56,27.72,282.94,25.07,284.71,19.06Z"/><path class="cls-16" d="M295.49,160.5c-4.38,3.25-5.72,7.32-3.72,13.39-5-3.81-9.13-4-14.18.22,1.8-6.11,1-10.34-3.65-13.53,5.48-.14,8.95-2.58,10.67-8.75C286.54,157.76,289.82,160.58,295.49,160.5Z"/><path class="cls-1" d="M137.79,90.93a23,23,0,0,1,15.39,6c2.86,2.66,3.21,5.94,1,8.6s-5.45,2.93-8.62.64c-6.05-4.39-9.61-4.38-15.77,0-3.16,2.26-6.42,2-8.61-.75s-1.82-5.77.86-8.32C126.39,93.07,131.65,91.15,137.79,90.93Z"/><path class="cls-1" d="M72.34,104.13a7.74,7.74,0,0,1,.21-5.2c8.7-9.56,22.61-10.67,32.08-2.55,3.39,2.91,4,6.18,1.78,9.08s-5.59,3.09-9.17.38c-5-3.8-9.76-3.85-14.63-.16C78.3,109,75.63,108.55,72.34,104.13Z"/></g></g></svg>