<svg xmlns="http://www.w3.org/2000/svg" viewBox="0 0 359.21 358.19"><defs><style>.cls-1{fill:#023e89;}.cls-2{fill:#fbe942;}.cls-3{fill:#0095c6;}.cls-4{fill:#fcc641;}.cls-5{fill:#fef948;}.cls-6{fill:#023e8a;}.cls-7{fill:#033e8a;}.cls-8{fill:#00b3d7;}.cls-9{fill:#ee5350;}.cls-10{fill:#ed5350;}.cls-11{fill:#47c8e2;}.cls-12{fill:#edac1c;}.cls-13{fill:#00b2d6;}.cls-14{fill:#de3938;}.cls-15{fill:#f6c342;}.cls-16{fill:#053f89;}.cls-17{fill:#054089;}</style></defs><g id="Layer_2" data-name="Layer 2"><g id="Layer_1-2" data-name="Layer 1"><path class="cls-1" d="M35.94,190.59c-4.9-1.33-6.09-2.91-5.94-7.93.6-20.77,17.88-38.6,38.74-40,21.77-1.44,41.52,13.77,44.22,35,2,15.6.68,31.37.55,47.06a27.75,27.75,0,0,1-1,5.49c-1.66,7.57-5.6,13.93-10.95,19.87a115.91,115.91,0,0,0,33-2.23c4-.79,8.08-1.48,12.15-2,2.26-.29,3.12-1.07,3.06-3.51-.19-7.11-.11-14.22-.06-21.32.13-17.15,13.13-30.46,29.77-30.52,16.85-.06,29.94,13.24,30.07,30.59q.08,10.85,0,21.7c0,1.52.11,2.62,2,2.88,15.13,2.12,30.05,6.24,45.7,4.37.45-.72-.46-1.12-.88-1.6a41.83,41.83,0,0,1-10.86-29c0-9-.07-18,.06-26.93,0-2-.66-2.71-2.47-3.3-13.6-4.44-21.44-15.22-21.53-29.4,0-3.24,0-6.49,0-9.73,0-4.43,1.84-7,5.24-7.4s5.68,1.58,6.81,5.89c1.9,3.52.87,7.33,1,11a17.86,17.86,0,0,0,5.18,12.79,16.08,16.08,0,0,0,11.67,5.06c19.91.08,39.82,0,59.73,0,3.82,0,4.19-.7,2.61-4.24a36.66,36.66,0,0,0-3.92-6.78c-6.44-7.46-14.62-10.85-24.44-10.74-10.34.11-20.68,0-31,0-2.24,0-4.5.07-6.58-1-2-1.59-3.21-3.44-2.38-6.11,1.17-4.57,2.73-5.92,7.18-5.94,11.71,0,23.43-.14,35.15,0a41.78,41.78,0,0,1,41.49,41.43c.19,12.21.13,24.43,0,36.64-.1,11.2-4.25,20.83-12.13,29.21,3.62.62,7,1,10.28,1.8a41.39,41.39,0,0,1,31.75,39.87c.22,19.69.07,39.39.06,59.09,0,4.39-1.87,6.94-5.27,7.37s-5.65-1.6-6.81-5.94c-1.27-1.58-1-3.49-1.06-5.31-.15-7.39.26-14.78-.25-22.15-.37-1.23-1.38-1.25-2.4-1.28-3-.07-6,0-9-.05s-4.05,1.1-4,4c.06,6.6,0,13.2,0,19.81,0,1.72.19,3.52-1,5-.6,3.56-2.45,6-6.27,5.91-3.6-.08-5.41-2.43-5.9-5.87-1.21-1.47-1.09-3.25-1.1-5q0-20.32,0-40.65c0-2.79.26-5.49,2.49-7.54,6.15-3.54,11.21-1,11.61,6.16.17,3.07,1.32,4.22,4.31,4.06s5.72,0,8.58-.06c1.68,0,3-.51,3-2.49-.12-6.95.9-14-.78-20.83-2.37-9.73-8.33-16.54-17.6-20.35-3.74-1.54-4.53-1.06-5.24,2.9-1.3,7.35-2.41,14.74-3.7,22.09-1.54,8.7-5.44,10.61-13.43,6.71a7.7,7.7,0,0,0-3.07-1.13c1.17,12.61,2.8,25,4,37.5a8.58,8.58,0,0,1-1.7,5.18c-3.31,4.4-5.4,9.69-9.75,13.32-5.23,8-9.37,8.49-15,0a49.72,49.72,0,0,1-11-16.12c-1.57-3.44.57-7.33.39-11,1.27-9.61,2.17-19.25,3.29-29.12-4.31,1.47-8,5.24-12.75,2.31-2.49-1.49-3.27-3.94-3.73-6.59-1.37-7.85-2.59-15.73-4-23.57-.73-4.17-1.06-4.44-5.35-4.47s-8.72.16-13-.8c-2.34-.53-3.25.34-2.91,2.73.87,6,1.68,12.08,2.62,18.1.34,2.15,1.72,3.48,3.48,4.6,10.47,6.65,9.63,6.06,9.63,18q0,20.36,0,40.71c0,1.85.26,3.77-1,5.39-1.13,4.31-3.48,6.34-6.82,5.9s-5.22-3-5.22-7.42c0-15.2-.06-30.41,0-45.62a5.81,5.81,0,0,0-2.76-5.44c-8.32-6-18.26-7.69-27.56-11-8.2-2.93-16.81-5-22.58-12.28-1-1.28-1.59-.55-2.28.28-4.57,5.5-10.73,8.29-17.36,10.38s-13.18,4.49-19.84,6.53a48.71,48.71,0,0,0-12.07,5.71,6.39,6.39,0,0,0-3.42,6.22c.17,15.33.1,30.67.06,46,0,3.79-2,6.35-5.22,6.64-3.49.31-5.64-1.49-6.64-4.76a10.27,10.27,0,0,1-.18-1.11,6.23,6.23,0,0,1-1.08-4.25c0-6.34-.12-12.69.06-19,.1-9.34.14-18.69,0-28-.07-4.44,1.24-8.07,5.33-9.83,6.54-2.82,8.66-7.92,8.94-14.53.17-3.84,1.07-7.64,1.54-11.48.23-1.92-.4-2.91-2.48-2.46a59.31,59.31,0,0,1-14.14.83c-2.91-.08-4.25,1.14-4.71,4q-1.92,12.18-4.07,24.33c-.4,2.24-1,4.41-2.91,5.89-2.54,2-5.3,1.94-8.09.63-4.4-2.07-8.72-4.3-13.05-6.5-6.9-3.46-6.83-3.46-7.75,4.22-1.27,10.72-2.37,21.46-3.62,32.17-1,3.26.21,5.93,2.17,8.51,2.18,2.84,2.08,2.92,4.15-.22.21-.31.39-.63.59-.95a8.64,8.64,0,0,0,1.63-6.28c-.49-5.78-1.42-11.51-1.79-17.3-.31-4.88,1.24-7.2,5.95-8.87,5.48.63,7.29,2.26,8,7.95.68,5.3,1.25,10.61,1.76,15.92,2.06,7.2-.85,13-5.25,18.32-1.85,2.26-2.74,5.31-5.51,6.83-5.23,8-9.37,8.49-15,0-5-4.48-8.06-10.26-11.11-16.05a6.82,6.82,0,0,1-.26-4c1.09-8.11,1.72-16.27,2.81-24.38.31-3.79,1-7.54,1.17-11.85-2.32.71-4.19,2.06-6.26,2.92-5.77,1.28-8.79-.56-9.95-6.4-1.51-7.57-2.6-15.22-3.9-22.83-.88-5.18-1.75-5.68-6.6-3.36-10.73,5.13-16.45,13.74-17.14,25.59-.26,4.47.06,9-.09,13.45-.11,3.14,1.29,4.23,4.25,4.08,2.49-.13,5-.11,7.47,0,2.72.1,4.33-.79,4.13-3.8a8.83,8.83,0,0,1,.28-2.6,6.92,6.92,0,0,1,13.5-.06,14.94,14.94,0,0,1,.32,3.71q0,20.55,0,41.11c0,1.61.12,3.26-1,4.64-.51,3.43-2.3,5.79-5.91,5.87-3.82.09-5.67-2.34-6.26-5.91-1.19-1.48-1-3.26-1-5,0-6.44,0-12.88,0-19.32,0-4-.47-4.4-4.55-4.47-2.6,0-5.2,0-7.8,0-1.21,0-2.57-.29-3,1.37-.48,7.34-.07,14.68-.22,22,0,1.85.22,3.77-1.06,5.37-1.18,4.34-3.49,6.36-6.81,5.94S0,355.06,0,350.66c0-19.07,0-38.14,0-57.21.06-23.94,16.73-41.58,40.61-43.09a10.48,10.48,0,0,0,1.17-.22c-.15-.4-.18-.79-.39-1C30,237.4,29.14,222.73,30.07,207.64c.2-3.3,2.72-4.85,5.86-5.31,4-.66,6.57,1.53,6.9,6.06.31,4.22,0,8.47.12,12.7a29.06,29.06,0,0,0,29.47,28.2,27.85,27.85,0,0,0,16.63-5.84c7.72-6,11.48-13.92,11.6-23.6.09-7.84,0-15.69,0-23.54,0-4.39-.31-4.7-4.64-4.72-9.47-.06-18.93,0-28.4,0-8.78.15-17.57.15-26.35.11C39.44,191.65,37.53,191.87,35.94,190.59Z"/><path class="cls-1" d="M152.28,47.56a13.64,13.64,0,0,1,1.46-5Q163,23.87,172.22,5.1c1.34-2.74,3-5,6.28-5.1,3.48-.06,5.2,2.25,6.61,5.15,5.49,11.3,11.14,22.52,16.64,33.82a4.39,4.39,0,0,0,3.82,2.81c12.83,1.77,25.63,3.78,38.45,5.61,3,.43,5.24,1.51,6.17,4.55s-.63,5-2.58,6.91c-9,8.78-18,17.63-27.1,26.32a5.83,5.83,0,0,0-2,5.87c2.18,12.13,4.19,24.3,6.34,36.43.55,3.08.93,6-2,8.17s-5.59,1-8.36-.49c-11-5.84-22.05-11.53-33-17.44a5.29,5.29,0,0,0-5.77,0c-11.06,6-22.25,11.69-33.34,17.58-2.71,1.44-5.34,2.28-8,.31s-2.55-4.53-2-7.42c2.2-12.5,4.22-25,6.49-37.54a5,5,0,0,0-1.71-5.19c-9.17-8.81-18.2-17.76-27.36-26.59-2.13-2.06-3.54-4.29-2.57-7.27s3.42-3.88,6.39-4.26c7.4-.95,14.78-2.15,22.16-3.29,5-.77,6.63.12,8.76,4.78,1.1,3.94-.74,6.72-5.08,7.74-3.48.82-7.16.65-11.19,2.19,4,4,7.43,7.85,11.42,11.18,3.55,3,6.72,6.32,10,9.55a9.46,9.46,0,0,1,2.72,9.21c-1.85,9.4-3.28,18.87-4.93,29a146.35,146.35,0,0,0,13.73-6.85c4.33-2.5,8.86-4.57,13.27-6.89a9.11,9.11,0,0,1,8.93.09c7.68,3.86,15.18,8.09,22.86,11.95,1,.48,1.76,1.44,3.21,1.14.52-1.57-.09-3.14-.35-4.67-1.29-7.62-2.35-15.28-3.94-22.85a10.79,10.79,0,0,1,3.38-10.81c5.21-5,10.28-10.17,15.34-15.34,1.54-1.61,3.36-2.92,5.3-4.68-3.49-1.71-7-1.53-10.34-2.07-6.26-1-12.56-1.88-18.85-2.72A10,10,0,0,1,191.78,48c-4.13-8.51-8.35-17-12.9-25.8-2,2.24-2.7,4.76-3.93,7-3.14,6.07-6.1,12.22-9.19,18.32a13.51,13.51,0,0,1-3.76,5,5.69,5.69,0,0,1-6.65.33C153.42,51.68,151.43,50.4,152.28,47.56Z"/><path class="cls-2" d="M224.74,64.11c-5.29,5.27-10.46,10.66-15.92,15.76-2.8,2.62-3.46,5.42-2.79,9,1.85,10,3.5,20.06,5.37,30.91-3.14-1.61-5.61-2.85-8.06-4.14-6.61-3.47-13.25-6.87-19.78-10.49a8.92,8.92,0,0,0-9.46-.08c-9,5-18.2,9.63-28,14.8,1.15-6.84,2.18-13,3.23-19.16.78-4.54,1.56-9.07,2.38-13.6.53-2.91-.74-5-2.74-6.94-6.64-6.39-13.22-12.85-19.87-19.24a26,26,0,0,0-3.24-2.31l.79-1.07,11.29-1.73c4.72-.72,6-2.1,6.62-7l7.76-1.31c.79,2.87,2.38,4.95,5.56,5.21,3.39.29,5.17-1.83,6.53-4.56,3.27-6.54,6.59-13.05,9.89-19.58,2,2.17.64,4.56.23,6.75a28.87,28.87,0,0,0,2.8,18.82,28.62,28.62,0,0,0,37.28,13.24c2.15-1,4.2-2.17,6.37-3.11C222.15,63.81,223.4,62.91,224.74,64.11Z"/><path class="cls-1" d="M16.08,127.29C17.34,120,18.52,112.48,20,105a5.9,5.9,0,0,0-2-6.22C12.86,94.09,8,89.08,3,84.24c-2-1.92-3.55-4-2.68-6.89s3.11-4.18,6.14-4.57c7.29-.94,14.53-2.16,21.81-3.12a4.75,4.75,0,0,0,4.1-3.1c3-6.3,6.16-12.49,9.2-18.76,1.32-2.73,2.91-5,6.31-5s5.06,2.09,6.39,4.86c3,6.16,6.17,12.22,9,18.43a5.6,5.6,0,0,0,4.94,3.64c7.16.93,14.28,2.14,21.44,3.09,2.89.38,5,1.58,5.88,4.39s-.35,4.83-2.25,6.67C88.07,88.94,83,94.07,77.66,99a5.64,5.64,0,0,0-1.85,5.9c1.33,7.1,2.41,14.24,3.71,21.34.49,2.71,0,5-2.18,6.67-2.39,1.81-4.83,1.38-7.34,0-6.35-3.41-12.81-6.64-19.12-10.14a5.25,5.25,0,0,0-5.81,0c-6.53,3.62-13.15,7.07-19.82,10.41C20.42,135.55,15.72,132.56,16.08,127.29Z"/><path class="cls-1" d="M345.56,77.69c1.1-1,2.19-2,3.32-3,2.73-2.33,6.09-2.37,8.42-.12s2.6,5.94-.08,8.66c-5.34,5.4-10.78,10.71-16.35,15.87a5.41,5.41,0,0,0-1.72,5.6c1.3,7.1,2.4,14.23,3.71,21.32.53,2.84.12,5.23-2.3,7s-4.88,1.17-7.35-.16c-6.25-3.34-12.59-6.51-18.77-10a5.47,5.47,0,0,0-6.15-.07c-6.17,3.48-12.53,6.62-18.78,10-2.57,1.38-5.11,2.08-7.67.14-2.38-1.8-2.65-4.23-2.13-7,1.29-7,2.33-14,3.65-21,.45-2.41.12-4.14-1.8-5.91-5.22-4.81-10.19-9.89-15.3-14.83-2-1.91-3.48-4-2.57-6.91s3.2-4.11,6.21-4.49c6.91-.87,13.78-2,20.69-2.9a6.21,6.21,0,0,0,5.54-4c2.79-6.24,6-12.27,9-18.43,1.28-2.66,3-4.59,6.17-4.6s4.89,1.91,6.18,4.57c3.81,7.83,7.69,15.61,11.56,23.4a11.67,11.67,0,0,1,1.21,4.65c.79,3.21-1.5,4.53-3.74,5.53a6.59,6.59,0,0,1-7.88-2.52c-1.8-2.54-2.63-5.6-4.18-8.28-1-1.69-1.48-3.66-3.15-5.34-2,2-2.62,4.72-3.93,7-2.26,7.16-7.06,10.65-14.65,10.7a19.54,19.54,0,0,0-7.86,1.61,29.35,29.35,0,0,0,5.8,5.65c5.22,4,7.89,8.74,5.75,15.55a43,43,0,0,0-1.58,9.77,52.69,52.69,0,0,0,9.6-4.93,12.14,12.14,0,0,1,13.39-.25,70.84,70.84,0,0,0,9.95,5.27,74.22,74.22,0,0,0-2-11.75c-1-4.5,0-8.09,3.38-11.13A141.67,141.67,0,0,0,342.29,80,9.31,9.31,0,0,1,345.56,77.69Z"/><path class="cls-3" d="M270.13,325.17a27.59,27.59,0,0,1-.51,5.86,9.12,9.12,0,0,0,1.54,7.7c3.07,4.3,5.81,8.84,8.7,13.28l-34.35.12c0-17.19-.14-34.39,0-51.58,0-3.92-1-6.8-4.57-8.59-.22-.11-.41-.3-.64-.39-6.47-2.52-8.77-7.55-9.08-14.17a108.73,108.73,0,0,0-1.83-14c-.38-2.13,0-2.94,2.13-2.36,5.85,1.61,11.83,1.35,17.79,1.23,2.39-.05,3.27.92,3.62,3.16,1.41,8.94,3,17.85,4.38,26.79a7.88,7.88,0,0,0,3.08,5.27c-1.94,1.62-2.15,3.62-1.67,6,1.43,7.08,4.09,13.5,9.34,18.62A16.78,16.78,0,0,1,270.13,325.17Z"/><path class="cls-3" d="M42,352.13c0-15.59-.09-31.17-.06-46.76,0-3.18-.9-5.68-4.06-6.82-4.07-1.48-7.77,1.46-7.93,6.21-.19,5.43-.19,5.44-5.7,5.43-3.24,0-6.48,0-9.73,0-1.63,0-2.62-.35-2.54-2.26.32-7.45-1-15,.84-22.35,2.82-11.24,9.84-18.7,21.11-22.06,2.63-.79,3.19.1,3.56,2.49,1.33,8.59,2.83,17.14,4.35,25.69,1,5.87,3.46,7.37,9.12,5.86,3.12,2.48,3.78,6.46,5.84,9.58-.88,7.88-1.71,15.76-2.68,23.63-.37,2.95-.16,5.55,1.68,8.12,3,4.24,5.73,8.72,8.57,13.1Z"/><path class="cls-3" d="M245.36,148.53a17.16,17.16,0,0,0,2.3,5.24c8.21,8.16,18.12,11.89,29.67,11.71,9.58-.16,19.16,0,28.75,0a20.15,20.15,0,0,1,4.45.34c2.54,2.83,4,6.25,5.36,9.73,1,2.39.25,3.07-2.19,3-6.24-.1-12.47,0-18.71,0q-21.51,0-43,0c-10.57,0-18.45-7.86-18.5-18.36,0-3.87,0-7.73.07-11.6Z"/><path class="cls-4" d="M35.94,190.59H68.09c-.06,1.49-1.38,1.56-2.32,2-8,3.79-11.52,10-10.68,18.82a11.61,11.61,0,0,0,1.65,8.22c4.78,12.82,13.95,20.46,27.29,23.27,1.76.37,3.79,0,5.23,1.52-9.34,6.91-19.44,7.78-29.82,3.06-10.89-5-16.59-13.84-17.44-25.72-.29-4,0-7.95-.09-11.93,0-4.75-1.25-6.26-6-7.52C35.93,198.42,35.93,194.5,35.94,190.59Z"/><path class="cls-3" d="M79.34,352c2.27-3.52,4.18-7.34,6.88-10.48,3.73-4.32,3.92-9,2.94-14.14,7.5-.85,15-.36,22.52-.21a2.84,2.84,0,0,1,2,.93q0,12,0,24Z"/><path class="cls-5" d="M345.56,77.69c-4.89,5.17-9.94,10.18-15.3,14.86-7.26,3.24-13.46.77-18.64-4.23-4.64-4.48-7.24-10-4.83-16.8,1.33-2.92,2.66-5.84,4.21-9.26,2.48,3.32,3.6,6.83,5.35,10,.79,1.41,1.48,2.87,2.15,4.33,1.21,2.62,3.11,4.16,6.12,4,3.21-.21,4.8-2.24,5.61-5.11Z"/><path class="cls-3" d="M319.64,299.07c-2,2-2.43,4.4-2.42,7.15.06,15.31,0,30.61,0,45.91L294.83,352c2.93-4.52,5.83-9,8.81-13.54a8.65,8.65,0,0,0,1.74-4.37c4.62-.8,5.08-3.92,4.87-7.9-.29-5.18-.12-10.4-.05-15.6A13,13,0,0,1,315.33,300C316.57,299,317.89,297.82,319.64,299.07Z"/><path class="cls-6" d="M185.56,163.75c0,2.86.1,5.72,0,8.57-.15,3.74-2.7,6.23-6.08,6.15a5.86,5.86,0,0,1-5.81-6q-.19-8.94,0-17.88a5.94,5.94,0,0,1,11.87-.12C185.68,157.54,185.55,160.65,185.56,163.75Z"/><path class="cls-7" d="M198.17,184.53c-3-.05-4.84-1.07-6-3.29a5.24,5.24,0,0,1,.61-6.28c4.18-4.44,8.46-8.8,12.93-12.93,2.43-2.24,5.37-2,7.76.28s2.91,5.27.7,7.71c-4.25,4.69-8.88,9-13.44,13.46A3.62,3.62,0,0,1,198.17,184.53Z"/><path class="cls-7" d="M161.75,184.43a7.16,7.16,0,0,1-5-2.33c-3.58-3.62-7.23-7.17-10.77-10.82-2.87-3-3-6.4-.57-8.92s6-2.45,8.92.38c3.84,3.7,7.62,7.49,11.32,11.33a5.66,5.66,0,0,1,1.3,6.82A6.11,6.11,0,0,1,161.75,184.43Z"/><path class="cls-2" d="M12.11,352.09V323.66c1.52-1.16,2.9-.42,4.1.48,5.11,3.86,8.68,8.75,8.7,15.37C24.93,343.66,26,348,24,352Z"/><path class="cls-2" d="M347.07,323.66v28.43L335.21,352c-4-8.91-.4-22.12,7.48-27.49C344,323.6,345.33,322.42,347.07,323.66Z"/><path class="cls-4" d="M347.07,323.66c-5.12.62-11.94,8.69-11.86,15.71.05,4.2,0,8.4,0,12.6l-5.86.12q-.06-13.8-.11-27.61c0-1.07-.31-2.33,1.5-2.32,5.1,0,10.2,0,15.3,0C347.11,322.18,347.22,322.82,347.07,323.66Z"/><path class="cls-4" d="M24,352c-.48-6.11,1.26-12.42-1.37-18.32-2.1-4.72-5-8.79-10.49-10-.29-1.21.33-1.5,1.4-1.5,4.85,0,9.7.08,14.55,0,1.88,0,1.91,1,1.9,2.34-.07,9.2-.09,18.41-.13,27.61Z"/><path class="cls-2" d="M89.26,244.44c-14.76-1-25.59-7.86-32.13-21.26a6.81,6.81,0,0,1-1-3.54c1-.87,2.14-.32,3.21-.29,2.33.06,4.18-.78,5.11-3a4.67,4.67,0,0,0-1.08-5.48,4.94,4.94,0,0,0-6.17-.71c-.87.44-1.58,1.23-2.65,1.25-2.73-7,3.3-16.74,10.54-19.56,1-.39,2-.85,3-1.28l31.35-.12c1,0,2.39-.37,2.33,1.47-.41,11.79,1.23,23.69-.93,35.38A25.28,25.28,0,0,1,89.26,244.44Z"/><path class="cls-2" d="M283.58,190.6l31.35-.12c1,0,2.39-.37,2.32,1.47-.4,11.79,1.24,23.69-.93,35.37a25.28,25.28,0,0,1-11.57,17.12,7.63,7.63,0,0,1-4.35.61c-13.11-2.35-22.82-9.23-28.57-21.39-.59-1.23-1.22-2.49-.53-3.9,1.05-1.07,2.32-.44,3.5-.42,2.47,0,4.38-.88,5.22-3.28a4.61,4.61,0,0,0-1.41-5.37,5,5,0,0,0-6.18-.35c-.84.5-1.54,1.26-2.62,1.29-2.27-1.84-1.5-4.32-1.09-6.52C270.13,197.44,275.79,192,283.58,190.6Z"/><path class="cls-8" d="M113.64,328.12l-20.52,0a6.56,6.56,0,0,1-4-.76c-.57-5.27-1.24-10.54-1.67-15.82-.36-4.54-2.42-7.36-7.06-8a15.27,15.27,0,0,1-1.32-12.75c4.37,2.12,8.71,4.29,13.09,6.36,5,2.38,8.66.58,9.59-4.8,1.54-8.94,3-17.88,4.46-26.83.34-2.14,1-3.35,3.47-3.27,6.09.18,12.2.31,18.18-1.27,1.51-.4,2.32,0,2,1.89-1,6.75-2,13.51-2.82,20.29a6.82,6.82,0,0,1-4.32,5.95c-7.29,3.06-9.93,8.27-9.19,16.21C114.29,312.86,113.68,320.52,113.64,328.12Z"/><path class="cls-4" d="M214.08,258.39c1.77-.18,2.69.38,2.93,2.38q1.05,9.08,2.51,18.12c.33,2.1-.11,2.43-2,1.76-6.81-2.37-13.76-4.38-20.46-7-7.46-2.94-11.31-8.8-11.41-16.81-.14-11.59,0-23.18,0-34.77,0-4.83-2.08-7.5-5.81-7.62s-6.14,2.69-6.15,7.63c0,11.1,0,22.19,0,33.28,0,9.89-4.26,15.91-13.55,19.1-6,2.07-12,4-18,6.11-2.45.89-2.71.31-2.33-2,1-5.9,1.77-11.82,2.45-17.76.23-2,1.17-2.55,2.93-2.35,1.29.35,2,1.45,2.92,2.26,6.11,5.29,14.4,3.27,17.46-4.22a18.2,18.2,0,0,0,1.06-7c0-12,0-23.93,0-35.9a14.16,14.16,0,0,1,1-6.21,17.07,17.07,0,0,1,24.12,0,14,14,0,0,1,1,6.21c0,12,0,23.94,0,35.91a17,17,0,0,0,1.37,7.65c3.33,7,11.41,8.63,17.12,3.43C212.05,259.76,212.79,258.71,214.08,258.39Z"/><path class="cls-8" d="M319.64,299.07a11,11,0,0,0-8.35,10.85c-.08,6.07,0,12.16,0,18.24-.07,6.47,1.14,6-5.88,5.95-.77-6.66-1.56-13.31-2.31-20s-1.41-13-2.19-20.2l6.82,3.22c5.06,2.34,8.65.57,9.58-4.81,1.53-8.8,3.07-17.59,4.42-26.42.37-2.47,1.07-3.06,3.62-2.4,11.91,3.08,21.48,14.79,21.82,27.24.15,5.47-.09,11,.1,16.43.09,2.61-1,3.13-3.28,3-3.86-.15-7.72-.17-11.57,0-2.4.1-3.43-.6-3.2-3.12a13.33,13.33,0,0,0-.33-4.8C327.8,298.67,324.41,297.56,319.64,299.07Z"/><path class="cls-4" d="M283.58,190.6c-6.9,2.41-12,6.65-13.79,14-.57,2.27-.89,4.56.22,6.8a69.4,69.4,0,0,0,1.59,8.2c2,8.68,7.71,14.66,14.82,19.28a34.37,34.37,0,0,0,18.33,5.52c-9.23,6.89-19.29,7.75-29.58,3.19-10.81-4.79-16.91-13.54-17.6-25.31-.58-9.81-.11-19.69-.2-29.53,0-1.75.46-2.38,2.29-2.35C267.63,190.56,275.61,190.56,283.58,190.6Z"/><path class="cls-8" d="M52.36,162c14.34-13.27,37.68-8.36,46.43,9.76-.37,2.12-2.15,1.77-3.48,1.79-8.18.11-16.37.22-24.55,0a24.93,24.93,0,0,1-15.59-6.27C53.57,165.91,51.85,164.52,52.36,162Z"/><path class="cls-8" d="M310.53,165.78c-1,1.15-2.3.73-3.49.73-11.18,0-22.37.27-33.54-.07a35.3,35.3,0,0,1-23.64-9.36c-1-.91-2.19-1.73-2.2-3.31a22.32,22.32,0,0,0,6.61.81c11.09-.05,22.18-.15,33.26,0A28.64,28.64,0,0,1,310.53,165.78Z"/><path class="cls-3" d="M52.36,162c3.81,6.86,10.28,9.84,17.51,10.34,9,.64,18.19.17,27.29.13.54,0,1.08-.46,1.63-.71,3.33,6.74,3.33,6.74-3.87,6.74H46.44c-4.14,0-4.37-.26-2.74-4.17C45.67,169.6,48,165.09,52.36,162Z"/><path class="cls-9" d="M79.11,290.8l1.32,12.75c-5,2.68-5.47,3.54-4.91,9.38.52,5.41.89,10.85,1.75,16.2a7.61,7.61,0,0,1-2.39,7.28c-3.89.31-7.23-2.74-8.21-7.5q1.65-15.69,3.3-31.4c.29-2.71.75-5.4.94-8.12.14-2,.71-2.74,2.67-1.59S77.27,289.8,79.11,290.8Z"/><path class="cls-2" d="M167.53,207.38c0,14.94.12,29.88.05,44.82a12.49,12.49,0,0,1-9.91,12.38c-5.17,1.16-9.9-1.16-12.57-6.16l10.56-2c4.29-.81,5.94-2.7,6-7.13,0-9.58,0-19.16,0-28.74C161.7,215.32,163.38,210.78,167.53,207.38Z"/><path class="cls-2" d="M214.08,258.39a11.48,11.48,0,0,1-13.33,6.1,12.92,12.92,0,0,1-9.16-12.29c-.06-14.94,0-29.88.06-44.81,4.15,3.39,5.82,7.94,5.87,13.12.08,9.46,0,18.91,0,28.37,0,4.9,1.53,6.65,6.34,7.54C207.29,257.05,210.69,257.73,214.08,258.39Z"/><path class="cls-10" d="M282.15,328.91c1.11-10.52,2.17-21.05,3.36-31.56.38-3.38.24-6.87,1.69-10.59,1.39,1.65,1.2,3.35,1.36,4.8,1.52,13.11,2.88,26.24,4.38,39.36.28,2.48-1.32,3.85-2.57,5.49C286.47,336.71,283.14,333.67,282.15,328.91Z"/><path class="cls-8" d="M270.13,325.17c-7.91-6-11.3-14.36-12.69-23.79-.31-2.12,0-4.11,2.94-3.9,2.63,1.36,5,.59,7.41-.71,1.83-1,3.74-1.84,6.14-3C272.62,304.61,271.37,314.89,270.13,325.17Z"/><path class="cls-11" d="M51.05,267.56c3.06,3.2,6.09,6.44,9.2,9.59,1.11,1.12,1,1.75-.39,2.42-2.34,1.08-4.64,2.26-7.33,3.59-.9-5.25-1.73-10.17-2.57-15.09Z"/><path class="cls-11" d="M93.73,268.09q-1.16,6.72-2.33,13.45c-.09.54-.1,1.55-.91,1.19a70.87,70.87,0,0,1-7.58-3.84c-.92-.55.13-1.26.58-1.74q4.58-4.81,9.18-9.6Z"/><path class="cls-11" d="M266.51,267.55c3.06,3.19,6.09,6.42,9.2,9.57,1.05,1.07,1.19,1.8-.33,2.42a2,2,0,0,0-.33.15c-6.76,4-6.78,4-8.24-3.62-.5-2.65-.89-5.32-1.32-8Z"/><path class="cls-11" d="M306.7,283a44.3,44.3,0,0,1-8.36-4.1l11-11.53C308.37,273,307.55,277.87,306.7,283Z"/><path class="cls-12" d="M77.23,266.12c-5.09,5.95-5.08,5.94-10.42.64-1.55-1.53-3.19-3-4.78-4.45l.49-.84,7.87.93C72.85,263.31,75.75,263.41,77.23,266.12Z"/><path class="cls-12" d="M292.72,266.12c-5.1,5.95-5.08,5.94-10.42.64-1.55-1.53-3.19-3-4.79-4.45l.5-.84,7.86.94C288.34,263.31,291.24,263.41,292.72,266.12Z"/><path class="cls-13" d="M56.8,307.16c-3.3-2.37-3.82-6.43-5.84-9.58l7.38-3.88Z"/><path class="cls-14" d="M66.67,328.91c1.94,3.38,4.09,6.52,8.21,7.5-2.84,5.2-2.83,5.19-6,.48C67.24,334.47,65.17,332.19,66.67,328.91Z"/><path class="cls-14" d="M282.15,328.91c1.94,3.38,4.1,6.51,8.22,7.5-2.85,5.2-2.83,5.19-6,.48C282.73,334.47,280.66,332.19,282.15,328.91Z"/><path class="cls-15" d="M77.23,266.12l-6.84-3.72,11.07-.86A13.58,13.58,0,0,1,77.23,266.12Z"/><path class="cls-15" d="M292.72,266.12q-3.42-1.86-6.85-3.71l11.08-.87A13.58,13.58,0,0,1,292.72,266.12Z"/><path class="cls-5" d="M224.74,64.11c-3.45.44-6.14,2.62-9.17,4a29.81,29.81,0,0,1-42.13-22.18A37.63,37.63,0,0,1,174,32.7a16.94,16.94,0,0,0,.27-4.07c1.33-2.93,2.66-5.86,4-8.85,1.65.9,1.89,2.5,2.53,3.77Q187,35.9,193,48.33a7.49,7.49,0,0,0,6.23,4.61c10.56,1.45,21.09,3.08,32.11,4.71A40.44,40.44,0,0,1,224.74,64.11Z"/><path class="cls-2" d="M67,92.57c-3.77,3.12-4.68,6.92-3.41,11.66,1.08,4,1.5,8.28,2.29,12.89-4.76-2.49-9.18-4.68-13.49-7.08a8.21,8.21,0,0,0-8.79,0c-4.32,2.45-8.78,4.63-13.56,7.12.88-5.28,1.52-10.2,2.58-15,.76-3.46-.2-6-2.65-8.37-3.46-3.38-6.73-7-10.36-10.76,3-.44,5.94-1.23,8.92-1.26,7.37-.06,12.55-3,15-10.21,1.22,1.19.88,2.76,1,4.21,1,10.11,8.94,16.82,19.08,16.07C64.76,91.72,66,91.36,67,92.57Z"/><path class="cls-5" d="M67,92.57c-2.67-.53-5.23.5-8.05.16-9.17-1.12-16.23-10.61-15.49-19,.06-.75,0-1.5,0-2.25,1.33-2.92,2.66-5.85,4.39-9.68,2.28,4.62,4.47,8.43,6.09,12.47,1.8,4.5,4.85,6.55,9.59,6.9,4.19.31,8.35,1.12,13.5,1.85Z"/><path class="cls-2" d="M306.79,71.52c-.55,7.75,1.79,14.22,8.54,18.57a16.48,16.48,0,0,0,12,2.63,26.39,26.39,0,0,1,2.95-.17c-3.77,3.13-4.6,7-3.35,11.68,1.07,4,1.5,8.28,2.29,12.88-4.76-2.48-9.19-4.67-13.5-7.08a8.22,8.22,0,0,0-8.78,0c-4.31,2.46-8.78,4.63-13.56,7.12.88-5.28,1.52-10.19,2.58-15a8.22,8.22,0,0,0-2.65-8.37c-3.46-3.38-6.72-7-10.36-10.76,3-.44,5.94-1.24,8.91-1.27C299.22,81.67,304.4,78.71,306.79,71.52Z"/><path class="cls-16" d="M54.53,211.44c1.95-2.4,4.28-3.77,7.46-2.56a5.57,5.57,0,0,1,3.8,5,5.82,5.82,0,0,1-3.23,5.8c-2.22,1.31-4.3.22-6.45-.08C54.21,217.17,53.19,214.53,54.53,211.44Z"/><path class="cls-17" d="M84,220.38a6,6,0,1,1,5.83-6A6,6,0,0,1,84,220.38Z"/><path class="cls-16" d="M271.6,219.64c-1.91-2.47-2.92-5.11-1.59-8.2,2-2.4,4.29-3.77,7.46-2.56a5.6,5.6,0,0,1,3.81,5,5.84,5.84,0,0,1-3.23,5.8C275.83,221,273.74,219.94,271.6,219.64Z"/><path class="cls-17" d="M305.26,214.38a6,6,0,1,1-5.91-5.93A6,6,0,0,1,305.26,214.38Z"/></g></g></svg>